G04 MADE WITH FRITZING*
G04 WWW.FRITZING.ORG*
G04 DOUBLE SIDED*
G04 HOLES PLATED*
G04 CONTOUR ON CENTER OF CONTOUR VECTOR*
%ASAXBY*%
%FSLAX23Y23*%
%MOIN*%
%OFA0B0*%
%SFA1.0B1.0*%
%ADD10C,0.088000*%
%ADD11C,0.085000*%
%ADD12C,0.070000*%
%ADD13C,0.260000*%
%ADD14C,0.261968*%
%ADD15C,0.057244*%
%ADD16R,0.088000X0.088000*%
%LNMASK1*%
G90*
G70*
G54D10*
X2009Y104D03*
X2109Y104D03*
X2209Y104D03*
X2309Y104D03*
X2409Y104D03*
X2509Y104D03*
X1113Y105D03*
X1213Y105D03*
X1313Y105D03*
X1413Y105D03*
X1513Y105D03*
X1613Y105D03*
X1713Y105D03*
X1813Y105D03*
X1613Y332D03*
X1713Y332D03*
X1813Y332D03*
G54D11*
X1128Y248D03*
X872Y248D03*
X1128Y425D03*
X872Y425D03*
G54D10*
X1808Y2004D03*
X1908Y2004D03*
X2008Y2004D03*
X2108Y2004D03*
X2208Y2004D03*
X2308Y2004D03*
X2408Y2004D03*
X2508Y2004D03*
X757Y2003D03*
X857Y2003D03*
X957Y2003D03*
X1057Y2003D03*
X1157Y2003D03*
X1257Y2003D03*
X1357Y2003D03*
X1457Y2003D03*
X1557Y2003D03*
X1657Y2003D03*
X1549Y1743D03*
X1549Y1643D03*
X1549Y1543D03*
X1417Y1742D03*
X1417Y1642D03*
X1417Y1542D03*
X1287Y1743D03*
X1287Y1643D03*
X1287Y1543D03*
X1156Y1743D03*
X1156Y1643D03*
X1156Y1543D03*
G54D12*
X2311Y1433D03*
X2311Y1325D03*
X2311Y1217D03*
X2311Y1109D03*
X2311Y1001D03*
X2311Y893D03*
X2311Y785D03*
X2311Y677D03*
X2423Y1379D03*
X2423Y1271D03*
X2423Y1163D03*
X2423Y1055D03*
X2423Y947D03*
X2423Y839D03*
X2423Y731D03*
G54D13*
X2367Y407D03*
X2367Y1703D03*
G54D14*
X2367Y1703D03*
X2367Y406D03*
G54D15*
X2072Y1470D03*
X2072Y1411D03*
X2072Y1352D03*
X2072Y1293D03*
X2072Y1234D03*
X2072Y1175D03*
X2072Y1115D03*
X2072Y1056D03*
X2072Y997D03*
X2072Y938D03*
X2072Y879D03*
X2072Y820D03*
X2072Y761D03*
X2072Y702D03*
X2072Y643D03*
X628Y1470D03*
X628Y1411D03*
X628Y1352D03*
X628Y1293D03*
X628Y1234D03*
X628Y1175D03*
X628Y1115D03*
X628Y1056D03*
X628Y997D03*
X628Y938D03*
X628Y879D03*
X628Y820D03*
X628Y761D03*
X628Y702D03*
X628Y643D03*
G54D12*
X396Y676D03*
X396Y784D03*
X396Y892D03*
X396Y1000D03*
X396Y1108D03*
X396Y1216D03*
X396Y1324D03*
X396Y1432D03*
X284Y730D03*
X284Y838D03*
X284Y946D03*
X284Y1054D03*
X284Y1162D03*
X284Y1270D03*
X284Y1378D03*
G54D13*
X340Y1702D03*
X340Y406D03*
G54D14*
X342Y1700D03*
X339Y406D03*
G54D16*
X1613Y332D03*
X1549Y1743D03*
X1417Y1742D03*
X1287Y1743D03*
X1156Y1743D03*
G04 End of Mask1*
M02*