<?xml version="1.0" encoding="utf-8"?>
<!-- Generator: Adobe Illustrator 16.0.0, SVG Export Plug-In . SVG Version: 6.00 Build 0)  -->
<!DOCTYPE svg PUBLIC "-//W3C//DTD SVG 1.1//EN" "http://www.w3.org/Graphics/SVG/1.1/DTD/svg11.dtd">
<svg version="1.1" id="Layer_1" xmlns="http://www.w3.org/2000/svg" xmlns:xlink="http://www.w3.org/1999/xlink" x="0px" y="0px"
	 width="255.69px" height="255.69px" viewBox="0 0 255.69 255.69" enable-background="new 0 0 255.69 255.69" xml:space="preserve">
<g id="board">
	<polygon id="boardoutline" fill="#FFFFFF" fill-opacity="0.5"
		points="102.332,99.212 102.331,0 0,0 0,224.504 16.16,224.504 16.16,255.685
		        239.529,255.685 239.529,224.504 255.686,224.504 255.686,99.212"/>
</g>
<g id="silkscreen">
	<polygon fill="none" stroke="#444444"
		points="102.332,99.212 102.331,0 0,0 0,224.504 16.16,224.504 16.16,255.685
		        239.529,255.685 239.529,224.504 255.686,224.504 255.686,99.212"/>
	<circle fill="none" stroke="#444444" cx="23.244" cy="23.244" r="8.221"/>
	<circle fill="none" stroke="#444444" cx="232.441" cy="141.731" r="8.221"/>
	<rect x="50.174" y="12.189" fill="none" stroke="#444444" width="42.52" height="21.26"/>
	<rect x="54.426" y="14.882" fill="none" stroke="#444444" width="34.016" height="15.874"/>
</g>
<g id="silkscreen0">
	<polygon fill="none" stroke="#111111"
		points="102.332,99.212 102.331,0 0,0 0,224.504 16.16,224.504 16.16,255.685
		        239.529,255.685 239.529,224.504 255.686,224.504 255.686,99.212"/>
	<circle fill="none" stroke="#111111" cx="23.244" cy="23.244" r="8.221"/>
	<circle fill="none" stroke="#111111" cx="232.441" cy="141.731" r="8.221"/>
	<rect x="50.174" y="12.189" fill="none" stroke="#444444" width="42.52" height="21.26"/>
	<rect x="54.426" y="14.882" fill="none" stroke="#444444" width="34.016" height="15.874"/>
</g>
</svg>
