G04 MADE WITH FRITZING*
G04 WWW.FRITZING.ORG*
G04 DOUBLE SIDED*
G04 HOLES PLATED*
G04 CONTOUR ON CENTER OF CONTOUR VECTOR*
%ASAXBY*%
%FSLAX23Y23*%
%MOIN*%
%OFA0B0*%
%SFA1.0B1.0*%
%ADD10C,0.070000*%
%ADD11C,0.260000*%
%ADD12C,0.261968*%
%ADD13C,0.097695*%
%ADD14C,0.097722*%
%ADD15C,0.054000*%
%ADD16C,0.085000*%
%ADD17C,0.080000*%
%ADD18C,0.092000*%
%ADD19C,0.049370*%
%ADD20R,0.085000X0.085000*%
%ADD21R,0.092000X0.092000*%
%LNMASK0*%
G90*
G70*
G54D10*
X426Y487D03*
X426Y595D03*
X426Y703D03*
X426Y811D03*
X426Y919D03*
X426Y1027D03*
X426Y1135D03*
X426Y1243D03*
X314Y541D03*
X314Y649D03*
X314Y757D03*
X314Y865D03*
X314Y973D03*
X314Y1081D03*
X314Y1189D03*
G54D11*
X370Y1513D03*
X370Y217D03*
G54D12*
X370Y1513D03*
X370Y217D03*
G54D13*
X1117Y1393D03*
G54D14*
X921Y1196D03*
X921Y1294D03*
G54D13*
X921Y1491D03*
G54D14*
X921Y1589D03*
G54D15*
X1216Y1196D03*
X1216Y1589D03*
X1117Y1589D03*
X921Y1393D03*
X1117Y1196D03*
G54D13*
X1117Y341D03*
G54D14*
X921Y144D03*
X921Y242D03*
G54D13*
X921Y439D03*
G54D14*
X921Y537D03*
G54D15*
X1216Y144D03*
X1216Y538D03*
X1117Y538D03*
X921Y341D03*
X1117Y144D03*
G54D16*
X574Y715D03*
X574Y1015D03*
X674Y715D03*
X674Y1015D03*
X774Y715D03*
X774Y1015D03*
X874Y715D03*
X874Y1015D03*
X974Y715D03*
X974Y1015D03*
X1074Y715D03*
X1074Y1015D03*
X1174Y715D03*
X1174Y1015D03*
G54D17*
X560Y1288D03*
X560Y1188D03*
G54D16*
X662Y1188D03*
X662Y1588D03*
X762Y1188D03*
X762Y1588D03*
G54D18*
X571Y304D03*
X571Y602D03*
G54D17*
X571Y204D03*
X571Y103D03*
G54D16*
X673Y205D03*
X673Y605D03*
X773Y204D03*
X773Y604D03*
G54D17*
X671Y103D03*
X771Y103D03*
G54D19*
X197Y416D03*
G54D20*
X574Y715D03*
G54D21*
X571Y303D03*
G04 End of Mask0*
M02*