; NON-PLATED HOLES START AT T1
; THROUGH (PLATED) HOLES START AT T100
M48
INCH
T1C0.044000
T100C0.053000
T101C0.125984
T102C0.125000
T103C0.052972
T104C0.015748
T105C0.030000
T106C0.042000
T107C0.035000
%
T1
X009206Y013925
X011174Y015893
X011174Y001438
X012158Y011957
X012158Y005375
X011174Y005375
X011174Y011957
X012158Y001438
X012158Y015893
X009206Y003406
T100
X009206Y015893
X009206Y001438
X009206Y002422
X009206Y012941
X009206Y011957
X009206Y005374
T101
X003703Y002170
X003703Y015132
T102
X003696Y015132
X003696Y002172
T103
X009206Y004390
X011174Y013925
X011174Y003406
X009206Y014909
T104
X001969Y004163
T105
X005707Y002036
X005595Y011881
X007713Y001030
X005707Y001034
X006711Y001030
X005595Y012883
T106
X005713Y006017
X005713Y003037
T107
X006729Y002047
X007727Y006041
X003136Y009732
X006737Y010148
X007737Y007148
X004256Y005952
X003136Y006492
X004256Y004872
X004256Y010272
X006618Y011881
X003136Y010812
X009737Y007148
X008737Y007148
X004256Y011352
X004256Y008112
X004256Y009192
X007624Y011883
X006618Y015881
X003136Y008652
X003136Y007572
X007737Y010148
X010737Y007148
X006737Y007148
X009737Y010148
X010737Y010148
X008737Y010148
X006729Y006047
X005737Y010148
X011737Y010148
X011737Y007148
X005737Y007148
X007624Y015883
X003136Y011892
X004256Y012432
X004256Y007032
X007727Y002041
X003136Y005412
T00
M30
