G04 MADE WITH FRITZING*
G04 WWW.FRITZING.ORG*
G04 DOUBLE SIDED*
G04 HOLES PLATED*
G04 CONTOUR ON CENTER OF CONTOUR VECTOR*
%ASAXBY*%
%FSLAX23Y23*%
%MOIN*%
%OFA0B0*%
%SFA1.0B1.0*%
%ADD10C,0.010000*%
%ADD11C,0.020000*%
%ADD12C,0.006944*%
%ADD13R,0.001000X0.001000*%
%LNSILK1*%
G90*
G70*
G54D10*
X35Y1633D02*
X35Y97D01*
G54D11*
D02*
X35Y1403D02*
X140Y1403D01*
D02*
X140Y1403D02*
X140Y327D01*
D02*
X140Y327D02*
X35Y327D01*
G54D10*
D02*
X35Y327D02*
X35Y1403D01*
G54D11*
D02*
X386Y487D02*
X140Y487D01*
D02*
X386Y595D02*
X140Y595D01*
D02*
X386Y703D02*
X140Y703D01*
D02*
X386Y811D02*
X140Y811D01*
D02*
X386Y919D02*
X140Y919D01*
D02*
X386Y1027D02*
X140Y1027D01*
D02*
X386Y1135D02*
X140Y1135D01*
D02*
X386Y1243D02*
X140Y1243D01*
D02*
X274Y541D02*
X140Y541D01*
D02*
X274Y649D02*
X140Y649D01*
D02*
X274Y757D02*
X140Y757D01*
D02*
X274Y865D02*
X140Y865D01*
D02*
X274Y973D02*
X140Y973D01*
D02*
X274Y1081D02*
X140Y1081D01*
D02*
X274Y1189D02*
X140Y1189D01*
G54D12*
D02*
X822Y1156D02*
X822Y1629D01*
D02*
X1255Y1156D02*
X1255Y1215D01*
D02*
X1255Y1570D02*
X1255Y1629D01*
D02*
X1255Y1156D02*
X980Y1156D01*
D02*
X822Y1156D02*
X862Y1156D01*
D02*
X1255Y1156D02*
X1255Y1629D01*
D02*
X1255Y1629D02*
X980Y1629D01*
D02*
X822Y1629D02*
X862Y1629D01*
D02*
X822Y105D02*
X822Y577D01*
D02*
X1255Y105D02*
X1255Y164D01*
D02*
X1255Y518D02*
X1255Y577D01*
D02*
X1255Y105D02*
X980Y105D01*
D02*
X822Y105D02*
X862Y105D01*
D02*
X1255Y105D02*
X1255Y577D01*
D02*
X1255Y577D02*
X980Y577D01*
D02*
X822Y577D02*
X862Y577D01*
G54D10*
D02*
X524Y665D02*
X1224Y665D01*
D02*
X1224Y665D02*
X1224Y1065D01*
D02*
X1224Y1065D02*
X524Y1065D01*
D02*
X524Y665D02*
X524Y815D01*
D02*
X524Y915D02*
X524Y1065D01*
D02*
X629Y1298D02*
X629Y1498D01*
D02*
X629Y1498D02*
X695Y1498D01*
D02*
X695Y1498D02*
X695Y1298D01*
D02*
X695Y1298D02*
X629Y1298D01*
D02*
X729Y1298D02*
X729Y1498D01*
D02*
X729Y1498D02*
X795Y1498D01*
D02*
X795Y1498D02*
X795Y1298D01*
D02*
X795Y1298D02*
X729Y1298D01*
D02*
X526Y358D02*
X526Y553D01*
D02*
X616Y553D02*
X616Y358D01*
D02*
X616Y358D02*
X526Y358D01*
G54D11*
D02*
X616Y378D02*
X526Y378D01*
G54D10*
D02*
X640Y314D02*
X640Y514D01*
D02*
X640Y514D02*
X706Y514D01*
D02*
X706Y514D02*
X706Y314D01*
D02*
X706Y314D02*
X640Y314D01*
D02*
X740Y314D02*
X740Y514D01*
D02*
X740Y514D02*
X806Y514D01*
D02*
X806Y514D02*
X806Y314D01*
D02*
X806Y314D02*
X740Y314D01*
G54D13*
X0Y1732D02*
X1258Y1732D01*
X0Y1731D02*
X1258Y1731D01*
X0Y1730D02*
X1258Y1730D01*
X0Y1729D02*
X1258Y1729D01*
X0Y1728D02*
X1258Y1728D01*
X0Y1727D02*
X1258Y1727D01*
X0Y1726D02*
X1258Y1726D01*
X0Y1725D02*
X1258Y1725D01*
X0Y1724D02*
X7Y1724D01*
X1251Y1724D02*
X1258Y1724D01*
X0Y1723D02*
X7Y1723D01*
X1251Y1723D02*
X1258Y1723D01*
X0Y1722D02*
X7Y1722D01*
X1251Y1722D02*
X1258Y1722D01*
X0Y1721D02*
X7Y1721D01*
X1251Y1721D02*
X1258Y1721D01*
X0Y1720D02*
X7Y1720D01*
X1251Y1720D02*
X1258Y1720D01*
X0Y1719D02*
X7Y1719D01*
X1251Y1719D02*
X1258Y1719D01*
X0Y1718D02*
X7Y1718D01*
X1251Y1718D02*
X1258Y1718D01*
X0Y1717D02*
X7Y1717D01*
X1251Y1717D02*
X1258Y1717D01*
X0Y1716D02*
X7Y1716D01*
X1251Y1716D02*
X1258Y1716D01*
X0Y1715D02*
X7Y1715D01*
X1251Y1715D02*
X1258Y1715D01*
X0Y1714D02*
X7Y1714D01*
X1251Y1714D02*
X1258Y1714D01*
X0Y1713D02*
X7Y1713D01*
X1251Y1713D02*
X1258Y1713D01*
X0Y1712D02*
X7Y1712D01*
X1251Y1712D02*
X1258Y1712D01*
X0Y1711D02*
X7Y1711D01*
X1251Y1711D02*
X1258Y1711D01*
X0Y1710D02*
X7Y1710D01*
X1251Y1710D02*
X1258Y1710D01*
X0Y1709D02*
X7Y1709D01*
X1251Y1709D02*
X1258Y1709D01*
X0Y1708D02*
X7Y1708D01*
X1251Y1708D02*
X1258Y1708D01*
X0Y1707D02*
X7Y1707D01*
X1251Y1707D02*
X1258Y1707D01*
X0Y1706D02*
X7Y1706D01*
X1251Y1706D02*
X1258Y1706D01*
X0Y1705D02*
X7Y1705D01*
X1251Y1705D02*
X1258Y1705D01*
X0Y1704D02*
X7Y1704D01*
X1251Y1704D02*
X1258Y1704D01*
X0Y1703D02*
X7Y1703D01*
X996Y1703D02*
X997Y1703D01*
X1024Y1703D02*
X1024Y1703D01*
X1044Y1703D02*
X1068Y1703D01*
X1097Y1703D02*
X1124Y1703D01*
X1144Y1703D02*
X1177Y1703D01*
X1194Y1703D02*
X1225Y1703D01*
X1251Y1703D02*
X1258Y1703D01*
X0Y1702D02*
X7Y1702D01*
X995Y1702D02*
X998Y1702D01*
X1022Y1702D02*
X1026Y1702D01*
X1044Y1702D02*
X1071Y1702D01*
X1095Y1702D02*
X1126Y1702D01*
X1144Y1702D02*
X1178Y1702D01*
X1194Y1702D02*
X1227Y1702D01*
X1251Y1702D02*
X1258Y1702D01*
X0Y1701D02*
X7Y1701D01*
X994Y1701D02*
X999Y1701D01*
X1021Y1701D02*
X1027Y1701D01*
X1044Y1701D02*
X1073Y1701D01*
X1094Y1701D02*
X1127Y1701D01*
X1144Y1701D02*
X1178Y1701D01*
X1194Y1701D02*
X1227Y1701D01*
X1251Y1701D02*
X1258Y1701D01*
X0Y1700D02*
X7Y1700D01*
X994Y1700D02*
X999Y1700D01*
X1021Y1700D02*
X1027Y1700D01*
X1044Y1700D02*
X1074Y1700D01*
X1094Y1700D02*
X1127Y1700D01*
X1144Y1700D02*
X1178Y1700D01*
X1194Y1700D02*
X1228Y1700D01*
X1251Y1700D02*
X1258Y1700D01*
X0Y1699D02*
X7Y1699D01*
X993Y1699D02*
X1000Y1699D01*
X1021Y1699D02*
X1027Y1699D01*
X1044Y1699D02*
X1075Y1699D01*
X1094Y1699D02*
X1127Y1699D01*
X1144Y1699D02*
X1178Y1699D01*
X1194Y1699D02*
X1228Y1699D01*
X1251Y1699D02*
X1258Y1699D01*
X0Y1698D02*
X7Y1698D01*
X993Y1698D02*
X1000Y1698D01*
X1021Y1698D02*
X1027Y1698D01*
X1044Y1698D02*
X1076Y1698D01*
X1094Y1698D02*
X1127Y1698D01*
X1144Y1698D02*
X1178Y1698D01*
X1194Y1698D02*
X1227Y1698D01*
X1251Y1698D02*
X1258Y1698D01*
X0Y1697D02*
X7Y1697D01*
X993Y1697D02*
X1000Y1697D01*
X1021Y1697D02*
X1027Y1697D01*
X1044Y1697D02*
X1076Y1697D01*
X1095Y1697D02*
X1126Y1697D01*
X1144Y1697D02*
X1178Y1697D01*
X1194Y1697D02*
X1226Y1697D01*
X1251Y1697D02*
X1258Y1697D01*
X0Y1696D02*
X7Y1696D01*
X993Y1696D02*
X1000Y1696D01*
X1021Y1696D02*
X1027Y1696D01*
X1044Y1696D02*
X1050Y1696D01*
X1068Y1696D02*
X1077Y1696D01*
X1107Y1696D02*
X1114Y1696D01*
X1144Y1696D02*
X1150Y1696D01*
X1157Y1696D02*
X1164Y1696D01*
X1171Y1696D02*
X1178Y1696D01*
X1194Y1696D02*
X1201Y1696D01*
X1251Y1696D02*
X1258Y1696D01*
X0Y1695D02*
X7Y1695D01*
X993Y1695D02*
X1000Y1695D01*
X1021Y1695D02*
X1027Y1695D01*
X1044Y1695D02*
X1050Y1695D01*
X1070Y1695D02*
X1077Y1695D01*
X1108Y1695D02*
X1114Y1695D01*
X1144Y1695D02*
X1150Y1695D01*
X1158Y1695D02*
X1164Y1695D01*
X1172Y1695D02*
X1178Y1695D01*
X1194Y1695D02*
X1200Y1695D01*
X1251Y1695D02*
X1258Y1695D01*
X0Y1694D02*
X7Y1694D01*
X993Y1694D02*
X1000Y1694D01*
X1021Y1694D02*
X1027Y1694D01*
X1044Y1694D02*
X1050Y1694D01*
X1071Y1694D02*
X1077Y1694D01*
X1108Y1694D02*
X1114Y1694D01*
X1144Y1694D02*
X1150Y1694D01*
X1158Y1694D02*
X1164Y1694D01*
X1172Y1694D02*
X1178Y1694D01*
X1194Y1694D02*
X1200Y1694D01*
X1251Y1694D02*
X1258Y1694D01*
X0Y1693D02*
X7Y1693D01*
X993Y1693D02*
X1000Y1693D01*
X1021Y1693D02*
X1027Y1693D01*
X1044Y1693D02*
X1050Y1693D01*
X1071Y1693D02*
X1077Y1693D01*
X1108Y1693D02*
X1114Y1693D01*
X1144Y1693D02*
X1150Y1693D01*
X1158Y1693D02*
X1164Y1693D01*
X1172Y1693D02*
X1177Y1693D01*
X1194Y1693D02*
X1200Y1693D01*
X1251Y1693D02*
X1258Y1693D01*
X0Y1692D02*
X7Y1692D01*
X993Y1692D02*
X1000Y1692D01*
X1021Y1692D02*
X1027Y1692D01*
X1044Y1692D02*
X1050Y1692D01*
X1071Y1692D02*
X1077Y1692D01*
X1108Y1692D02*
X1114Y1692D01*
X1145Y1692D02*
X1150Y1692D01*
X1158Y1692D02*
X1164Y1692D01*
X1172Y1692D02*
X1177Y1692D01*
X1194Y1692D02*
X1200Y1692D01*
X1251Y1692D02*
X1258Y1692D01*
X0Y1691D02*
X7Y1691D01*
X993Y1691D02*
X1000Y1691D01*
X1021Y1691D02*
X1027Y1691D01*
X1044Y1691D02*
X1050Y1691D01*
X1071Y1691D02*
X1077Y1691D01*
X1108Y1691D02*
X1114Y1691D01*
X1145Y1691D02*
X1149Y1691D01*
X1158Y1691D02*
X1164Y1691D01*
X1173Y1691D02*
X1176Y1691D01*
X1194Y1691D02*
X1200Y1691D01*
X1251Y1691D02*
X1258Y1691D01*
X0Y1690D02*
X7Y1690D01*
X993Y1690D02*
X1000Y1690D01*
X1021Y1690D02*
X1027Y1690D01*
X1044Y1690D02*
X1050Y1690D01*
X1071Y1690D02*
X1077Y1690D01*
X1108Y1690D02*
X1114Y1690D01*
X1158Y1690D02*
X1164Y1690D01*
X1194Y1690D02*
X1200Y1690D01*
X1251Y1690D02*
X1258Y1690D01*
X0Y1689D02*
X7Y1689D01*
X993Y1689D02*
X1000Y1689D01*
X1021Y1689D02*
X1027Y1689D01*
X1044Y1689D02*
X1050Y1689D01*
X1071Y1689D02*
X1077Y1689D01*
X1108Y1689D02*
X1114Y1689D01*
X1158Y1689D02*
X1164Y1689D01*
X1194Y1689D02*
X1200Y1689D01*
X1251Y1689D02*
X1258Y1689D01*
X0Y1688D02*
X7Y1688D01*
X993Y1688D02*
X1000Y1688D01*
X1021Y1688D02*
X1027Y1688D01*
X1044Y1688D02*
X1050Y1688D01*
X1071Y1688D02*
X1077Y1688D01*
X1108Y1688D02*
X1114Y1688D01*
X1158Y1688D02*
X1164Y1688D01*
X1194Y1688D02*
X1200Y1688D01*
X1251Y1688D02*
X1258Y1688D01*
X0Y1687D02*
X7Y1687D01*
X993Y1687D02*
X1000Y1687D01*
X1021Y1687D02*
X1027Y1687D01*
X1044Y1687D02*
X1050Y1687D01*
X1070Y1687D02*
X1077Y1687D01*
X1108Y1687D02*
X1114Y1687D01*
X1158Y1687D02*
X1164Y1687D01*
X1194Y1687D02*
X1200Y1687D01*
X1251Y1687D02*
X1258Y1687D01*
X0Y1686D02*
X7Y1686D01*
X993Y1686D02*
X1000Y1686D01*
X1021Y1686D02*
X1027Y1686D01*
X1044Y1686D02*
X1050Y1686D01*
X1069Y1686D02*
X1077Y1686D01*
X1108Y1686D02*
X1114Y1686D01*
X1158Y1686D02*
X1164Y1686D01*
X1194Y1686D02*
X1200Y1686D01*
X1251Y1686D02*
X1258Y1686D01*
X0Y1685D02*
X7Y1685D01*
X993Y1685D02*
X1000Y1685D01*
X1009Y1685D02*
X1011Y1685D01*
X1021Y1685D02*
X1027Y1685D01*
X1044Y1685D02*
X1076Y1685D01*
X1108Y1685D02*
X1114Y1685D01*
X1158Y1685D02*
X1164Y1685D01*
X1194Y1685D02*
X1200Y1685D01*
X1251Y1685D02*
X1258Y1685D01*
X0Y1684D02*
X7Y1684D01*
X993Y1684D02*
X1000Y1684D01*
X1008Y1684D02*
X1012Y1684D01*
X1021Y1684D02*
X1027Y1684D01*
X1044Y1684D02*
X1076Y1684D01*
X1108Y1684D02*
X1114Y1684D01*
X1158Y1684D02*
X1164Y1684D01*
X1194Y1684D02*
X1200Y1684D01*
X1251Y1684D02*
X1258Y1684D01*
X0Y1683D02*
X7Y1683D01*
X993Y1683D02*
X1000Y1683D01*
X1007Y1683D02*
X1013Y1683D01*
X1021Y1683D02*
X1027Y1683D01*
X1044Y1683D02*
X1075Y1683D01*
X1108Y1683D02*
X1114Y1683D01*
X1158Y1683D02*
X1164Y1683D01*
X1194Y1683D02*
X1200Y1683D01*
X1251Y1683D02*
X1258Y1683D01*
X0Y1682D02*
X7Y1682D01*
X993Y1682D02*
X1000Y1682D01*
X1007Y1682D02*
X1013Y1682D01*
X1021Y1682D02*
X1027Y1682D01*
X1044Y1682D02*
X1074Y1682D01*
X1108Y1682D02*
X1114Y1682D01*
X1158Y1682D02*
X1164Y1682D01*
X1194Y1682D02*
X1200Y1682D01*
X1251Y1682D02*
X1258Y1682D01*
X0Y1681D02*
X7Y1681D01*
X993Y1681D02*
X1000Y1681D01*
X1007Y1681D02*
X1013Y1681D01*
X1021Y1681D02*
X1027Y1681D01*
X1044Y1681D02*
X1073Y1681D01*
X1108Y1681D02*
X1114Y1681D01*
X1158Y1681D02*
X1164Y1681D01*
X1194Y1681D02*
X1200Y1681D01*
X1251Y1681D02*
X1258Y1681D01*
X0Y1680D02*
X7Y1680D01*
X993Y1680D02*
X1000Y1680D01*
X1007Y1680D02*
X1013Y1680D01*
X1021Y1680D02*
X1027Y1680D01*
X1044Y1680D02*
X1072Y1680D01*
X1108Y1680D02*
X1114Y1680D01*
X1158Y1680D02*
X1164Y1680D01*
X1194Y1680D02*
X1200Y1680D01*
X1251Y1680D02*
X1258Y1680D01*
X0Y1679D02*
X7Y1679D01*
X993Y1679D02*
X1000Y1679D01*
X1007Y1679D02*
X1013Y1679D01*
X1021Y1679D02*
X1027Y1679D01*
X1044Y1679D02*
X1070Y1679D01*
X1108Y1679D02*
X1114Y1679D01*
X1158Y1679D02*
X1164Y1679D01*
X1194Y1679D02*
X1212Y1679D01*
X1251Y1679D02*
X1258Y1679D01*
X0Y1678D02*
X7Y1678D01*
X993Y1678D02*
X1000Y1678D01*
X1007Y1678D02*
X1013Y1678D01*
X1021Y1678D02*
X1027Y1678D01*
X1044Y1678D02*
X1050Y1678D01*
X1056Y1678D02*
X1063Y1678D01*
X1108Y1678D02*
X1114Y1678D01*
X1158Y1678D02*
X1164Y1678D01*
X1194Y1678D02*
X1213Y1678D01*
X1251Y1678D02*
X1258Y1678D01*
X0Y1677D02*
X7Y1677D01*
X993Y1677D02*
X1000Y1677D01*
X1007Y1677D02*
X1013Y1677D01*
X1021Y1677D02*
X1027Y1677D01*
X1044Y1677D02*
X1050Y1677D01*
X1056Y1677D02*
X1063Y1677D01*
X1108Y1677D02*
X1114Y1677D01*
X1158Y1677D02*
X1164Y1677D01*
X1194Y1677D02*
X1214Y1677D01*
X1251Y1677D02*
X1258Y1677D01*
X0Y1676D02*
X7Y1676D01*
X993Y1676D02*
X1000Y1676D01*
X1007Y1676D02*
X1013Y1676D01*
X1021Y1676D02*
X1027Y1676D01*
X1044Y1676D02*
X1050Y1676D01*
X1057Y1676D02*
X1064Y1676D01*
X1108Y1676D02*
X1114Y1676D01*
X1158Y1676D02*
X1164Y1676D01*
X1194Y1676D02*
X1214Y1676D01*
X1251Y1676D02*
X1258Y1676D01*
X0Y1675D02*
X7Y1675D01*
X993Y1675D02*
X1000Y1675D01*
X1007Y1675D02*
X1013Y1675D01*
X1021Y1675D02*
X1027Y1675D01*
X1044Y1675D02*
X1050Y1675D01*
X1057Y1675D02*
X1065Y1675D01*
X1108Y1675D02*
X1114Y1675D01*
X1158Y1675D02*
X1164Y1675D01*
X1194Y1675D02*
X1214Y1675D01*
X1251Y1675D02*
X1258Y1675D01*
X0Y1674D02*
X7Y1674D01*
X993Y1674D02*
X1000Y1674D01*
X1007Y1674D02*
X1013Y1674D01*
X1021Y1674D02*
X1027Y1674D01*
X1044Y1674D02*
X1050Y1674D01*
X1058Y1674D02*
X1065Y1674D01*
X1108Y1674D02*
X1114Y1674D01*
X1158Y1674D02*
X1164Y1674D01*
X1194Y1674D02*
X1213Y1674D01*
X1251Y1674D02*
X1258Y1674D01*
X0Y1673D02*
X7Y1673D01*
X993Y1673D02*
X1000Y1673D01*
X1007Y1673D02*
X1013Y1673D01*
X1021Y1673D02*
X1027Y1673D01*
X1044Y1673D02*
X1050Y1673D01*
X1059Y1673D02*
X1066Y1673D01*
X1108Y1673D02*
X1114Y1673D01*
X1158Y1673D02*
X1164Y1673D01*
X1194Y1673D02*
X1212Y1673D01*
X1251Y1673D02*
X1258Y1673D01*
X0Y1672D02*
X7Y1672D01*
X993Y1672D02*
X1000Y1672D01*
X1007Y1672D02*
X1013Y1672D01*
X1021Y1672D02*
X1027Y1672D01*
X1044Y1672D02*
X1050Y1672D01*
X1059Y1672D02*
X1066Y1672D01*
X1108Y1672D02*
X1114Y1672D01*
X1158Y1672D02*
X1164Y1672D01*
X1194Y1672D02*
X1200Y1672D01*
X1251Y1672D02*
X1258Y1672D01*
X0Y1671D02*
X7Y1671D01*
X993Y1671D02*
X1000Y1671D01*
X1007Y1671D02*
X1013Y1671D01*
X1021Y1671D02*
X1027Y1671D01*
X1044Y1671D02*
X1050Y1671D01*
X1060Y1671D02*
X1067Y1671D01*
X1108Y1671D02*
X1114Y1671D01*
X1158Y1671D02*
X1164Y1671D01*
X1194Y1671D02*
X1200Y1671D01*
X1251Y1671D02*
X1258Y1671D01*
X0Y1670D02*
X7Y1670D01*
X993Y1670D02*
X1000Y1670D01*
X1007Y1670D02*
X1013Y1670D01*
X1021Y1670D02*
X1027Y1670D01*
X1044Y1670D02*
X1050Y1670D01*
X1060Y1670D02*
X1068Y1670D01*
X1108Y1670D02*
X1114Y1670D01*
X1158Y1670D02*
X1164Y1670D01*
X1194Y1670D02*
X1200Y1670D01*
X1251Y1670D02*
X1258Y1670D01*
X0Y1669D02*
X7Y1669D01*
X993Y1669D02*
X1000Y1669D01*
X1007Y1669D02*
X1013Y1669D01*
X1021Y1669D02*
X1027Y1669D01*
X1044Y1669D02*
X1050Y1669D01*
X1061Y1669D02*
X1068Y1669D01*
X1108Y1669D02*
X1114Y1669D01*
X1158Y1669D02*
X1164Y1669D01*
X1194Y1669D02*
X1200Y1669D01*
X1251Y1669D02*
X1258Y1669D01*
X0Y1668D02*
X7Y1668D01*
X993Y1668D02*
X1000Y1668D01*
X1007Y1668D02*
X1013Y1668D01*
X1021Y1668D02*
X1027Y1668D01*
X1044Y1668D02*
X1050Y1668D01*
X1062Y1668D02*
X1069Y1668D01*
X1108Y1668D02*
X1114Y1668D01*
X1158Y1668D02*
X1164Y1668D01*
X1194Y1668D02*
X1200Y1668D01*
X1251Y1668D02*
X1258Y1668D01*
X0Y1667D02*
X7Y1667D01*
X993Y1667D02*
X1000Y1667D01*
X1007Y1667D02*
X1013Y1667D01*
X1021Y1667D02*
X1027Y1667D01*
X1044Y1667D02*
X1050Y1667D01*
X1062Y1667D02*
X1069Y1667D01*
X1108Y1667D02*
X1114Y1667D01*
X1158Y1667D02*
X1164Y1667D01*
X1194Y1667D02*
X1200Y1667D01*
X1251Y1667D02*
X1258Y1667D01*
X0Y1666D02*
X7Y1666D01*
X993Y1666D02*
X1000Y1666D01*
X1007Y1666D02*
X1013Y1666D01*
X1021Y1666D02*
X1027Y1666D01*
X1044Y1666D02*
X1050Y1666D01*
X1063Y1666D02*
X1070Y1666D01*
X1108Y1666D02*
X1114Y1666D01*
X1158Y1666D02*
X1164Y1666D01*
X1194Y1666D02*
X1200Y1666D01*
X1251Y1666D02*
X1258Y1666D01*
X0Y1665D02*
X7Y1665D01*
X993Y1665D02*
X1000Y1665D01*
X1007Y1665D02*
X1013Y1665D01*
X1021Y1665D02*
X1027Y1665D01*
X1044Y1665D02*
X1050Y1665D01*
X1063Y1665D02*
X1070Y1665D01*
X1108Y1665D02*
X1114Y1665D01*
X1158Y1665D02*
X1164Y1665D01*
X1194Y1665D02*
X1200Y1665D01*
X1251Y1665D02*
X1258Y1665D01*
X0Y1664D02*
X7Y1664D01*
X993Y1664D02*
X1000Y1664D01*
X1007Y1664D02*
X1013Y1664D01*
X1021Y1664D02*
X1027Y1664D01*
X1044Y1664D02*
X1050Y1664D01*
X1064Y1664D02*
X1071Y1664D01*
X1108Y1664D02*
X1114Y1664D01*
X1158Y1664D02*
X1164Y1664D01*
X1194Y1664D02*
X1200Y1664D01*
X1251Y1664D02*
X1258Y1664D01*
X0Y1663D02*
X7Y1663D01*
X993Y1663D02*
X1000Y1663D01*
X1007Y1663D02*
X1013Y1663D01*
X1021Y1663D02*
X1027Y1663D01*
X1044Y1663D02*
X1050Y1663D01*
X1064Y1663D02*
X1072Y1663D01*
X1108Y1663D02*
X1114Y1663D01*
X1158Y1663D02*
X1164Y1663D01*
X1194Y1663D02*
X1200Y1663D01*
X1251Y1663D02*
X1258Y1663D01*
X0Y1662D02*
X7Y1662D01*
X993Y1662D02*
X1000Y1662D01*
X1007Y1662D02*
X1013Y1662D01*
X1021Y1662D02*
X1027Y1662D01*
X1044Y1662D02*
X1050Y1662D01*
X1065Y1662D02*
X1072Y1662D01*
X1108Y1662D02*
X1114Y1662D01*
X1158Y1662D02*
X1164Y1662D01*
X1194Y1662D02*
X1200Y1662D01*
X1251Y1662D02*
X1258Y1662D01*
X0Y1661D02*
X7Y1661D01*
X993Y1661D02*
X1000Y1661D01*
X1007Y1661D02*
X1013Y1661D01*
X1021Y1661D02*
X1027Y1661D01*
X1044Y1661D02*
X1050Y1661D01*
X1066Y1661D02*
X1073Y1661D01*
X1108Y1661D02*
X1114Y1661D01*
X1158Y1661D02*
X1164Y1661D01*
X1194Y1661D02*
X1200Y1661D01*
X1251Y1661D02*
X1258Y1661D01*
X0Y1660D02*
X7Y1660D01*
X993Y1660D02*
X1000Y1660D01*
X1007Y1660D02*
X1013Y1660D01*
X1021Y1660D02*
X1027Y1660D01*
X1044Y1660D02*
X1050Y1660D01*
X1066Y1660D02*
X1073Y1660D01*
X1108Y1660D02*
X1114Y1660D01*
X1158Y1660D02*
X1164Y1660D01*
X1194Y1660D02*
X1200Y1660D01*
X1251Y1660D02*
X1258Y1660D01*
X0Y1659D02*
X7Y1659D01*
X993Y1659D02*
X1000Y1659D01*
X1007Y1659D02*
X1014Y1659D01*
X1021Y1659D02*
X1027Y1659D01*
X1044Y1659D02*
X1050Y1659D01*
X1067Y1659D02*
X1074Y1659D01*
X1108Y1659D02*
X1114Y1659D01*
X1158Y1659D02*
X1164Y1659D01*
X1194Y1659D02*
X1200Y1659D01*
X1251Y1659D02*
X1258Y1659D01*
X0Y1658D02*
X7Y1658D01*
X993Y1658D02*
X1000Y1658D01*
X1006Y1658D02*
X1014Y1658D01*
X1020Y1658D02*
X1027Y1658D01*
X1044Y1658D02*
X1050Y1658D01*
X1067Y1658D02*
X1075Y1658D01*
X1108Y1658D02*
X1114Y1658D01*
X1158Y1658D02*
X1164Y1658D01*
X1194Y1658D02*
X1200Y1658D01*
X1251Y1658D02*
X1258Y1658D01*
X0Y1657D02*
X7Y1657D01*
X994Y1657D02*
X1001Y1657D01*
X1006Y1657D02*
X1015Y1657D01*
X1020Y1657D02*
X1027Y1657D01*
X1044Y1657D02*
X1050Y1657D01*
X1068Y1657D02*
X1075Y1657D01*
X1108Y1657D02*
X1114Y1657D01*
X1158Y1657D02*
X1164Y1657D01*
X1194Y1657D02*
X1200Y1657D01*
X1251Y1657D02*
X1258Y1657D01*
X0Y1656D02*
X7Y1656D01*
X994Y1656D02*
X1002Y1656D01*
X1005Y1656D02*
X1026Y1656D01*
X1044Y1656D02*
X1050Y1656D01*
X1069Y1656D02*
X1076Y1656D01*
X1107Y1656D02*
X1114Y1656D01*
X1158Y1656D02*
X1164Y1656D01*
X1194Y1656D02*
X1201Y1656D01*
X1251Y1656D02*
X1258Y1656D01*
X0Y1655D02*
X7Y1655D01*
X995Y1655D02*
X1026Y1655D01*
X1044Y1655D02*
X1050Y1655D01*
X1069Y1655D02*
X1076Y1655D01*
X1095Y1655D02*
X1126Y1655D01*
X1158Y1655D02*
X1164Y1655D01*
X1194Y1655D02*
X1227Y1655D01*
X1251Y1655D02*
X1258Y1655D01*
X0Y1654D02*
X7Y1654D01*
X995Y1654D02*
X1025Y1654D01*
X1044Y1654D02*
X1050Y1654D01*
X1070Y1654D02*
X1077Y1654D01*
X1094Y1654D02*
X1127Y1654D01*
X1158Y1654D02*
X1164Y1654D01*
X1194Y1654D02*
X1227Y1654D01*
X1251Y1654D02*
X1258Y1654D01*
X0Y1653D02*
X7Y1653D01*
X996Y1653D02*
X1024Y1653D01*
X1044Y1653D02*
X1050Y1653D01*
X1070Y1653D02*
X1077Y1653D01*
X1094Y1653D02*
X1127Y1653D01*
X1158Y1653D02*
X1164Y1653D01*
X1194Y1653D02*
X1228Y1653D01*
X1251Y1653D02*
X1258Y1653D01*
X0Y1652D02*
X7Y1652D01*
X997Y1652D02*
X1024Y1652D01*
X1044Y1652D02*
X1050Y1652D01*
X1071Y1652D02*
X1077Y1652D01*
X1094Y1652D02*
X1127Y1652D01*
X1158Y1652D02*
X1164Y1652D01*
X1194Y1652D02*
X1228Y1652D01*
X1251Y1652D02*
X1258Y1652D01*
X0Y1651D02*
X7Y1651D01*
X997Y1651D02*
X1023Y1651D01*
X1044Y1651D02*
X1049Y1651D01*
X1071Y1651D02*
X1077Y1651D01*
X1094Y1651D02*
X1127Y1651D01*
X1158Y1651D02*
X1163Y1651D01*
X1194Y1651D02*
X1227Y1651D01*
X1251Y1651D02*
X1258Y1651D01*
X0Y1650D02*
X7Y1650D01*
X998Y1650D02*
X1009Y1650D01*
X1012Y1650D02*
X1022Y1650D01*
X1045Y1650D02*
X1049Y1650D01*
X1072Y1650D02*
X1076Y1650D01*
X1095Y1650D02*
X1126Y1650D01*
X1159Y1650D02*
X1163Y1650D01*
X1194Y1650D02*
X1227Y1650D01*
X1251Y1650D02*
X1258Y1650D01*
X0Y1649D02*
X7Y1649D01*
X1000Y1649D02*
X1007Y1649D01*
X1014Y1649D02*
X1020Y1649D01*
X1074Y1649D02*
X1074Y1649D01*
X1097Y1649D02*
X1124Y1649D01*
X1195Y1649D02*
X1224Y1649D01*
X1251Y1649D02*
X1258Y1649D01*
X0Y1648D02*
X7Y1648D01*
X1251Y1648D02*
X1258Y1648D01*
X0Y1647D02*
X7Y1647D01*
X1251Y1647D02*
X1258Y1647D01*
X0Y1646D02*
X7Y1646D01*
X1251Y1646D02*
X1258Y1646D01*
X0Y1645D02*
X7Y1645D01*
X1251Y1645D02*
X1258Y1645D01*
X0Y1644D02*
X7Y1644D01*
X1251Y1644D02*
X1258Y1644D01*
X0Y1643D02*
X7Y1643D01*
X1251Y1643D02*
X1258Y1643D01*
X0Y1642D02*
X7Y1642D01*
X1251Y1642D02*
X1258Y1642D01*
X0Y1641D02*
X7Y1641D01*
X1251Y1641D02*
X1258Y1641D01*
X0Y1640D02*
X7Y1640D01*
X1251Y1640D02*
X1258Y1640D01*
X0Y1639D02*
X7Y1639D01*
X1251Y1639D02*
X1258Y1639D01*
X0Y1638D02*
X34Y1638D01*
X1251Y1638D02*
X1258Y1638D01*
X0Y1637D02*
X34Y1637D01*
X1251Y1637D02*
X1258Y1637D01*
X0Y1636D02*
X34Y1636D01*
X1251Y1636D02*
X1258Y1636D01*
X0Y1635D02*
X34Y1635D01*
X1251Y1635D02*
X1258Y1635D01*
X0Y1634D02*
X34Y1634D01*
X1251Y1634D02*
X1258Y1634D01*
X0Y1633D02*
X34Y1633D01*
X1251Y1633D02*
X1258Y1633D01*
X0Y1632D02*
X34Y1632D01*
X1251Y1632D02*
X1258Y1632D01*
X0Y1631D02*
X34Y1631D01*
X1251Y1631D02*
X1258Y1631D01*
X0Y1630D02*
X34Y1630D01*
X1251Y1630D02*
X1258Y1630D01*
X0Y1629D02*
X34Y1629D01*
X1251Y1629D02*
X1258Y1629D01*
X0Y1628D02*
X9Y1628D01*
X1251Y1628D02*
X1258Y1628D01*
X0Y1627D02*
X9Y1627D01*
X1251Y1627D02*
X1258Y1627D01*
X0Y1626D02*
X9Y1626D01*
X1251Y1626D02*
X1258Y1626D01*
X0Y1625D02*
X9Y1625D01*
X1251Y1625D02*
X1258Y1625D01*
X0Y1624D02*
X9Y1624D01*
X1251Y1624D02*
X1258Y1624D01*
X0Y1623D02*
X9Y1623D01*
X1251Y1623D02*
X1258Y1623D01*
X0Y1622D02*
X9Y1622D01*
X1251Y1622D02*
X1258Y1622D01*
X0Y1621D02*
X9Y1621D01*
X1251Y1621D02*
X1258Y1621D01*
X0Y1620D02*
X9Y1620D01*
X1251Y1620D02*
X1258Y1620D01*
X0Y1619D02*
X9Y1619D01*
X1251Y1619D02*
X1258Y1619D01*
X0Y1618D02*
X9Y1618D01*
X1251Y1618D02*
X1258Y1618D01*
X0Y1617D02*
X9Y1617D01*
X1251Y1617D02*
X1258Y1617D01*
X0Y1616D02*
X9Y1616D01*
X1251Y1616D02*
X1258Y1616D01*
X0Y1615D02*
X9Y1615D01*
X1251Y1615D02*
X1258Y1615D01*
X0Y1614D02*
X9Y1614D01*
X1251Y1614D02*
X1258Y1614D01*
X0Y1613D02*
X9Y1613D01*
X1251Y1613D02*
X1258Y1613D01*
X0Y1612D02*
X9Y1612D01*
X1251Y1612D02*
X1258Y1612D01*
X0Y1611D02*
X9Y1611D01*
X1251Y1611D02*
X1258Y1611D01*
X0Y1610D02*
X9Y1610D01*
X1251Y1610D02*
X1258Y1610D01*
X0Y1609D02*
X9Y1609D01*
X1251Y1609D02*
X1258Y1609D01*
X0Y1608D02*
X9Y1608D01*
X1251Y1608D02*
X1258Y1608D01*
X0Y1607D02*
X9Y1607D01*
X1251Y1607D02*
X1258Y1607D01*
X0Y1606D02*
X9Y1606D01*
X1251Y1606D02*
X1258Y1606D01*
X0Y1605D02*
X9Y1605D01*
X1251Y1605D02*
X1258Y1605D01*
X0Y1604D02*
X9Y1604D01*
X1251Y1604D02*
X1258Y1604D01*
X0Y1603D02*
X9Y1603D01*
X1251Y1603D02*
X1258Y1603D01*
X0Y1602D02*
X9Y1602D01*
X1251Y1602D02*
X1258Y1602D01*
X0Y1601D02*
X9Y1601D01*
X1251Y1601D02*
X1258Y1601D01*
X0Y1600D02*
X9Y1600D01*
X1251Y1600D02*
X1258Y1600D01*
X0Y1599D02*
X9Y1599D01*
X1251Y1599D02*
X1258Y1599D01*
X0Y1598D02*
X9Y1598D01*
X1251Y1598D02*
X1258Y1598D01*
X0Y1597D02*
X9Y1597D01*
X1251Y1597D02*
X1258Y1597D01*
X0Y1596D02*
X9Y1596D01*
X1251Y1596D02*
X1258Y1596D01*
X0Y1595D02*
X9Y1595D01*
X1251Y1595D02*
X1258Y1595D01*
X0Y1594D02*
X9Y1594D01*
X1251Y1594D02*
X1258Y1594D01*
X0Y1593D02*
X9Y1593D01*
X1251Y1593D02*
X1258Y1593D01*
X0Y1592D02*
X9Y1592D01*
X1251Y1592D02*
X1258Y1592D01*
X0Y1591D02*
X9Y1591D01*
X1251Y1591D02*
X1258Y1591D01*
X0Y1590D02*
X9Y1590D01*
X1251Y1590D02*
X1258Y1590D01*
X0Y1589D02*
X9Y1589D01*
X1251Y1589D02*
X1258Y1589D01*
X0Y1588D02*
X9Y1588D01*
X1251Y1588D02*
X1258Y1588D01*
X0Y1587D02*
X9Y1587D01*
X1251Y1587D02*
X1258Y1587D01*
X0Y1586D02*
X9Y1586D01*
X1251Y1586D02*
X1258Y1586D01*
X0Y1585D02*
X9Y1585D01*
X1251Y1585D02*
X1258Y1585D01*
X0Y1584D02*
X9Y1584D01*
X1251Y1584D02*
X1258Y1584D01*
X0Y1583D02*
X9Y1583D01*
X1251Y1583D02*
X1258Y1583D01*
X0Y1582D02*
X9Y1582D01*
X1251Y1582D02*
X1258Y1582D01*
X0Y1581D02*
X9Y1581D01*
X1251Y1581D02*
X1258Y1581D01*
X0Y1580D02*
X9Y1580D01*
X1251Y1580D02*
X1258Y1580D01*
X0Y1579D02*
X9Y1579D01*
X1251Y1579D02*
X1258Y1579D01*
X0Y1578D02*
X34Y1578D01*
X1251Y1578D02*
X1258Y1578D01*
X0Y1577D02*
X34Y1577D01*
X1251Y1577D02*
X1258Y1577D01*
X0Y1576D02*
X34Y1576D01*
X1251Y1576D02*
X1258Y1576D01*
X0Y1575D02*
X34Y1575D01*
X1251Y1575D02*
X1258Y1575D01*
X0Y1574D02*
X34Y1574D01*
X1251Y1574D02*
X1258Y1574D01*
X0Y1573D02*
X34Y1573D01*
X0Y1572D02*
X34Y1572D01*
X0Y1571D02*
X34Y1571D01*
X0Y1570D02*
X34Y1570D01*
X0Y1569D02*
X34Y1569D01*
X0Y1568D02*
X9Y1568D01*
X0Y1567D02*
X9Y1567D01*
X0Y1566D02*
X9Y1566D01*
X1251Y1566D02*
X1258Y1566D01*
X0Y1565D02*
X9Y1565D01*
X1251Y1565D02*
X1258Y1565D01*
X0Y1564D02*
X9Y1564D01*
X1251Y1564D02*
X1258Y1564D01*
X0Y1563D02*
X9Y1563D01*
X1251Y1563D02*
X1258Y1563D01*
X0Y1562D02*
X9Y1562D01*
X1251Y1562D02*
X1258Y1562D01*
X0Y1561D02*
X9Y1561D01*
X1251Y1561D02*
X1258Y1561D01*
X0Y1560D02*
X9Y1560D01*
X1251Y1560D02*
X1258Y1560D01*
X0Y1559D02*
X9Y1559D01*
X1251Y1559D02*
X1258Y1559D01*
X0Y1558D02*
X9Y1558D01*
X1251Y1558D02*
X1258Y1558D01*
X0Y1557D02*
X9Y1557D01*
X1251Y1557D02*
X1258Y1557D01*
X0Y1556D02*
X9Y1556D01*
X1251Y1556D02*
X1258Y1556D01*
X0Y1555D02*
X9Y1555D01*
X1251Y1555D02*
X1258Y1555D01*
X0Y1554D02*
X9Y1554D01*
X1251Y1554D02*
X1258Y1554D01*
X0Y1553D02*
X9Y1553D01*
X1251Y1553D02*
X1258Y1553D01*
X0Y1552D02*
X9Y1552D01*
X1251Y1552D02*
X1258Y1552D01*
X0Y1551D02*
X9Y1551D01*
X1251Y1551D02*
X1258Y1551D01*
X0Y1550D02*
X9Y1550D01*
X1251Y1550D02*
X1258Y1550D01*
X0Y1549D02*
X9Y1549D01*
X1251Y1549D02*
X1258Y1549D01*
X0Y1548D02*
X9Y1548D01*
X1251Y1548D02*
X1258Y1548D01*
X0Y1547D02*
X9Y1547D01*
X1251Y1547D02*
X1258Y1547D01*
X0Y1546D02*
X9Y1546D01*
X656Y1546D02*
X659Y1546D01*
X663Y1546D02*
X665Y1546D01*
X757Y1546D02*
X766Y1546D01*
X1251Y1546D02*
X1258Y1546D01*
X0Y1545D02*
X9Y1545D01*
X656Y1545D02*
X665Y1545D01*
X757Y1545D02*
X766Y1545D01*
X1251Y1545D02*
X1258Y1545D01*
X0Y1544D02*
X9Y1544D01*
X656Y1544D02*
X665Y1544D01*
X757Y1544D02*
X766Y1544D01*
X1251Y1544D02*
X1258Y1544D01*
X0Y1543D02*
X9Y1543D01*
X656Y1543D02*
X665Y1543D01*
X757Y1543D02*
X766Y1543D01*
X1251Y1543D02*
X1258Y1543D01*
X0Y1542D02*
X9Y1542D01*
X656Y1542D02*
X665Y1542D01*
X757Y1542D02*
X766Y1542D01*
X1251Y1542D02*
X1258Y1542D01*
X0Y1541D02*
X9Y1541D01*
X656Y1541D02*
X665Y1541D01*
X757Y1541D02*
X766Y1541D01*
X1251Y1541D02*
X1258Y1541D01*
X0Y1540D02*
X9Y1540D01*
X656Y1540D02*
X665Y1540D01*
X757Y1540D02*
X766Y1540D01*
X1251Y1540D02*
X1258Y1540D01*
X0Y1539D02*
X9Y1539D01*
X656Y1539D02*
X665Y1539D01*
X757Y1539D02*
X766Y1539D01*
X1251Y1539D02*
X1258Y1539D01*
X0Y1538D02*
X9Y1538D01*
X656Y1538D02*
X665Y1538D01*
X757Y1538D02*
X766Y1538D01*
X1251Y1538D02*
X1258Y1538D01*
X0Y1537D02*
X9Y1537D01*
X656Y1537D02*
X665Y1537D01*
X757Y1537D02*
X766Y1537D01*
X1251Y1537D02*
X1258Y1537D01*
X0Y1536D02*
X9Y1536D01*
X656Y1536D02*
X665Y1536D01*
X757Y1536D02*
X766Y1536D01*
X1251Y1536D02*
X1258Y1536D01*
X0Y1535D02*
X9Y1535D01*
X656Y1535D02*
X665Y1535D01*
X757Y1535D02*
X766Y1535D01*
X1251Y1535D02*
X1258Y1535D01*
X0Y1534D02*
X9Y1534D01*
X656Y1534D02*
X665Y1534D01*
X757Y1534D02*
X766Y1534D01*
X1251Y1534D02*
X1258Y1534D01*
X0Y1533D02*
X9Y1533D01*
X656Y1533D02*
X665Y1533D01*
X757Y1533D02*
X766Y1533D01*
X1251Y1533D02*
X1258Y1533D01*
X0Y1532D02*
X9Y1532D01*
X656Y1532D02*
X665Y1532D01*
X757Y1532D02*
X766Y1532D01*
X1251Y1532D02*
X1258Y1532D01*
X0Y1531D02*
X9Y1531D01*
X656Y1531D02*
X665Y1531D01*
X757Y1531D02*
X766Y1531D01*
X1251Y1531D02*
X1258Y1531D01*
X0Y1530D02*
X9Y1530D01*
X656Y1530D02*
X665Y1530D01*
X757Y1530D02*
X766Y1530D01*
X1251Y1530D02*
X1258Y1530D01*
X0Y1529D02*
X9Y1529D01*
X656Y1529D02*
X665Y1529D01*
X757Y1529D02*
X766Y1529D01*
X1251Y1529D02*
X1258Y1529D01*
X0Y1528D02*
X9Y1528D01*
X656Y1528D02*
X665Y1528D01*
X757Y1528D02*
X766Y1528D01*
X1251Y1528D02*
X1258Y1528D01*
X0Y1527D02*
X9Y1527D01*
X656Y1527D02*
X665Y1527D01*
X757Y1527D02*
X766Y1527D01*
X1251Y1527D02*
X1258Y1527D01*
X0Y1526D02*
X9Y1526D01*
X656Y1526D02*
X665Y1526D01*
X757Y1526D02*
X766Y1526D01*
X1251Y1526D02*
X1258Y1526D01*
X0Y1525D02*
X9Y1525D01*
X656Y1525D02*
X665Y1525D01*
X757Y1525D02*
X766Y1525D01*
X1251Y1525D02*
X1258Y1525D01*
X0Y1524D02*
X9Y1524D01*
X656Y1524D02*
X665Y1524D01*
X757Y1524D02*
X766Y1524D01*
X1251Y1524D02*
X1258Y1524D01*
X0Y1523D02*
X9Y1523D01*
X656Y1523D02*
X665Y1523D01*
X757Y1523D02*
X766Y1523D01*
X1251Y1523D02*
X1258Y1523D01*
X0Y1522D02*
X9Y1522D01*
X656Y1522D02*
X665Y1522D01*
X757Y1522D02*
X766Y1522D01*
X1251Y1522D02*
X1258Y1522D01*
X0Y1521D02*
X9Y1521D01*
X656Y1521D02*
X665Y1521D01*
X757Y1521D02*
X766Y1521D01*
X1251Y1521D02*
X1258Y1521D01*
X0Y1520D02*
X9Y1520D01*
X656Y1520D02*
X665Y1520D01*
X757Y1520D02*
X766Y1520D01*
X1251Y1520D02*
X1258Y1520D01*
X0Y1519D02*
X9Y1519D01*
X656Y1519D02*
X665Y1519D01*
X757Y1519D02*
X766Y1519D01*
X1251Y1519D02*
X1258Y1519D01*
X0Y1518D02*
X9Y1518D01*
X656Y1518D02*
X665Y1518D01*
X757Y1518D02*
X766Y1518D01*
X1251Y1518D02*
X1258Y1518D01*
X0Y1517D02*
X9Y1517D01*
X656Y1517D02*
X665Y1517D01*
X757Y1517D02*
X766Y1517D01*
X1251Y1517D02*
X1258Y1517D01*
X0Y1516D02*
X9Y1516D01*
X656Y1516D02*
X665Y1516D01*
X757Y1516D02*
X766Y1516D01*
X1251Y1516D02*
X1258Y1516D01*
X0Y1515D02*
X9Y1515D01*
X656Y1515D02*
X665Y1515D01*
X757Y1515D02*
X766Y1515D01*
X1251Y1515D02*
X1258Y1515D01*
X0Y1514D02*
X9Y1514D01*
X656Y1514D02*
X665Y1514D01*
X757Y1514D02*
X766Y1514D01*
X1251Y1514D02*
X1258Y1514D01*
X0Y1513D02*
X9Y1513D01*
X656Y1513D02*
X665Y1513D01*
X757Y1513D02*
X766Y1513D01*
X1251Y1513D02*
X1258Y1513D01*
X0Y1512D02*
X9Y1512D01*
X656Y1512D02*
X665Y1512D01*
X757Y1512D02*
X766Y1512D01*
X1251Y1512D02*
X1258Y1512D01*
X0Y1511D02*
X9Y1511D01*
X656Y1511D02*
X665Y1511D01*
X757Y1511D02*
X766Y1511D01*
X1251Y1511D02*
X1258Y1511D01*
X0Y1510D02*
X9Y1510D01*
X656Y1510D02*
X665Y1510D01*
X757Y1510D02*
X766Y1510D01*
X1251Y1510D02*
X1258Y1510D01*
X0Y1509D02*
X9Y1509D01*
X656Y1509D02*
X665Y1509D01*
X757Y1509D02*
X766Y1509D01*
X1251Y1509D02*
X1258Y1509D01*
X0Y1508D02*
X9Y1508D01*
X656Y1508D02*
X665Y1508D01*
X757Y1508D02*
X766Y1508D01*
X1251Y1508D02*
X1258Y1508D01*
X0Y1507D02*
X9Y1507D01*
X656Y1507D02*
X665Y1507D01*
X757Y1507D02*
X766Y1507D01*
X1251Y1507D02*
X1258Y1507D01*
X0Y1506D02*
X9Y1506D01*
X656Y1506D02*
X665Y1506D01*
X757Y1506D02*
X766Y1506D01*
X1251Y1506D02*
X1258Y1506D01*
X0Y1505D02*
X9Y1505D01*
X656Y1505D02*
X665Y1505D01*
X757Y1505D02*
X766Y1505D01*
X1251Y1505D02*
X1258Y1505D01*
X0Y1504D02*
X9Y1504D01*
X656Y1504D02*
X665Y1504D01*
X757Y1504D02*
X766Y1504D01*
X1251Y1504D02*
X1258Y1504D01*
X0Y1503D02*
X9Y1503D01*
X656Y1503D02*
X665Y1503D01*
X757Y1503D02*
X766Y1503D01*
X1251Y1503D02*
X1258Y1503D01*
X0Y1502D02*
X9Y1502D01*
X656Y1502D02*
X665Y1502D01*
X757Y1502D02*
X766Y1502D01*
X1251Y1502D02*
X1258Y1502D01*
X0Y1501D02*
X9Y1501D01*
X656Y1501D02*
X665Y1501D01*
X757Y1501D02*
X766Y1501D01*
X1251Y1501D02*
X1258Y1501D01*
X0Y1500D02*
X9Y1500D01*
X656Y1500D02*
X665Y1500D01*
X757Y1500D02*
X766Y1500D01*
X1251Y1500D02*
X1258Y1500D01*
X0Y1499D02*
X9Y1499D01*
X656Y1499D02*
X665Y1499D01*
X757Y1499D02*
X766Y1499D01*
X1251Y1499D02*
X1258Y1499D01*
X0Y1498D02*
X9Y1498D01*
X657Y1498D02*
X665Y1498D01*
X1251Y1498D02*
X1258Y1498D01*
X0Y1497D02*
X9Y1497D01*
X1251Y1497D02*
X1258Y1497D01*
X0Y1496D02*
X9Y1496D01*
X1251Y1496D02*
X1258Y1496D01*
X0Y1495D02*
X9Y1495D01*
X1251Y1495D02*
X1258Y1495D01*
X0Y1494D02*
X9Y1494D01*
X1251Y1494D02*
X1258Y1494D01*
X0Y1493D02*
X9Y1493D01*
X1251Y1493D02*
X1258Y1493D01*
X0Y1492D02*
X9Y1492D01*
X1251Y1492D02*
X1258Y1492D01*
X0Y1491D02*
X9Y1491D01*
X1251Y1491D02*
X1258Y1491D01*
X0Y1490D02*
X9Y1490D01*
X540Y1490D02*
X556Y1490D01*
X567Y1490D02*
X582Y1490D01*
X1251Y1490D02*
X1258Y1490D01*
X0Y1489D02*
X9Y1489D01*
X538Y1489D02*
X559Y1489D01*
X564Y1489D02*
X585Y1489D01*
X1251Y1489D02*
X1258Y1489D01*
X0Y1488D02*
X9Y1488D01*
X537Y1488D02*
X560Y1488D01*
X563Y1488D02*
X586Y1488D01*
X1251Y1488D02*
X1258Y1488D01*
X0Y1487D02*
X9Y1487D01*
X536Y1487D02*
X587Y1487D01*
X1251Y1487D02*
X1258Y1487D01*
X0Y1486D02*
X9Y1486D01*
X535Y1486D02*
X587Y1486D01*
X1251Y1486D02*
X1258Y1486D01*
X0Y1485D02*
X9Y1485D01*
X535Y1485D02*
X588Y1485D01*
X1251Y1485D02*
X1258Y1485D01*
X0Y1484D02*
X9Y1484D01*
X535Y1484D02*
X588Y1484D01*
X1251Y1484D02*
X1258Y1484D01*
X0Y1483D02*
X9Y1483D01*
X535Y1483D02*
X541Y1483D01*
X556Y1483D02*
X567Y1483D01*
X582Y1483D02*
X588Y1483D01*
X1251Y1483D02*
X1258Y1483D01*
X0Y1482D02*
X9Y1482D01*
X535Y1482D02*
X541Y1482D01*
X557Y1482D02*
X565Y1482D01*
X582Y1482D02*
X588Y1482D01*
X1251Y1482D02*
X1258Y1482D01*
X0Y1481D02*
X9Y1481D01*
X535Y1481D02*
X541Y1481D01*
X558Y1481D02*
X565Y1481D01*
X582Y1481D02*
X588Y1481D01*
X1251Y1481D02*
X1258Y1481D01*
X0Y1480D02*
X9Y1480D01*
X535Y1480D02*
X541Y1480D01*
X558Y1480D02*
X564Y1480D01*
X582Y1480D02*
X588Y1480D01*
X1251Y1480D02*
X1258Y1480D01*
X0Y1479D02*
X9Y1479D01*
X535Y1479D02*
X541Y1479D01*
X558Y1479D02*
X564Y1479D01*
X582Y1479D02*
X588Y1479D01*
X1251Y1479D02*
X1258Y1479D01*
X0Y1478D02*
X9Y1478D01*
X535Y1478D02*
X541Y1478D01*
X558Y1478D02*
X564Y1478D01*
X582Y1478D02*
X588Y1478D01*
X1251Y1478D02*
X1258Y1478D01*
X0Y1477D02*
X9Y1477D01*
X535Y1477D02*
X541Y1477D01*
X558Y1477D02*
X564Y1477D01*
X582Y1477D02*
X588Y1477D01*
X1251Y1477D02*
X1258Y1477D01*
X0Y1476D02*
X9Y1476D01*
X535Y1476D02*
X541Y1476D01*
X558Y1476D02*
X564Y1476D01*
X582Y1476D02*
X588Y1476D01*
X1251Y1476D02*
X1258Y1476D01*
X0Y1475D02*
X9Y1475D01*
X535Y1475D02*
X541Y1475D01*
X558Y1475D02*
X564Y1475D01*
X582Y1475D02*
X588Y1475D01*
X1251Y1475D02*
X1258Y1475D01*
X0Y1474D02*
X9Y1474D01*
X535Y1474D02*
X541Y1474D01*
X558Y1474D02*
X564Y1474D01*
X582Y1474D02*
X588Y1474D01*
X1251Y1474D02*
X1258Y1474D01*
X0Y1473D02*
X9Y1473D01*
X535Y1473D02*
X541Y1473D01*
X558Y1473D02*
X564Y1473D01*
X582Y1473D02*
X588Y1473D01*
X1251Y1473D02*
X1258Y1473D01*
X0Y1472D02*
X9Y1472D01*
X535Y1472D02*
X541Y1472D01*
X558Y1472D02*
X564Y1472D01*
X582Y1472D02*
X588Y1472D01*
X1251Y1472D02*
X1258Y1472D01*
X0Y1471D02*
X9Y1471D01*
X535Y1471D02*
X541Y1471D01*
X558Y1471D02*
X564Y1471D01*
X582Y1471D02*
X588Y1471D01*
X1251Y1471D02*
X1258Y1471D01*
X0Y1470D02*
X9Y1470D01*
X535Y1470D02*
X541Y1470D01*
X558Y1470D02*
X564Y1470D01*
X582Y1470D02*
X588Y1470D01*
X1251Y1470D02*
X1258Y1470D01*
X0Y1469D02*
X9Y1469D01*
X535Y1469D02*
X541Y1469D01*
X558Y1469D02*
X564Y1469D01*
X582Y1469D02*
X588Y1469D01*
X1251Y1469D02*
X1258Y1469D01*
X0Y1468D02*
X9Y1468D01*
X535Y1468D02*
X541Y1468D01*
X558Y1468D02*
X564Y1468D01*
X582Y1468D02*
X588Y1468D01*
X1251Y1468D02*
X1258Y1468D01*
X0Y1467D02*
X9Y1467D01*
X535Y1467D02*
X541Y1467D01*
X558Y1467D02*
X564Y1467D01*
X582Y1467D02*
X588Y1467D01*
X1251Y1467D02*
X1258Y1467D01*
X0Y1466D02*
X9Y1466D01*
X535Y1466D02*
X541Y1466D01*
X558Y1466D02*
X564Y1466D01*
X582Y1466D02*
X588Y1466D01*
X1251Y1466D02*
X1258Y1466D01*
X0Y1465D02*
X9Y1465D01*
X535Y1465D02*
X541Y1465D01*
X558Y1465D02*
X564Y1465D01*
X582Y1465D02*
X588Y1465D01*
X1251Y1465D02*
X1258Y1465D01*
X0Y1464D02*
X9Y1464D01*
X535Y1464D02*
X541Y1464D01*
X559Y1464D02*
X564Y1464D01*
X582Y1464D02*
X588Y1464D01*
X1251Y1464D02*
X1258Y1464D01*
X0Y1463D02*
X9Y1463D01*
X535Y1463D02*
X541Y1463D01*
X560Y1463D02*
X563Y1463D01*
X582Y1463D02*
X588Y1463D01*
X1251Y1463D02*
X1258Y1463D01*
X0Y1462D02*
X9Y1462D01*
X535Y1462D02*
X541Y1462D01*
X582Y1462D02*
X588Y1462D01*
X1251Y1462D02*
X1258Y1462D01*
X0Y1461D02*
X9Y1461D01*
X535Y1461D02*
X541Y1461D01*
X582Y1461D02*
X588Y1461D01*
X1251Y1461D02*
X1258Y1461D01*
X0Y1460D02*
X9Y1460D01*
X535Y1460D02*
X541Y1460D01*
X582Y1460D02*
X588Y1460D01*
X1251Y1460D02*
X1258Y1460D01*
X0Y1459D02*
X9Y1459D01*
X535Y1459D02*
X541Y1459D01*
X582Y1459D02*
X588Y1459D01*
X1251Y1459D02*
X1258Y1459D01*
X0Y1458D02*
X34Y1458D01*
X535Y1458D02*
X541Y1458D01*
X582Y1458D02*
X588Y1458D01*
X1251Y1458D02*
X1258Y1458D01*
X0Y1457D02*
X34Y1457D01*
X536Y1457D02*
X540Y1457D01*
X583Y1457D02*
X587Y1457D01*
X1251Y1457D02*
X1258Y1457D01*
X0Y1456D02*
X34Y1456D01*
X537Y1456D02*
X539Y1456D01*
X584Y1456D02*
X586Y1456D01*
X1251Y1456D02*
X1258Y1456D01*
X0Y1455D02*
X34Y1455D01*
X1251Y1455D02*
X1258Y1455D01*
X0Y1454D02*
X34Y1454D01*
X1251Y1454D02*
X1258Y1454D01*
X0Y1453D02*
X34Y1453D01*
X1251Y1453D02*
X1258Y1453D01*
X0Y1452D02*
X34Y1452D01*
X1251Y1452D02*
X1258Y1452D01*
X0Y1451D02*
X34Y1451D01*
X1251Y1451D02*
X1258Y1451D01*
X0Y1450D02*
X34Y1450D01*
X1251Y1450D02*
X1258Y1450D01*
X0Y1449D02*
X34Y1449D01*
X1251Y1449D02*
X1258Y1449D01*
X0Y1448D02*
X9Y1448D01*
X1251Y1448D02*
X1258Y1448D01*
X0Y1447D02*
X9Y1447D01*
X1251Y1447D02*
X1258Y1447D01*
X0Y1446D02*
X9Y1446D01*
X1251Y1446D02*
X1258Y1446D01*
X0Y1445D02*
X9Y1445D01*
X1251Y1445D02*
X1258Y1445D01*
X0Y1444D02*
X9Y1444D01*
X1251Y1444D02*
X1258Y1444D01*
X0Y1443D02*
X9Y1443D01*
X1251Y1443D02*
X1258Y1443D01*
X0Y1442D02*
X9Y1442D01*
X1251Y1442D02*
X1258Y1442D01*
X0Y1441D02*
X9Y1441D01*
X1251Y1441D02*
X1258Y1441D01*
X0Y1440D02*
X9Y1440D01*
X542Y1440D02*
X581Y1440D01*
X637Y1440D02*
X688Y1440D01*
X738Y1440D02*
X742Y1440D01*
X786Y1440D02*
X789Y1440D01*
X1251Y1440D02*
X1258Y1440D01*
X0Y1439D02*
X9Y1439D01*
X538Y1439D02*
X584Y1439D01*
X637Y1439D02*
X689Y1439D01*
X738Y1439D02*
X743Y1439D01*
X785Y1439D02*
X790Y1439D01*
X1251Y1439D02*
X1258Y1439D01*
X0Y1438D02*
X9Y1438D01*
X537Y1438D02*
X586Y1438D01*
X637Y1438D02*
X690Y1438D01*
X737Y1438D02*
X744Y1438D01*
X784Y1438D02*
X790Y1438D01*
X1251Y1438D02*
X1258Y1438D01*
X0Y1437D02*
X9Y1437D01*
X536Y1437D02*
X587Y1437D01*
X637Y1437D02*
X690Y1437D01*
X737Y1437D02*
X745Y1437D01*
X783Y1437D02*
X790Y1437D01*
X1251Y1437D02*
X1258Y1437D01*
X0Y1436D02*
X9Y1436D01*
X535Y1436D02*
X587Y1436D01*
X637Y1436D02*
X690Y1436D01*
X738Y1436D02*
X746Y1436D01*
X782Y1436D02*
X790Y1436D01*
X1251Y1436D02*
X1258Y1436D01*
X0Y1435D02*
X9Y1435D01*
X535Y1435D02*
X588Y1435D01*
X637Y1435D02*
X689Y1435D01*
X738Y1435D02*
X746Y1435D01*
X781Y1435D02*
X789Y1435D01*
X1251Y1435D02*
X1258Y1435D01*
X0Y1434D02*
X9Y1434D01*
X535Y1434D02*
X588Y1434D01*
X637Y1434D02*
X687Y1434D01*
X739Y1434D02*
X747Y1434D01*
X780Y1434D02*
X789Y1434D01*
X1251Y1434D02*
X1258Y1434D01*
X0Y1433D02*
X9Y1433D01*
X535Y1433D02*
X588Y1433D01*
X637Y1433D02*
X646Y1433D01*
X740Y1433D02*
X748Y1433D01*
X779Y1433D02*
X788Y1433D01*
X1251Y1433D02*
X1258Y1433D01*
X0Y1432D02*
X9Y1432D01*
X535Y1432D02*
X541Y1432D01*
X582Y1432D02*
X588Y1432D01*
X637Y1432D02*
X648Y1432D01*
X741Y1432D02*
X749Y1432D01*
X779Y1432D02*
X787Y1432D01*
X1251Y1432D02*
X1258Y1432D01*
X0Y1431D02*
X9Y1431D01*
X535Y1431D02*
X541Y1431D01*
X582Y1431D02*
X588Y1431D01*
X638Y1431D02*
X649Y1431D01*
X742Y1431D02*
X750Y1431D01*
X778Y1431D02*
X786Y1431D01*
X1251Y1431D02*
X1258Y1431D01*
X0Y1430D02*
X9Y1430D01*
X535Y1430D02*
X541Y1430D01*
X582Y1430D02*
X588Y1430D01*
X639Y1430D02*
X651Y1430D01*
X742Y1430D02*
X751Y1430D01*
X777Y1430D02*
X785Y1430D01*
X1251Y1430D02*
X1258Y1430D01*
X0Y1429D02*
X9Y1429D01*
X535Y1429D02*
X541Y1429D01*
X582Y1429D02*
X588Y1429D01*
X641Y1429D02*
X652Y1429D01*
X743Y1429D02*
X752Y1429D01*
X776Y1429D02*
X784Y1429D01*
X1251Y1429D02*
X1258Y1429D01*
X0Y1428D02*
X9Y1428D01*
X535Y1428D02*
X541Y1428D01*
X582Y1428D02*
X588Y1428D01*
X642Y1428D02*
X654Y1428D01*
X744Y1428D02*
X752Y1428D01*
X775Y1428D02*
X783Y1428D01*
X1251Y1428D02*
X1258Y1428D01*
X0Y1427D02*
X9Y1427D01*
X535Y1427D02*
X541Y1427D01*
X582Y1427D02*
X588Y1427D01*
X644Y1427D02*
X655Y1427D01*
X745Y1427D02*
X753Y1427D01*
X774Y1427D02*
X783Y1427D01*
X1251Y1427D02*
X1258Y1427D01*
X0Y1426D02*
X9Y1426D01*
X535Y1426D02*
X541Y1426D01*
X582Y1426D02*
X588Y1426D01*
X645Y1426D02*
X659Y1426D01*
X746Y1426D02*
X754Y1426D01*
X773Y1426D02*
X782Y1426D01*
X1251Y1426D02*
X1258Y1426D01*
X0Y1425D02*
X9Y1425D01*
X535Y1425D02*
X541Y1425D01*
X582Y1425D02*
X588Y1425D01*
X647Y1425D02*
X660Y1425D01*
X747Y1425D02*
X755Y1425D01*
X773Y1425D02*
X781Y1425D01*
X1251Y1425D02*
X1258Y1425D01*
X0Y1424D02*
X9Y1424D01*
X535Y1424D02*
X541Y1424D01*
X582Y1424D02*
X588Y1424D01*
X648Y1424D02*
X660Y1424D01*
X748Y1424D02*
X756Y1424D01*
X772Y1424D02*
X780Y1424D01*
X1251Y1424D02*
X1258Y1424D01*
X0Y1423D02*
X9Y1423D01*
X535Y1423D02*
X541Y1423D01*
X582Y1423D02*
X588Y1423D01*
X648Y1423D02*
X660Y1423D01*
X748Y1423D02*
X757Y1423D01*
X771Y1423D02*
X779Y1423D01*
X1251Y1423D02*
X1258Y1423D01*
X0Y1422D02*
X9Y1422D01*
X535Y1422D02*
X541Y1422D01*
X582Y1422D02*
X588Y1422D01*
X647Y1422D02*
X660Y1422D01*
X749Y1422D02*
X758Y1422D01*
X770Y1422D02*
X778Y1422D01*
X1251Y1422D02*
X1258Y1422D01*
X0Y1421D02*
X9Y1421D01*
X535Y1421D02*
X541Y1421D01*
X582Y1421D02*
X588Y1421D01*
X645Y1421D02*
X659Y1421D01*
X750Y1421D02*
X758Y1421D01*
X769Y1421D02*
X777Y1421D01*
X1251Y1421D02*
X1258Y1421D01*
X0Y1420D02*
X9Y1420D01*
X535Y1420D02*
X541Y1420D01*
X582Y1420D02*
X588Y1420D01*
X644Y1420D02*
X657Y1420D01*
X751Y1420D02*
X759Y1420D01*
X768Y1420D02*
X777Y1420D01*
X1251Y1420D02*
X1258Y1420D01*
X0Y1419D02*
X9Y1419D01*
X535Y1419D02*
X541Y1419D01*
X582Y1419D02*
X588Y1419D01*
X642Y1419D02*
X654Y1419D01*
X752Y1419D02*
X760Y1419D01*
X767Y1419D02*
X776Y1419D01*
X1251Y1419D02*
X1258Y1419D01*
X0Y1418D02*
X9Y1418D01*
X535Y1418D02*
X541Y1418D01*
X582Y1418D02*
X588Y1418D01*
X641Y1418D02*
X652Y1418D01*
X753Y1418D02*
X761Y1418D01*
X767Y1418D02*
X775Y1418D01*
X1251Y1418D02*
X1258Y1418D01*
X0Y1417D02*
X9Y1417D01*
X535Y1417D02*
X541Y1417D01*
X582Y1417D02*
X588Y1417D01*
X640Y1417D02*
X651Y1417D01*
X754Y1417D02*
X762Y1417D01*
X766Y1417D02*
X774Y1417D01*
X1251Y1417D02*
X1258Y1417D01*
X0Y1416D02*
X9Y1416D01*
X535Y1416D02*
X541Y1416D01*
X582Y1416D02*
X588Y1416D01*
X638Y1416D02*
X649Y1416D01*
X754Y1416D02*
X763Y1416D01*
X765Y1416D02*
X773Y1416D01*
X1251Y1416D02*
X1258Y1416D01*
X0Y1415D02*
X9Y1415D01*
X535Y1415D02*
X541Y1415D01*
X582Y1415D02*
X588Y1415D01*
X637Y1415D02*
X648Y1415D01*
X755Y1415D02*
X772Y1415D01*
X1251Y1415D02*
X1258Y1415D01*
X0Y1414D02*
X9Y1414D01*
X535Y1414D02*
X541Y1414D01*
X582Y1414D02*
X588Y1414D01*
X637Y1414D02*
X647Y1414D01*
X756Y1414D02*
X771Y1414D01*
X1251Y1414D02*
X1258Y1414D01*
X0Y1413D02*
X9Y1413D01*
X535Y1413D02*
X541Y1413D01*
X582Y1413D02*
X588Y1413D01*
X637Y1413D02*
X687Y1413D01*
X739Y1413D02*
X788Y1413D01*
X1251Y1413D02*
X1258Y1413D01*
X0Y1412D02*
X9Y1412D01*
X535Y1412D02*
X588Y1412D01*
X637Y1412D02*
X689Y1412D01*
X738Y1412D02*
X790Y1412D01*
X1251Y1412D02*
X1258Y1412D01*
X0Y1411D02*
X9Y1411D01*
X535Y1411D02*
X588Y1411D01*
X637Y1411D02*
X689Y1411D01*
X737Y1411D02*
X790Y1411D01*
X1251Y1411D02*
X1258Y1411D01*
X0Y1410D02*
X9Y1410D01*
X535Y1410D02*
X587Y1410D01*
X637Y1410D02*
X690Y1410D01*
X737Y1410D02*
X790Y1410D01*
X1251Y1410D02*
X1258Y1410D01*
X0Y1409D02*
X9Y1409D01*
X536Y1409D02*
X587Y1409D01*
X637Y1409D02*
X690Y1409D01*
X737Y1409D02*
X790Y1409D01*
X1251Y1409D02*
X1258Y1409D01*
X0Y1408D02*
X9Y1408D01*
X536Y1408D02*
X586Y1408D01*
X637Y1408D02*
X689Y1408D01*
X738Y1408D02*
X790Y1408D01*
X1251Y1408D02*
X1258Y1408D01*
X0Y1407D02*
X9Y1407D01*
X537Y1407D02*
X585Y1407D01*
X637Y1407D02*
X688Y1407D01*
X739Y1407D02*
X789Y1407D01*
X1251Y1407D02*
X1258Y1407D01*
X0Y1406D02*
X9Y1406D01*
X539Y1406D02*
X584Y1406D01*
X1251Y1406D02*
X1258Y1406D01*
X0Y1405D02*
X9Y1405D01*
X1251Y1405D02*
X1258Y1405D01*
X0Y1404D02*
X9Y1404D01*
X1251Y1404D02*
X1258Y1404D01*
X0Y1403D02*
X9Y1403D01*
X1251Y1403D02*
X1258Y1403D01*
X0Y1402D02*
X9Y1402D01*
X1251Y1402D02*
X1258Y1402D01*
X0Y1401D02*
X9Y1401D01*
X1251Y1401D02*
X1258Y1401D01*
X0Y1400D02*
X9Y1400D01*
X1251Y1400D02*
X1258Y1400D01*
X0Y1399D02*
X9Y1399D01*
X1251Y1399D02*
X1258Y1399D01*
X0Y1398D02*
X9Y1398D01*
X1251Y1398D02*
X1258Y1398D01*
X0Y1397D02*
X9Y1397D01*
X1251Y1397D02*
X1258Y1397D01*
X0Y1396D02*
X9Y1396D01*
X1251Y1396D02*
X1258Y1396D01*
X0Y1395D02*
X9Y1395D01*
X1251Y1395D02*
X1258Y1395D01*
X0Y1394D02*
X9Y1394D01*
X1251Y1394D02*
X1258Y1394D01*
X0Y1393D02*
X9Y1393D01*
X1251Y1393D02*
X1258Y1393D01*
X0Y1392D02*
X9Y1392D01*
X1251Y1392D02*
X1258Y1392D01*
X0Y1391D02*
X9Y1391D01*
X1251Y1391D02*
X1258Y1391D01*
X0Y1390D02*
X9Y1390D01*
X668Y1390D02*
X688Y1390D01*
X768Y1390D02*
X789Y1390D01*
X1251Y1390D02*
X1258Y1390D01*
X0Y1389D02*
X9Y1389D01*
X566Y1389D02*
X586Y1389D01*
X667Y1389D02*
X689Y1389D01*
X767Y1389D02*
X790Y1389D01*
X1251Y1389D02*
X1258Y1389D01*
X0Y1388D02*
X9Y1388D01*
X565Y1388D02*
X587Y1388D01*
X666Y1388D02*
X690Y1388D01*
X767Y1388D02*
X790Y1388D01*
X1251Y1388D02*
X1258Y1388D01*
X0Y1387D02*
X9Y1387D01*
X564Y1387D02*
X588Y1387D01*
X666Y1387D02*
X690Y1387D01*
X767Y1387D02*
X790Y1387D01*
X1251Y1387D02*
X1258Y1387D01*
X0Y1386D02*
X9Y1386D01*
X564Y1386D02*
X588Y1386D01*
X666Y1386D02*
X690Y1386D01*
X767Y1386D02*
X790Y1386D01*
X1251Y1386D02*
X1258Y1386D01*
X0Y1385D02*
X9Y1385D01*
X564Y1385D02*
X588Y1385D01*
X667Y1385D02*
X690Y1385D01*
X768Y1385D02*
X790Y1385D01*
X1251Y1385D02*
X1258Y1385D01*
X0Y1384D02*
X9Y1384D01*
X565Y1384D02*
X588Y1384D01*
X668Y1384D02*
X690Y1384D01*
X769Y1384D02*
X790Y1384D01*
X1251Y1384D02*
X1258Y1384D01*
X0Y1383D02*
X9Y1383D01*
X567Y1383D02*
X588Y1383D01*
X684Y1383D02*
X690Y1383D01*
X784Y1383D02*
X790Y1383D01*
X1251Y1383D02*
X1258Y1383D01*
X0Y1382D02*
X9Y1382D01*
X582Y1382D02*
X588Y1382D01*
X684Y1382D02*
X690Y1382D01*
X784Y1382D02*
X790Y1382D01*
X1251Y1382D02*
X1258Y1382D01*
X0Y1381D02*
X9Y1381D01*
X582Y1381D02*
X588Y1381D01*
X684Y1381D02*
X690Y1381D01*
X784Y1381D02*
X790Y1381D01*
X1251Y1381D02*
X1258Y1381D01*
X0Y1380D02*
X9Y1380D01*
X582Y1380D02*
X588Y1380D01*
X684Y1380D02*
X690Y1380D01*
X784Y1380D02*
X790Y1380D01*
X1251Y1380D02*
X1258Y1380D01*
X0Y1379D02*
X9Y1379D01*
X582Y1379D02*
X588Y1379D01*
X684Y1379D02*
X690Y1379D01*
X784Y1379D02*
X790Y1379D01*
X1251Y1379D02*
X1258Y1379D01*
X0Y1378D02*
X9Y1378D01*
X582Y1378D02*
X588Y1378D01*
X684Y1378D02*
X690Y1378D01*
X784Y1378D02*
X790Y1378D01*
X1251Y1378D02*
X1258Y1378D01*
X0Y1377D02*
X9Y1377D01*
X582Y1377D02*
X588Y1377D01*
X684Y1377D02*
X690Y1377D01*
X784Y1377D02*
X790Y1377D01*
X1251Y1377D02*
X1258Y1377D01*
X0Y1376D02*
X9Y1376D01*
X535Y1376D02*
X588Y1376D01*
X637Y1376D02*
X690Y1376D01*
X737Y1376D02*
X790Y1376D01*
X1251Y1376D02*
X1258Y1376D01*
X0Y1375D02*
X9Y1375D01*
X535Y1375D02*
X588Y1375D01*
X637Y1375D02*
X690Y1375D01*
X737Y1375D02*
X790Y1375D01*
X1251Y1375D02*
X1258Y1375D01*
X0Y1374D02*
X9Y1374D01*
X535Y1374D02*
X588Y1374D01*
X637Y1374D02*
X690Y1374D01*
X737Y1374D02*
X790Y1374D01*
X1251Y1374D02*
X1258Y1374D01*
X0Y1373D02*
X9Y1373D01*
X535Y1373D02*
X588Y1373D01*
X637Y1373D02*
X690Y1373D01*
X737Y1373D02*
X790Y1373D01*
X1251Y1373D02*
X1258Y1373D01*
X0Y1372D02*
X9Y1372D01*
X535Y1372D02*
X588Y1372D01*
X637Y1372D02*
X690Y1372D01*
X737Y1372D02*
X790Y1372D01*
X1251Y1372D02*
X1258Y1372D01*
X0Y1371D02*
X9Y1371D01*
X535Y1371D02*
X588Y1371D01*
X637Y1371D02*
X690Y1371D01*
X737Y1371D02*
X790Y1371D01*
X1251Y1371D02*
X1258Y1371D01*
X0Y1370D02*
X9Y1370D01*
X535Y1370D02*
X588Y1370D01*
X637Y1370D02*
X690Y1370D01*
X737Y1370D02*
X790Y1370D01*
X1251Y1370D02*
X1258Y1370D01*
X0Y1369D02*
X9Y1369D01*
X535Y1369D02*
X588Y1369D01*
X637Y1369D02*
X643Y1369D01*
X684Y1369D02*
X690Y1369D01*
X737Y1369D02*
X743Y1369D01*
X784Y1369D02*
X790Y1369D01*
X1251Y1369D02*
X1258Y1369D01*
X0Y1368D02*
X9Y1368D01*
X535Y1368D02*
X541Y1368D01*
X582Y1368D02*
X588Y1368D01*
X637Y1368D02*
X643Y1368D01*
X684Y1368D02*
X690Y1368D01*
X737Y1368D02*
X743Y1368D01*
X784Y1368D02*
X790Y1368D01*
X1251Y1368D02*
X1258Y1368D01*
X0Y1367D02*
X9Y1367D01*
X535Y1367D02*
X541Y1367D01*
X582Y1367D02*
X588Y1367D01*
X637Y1367D02*
X643Y1367D01*
X684Y1367D02*
X690Y1367D01*
X737Y1367D02*
X743Y1367D01*
X784Y1367D02*
X790Y1367D01*
X1251Y1367D02*
X1258Y1367D01*
X0Y1366D02*
X9Y1366D01*
X535Y1366D02*
X541Y1366D01*
X582Y1366D02*
X588Y1366D01*
X637Y1366D02*
X643Y1366D01*
X684Y1366D02*
X690Y1366D01*
X737Y1366D02*
X743Y1366D01*
X784Y1366D02*
X790Y1366D01*
X1251Y1366D02*
X1258Y1366D01*
X0Y1365D02*
X9Y1365D01*
X535Y1365D02*
X541Y1365D01*
X582Y1365D02*
X588Y1365D01*
X637Y1365D02*
X643Y1365D01*
X684Y1365D02*
X690Y1365D01*
X737Y1365D02*
X743Y1365D01*
X784Y1365D02*
X790Y1365D01*
X1251Y1365D02*
X1258Y1365D01*
X0Y1364D02*
X9Y1364D01*
X535Y1364D02*
X541Y1364D01*
X582Y1364D02*
X588Y1364D01*
X637Y1364D02*
X643Y1364D01*
X684Y1364D02*
X690Y1364D01*
X737Y1364D02*
X743Y1364D01*
X784Y1364D02*
X790Y1364D01*
X1251Y1364D02*
X1258Y1364D01*
X0Y1363D02*
X9Y1363D01*
X535Y1363D02*
X541Y1363D01*
X582Y1363D02*
X588Y1363D01*
X637Y1363D02*
X643Y1363D01*
X684Y1363D02*
X690Y1363D01*
X737Y1363D02*
X743Y1363D01*
X784Y1363D02*
X790Y1363D01*
X1251Y1363D02*
X1258Y1363D01*
X0Y1362D02*
X9Y1362D01*
X535Y1362D02*
X541Y1362D01*
X582Y1362D02*
X588Y1362D01*
X637Y1362D02*
X643Y1362D01*
X684Y1362D02*
X690Y1362D01*
X737Y1362D02*
X743Y1362D01*
X784Y1362D02*
X790Y1362D01*
X1251Y1362D02*
X1258Y1362D01*
X0Y1361D02*
X9Y1361D01*
X535Y1361D02*
X541Y1361D01*
X582Y1361D02*
X588Y1361D01*
X637Y1361D02*
X643Y1361D01*
X684Y1361D02*
X690Y1361D01*
X737Y1361D02*
X743Y1361D01*
X784Y1361D02*
X790Y1361D01*
X1251Y1361D02*
X1258Y1361D01*
X0Y1360D02*
X9Y1360D01*
X535Y1360D02*
X541Y1360D01*
X582Y1360D02*
X588Y1360D01*
X637Y1360D02*
X643Y1360D01*
X684Y1360D02*
X690Y1360D01*
X737Y1360D02*
X743Y1360D01*
X784Y1360D02*
X790Y1360D01*
X1251Y1360D02*
X1258Y1360D01*
X0Y1359D02*
X9Y1359D01*
X535Y1359D02*
X541Y1359D01*
X582Y1359D02*
X588Y1359D01*
X637Y1359D02*
X643Y1359D01*
X684Y1359D02*
X690Y1359D01*
X737Y1359D02*
X743Y1359D01*
X784Y1359D02*
X790Y1359D01*
X1251Y1359D02*
X1258Y1359D01*
X0Y1358D02*
X9Y1358D01*
X535Y1358D02*
X541Y1358D01*
X582Y1358D02*
X588Y1358D01*
X637Y1358D02*
X642Y1358D01*
X684Y1358D02*
X689Y1358D01*
X738Y1358D02*
X743Y1358D01*
X785Y1358D02*
X790Y1358D01*
X1251Y1358D02*
X1258Y1358D01*
X0Y1357D02*
X9Y1357D01*
X535Y1357D02*
X540Y1357D01*
X582Y1357D02*
X587Y1357D01*
X638Y1357D02*
X642Y1357D01*
X685Y1357D02*
X689Y1357D01*
X739Y1357D02*
X742Y1357D01*
X786Y1357D02*
X789Y1357D01*
X1251Y1357D02*
X1258Y1357D01*
X0Y1356D02*
X9Y1356D01*
X536Y1356D02*
X539Y1356D01*
X583Y1356D02*
X586Y1356D01*
X1251Y1356D02*
X1258Y1356D01*
X0Y1355D02*
X9Y1355D01*
X1251Y1355D02*
X1258Y1355D01*
X0Y1354D02*
X9Y1354D01*
X1251Y1354D02*
X1258Y1354D01*
X0Y1353D02*
X9Y1353D01*
X1251Y1353D02*
X1258Y1353D01*
X0Y1352D02*
X9Y1352D01*
X1251Y1352D02*
X1258Y1352D01*
X0Y1351D02*
X9Y1351D01*
X1251Y1351D02*
X1258Y1351D01*
X0Y1350D02*
X9Y1350D01*
X1251Y1350D02*
X1258Y1350D01*
X0Y1349D02*
X9Y1349D01*
X1251Y1349D02*
X1258Y1349D01*
X0Y1348D02*
X9Y1348D01*
X1251Y1348D02*
X1258Y1348D01*
X0Y1347D02*
X9Y1347D01*
X1251Y1347D02*
X1258Y1347D01*
X0Y1346D02*
X9Y1346D01*
X1251Y1346D02*
X1258Y1346D01*
X0Y1345D02*
X9Y1345D01*
X1251Y1345D02*
X1258Y1345D01*
X0Y1344D02*
X9Y1344D01*
X1251Y1344D02*
X1258Y1344D01*
X0Y1343D02*
X9Y1343D01*
X1251Y1343D02*
X1258Y1343D01*
X0Y1342D02*
X9Y1342D01*
X1251Y1342D02*
X1258Y1342D01*
X0Y1341D02*
X9Y1341D01*
X1251Y1341D02*
X1258Y1341D01*
X0Y1340D02*
X9Y1340D01*
X1251Y1340D02*
X1258Y1340D01*
X0Y1339D02*
X9Y1339D01*
X1251Y1339D02*
X1258Y1339D01*
X0Y1338D02*
X9Y1338D01*
X1251Y1338D02*
X1258Y1338D01*
X0Y1337D02*
X9Y1337D01*
X1251Y1337D02*
X1258Y1337D01*
X0Y1336D02*
X9Y1336D01*
X1251Y1336D02*
X1258Y1336D01*
X0Y1335D02*
X9Y1335D01*
X1251Y1335D02*
X1258Y1335D01*
X0Y1334D02*
X9Y1334D01*
X1251Y1334D02*
X1258Y1334D01*
X0Y1333D02*
X9Y1333D01*
X1251Y1333D02*
X1258Y1333D01*
X0Y1332D02*
X9Y1332D01*
X1251Y1332D02*
X1258Y1332D01*
X0Y1331D02*
X9Y1331D01*
X1251Y1331D02*
X1258Y1331D01*
X0Y1330D02*
X9Y1330D01*
X1251Y1330D02*
X1258Y1330D01*
X0Y1329D02*
X9Y1329D01*
X1251Y1329D02*
X1258Y1329D01*
X0Y1328D02*
X9Y1328D01*
X1251Y1328D02*
X1258Y1328D01*
X0Y1327D02*
X9Y1327D01*
X1251Y1327D02*
X1258Y1327D01*
X0Y1326D02*
X9Y1326D01*
X1251Y1326D02*
X1258Y1326D01*
X0Y1325D02*
X9Y1325D01*
X1251Y1325D02*
X1258Y1325D01*
X0Y1324D02*
X9Y1324D01*
X1251Y1324D02*
X1258Y1324D01*
X0Y1323D02*
X9Y1323D01*
X1251Y1323D02*
X1258Y1323D01*
X0Y1322D02*
X9Y1322D01*
X1251Y1322D02*
X1258Y1322D01*
X0Y1321D02*
X9Y1321D01*
X1251Y1321D02*
X1258Y1321D01*
X0Y1320D02*
X9Y1320D01*
X1251Y1320D02*
X1258Y1320D01*
X0Y1319D02*
X9Y1319D01*
X1251Y1319D02*
X1258Y1319D01*
X0Y1318D02*
X9Y1318D01*
X1251Y1318D02*
X1258Y1318D01*
X0Y1317D02*
X9Y1317D01*
X1251Y1317D02*
X1258Y1317D01*
X0Y1316D02*
X9Y1316D01*
X1251Y1316D02*
X1258Y1316D01*
X0Y1315D02*
X9Y1315D01*
X1251Y1315D02*
X1258Y1315D01*
X0Y1314D02*
X9Y1314D01*
X1251Y1314D02*
X1258Y1314D01*
X0Y1313D02*
X9Y1313D01*
X1251Y1313D02*
X1258Y1313D01*
X0Y1312D02*
X9Y1312D01*
X1251Y1312D02*
X1258Y1312D01*
X0Y1311D02*
X9Y1311D01*
X1251Y1311D02*
X1258Y1311D01*
X0Y1310D02*
X9Y1310D01*
X1251Y1310D02*
X1258Y1310D01*
X0Y1309D02*
X9Y1309D01*
X1251Y1309D02*
X1258Y1309D01*
X0Y1308D02*
X9Y1308D01*
X1251Y1308D02*
X1258Y1308D01*
X0Y1307D02*
X9Y1307D01*
X1251Y1307D02*
X1258Y1307D01*
X0Y1306D02*
X9Y1306D01*
X1251Y1306D02*
X1258Y1306D01*
X0Y1305D02*
X9Y1305D01*
X1251Y1305D02*
X1258Y1305D01*
X0Y1304D02*
X9Y1304D01*
X1251Y1304D02*
X1258Y1304D01*
X0Y1303D02*
X9Y1303D01*
X1251Y1303D02*
X1258Y1303D01*
X0Y1302D02*
X9Y1302D01*
X1251Y1302D02*
X1258Y1302D01*
X0Y1301D02*
X9Y1301D01*
X1251Y1301D02*
X1258Y1301D01*
X0Y1300D02*
X9Y1300D01*
X1251Y1300D02*
X1258Y1300D01*
X0Y1299D02*
X9Y1299D01*
X1251Y1299D02*
X1258Y1299D01*
X0Y1298D02*
X9Y1298D01*
X757Y1298D02*
X766Y1298D01*
X1251Y1298D02*
X1258Y1298D01*
X0Y1297D02*
X9Y1297D01*
X656Y1297D02*
X665Y1297D01*
X757Y1297D02*
X766Y1297D01*
X1251Y1297D02*
X1258Y1297D01*
X0Y1296D02*
X9Y1296D01*
X656Y1296D02*
X665Y1296D01*
X757Y1296D02*
X766Y1296D01*
X1251Y1296D02*
X1258Y1296D01*
X0Y1295D02*
X9Y1295D01*
X656Y1295D02*
X665Y1295D01*
X757Y1295D02*
X766Y1295D01*
X1251Y1295D02*
X1258Y1295D01*
X0Y1294D02*
X9Y1294D01*
X656Y1294D02*
X665Y1294D01*
X757Y1294D02*
X766Y1294D01*
X1251Y1294D02*
X1258Y1294D01*
X0Y1293D02*
X9Y1293D01*
X656Y1293D02*
X665Y1293D01*
X757Y1293D02*
X766Y1293D01*
X1251Y1293D02*
X1258Y1293D01*
X0Y1292D02*
X9Y1292D01*
X656Y1292D02*
X665Y1292D01*
X757Y1292D02*
X766Y1292D01*
X1251Y1292D02*
X1258Y1292D01*
X0Y1291D02*
X9Y1291D01*
X656Y1291D02*
X665Y1291D01*
X757Y1291D02*
X766Y1291D01*
X1251Y1291D02*
X1258Y1291D01*
X0Y1290D02*
X9Y1290D01*
X656Y1290D02*
X665Y1290D01*
X757Y1290D02*
X766Y1290D01*
X1251Y1290D02*
X1258Y1290D01*
X0Y1289D02*
X9Y1289D01*
X656Y1289D02*
X665Y1289D01*
X757Y1289D02*
X766Y1289D01*
X1251Y1289D02*
X1258Y1289D01*
X0Y1288D02*
X9Y1288D01*
X656Y1288D02*
X665Y1288D01*
X757Y1288D02*
X766Y1288D01*
X1251Y1288D02*
X1258Y1288D01*
X0Y1287D02*
X9Y1287D01*
X656Y1287D02*
X665Y1287D01*
X757Y1287D02*
X766Y1287D01*
X1251Y1287D02*
X1258Y1287D01*
X0Y1286D02*
X9Y1286D01*
X656Y1286D02*
X665Y1286D01*
X757Y1286D02*
X766Y1286D01*
X1251Y1286D02*
X1258Y1286D01*
X0Y1285D02*
X9Y1285D01*
X656Y1285D02*
X665Y1285D01*
X757Y1285D02*
X766Y1285D01*
X1251Y1285D02*
X1258Y1285D01*
X0Y1284D02*
X9Y1284D01*
X656Y1284D02*
X665Y1284D01*
X757Y1284D02*
X766Y1284D01*
X1251Y1284D02*
X1258Y1284D01*
X0Y1283D02*
X9Y1283D01*
X656Y1283D02*
X665Y1283D01*
X757Y1283D02*
X766Y1283D01*
X1251Y1283D02*
X1258Y1283D01*
X0Y1282D02*
X9Y1282D01*
X656Y1282D02*
X665Y1282D01*
X757Y1282D02*
X766Y1282D01*
X1251Y1282D02*
X1258Y1282D01*
X0Y1281D02*
X9Y1281D01*
X656Y1281D02*
X665Y1281D01*
X757Y1281D02*
X766Y1281D01*
X1251Y1281D02*
X1258Y1281D01*
X0Y1280D02*
X9Y1280D01*
X656Y1280D02*
X665Y1280D01*
X757Y1280D02*
X766Y1280D01*
X1251Y1280D02*
X1258Y1280D01*
X0Y1279D02*
X9Y1279D01*
X656Y1279D02*
X665Y1279D01*
X757Y1279D02*
X766Y1279D01*
X1251Y1279D02*
X1258Y1279D01*
X0Y1278D02*
X9Y1278D01*
X656Y1278D02*
X665Y1278D01*
X757Y1278D02*
X766Y1278D01*
X1251Y1278D02*
X1258Y1278D01*
X0Y1277D02*
X9Y1277D01*
X656Y1277D02*
X665Y1277D01*
X757Y1277D02*
X766Y1277D01*
X1251Y1277D02*
X1258Y1277D01*
X0Y1276D02*
X9Y1276D01*
X656Y1276D02*
X665Y1276D01*
X757Y1276D02*
X766Y1276D01*
X1251Y1276D02*
X1258Y1276D01*
X0Y1275D02*
X9Y1275D01*
X656Y1275D02*
X665Y1275D01*
X757Y1275D02*
X766Y1275D01*
X1251Y1275D02*
X1258Y1275D01*
X0Y1274D02*
X9Y1274D01*
X656Y1274D02*
X665Y1274D01*
X757Y1274D02*
X766Y1274D01*
X1251Y1274D02*
X1258Y1274D01*
X0Y1273D02*
X9Y1273D01*
X656Y1273D02*
X665Y1273D01*
X757Y1273D02*
X766Y1273D01*
X1251Y1273D02*
X1258Y1273D01*
X0Y1272D02*
X9Y1272D01*
X656Y1272D02*
X665Y1272D01*
X757Y1272D02*
X766Y1272D01*
X1251Y1272D02*
X1258Y1272D01*
X0Y1271D02*
X9Y1271D01*
X656Y1271D02*
X665Y1271D01*
X757Y1271D02*
X766Y1271D01*
X1251Y1271D02*
X1258Y1271D01*
X0Y1270D02*
X9Y1270D01*
X656Y1270D02*
X665Y1270D01*
X757Y1270D02*
X766Y1270D01*
X1251Y1270D02*
X1258Y1270D01*
X0Y1269D02*
X9Y1269D01*
X656Y1269D02*
X665Y1269D01*
X757Y1269D02*
X766Y1269D01*
X1251Y1269D02*
X1258Y1269D01*
X0Y1268D02*
X9Y1268D01*
X656Y1268D02*
X665Y1268D01*
X757Y1268D02*
X766Y1268D01*
X1251Y1268D02*
X1258Y1268D01*
X0Y1267D02*
X9Y1267D01*
X656Y1267D02*
X665Y1267D01*
X757Y1267D02*
X766Y1267D01*
X1251Y1267D02*
X1258Y1267D01*
X0Y1266D02*
X9Y1266D01*
X656Y1266D02*
X665Y1266D01*
X757Y1266D02*
X766Y1266D01*
X1251Y1266D02*
X1258Y1266D01*
X0Y1265D02*
X9Y1265D01*
X656Y1265D02*
X665Y1265D01*
X757Y1265D02*
X766Y1265D01*
X1251Y1265D02*
X1258Y1265D01*
X0Y1264D02*
X9Y1264D01*
X656Y1264D02*
X665Y1264D01*
X757Y1264D02*
X766Y1264D01*
X1251Y1264D02*
X1258Y1264D01*
X0Y1263D02*
X9Y1263D01*
X656Y1263D02*
X665Y1263D01*
X757Y1263D02*
X766Y1263D01*
X1251Y1263D02*
X1258Y1263D01*
X0Y1262D02*
X9Y1262D01*
X656Y1262D02*
X665Y1262D01*
X757Y1262D02*
X766Y1262D01*
X1251Y1262D02*
X1258Y1262D01*
X0Y1261D02*
X9Y1261D01*
X656Y1261D02*
X665Y1261D01*
X757Y1261D02*
X766Y1261D01*
X1251Y1261D02*
X1258Y1261D01*
X0Y1260D02*
X9Y1260D01*
X656Y1260D02*
X665Y1260D01*
X757Y1260D02*
X766Y1260D01*
X1251Y1260D02*
X1258Y1260D01*
X0Y1259D02*
X9Y1259D01*
X656Y1259D02*
X665Y1259D01*
X757Y1259D02*
X766Y1259D01*
X1251Y1259D02*
X1258Y1259D01*
X0Y1258D02*
X9Y1258D01*
X532Y1258D02*
X533Y1258D01*
X585Y1258D02*
X586Y1258D01*
X656Y1258D02*
X665Y1258D01*
X757Y1258D02*
X766Y1258D01*
X1251Y1258D02*
X1258Y1258D01*
X0Y1257D02*
X9Y1257D01*
X531Y1257D02*
X534Y1257D01*
X584Y1257D02*
X586Y1257D01*
X656Y1257D02*
X665Y1257D01*
X757Y1257D02*
X766Y1257D01*
X1251Y1257D02*
X1258Y1257D01*
X0Y1256D02*
X9Y1256D01*
X530Y1256D02*
X535Y1256D01*
X582Y1256D02*
X587Y1256D01*
X656Y1256D02*
X665Y1256D01*
X757Y1256D02*
X766Y1256D01*
X1251Y1256D02*
X1258Y1256D01*
X0Y1255D02*
X9Y1255D01*
X530Y1255D02*
X537Y1255D01*
X581Y1255D02*
X588Y1255D01*
X656Y1255D02*
X665Y1255D01*
X757Y1255D02*
X766Y1255D01*
X1251Y1255D02*
X1258Y1255D01*
X0Y1254D02*
X9Y1254D01*
X529Y1254D02*
X537Y1254D01*
X580Y1254D02*
X588Y1254D01*
X656Y1254D02*
X665Y1254D01*
X757Y1254D02*
X766Y1254D01*
X1251Y1254D02*
X1258Y1254D01*
X0Y1253D02*
X9Y1253D01*
X529Y1253D02*
X537Y1253D01*
X581Y1253D02*
X589Y1253D01*
X656Y1253D02*
X665Y1253D01*
X757Y1253D02*
X766Y1253D01*
X1251Y1253D02*
X1258Y1253D01*
X0Y1252D02*
X9Y1252D01*
X528Y1252D02*
X536Y1252D01*
X581Y1252D02*
X589Y1252D01*
X656Y1252D02*
X665Y1252D01*
X757Y1252D02*
X766Y1252D01*
X1251Y1252D02*
X1258Y1252D01*
X0Y1251D02*
X9Y1251D01*
X528Y1251D02*
X535Y1251D01*
X582Y1251D02*
X590Y1251D01*
X656Y1251D02*
X665Y1251D01*
X757Y1251D02*
X766Y1251D01*
X1251Y1251D02*
X1258Y1251D01*
X0Y1250D02*
X9Y1250D01*
X527Y1250D02*
X535Y1250D01*
X582Y1250D02*
X590Y1250D01*
X656Y1250D02*
X665Y1250D01*
X757Y1250D02*
X766Y1250D01*
X1251Y1250D02*
X1258Y1250D01*
X0Y1249D02*
X9Y1249D01*
X527Y1249D02*
X534Y1249D01*
X583Y1249D02*
X590Y1249D01*
X656Y1249D02*
X665Y1249D01*
X757Y1249D02*
X766Y1249D01*
X1251Y1249D02*
X1258Y1249D01*
X0Y1248D02*
X9Y1248D01*
X527Y1248D02*
X534Y1248D01*
X583Y1248D02*
X591Y1248D01*
X656Y1248D02*
X665Y1248D01*
X757Y1248D02*
X766Y1248D01*
X1251Y1248D02*
X1258Y1248D01*
X0Y1247D02*
X9Y1247D01*
X527Y1247D02*
X534Y1247D01*
X584Y1247D02*
X591Y1247D01*
X656Y1247D02*
X665Y1247D01*
X757Y1247D02*
X766Y1247D01*
X1251Y1247D02*
X1258Y1247D01*
X0Y1246D02*
X9Y1246D01*
X526Y1246D02*
X533Y1246D01*
X584Y1246D02*
X591Y1246D01*
X656Y1246D02*
X665Y1246D01*
X757Y1246D02*
X766Y1246D01*
X1251Y1246D02*
X1258Y1246D01*
X0Y1245D02*
X9Y1245D01*
X526Y1245D02*
X533Y1245D01*
X584Y1245D02*
X591Y1245D01*
X656Y1245D02*
X665Y1245D01*
X757Y1245D02*
X766Y1245D01*
X1251Y1245D02*
X1258Y1245D01*
X0Y1244D02*
X9Y1244D01*
X526Y1244D02*
X533Y1244D01*
X585Y1244D02*
X592Y1244D01*
X656Y1244D02*
X665Y1244D01*
X757Y1244D02*
X766Y1244D01*
X1251Y1244D02*
X1258Y1244D01*
X0Y1243D02*
X9Y1243D01*
X526Y1243D02*
X532Y1243D01*
X585Y1243D02*
X592Y1243D01*
X656Y1243D02*
X665Y1243D01*
X757Y1243D02*
X766Y1243D01*
X1251Y1243D02*
X1258Y1243D01*
X0Y1242D02*
X9Y1242D01*
X526Y1242D02*
X532Y1242D01*
X585Y1242D02*
X592Y1242D01*
X656Y1242D02*
X665Y1242D01*
X757Y1242D02*
X766Y1242D01*
X1251Y1242D02*
X1258Y1242D01*
X0Y1241D02*
X9Y1241D01*
X525Y1241D02*
X532Y1241D01*
X585Y1241D02*
X592Y1241D01*
X656Y1241D02*
X665Y1241D01*
X757Y1241D02*
X766Y1241D01*
X1251Y1241D02*
X1258Y1241D01*
X0Y1240D02*
X9Y1240D01*
X525Y1240D02*
X532Y1240D01*
X585Y1240D02*
X592Y1240D01*
X656Y1240D02*
X665Y1240D01*
X757Y1240D02*
X766Y1240D01*
X1251Y1240D02*
X1258Y1240D01*
X0Y1239D02*
X9Y1239D01*
X525Y1239D02*
X532Y1239D01*
X585Y1239D02*
X592Y1239D01*
X656Y1239D02*
X665Y1239D01*
X757Y1239D02*
X766Y1239D01*
X1251Y1239D02*
X1258Y1239D01*
X0Y1238D02*
X9Y1238D01*
X525Y1238D02*
X532Y1238D01*
X585Y1238D02*
X592Y1238D01*
X656Y1238D02*
X665Y1238D01*
X757Y1238D02*
X766Y1238D01*
X1251Y1238D02*
X1258Y1238D01*
X0Y1237D02*
X9Y1237D01*
X525Y1237D02*
X532Y1237D01*
X585Y1237D02*
X592Y1237D01*
X656Y1237D02*
X665Y1237D01*
X757Y1237D02*
X766Y1237D01*
X1251Y1237D02*
X1258Y1237D01*
X0Y1236D02*
X9Y1236D01*
X526Y1236D02*
X532Y1236D01*
X585Y1236D02*
X592Y1236D01*
X656Y1236D02*
X665Y1236D01*
X757Y1236D02*
X766Y1236D01*
X1251Y1236D02*
X1258Y1236D01*
X0Y1235D02*
X9Y1235D01*
X526Y1235D02*
X532Y1235D01*
X585Y1235D02*
X592Y1235D01*
X656Y1235D02*
X665Y1235D01*
X757Y1235D02*
X766Y1235D01*
X1251Y1235D02*
X1258Y1235D01*
X0Y1234D02*
X9Y1234D01*
X526Y1234D02*
X532Y1234D01*
X585Y1234D02*
X592Y1234D01*
X656Y1234D02*
X665Y1234D01*
X757Y1234D02*
X766Y1234D01*
X1251Y1234D02*
X1258Y1234D01*
X0Y1233D02*
X9Y1233D01*
X526Y1233D02*
X533Y1233D01*
X585Y1233D02*
X591Y1233D01*
X656Y1233D02*
X665Y1233D01*
X757Y1233D02*
X766Y1233D01*
X1251Y1233D02*
X1258Y1233D01*
X0Y1232D02*
X9Y1232D01*
X526Y1232D02*
X533Y1232D01*
X584Y1232D02*
X591Y1232D01*
X656Y1232D02*
X665Y1232D01*
X757Y1232D02*
X766Y1232D01*
X1251Y1232D02*
X1258Y1232D01*
X0Y1231D02*
X9Y1231D01*
X526Y1231D02*
X533Y1231D01*
X584Y1231D02*
X591Y1231D01*
X656Y1231D02*
X665Y1231D01*
X757Y1231D02*
X758Y1231D01*
X765Y1231D02*
X766Y1231D01*
X1251Y1231D02*
X1258Y1231D01*
X0Y1230D02*
X9Y1230D01*
X527Y1230D02*
X534Y1230D01*
X584Y1230D02*
X591Y1230D01*
X1251Y1230D02*
X1258Y1230D01*
X0Y1229D02*
X9Y1229D01*
X527Y1229D02*
X534Y1229D01*
X583Y1229D02*
X591Y1229D01*
X1251Y1229D02*
X1258Y1229D01*
X0Y1228D02*
X9Y1228D01*
X527Y1228D02*
X534Y1228D01*
X583Y1228D02*
X590Y1228D01*
X1251Y1228D02*
X1258Y1228D01*
X0Y1227D02*
X9Y1227D01*
X527Y1227D02*
X535Y1227D01*
X582Y1227D02*
X590Y1227D01*
X1251Y1227D02*
X1258Y1227D01*
X0Y1226D02*
X9Y1226D01*
X528Y1226D02*
X536Y1226D01*
X582Y1226D02*
X589Y1226D01*
X1251Y1226D02*
X1258Y1226D01*
X0Y1225D02*
X9Y1225D01*
X528Y1225D02*
X536Y1225D01*
X581Y1225D02*
X589Y1225D01*
X1251Y1225D02*
X1258Y1225D01*
X0Y1224D02*
X9Y1224D01*
X529Y1224D02*
X537Y1224D01*
X580Y1224D02*
X589Y1224D01*
X1251Y1224D02*
X1258Y1224D01*
X0Y1223D02*
X9Y1223D01*
X529Y1223D02*
X537Y1223D01*
X580Y1223D02*
X588Y1223D01*
X1251Y1223D02*
X1258Y1223D01*
X0Y1222D02*
X9Y1222D01*
X530Y1222D02*
X537Y1222D01*
X581Y1222D02*
X588Y1222D01*
X1251Y1222D02*
X1258Y1222D01*
X0Y1221D02*
X9Y1221D01*
X530Y1221D02*
X535Y1221D01*
X582Y1221D02*
X587Y1221D01*
X1251Y1221D02*
X1258Y1221D01*
X0Y1220D02*
X9Y1220D01*
X531Y1220D02*
X534Y1220D01*
X584Y1220D02*
X586Y1220D01*
X1251Y1220D02*
X1258Y1220D01*
X0Y1219D02*
X9Y1219D01*
X532Y1219D02*
X532Y1219D01*
X585Y1219D02*
X586Y1219D01*
X0Y1218D02*
X9Y1218D01*
X0Y1217D02*
X9Y1217D01*
X0Y1216D02*
X9Y1216D01*
X0Y1215D02*
X9Y1215D01*
X0Y1214D02*
X9Y1214D01*
X0Y1213D02*
X9Y1213D01*
X0Y1212D02*
X9Y1212D01*
X1251Y1212D02*
X1258Y1212D01*
X0Y1211D02*
X9Y1211D01*
X1251Y1211D02*
X1258Y1211D01*
X0Y1210D02*
X9Y1210D01*
X1251Y1210D02*
X1258Y1210D01*
X0Y1209D02*
X9Y1209D01*
X1251Y1209D02*
X1258Y1209D01*
X0Y1208D02*
X9Y1208D01*
X1251Y1208D02*
X1258Y1208D01*
X0Y1207D02*
X9Y1207D01*
X1251Y1207D02*
X1258Y1207D01*
X0Y1206D02*
X9Y1206D01*
X1251Y1206D02*
X1258Y1206D01*
X0Y1205D02*
X9Y1205D01*
X1251Y1205D02*
X1258Y1205D01*
X0Y1204D02*
X9Y1204D01*
X1251Y1204D02*
X1258Y1204D01*
X0Y1203D02*
X9Y1203D01*
X1251Y1203D02*
X1258Y1203D01*
X0Y1202D02*
X9Y1202D01*
X1251Y1202D02*
X1258Y1202D01*
X0Y1201D02*
X9Y1201D01*
X1251Y1201D02*
X1258Y1201D01*
X0Y1200D02*
X9Y1200D01*
X1251Y1200D02*
X1258Y1200D01*
X0Y1199D02*
X9Y1199D01*
X1251Y1199D02*
X1258Y1199D01*
X0Y1198D02*
X9Y1198D01*
X1251Y1198D02*
X1258Y1198D01*
X0Y1197D02*
X9Y1197D01*
X1251Y1197D02*
X1258Y1197D01*
X0Y1196D02*
X9Y1196D01*
X1251Y1196D02*
X1258Y1196D01*
X0Y1195D02*
X9Y1195D01*
X1251Y1195D02*
X1258Y1195D01*
X0Y1194D02*
X9Y1194D01*
X1251Y1194D02*
X1258Y1194D01*
X0Y1193D02*
X9Y1193D01*
X1251Y1193D02*
X1258Y1193D01*
X0Y1192D02*
X9Y1192D01*
X1251Y1192D02*
X1258Y1192D01*
X0Y1191D02*
X9Y1191D01*
X1251Y1191D02*
X1258Y1191D01*
X0Y1190D02*
X9Y1190D01*
X1251Y1190D02*
X1258Y1190D01*
X0Y1189D02*
X9Y1189D01*
X1251Y1189D02*
X1258Y1189D01*
X0Y1188D02*
X9Y1188D01*
X1251Y1188D02*
X1258Y1188D01*
X0Y1187D02*
X9Y1187D01*
X1251Y1187D02*
X1258Y1187D01*
X0Y1186D02*
X9Y1186D01*
X1251Y1186D02*
X1258Y1186D01*
X0Y1185D02*
X9Y1185D01*
X1251Y1185D02*
X1258Y1185D01*
X0Y1184D02*
X9Y1184D01*
X1251Y1184D02*
X1258Y1184D01*
X0Y1183D02*
X9Y1183D01*
X1251Y1183D02*
X1258Y1183D01*
X0Y1182D02*
X9Y1182D01*
X1251Y1182D02*
X1258Y1182D01*
X0Y1181D02*
X9Y1181D01*
X1251Y1181D02*
X1258Y1181D01*
X0Y1180D02*
X9Y1180D01*
X1251Y1180D02*
X1258Y1180D01*
X0Y1179D02*
X9Y1179D01*
X1251Y1179D02*
X1258Y1179D01*
X0Y1178D02*
X9Y1178D01*
X1251Y1178D02*
X1258Y1178D01*
X0Y1177D02*
X9Y1177D01*
X1251Y1177D02*
X1258Y1177D01*
X0Y1176D02*
X9Y1176D01*
X1251Y1176D02*
X1258Y1176D01*
X0Y1175D02*
X9Y1175D01*
X1251Y1175D02*
X1258Y1175D01*
X0Y1174D02*
X9Y1174D01*
X1251Y1174D02*
X1258Y1174D01*
X0Y1173D02*
X9Y1173D01*
X1251Y1173D02*
X1258Y1173D01*
X0Y1172D02*
X9Y1172D01*
X1251Y1172D02*
X1258Y1172D01*
X0Y1171D02*
X9Y1171D01*
X1251Y1171D02*
X1258Y1171D01*
X0Y1170D02*
X9Y1170D01*
X1251Y1170D02*
X1258Y1170D01*
X0Y1169D02*
X9Y1169D01*
X1251Y1169D02*
X1258Y1169D01*
X0Y1168D02*
X9Y1168D01*
X1251Y1168D02*
X1258Y1168D01*
X0Y1167D02*
X9Y1167D01*
X1251Y1167D02*
X1258Y1167D01*
X0Y1166D02*
X9Y1166D01*
X1251Y1166D02*
X1258Y1166D01*
X0Y1165D02*
X9Y1165D01*
X1251Y1165D02*
X1258Y1165D01*
X0Y1164D02*
X9Y1164D01*
X1251Y1164D02*
X1258Y1164D01*
X0Y1163D02*
X9Y1163D01*
X1251Y1163D02*
X1258Y1163D01*
X0Y1162D02*
X9Y1162D01*
X1251Y1162D02*
X1258Y1162D01*
X0Y1161D02*
X9Y1161D01*
X1251Y1161D02*
X1258Y1161D01*
X0Y1160D02*
X9Y1160D01*
X1251Y1160D02*
X1258Y1160D01*
X0Y1159D02*
X9Y1159D01*
X1251Y1159D02*
X1258Y1159D01*
X0Y1158D02*
X9Y1158D01*
X1251Y1158D02*
X1258Y1158D01*
X0Y1157D02*
X9Y1157D01*
X1251Y1157D02*
X1258Y1157D01*
X0Y1156D02*
X9Y1156D01*
X1251Y1156D02*
X1258Y1156D01*
X0Y1155D02*
X9Y1155D01*
X1251Y1155D02*
X1258Y1155D01*
X0Y1154D02*
X9Y1154D01*
X1251Y1154D02*
X1258Y1154D01*
X0Y1153D02*
X9Y1153D01*
X1251Y1153D02*
X1258Y1153D01*
X0Y1152D02*
X9Y1152D01*
X1251Y1152D02*
X1258Y1152D01*
X0Y1151D02*
X9Y1151D01*
X1251Y1151D02*
X1258Y1151D01*
X0Y1150D02*
X9Y1150D01*
X1251Y1150D02*
X1258Y1150D01*
X0Y1149D02*
X9Y1149D01*
X1251Y1149D02*
X1258Y1149D01*
X0Y1148D02*
X9Y1148D01*
X1251Y1148D02*
X1258Y1148D01*
X0Y1147D02*
X9Y1147D01*
X1251Y1147D02*
X1258Y1147D01*
X0Y1146D02*
X9Y1146D01*
X1251Y1146D02*
X1258Y1146D01*
X0Y1145D02*
X9Y1145D01*
X1251Y1145D02*
X1258Y1145D01*
X0Y1144D02*
X9Y1144D01*
X1251Y1144D02*
X1258Y1144D01*
X0Y1143D02*
X9Y1143D01*
X1251Y1143D02*
X1258Y1143D01*
X0Y1142D02*
X9Y1142D01*
X1251Y1142D02*
X1258Y1142D01*
X0Y1141D02*
X9Y1141D01*
X1251Y1141D02*
X1258Y1141D01*
X0Y1140D02*
X9Y1140D01*
X1251Y1140D02*
X1258Y1140D01*
X0Y1139D02*
X9Y1139D01*
X1251Y1139D02*
X1258Y1139D01*
X0Y1138D02*
X9Y1138D01*
X1251Y1138D02*
X1258Y1138D01*
X0Y1137D02*
X9Y1137D01*
X1251Y1137D02*
X1258Y1137D01*
X0Y1136D02*
X9Y1136D01*
X1251Y1136D02*
X1258Y1136D01*
X0Y1135D02*
X9Y1135D01*
X1251Y1135D02*
X1258Y1135D01*
X0Y1134D02*
X9Y1134D01*
X1251Y1134D02*
X1258Y1134D01*
X0Y1133D02*
X9Y1133D01*
X1251Y1133D02*
X1258Y1133D01*
X0Y1132D02*
X9Y1132D01*
X1251Y1132D02*
X1258Y1132D01*
X0Y1131D02*
X9Y1131D01*
X1251Y1131D02*
X1258Y1131D01*
X0Y1130D02*
X9Y1130D01*
X1251Y1130D02*
X1258Y1130D01*
X0Y1129D02*
X9Y1129D01*
X1251Y1129D02*
X1258Y1129D01*
X0Y1128D02*
X9Y1128D01*
X1251Y1128D02*
X1258Y1128D01*
X0Y1127D02*
X9Y1127D01*
X1251Y1127D02*
X1258Y1127D01*
X0Y1126D02*
X9Y1126D01*
X1251Y1126D02*
X1258Y1126D01*
X0Y1125D02*
X9Y1125D01*
X1251Y1125D02*
X1258Y1125D01*
X0Y1124D02*
X9Y1124D01*
X1251Y1124D02*
X1258Y1124D01*
X0Y1123D02*
X9Y1123D01*
X1251Y1123D02*
X1258Y1123D01*
X0Y1122D02*
X9Y1122D01*
X1251Y1122D02*
X1258Y1122D01*
X0Y1121D02*
X9Y1121D01*
X1251Y1121D02*
X1258Y1121D01*
X0Y1120D02*
X9Y1120D01*
X1251Y1120D02*
X1258Y1120D01*
X0Y1119D02*
X9Y1119D01*
X1251Y1119D02*
X1258Y1119D01*
X0Y1118D02*
X9Y1118D01*
X1251Y1118D02*
X1258Y1118D01*
X0Y1117D02*
X9Y1117D01*
X1251Y1117D02*
X1258Y1117D01*
X0Y1116D02*
X9Y1116D01*
X1251Y1116D02*
X1258Y1116D01*
X0Y1115D02*
X9Y1115D01*
X1251Y1115D02*
X1258Y1115D01*
X0Y1114D02*
X9Y1114D01*
X1251Y1114D02*
X1258Y1114D01*
X0Y1113D02*
X9Y1113D01*
X1251Y1113D02*
X1258Y1113D01*
X0Y1112D02*
X9Y1112D01*
X1251Y1112D02*
X1258Y1112D01*
X0Y1111D02*
X9Y1111D01*
X1251Y1111D02*
X1258Y1111D01*
X0Y1110D02*
X9Y1110D01*
X1251Y1110D02*
X1258Y1110D01*
X0Y1109D02*
X9Y1109D01*
X1251Y1109D02*
X1258Y1109D01*
X0Y1108D02*
X9Y1108D01*
X1251Y1108D02*
X1258Y1108D01*
X0Y1107D02*
X9Y1107D01*
X1251Y1107D02*
X1258Y1107D01*
X0Y1106D02*
X9Y1106D01*
X1251Y1106D02*
X1258Y1106D01*
X0Y1105D02*
X9Y1105D01*
X1251Y1105D02*
X1258Y1105D01*
X0Y1104D02*
X9Y1104D01*
X1251Y1104D02*
X1258Y1104D01*
X0Y1103D02*
X9Y1103D01*
X1251Y1103D02*
X1258Y1103D01*
X0Y1102D02*
X9Y1102D01*
X1251Y1102D02*
X1258Y1102D01*
X0Y1101D02*
X9Y1101D01*
X1251Y1101D02*
X1258Y1101D01*
X0Y1100D02*
X9Y1100D01*
X1251Y1100D02*
X1258Y1100D01*
X0Y1099D02*
X9Y1099D01*
X1251Y1099D02*
X1258Y1099D01*
X0Y1098D02*
X9Y1098D01*
X1251Y1098D02*
X1258Y1098D01*
X0Y1097D02*
X9Y1097D01*
X1251Y1097D02*
X1258Y1097D01*
X0Y1096D02*
X9Y1096D01*
X1251Y1096D02*
X1258Y1096D01*
X0Y1095D02*
X9Y1095D01*
X1251Y1095D02*
X1258Y1095D01*
X0Y1094D02*
X9Y1094D01*
X1251Y1094D02*
X1258Y1094D01*
X0Y1093D02*
X9Y1093D01*
X1251Y1093D02*
X1258Y1093D01*
X0Y1092D02*
X9Y1092D01*
X1251Y1092D02*
X1258Y1092D01*
X0Y1091D02*
X9Y1091D01*
X1251Y1091D02*
X1258Y1091D01*
X0Y1090D02*
X9Y1090D01*
X1251Y1090D02*
X1258Y1090D01*
X0Y1089D02*
X9Y1089D01*
X1251Y1089D02*
X1258Y1089D01*
X0Y1088D02*
X9Y1088D01*
X1251Y1088D02*
X1258Y1088D01*
X0Y1087D02*
X9Y1087D01*
X1251Y1087D02*
X1258Y1087D01*
X0Y1086D02*
X9Y1086D01*
X1251Y1086D02*
X1258Y1086D01*
X0Y1085D02*
X9Y1085D01*
X1251Y1085D02*
X1258Y1085D01*
X0Y1084D02*
X9Y1084D01*
X1251Y1084D02*
X1258Y1084D01*
X0Y1083D02*
X9Y1083D01*
X1251Y1083D02*
X1258Y1083D01*
X0Y1082D02*
X9Y1082D01*
X1251Y1082D02*
X1258Y1082D01*
X0Y1081D02*
X9Y1081D01*
X1251Y1081D02*
X1258Y1081D01*
X0Y1080D02*
X9Y1080D01*
X1251Y1080D02*
X1258Y1080D01*
X0Y1079D02*
X9Y1079D01*
X1251Y1079D02*
X1258Y1079D01*
X0Y1078D02*
X9Y1078D01*
X1251Y1078D02*
X1258Y1078D01*
X0Y1077D02*
X9Y1077D01*
X1251Y1077D02*
X1258Y1077D01*
X0Y1076D02*
X9Y1076D01*
X1251Y1076D02*
X1258Y1076D01*
X0Y1075D02*
X9Y1075D01*
X1251Y1075D02*
X1258Y1075D01*
X0Y1074D02*
X9Y1074D01*
X1251Y1074D02*
X1258Y1074D01*
X0Y1073D02*
X9Y1073D01*
X1251Y1073D02*
X1258Y1073D01*
X0Y1072D02*
X9Y1072D01*
X1251Y1072D02*
X1258Y1072D01*
X0Y1071D02*
X9Y1071D01*
X1251Y1071D02*
X1258Y1071D01*
X0Y1070D02*
X9Y1070D01*
X1251Y1070D02*
X1258Y1070D01*
X0Y1069D02*
X9Y1069D01*
X1251Y1069D02*
X1258Y1069D01*
X0Y1068D02*
X9Y1068D01*
X1251Y1068D02*
X1258Y1068D01*
X0Y1067D02*
X9Y1067D01*
X1251Y1067D02*
X1258Y1067D01*
X0Y1066D02*
X9Y1066D01*
X1251Y1066D02*
X1258Y1066D01*
X0Y1065D02*
X9Y1065D01*
X1251Y1065D02*
X1258Y1065D01*
X0Y1064D02*
X9Y1064D01*
X1251Y1064D02*
X1258Y1064D01*
X0Y1063D02*
X9Y1063D01*
X1251Y1063D02*
X1258Y1063D01*
X0Y1062D02*
X9Y1062D01*
X1251Y1062D02*
X1258Y1062D01*
X0Y1061D02*
X9Y1061D01*
X1251Y1061D02*
X1258Y1061D01*
X0Y1060D02*
X9Y1060D01*
X1251Y1060D02*
X1258Y1060D01*
X0Y1059D02*
X9Y1059D01*
X1251Y1059D02*
X1258Y1059D01*
X0Y1058D02*
X9Y1058D01*
X1251Y1058D02*
X1258Y1058D01*
X0Y1057D02*
X9Y1057D01*
X1251Y1057D02*
X1258Y1057D01*
X0Y1056D02*
X9Y1056D01*
X1251Y1056D02*
X1258Y1056D01*
X0Y1055D02*
X9Y1055D01*
X1251Y1055D02*
X1258Y1055D01*
X0Y1054D02*
X9Y1054D01*
X1251Y1054D02*
X1258Y1054D01*
X0Y1053D02*
X9Y1053D01*
X1251Y1053D02*
X1258Y1053D01*
X0Y1052D02*
X9Y1052D01*
X1251Y1052D02*
X1258Y1052D01*
X0Y1051D02*
X9Y1051D01*
X1251Y1051D02*
X1258Y1051D01*
X0Y1050D02*
X9Y1050D01*
X1251Y1050D02*
X1258Y1050D01*
X0Y1049D02*
X9Y1049D01*
X1251Y1049D02*
X1258Y1049D01*
X0Y1048D02*
X9Y1048D01*
X1251Y1048D02*
X1258Y1048D01*
X0Y1047D02*
X9Y1047D01*
X1251Y1047D02*
X1258Y1047D01*
X0Y1046D02*
X9Y1046D01*
X1251Y1046D02*
X1258Y1046D01*
X0Y1045D02*
X9Y1045D01*
X1251Y1045D02*
X1258Y1045D01*
X0Y1044D02*
X9Y1044D01*
X1251Y1044D02*
X1258Y1044D01*
X0Y1043D02*
X9Y1043D01*
X1251Y1043D02*
X1258Y1043D01*
X0Y1042D02*
X9Y1042D01*
X1251Y1042D02*
X1258Y1042D01*
X0Y1041D02*
X9Y1041D01*
X1251Y1041D02*
X1258Y1041D01*
X0Y1040D02*
X9Y1040D01*
X1251Y1040D02*
X1258Y1040D01*
X0Y1039D02*
X9Y1039D01*
X1251Y1039D02*
X1258Y1039D01*
X0Y1038D02*
X9Y1038D01*
X1251Y1038D02*
X1258Y1038D01*
X0Y1037D02*
X9Y1037D01*
X1251Y1037D02*
X1258Y1037D01*
X0Y1036D02*
X9Y1036D01*
X1251Y1036D02*
X1258Y1036D01*
X0Y1035D02*
X9Y1035D01*
X1251Y1035D02*
X1258Y1035D01*
X0Y1034D02*
X9Y1034D01*
X1251Y1034D02*
X1258Y1034D01*
X0Y1033D02*
X9Y1033D01*
X1251Y1033D02*
X1258Y1033D01*
X0Y1032D02*
X9Y1032D01*
X1251Y1032D02*
X1258Y1032D01*
X0Y1031D02*
X9Y1031D01*
X1251Y1031D02*
X1258Y1031D01*
X0Y1030D02*
X9Y1030D01*
X1251Y1030D02*
X1258Y1030D01*
X0Y1029D02*
X9Y1029D01*
X1251Y1029D02*
X1258Y1029D01*
X0Y1028D02*
X9Y1028D01*
X1251Y1028D02*
X1258Y1028D01*
X0Y1027D02*
X9Y1027D01*
X1251Y1027D02*
X1258Y1027D01*
X0Y1026D02*
X9Y1026D01*
X1251Y1026D02*
X1258Y1026D01*
X0Y1025D02*
X9Y1025D01*
X1251Y1025D02*
X1258Y1025D01*
X0Y1024D02*
X9Y1024D01*
X1251Y1024D02*
X1258Y1024D01*
X0Y1023D02*
X9Y1023D01*
X1251Y1023D02*
X1258Y1023D01*
X0Y1022D02*
X9Y1022D01*
X1251Y1022D02*
X1258Y1022D01*
X0Y1021D02*
X9Y1021D01*
X1251Y1021D02*
X1258Y1021D01*
X0Y1020D02*
X9Y1020D01*
X1251Y1020D02*
X1258Y1020D01*
X0Y1019D02*
X9Y1019D01*
X1251Y1019D02*
X1258Y1019D01*
X0Y1018D02*
X9Y1018D01*
X1251Y1018D02*
X1258Y1018D01*
X0Y1017D02*
X9Y1017D01*
X1251Y1017D02*
X1258Y1017D01*
X0Y1016D02*
X9Y1016D01*
X1251Y1016D02*
X1258Y1016D01*
X0Y1015D02*
X9Y1015D01*
X1251Y1015D02*
X1258Y1015D01*
X0Y1014D02*
X9Y1014D01*
X1251Y1014D02*
X1258Y1014D01*
X0Y1013D02*
X9Y1013D01*
X1251Y1013D02*
X1258Y1013D01*
X0Y1012D02*
X9Y1012D01*
X1251Y1012D02*
X1258Y1012D01*
X0Y1011D02*
X9Y1011D01*
X1251Y1011D02*
X1258Y1011D01*
X0Y1010D02*
X9Y1010D01*
X1251Y1010D02*
X1258Y1010D01*
X0Y1009D02*
X9Y1009D01*
X1251Y1009D02*
X1258Y1009D01*
X0Y1008D02*
X9Y1008D01*
X1251Y1008D02*
X1258Y1008D01*
X0Y1007D02*
X9Y1007D01*
X1251Y1007D02*
X1258Y1007D01*
X0Y1006D02*
X9Y1006D01*
X1251Y1006D02*
X1258Y1006D01*
X0Y1005D02*
X9Y1005D01*
X1251Y1005D02*
X1258Y1005D01*
X0Y1004D02*
X9Y1004D01*
X1251Y1004D02*
X1258Y1004D01*
X0Y1003D02*
X9Y1003D01*
X1251Y1003D02*
X1258Y1003D01*
X0Y1002D02*
X9Y1002D01*
X1251Y1002D02*
X1258Y1002D01*
X0Y1001D02*
X9Y1001D01*
X1251Y1001D02*
X1258Y1001D01*
X0Y1000D02*
X9Y1000D01*
X1251Y1000D02*
X1258Y1000D01*
X0Y999D02*
X9Y999D01*
X1251Y999D02*
X1258Y999D01*
X0Y998D02*
X9Y998D01*
X1251Y998D02*
X1258Y998D01*
X0Y997D02*
X9Y997D01*
X1251Y997D02*
X1258Y997D01*
X0Y996D02*
X9Y996D01*
X1251Y996D02*
X1258Y996D01*
X0Y995D02*
X9Y995D01*
X1251Y995D02*
X1258Y995D01*
X0Y994D02*
X9Y994D01*
X1251Y994D02*
X1258Y994D01*
X0Y993D02*
X9Y993D01*
X1251Y993D02*
X1258Y993D01*
X0Y992D02*
X9Y992D01*
X1251Y992D02*
X1258Y992D01*
X0Y991D02*
X9Y991D01*
X1251Y991D02*
X1258Y991D01*
X0Y990D02*
X9Y990D01*
X1251Y990D02*
X1258Y990D01*
X0Y989D02*
X9Y989D01*
X1251Y989D02*
X1258Y989D01*
X0Y988D02*
X9Y988D01*
X1251Y988D02*
X1258Y988D01*
X0Y987D02*
X9Y987D01*
X1251Y987D02*
X1258Y987D01*
X0Y986D02*
X9Y986D01*
X1251Y986D02*
X1258Y986D01*
X0Y985D02*
X9Y985D01*
X63Y985D02*
X65Y985D01*
X1251Y985D02*
X1258Y985D01*
X0Y984D02*
X9Y984D01*
X62Y984D02*
X66Y984D01*
X1251Y984D02*
X1258Y984D01*
X0Y983D02*
X9Y983D01*
X61Y983D02*
X67Y983D01*
X1251Y983D02*
X1258Y983D01*
X0Y982D02*
X9Y982D01*
X61Y982D02*
X67Y982D01*
X1251Y982D02*
X1258Y982D01*
X0Y981D02*
X9Y981D01*
X61Y981D02*
X67Y981D01*
X1251Y981D02*
X1258Y981D01*
X0Y980D02*
X9Y980D01*
X61Y980D02*
X67Y980D01*
X1251Y980D02*
X1258Y980D01*
X0Y979D02*
X9Y979D01*
X61Y979D02*
X67Y979D01*
X1251Y979D02*
X1258Y979D01*
X0Y978D02*
X9Y978D01*
X61Y978D02*
X67Y978D01*
X80Y978D02*
X83Y978D01*
X1251Y978D02*
X1258Y978D01*
X0Y977D02*
X9Y977D01*
X61Y977D02*
X67Y977D01*
X79Y977D02*
X84Y977D01*
X1251Y977D02*
X1258Y977D01*
X0Y976D02*
X9Y976D01*
X61Y976D02*
X67Y976D01*
X79Y976D02*
X85Y976D01*
X1251Y976D02*
X1258Y976D01*
X0Y975D02*
X9Y975D01*
X61Y975D02*
X67Y975D01*
X79Y975D02*
X85Y975D01*
X1251Y975D02*
X1258Y975D01*
X0Y974D02*
X9Y974D01*
X61Y974D02*
X67Y974D01*
X79Y974D02*
X85Y974D01*
X1251Y974D02*
X1258Y974D01*
X0Y973D02*
X9Y973D01*
X61Y973D02*
X67Y973D01*
X79Y973D02*
X85Y973D01*
X1251Y973D02*
X1258Y973D01*
X0Y972D02*
X9Y972D01*
X61Y972D02*
X67Y972D01*
X79Y972D02*
X85Y972D01*
X1251Y972D02*
X1258Y972D01*
X0Y971D02*
X9Y971D01*
X61Y971D02*
X67Y971D01*
X79Y971D02*
X85Y971D01*
X1251Y971D02*
X1258Y971D01*
X0Y970D02*
X9Y970D01*
X61Y970D02*
X67Y970D01*
X79Y970D02*
X85Y970D01*
X1251Y970D02*
X1258Y970D01*
X0Y969D02*
X9Y969D01*
X61Y969D02*
X67Y969D01*
X79Y969D02*
X85Y969D01*
X1251Y969D02*
X1258Y969D01*
X0Y968D02*
X9Y968D01*
X61Y968D02*
X67Y968D01*
X79Y968D02*
X85Y968D01*
X1251Y968D02*
X1258Y968D01*
X0Y967D02*
X9Y967D01*
X61Y967D02*
X67Y967D01*
X79Y967D02*
X85Y967D01*
X1251Y967D02*
X1258Y967D01*
X0Y966D02*
X9Y966D01*
X61Y966D02*
X67Y966D01*
X79Y966D02*
X85Y966D01*
X1251Y966D02*
X1258Y966D01*
X0Y965D02*
X9Y965D01*
X61Y965D02*
X67Y965D01*
X79Y965D02*
X85Y965D01*
X1251Y965D02*
X1258Y965D01*
X0Y964D02*
X9Y964D01*
X61Y964D02*
X67Y964D01*
X79Y964D02*
X85Y964D01*
X1251Y964D02*
X1258Y964D01*
X0Y963D02*
X9Y963D01*
X61Y963D02*
X67Y963D01*
X79Y963D02*
X85Y963D01*
X1251Y963D02*
X1258Y963D01*
X0Y962D02*
X9Y962D01*
X61Y962D02*
X67Y962D01*
X79Y962D02*
X85Y962D01*
X1251Y962D02*
X1258Y962D01*
X0Y961D02*
X9Y961D01*
X61Y961D02*
X67Y961D01*
X79Y961D02*
X85Y961D01*
X1251Y961D02*
X1258Y961D01*
X0Y960D02*
X9Y960D01*
X61Y960D02*
X67Y960D01*
X79Y960D02*
X85Y960D01*
X1251Y960D02*
X1258Y960D01*
X0Y959D02*
X9Y959D01*
X61Y959D02*
X67Y959D01*
X79Y959D02*
X85Y959D01*
X1251Y959D02*
X1258Y959D01*
X0Y958D02*
X9Y958D01*
X61Y958D02*
X67Y958D01*
X78Y958D02*
X85Y958D01*
X1251Y958D02*
X1258Y958D01*
X0Y957D02*
X9Y957D01*
X61Y957D02*
X113Y957D01*
X1251Y957D02*
X1258Y957D01*
X0Y956D02*
X9Y956D01*
X61Y956D02*
X114Y956D01*
X1251Y956D02*
X1258Y956D01*
X0Y955D02*
X9Y955D01*
X61Y955D02*
X114Y955D01*
X1251Y955D02*
X1258Y955D01*
X0Y954D02*
X9Y954D01*
X61Y954D02*
X114Y954D01*
X1251Y954D02*
X1258Y954D01*
X0Y953D02*
X9Y953D01*
X61Y953D02*
X114Y953D01*
X1251Y953D02*
X1258Y953D01*
X0Y952D02*
X9Y952D01*
X61Y952D02*
X113Y952D01*
X1251Y952D02*
X1258Y952D01*
X0Y951D02*
X9Y951D01*
X61Y951D02*
X111Y951D01*
X1251Y951D02*
X1258Y951D01*
X0Y950D02*
X9Y950D01*
X1251Y950D02*
X1258Y950D01*
X0Y949D02*
X9Y949D01*
X1251Y949D02*
X1258Y949D01*
X0Y948D02*
X9Y948D01*
X1251Y948D02*
X1258Y948D01*
X0Y947D02*
X9Y947D01*
X1251Y947D02*
X1258Y947D01*
X0Y946D02*
X9Y946D01*
X1251Y946D02*
X1258Y946D01*
X0Y945D02*
X9Y945D01*
X1251Y945D02*
X1258Y945D01*
X0Y944D02*
X9Y944D01*
X1251Y944D02*
X1258Y944D01*
X0Y943D02*
X9Y943D01*
X1251Y943D02*
X1258Y943D01*
X0Y942D02*
X9Y942D01*
X1251Y942D02*
X1258Y942D01*
X0Y941D02*
X9Y941D01*
X1251Y941D02*
X1258Y941D01*
X0Y940D02*
X9Y940D01*
X1251Y940D02*
X1258Y940D01*
X0Y939D02*
X9Y939D01*
X1251Y939D02*
X1258Y939D01*
X0Y938D02*
X9Y938D01*
X1251Y938D02*
X1258Y938D01*
X0Y937D02*
X9Y937D01*
X1251Y937D02*
X1258Y937D01*
X0Y936D02*
X9Y936D01*
X1251Y936D02*
X1258Y936D01*
X0Y935D02*
X9Y935D01*
X63Y935D02*
X65Y935D01*
X90Y935D02*
X109Y935D01*
X1251Y935D02*
X1258Y935D01*
X0Y934D02*
X9Y934D01*
X62Y934D02*
X66Y934D01*
X88Y934D02*
X111Y934D01*
X1251Y934D02*
X1258Y934D01*
X0Y933D02*
X9Y933D01*
X61Y933D02*
X67Y933D01*
X86Y933D02*
X112Y933D01*
X1251Y933D02*
X1258Y933D01*
X0Y932D02*
X9Y932D01*
X61Y932D02*
X67Y932D01*
X86Y932D02*
X113Y932D01*
X1251Y932D02*
X1258Y932D01*
X0Y931D02*
X9Y931D01*
X61Y931D02*
X67Y931D01*
X85Y931D02*
X114Y931D01*
X1251Y931D02*
X1258Y931D01*
X0Y930D02*
X9Y930D01*
X61Y930D02*
X67Y930D01*
X85Y930D02*
X114Y930D01*
X1251Y930D02*
X1258Y930D01*
X0Y929D02*
X9Y929D01*
X61Y929D02*
X67Y929D01*
X85Y929D02*
X114Y929D01*
X1251Y929D02*
X1258Y929D01*
X0Y928D02*
X9Y928D01*
X61Y928D02*
X67Y928D01*
X85Y928D02*
X91Y928D01*
X108Y928D02*
X114Y928D01*
X1251Y928D02*
X1258Y928D01*
X0Y927D02*
X9Y927D01*
X61Y927D02*
X67Y927D01*
X85Y927D02*
X91Y927D01*
X108Y927D02*
X114Y927D01*
X1251Y927D02*
X1258Y927D01*
X0Y926D02*
X9Y926D01*
X61Y926D02*
X67Y926D01*
X85Y926D02*
X91Y926D01*
X108Y926D02*
X114Y926D01*
X1251Y926D02*
X1258Y926D01*
X0Y925D02*
X9Y925D01*
X61Y925D02*
X67Y925D01*
X85Y925D02*
X91Y925D01*
X108Y925D02*
X114Y925D01*
X1251Y925D02*
X1258Y925D01*
X0Y924D02*
X9Y924D01*
X61Y924D02*
X67Y924D01*
X85Y924D02*
X91Y924D01*
X108Y924D02*
X114Y924D01*
X1251Y924D02*
X1258Y924D01*
X0Y923D02*
X9Y923D01*
X61Y923D02*
X67Y923D01*
X85Y923D02*
X91Y923D01*
X108Y923D02*
X114Y923D01*
X1251Y923D02*
X1258Y923D01*
X0Y922D02*
X9Y922D01*
X61Y922D02*
X67Y922D01*
X85Y922D02*
X91Y922D01*
X108Y922D02*
X114Y922D01*
X1251Y922D02*
X1258Y922D01*
X0Y921D02*
X9Y921D01*
X61Y921D02*
X67Y921D01*
X85Y921D02*
X91Y921D01*
X108Y921D02*
X114Y921D01*
X1251Y921D02*
X1258Y921D01*
X0Y920D02*
X9Y920D01*
X61Y920D02*
X67Y920D01*
X85Y920D02*
X91Y920D01*
X108Y920D02*
X114Y920D01*
X1251Y920D02*
X1258Y920D01*
X0Y919D02*
X9Y919D01*
X61Y919D02*
X67Y919D01*
X85Y919D02*
X91Y919D01*
X108Y919D02*
X114Y919D01*
X1251Y919D02*
X1258Y919D01*
X0Y918D02*
X9Y918D01*
X61Y918D02*
X67Y918D01*
X85Y918D02*
X91Y918D01*
X108Y918D02*
X114Y918D01*
X1251Y918D02*
X1258Y918D01*
X0Y917D02*
X9Y917D01*
X61Y917D02*
X67Y917D01*
X85Y917D02*
X91Y917D01*
X108Y917D02*
X114Y917D01*
X1251Y917D02*
X1258Y917D01*
X0Y916D02*
X9Y916D01*
X61Y916D02*
X67Y916D01*
X85Y916D02*
X91Y916D01*
X108Y916D02*
X114Y916D01*
X1251Y916D02*
X1258Y916D01*
X0Y915D02*
X9Y915D01*
X61Y915D02*
X67Y915D01*
X84Y915D02*
X91Y915D01*
X108Y915D02*
X114Y915D01*
X1251Y915D02*
X1258Y915D01*
X0Y914D02*
X9Y914D01*
X61Y914D02*
X91Y914D01*
X108Y914D02*
X114Y914D01*
X1251Y914D02*
X1258Y914D01*
X0Y913D02*
X9Y913D01*
X61Y913D02*
X91Y913D01*
X108Y913D02*
X114Y913D01*
X1251Y913D02*
X1258Y913D01*
X0Y912D02*
X9Y912D01*
X61Y912D02*
X91Y912D01*
X108Y912D02*
X114Y912D01*
X1251Y912D02*
X1258Y912D01*
X0Y911D02*
X9Y911D01*
X61Y911D02*
X91Y911D01*
X108Y911D02*
X114Y911D01*
X1251Y911D02*
X1258Y911D01*
X0Y910D02*
X9Y910D01*
X61Y910D02*
X91Y910D01*
X107Y910D02*
X114Y910D01*
X1251Y910D02*
X1258Y910D01*
X0Y909D02*
X9Y909D01*
X61Y909D02*
X91Y909D01*
X107Y909D02*
X114Y909D01*
X1251Y909D02*
X1258Y909D01*
X0Y908D02*
X9Y908D01*
X61Y908D02*
X90Y908D01*
X107Y908D02*
X113Y908D01*
X1251Y908D02*
X1258Y908D01*
X0Y907D02*
X9Y907D01*
X106Y907D02*
X113Y907D01*
X1251Y907D02*
X1258Y907D01*
X0Y906D02*
X9Y906D01*
X106Y906D02*
X112Y906D01*
X1251Y906D02*
X1258Y906D01*
X0Y905D02*
X9Y905D01*
X105Y905D02*
X112Y905D01*
X1251Y905D02*
X1258Y905D01*
X0Y904D02*
X9Y904D01*
X105Y904D02*
X112Y904D01*
X1251Y904D02*
X1258Y904D01*
X0Y903D02*
X9Y903D01*
X105Y903D02*
X111Y903D01*
X1251Y903D02*
X1258Y903D01*
X0Y902D02*
X9Y902D01*
X106Y902D02*
X110Y902D01*
X1251Y902D02*
X1258Y902D01*
X0Y901D02*
X9Y901D01*
X108Y901D02*
X109Y901D01*
X1251Y901D02*
X1258Y901D01*
X0Y900D02*
X9Y900D01*
X1251Y900D02*
X1258Y900D01*
X0Y899D02*
X9Y899D01*
X1251Y899D02*
X1258Y899D01*
X0Y898D02*
X9Y898D01*
X1251Y898D02*
X1258Y898D01*
X0Y897D02*
X9Y897D01*
X1251Y897D02*
X1258Y897D01*
X0Y896D02*
X9Y896D01*
X1251Y896D02*
X1258Y896D01*
X0Y895D02*
X9Y895D01*
X1251Y895D02*
X1258Y895D01*
X0Y894D02*
X9Y894D01*
X1251Y894D02*
X1258Y894D01*
X0Y893D02*
X9Y893D01*
X1251Y893D02*
X1258Y893D01*
X0Y892D02*
X9Y892D01*
X790Y892D02*
X790Y892D01*
X841Y892D02*
X863Y892D01*
X889Y892D02*
X892Y892D01*
X939Y892D02*
X967Y892D01*
X1251Y892D02*
X1258Y892D01*
X0Y891D02*
X9Y891D01*
X788Y891D02*
X792Y891D01*
X839Y891D02*
X866Y891D01*
X887Y891D02*
X894Y891D01*
X937Y891D02*
X969Y891D01*
X1251Y891D02*
X1258Y891D01*
X0Y890D02*
X9Y890D01*
X787Y890D02*
X793Y890D01*
X838Y890D02*
X867Y890D01*
X886Y890D02*
X895Y890D01*
X936Y890D02*
X969Y890D01*
X1251Y890D02*
X1258Y890D01*
X0Y889D02*
X9Y889D01*
X787Y889D02*
X793Y889D01*
X837Y889D02*
X868Y889D01*
X886Y889D02*
X895Y889D01*
X936Y889D02*
X969Y889D01*
X1251Y889D02*
X1258Y889D01*
X0Y888D02*
X9Y888D01*
X787Y888D02*
X793Y888D01*
X836Y888D02*
X869Y888D01*
X886Y888D02*
X895Y888D01*
X936Y888D02*
X970Y888D01*
X1251Y888D02*
X1258Y888D01*
X0Y887D02*
X9Y887D01*
X787Y887D02*
X793Y887D01*
X836Y887D02*
X869Y887D01*
X886Y887D02*
X895Y887D01*
X936Y887D02*
X970Y887D01*
X1251Y887D02*
X1258Y887D01*
X0Y886D02*
X9Y886D01*
X787Y886D02*
X793Y886D01*
X810Y886D02*
X811Y886D01*
X836Y886D02*
X869Y886D01*
X886Y886D02*
X894Y886D01*
X936Y886D02*
X970Y886D01*
X1251Y886D02*
X1258Y886D01*
X0Y885D02*
X9Y885D01*
X93Y885D02*
X111Y885D01*
X787Y885D02*
X793Y885D01*
X809Y885D02*
X813Y885D01*
X836Y885D02*
X842Y885D01*
X863Y885D02*
X869Y885D01*
X886Y885D02*
X892Y885D01*
X936Y885D02*
X942Y885D01*
X963Y885D02*
X970Y885D01*
X1251Y885D02*
X1258Y885D01*
X0Y884D02*
X9Y884D01*
X91Y884D02*
X113Y884D01*
X787Y884D02*
X793Y884D01*
X808Y884D02*
X814Y884D01*
X836Y884D02*
X842Y884D01*
X863Y884D02*
X869Y884D01*
X886Y884D02*
X892Y884D01*
X936Y884D02*
X942Y884D01*
X964Y884D02*
X970Y884D01*
X1251Y884D02*
X1258Y884D01*
X0Y883D02*
X9Y883D01*
X91Y883D02*
X114Y883D01*
X787Y883D02*
X793Y883D01*
X808Y883D02*
X814Y883D01*
X836Y883D02*
X842Y883D01*
X863Y883D02*
X869Y883D01*
X886Y883D02*
X892Y883D01*
X936Y883D02*
X942Y883D01*
X964Y883D02*
X970Y883D01*
X1251Y883D02*
X1258Y883D01*
X0Y882D02*
X9Y882D01*
X91Y882D02*
X114Y882D01*
X787Y882D02*
X793Y882D01*
X808Y882D02*
X814Y882D01*
X836Y882D02*
X842Y882D01*
X863Y882D02*
X869Y882D01*
X886Y882D02*
X892Y882D01*
X936Y882D02*
X942Y882D01*
X964Y882D02*
X970Y882D01*
X1251Y882D02*
X1258Y882D01*
X0Y881D02*
X9Y881D01*
X91Y881D02*
X114Y881D01*
X787Y881D02*
X793Y881D01*
X808Y881D02*
X814Y881D01*
X836Y881D02*
X842Y881D01*
X863Y881D02*
X869Y881D01*
X886Y881D02*
X892Y881D01*
X936Y881D02*
X942Y881D01*
X964Y881D02*
X970Y881D01*
X1251Y881D02*
X1258Y881D01*
X0Y880D02*
X9Y880D01*
X91Y880D02*
X114Y880D01*
X787Y880D02*
X793Y880D01*
X808Y880D02*
X814Y880D01*
X836Y880D02*
X842Y880D01*
X863Y880D02*
X869Y880D01*
X886Y880D02*
X892Y880D01*
X936Y880D02*
X942Y880D01*
X964Y880D02*
X970Y880D01*
X1251Y880D02*
X1258Y880D01*
X0Y879D02*
X9Y879D01*
X92Y879D02*
X114Y879D01*
X787Y879D02*
X793Y879D01*
X808Y879D02*
X814Y879D01*
X836Y879D02*
X842Y879D01*
X863Y879D02*
X869Y879D01*
X886Y879D02*
X892Y879D01*
X936Y879D02*
X942Y879D01*
X964Y879D02*
X970Y879D01*
X1251Y879D02*
X1258Y879D01*
X0Y878D02*
X9Y878D01*
X108Y878D02*
X114Y878D01*
X787Y878D02*
X793Y878D01*
X808Y878D02*
X814Y878D01*
X836Y878D02*
X842Y878D01*
X863Y878D02*
X869Y878D01*
X886Y878D02*
X892Y878D01*
X936Y878D02*
X942Y878D01*
X964Y878D02*
X970Y878D01*
X1251Y878D02*
X1258Y878D01*
X0Y877D02*
X9Y877D01*
X108Y877D02*
X114Y877D01*
X787Y877D02*
X793Y877D01*
X808Y877D02*
X814Y877D01*
X836Y877D02*
X842Y877D01*
X863Y877D02*
X869Y877D01*
X886Y877D02*
X892Y877D01*
X936Y877D02*
X942Y877D01*
X964Y877D02*
X970Y877D01*
X1251Y877D02*
X1258Y877D01*
X0Y876D02*
X9Y876D01*
X108Y876D02*
X114Y876D01*
X787Y876D02*
X793Y876D01*
X808Y876D02*
X814Y876D01*
X836Y876D02*
X842Y876D01*
X863Y876D02*
X869Y876D01*
X886Y876D02*
X892Y876D01*
X936Y876D02*
X942Y876D01*
X964Y876D02*
X970Y876D01*
X1251Y876D02*
X1258Y876D01*
X0Y875D02*
X9Y875D01*
X108Y875D02*
X114Y875D01*
X787Y875D02*
X793Y875D01*
X808Y875D02*
X814Y875D01*
X836Y875D02*
X842Y875D01*
X863Y875D02*
X869Y875D01*
X886Y875D02*
X892Y875D01*
X936Y875D02*
X942Y875D01*
X964Y875D02*
X970Y875D01*
X1251Y875D02*
X1258Y875D01*
X0Y874D02*
X9Y874D01*
X108Y874D02*
X114Y874D01*
X787Y874D02*
X793Y874D01*
X808Y874D02*
X814Y874D01*
X836Y874D02*
X842Y874D01*
X863Y874D02*
X869Y874D01*
X886Y874D02*
X892Y874D01*
X936Y874D02*
X970Y874D01*
X1251Y874D02*
X1258Y874D01*
X0Y873D02*
X9Y873D01*
X108Y873D02*
X114Y873D01*
X787Y873D02*
X793Y873D01*
X808Y873D02*
X814Y873D01*
X836Y873D02*
X842Y873D01*
X863Y873D02*
X869Y873D01*
X886Y873D02*
X892Y873D01*
X936Y873D02*
X970Y873D01*
X1251Y873D02*
X1258Y873D01*
X0Y872D02*
X9Y872D01*
X108Y872D02*
X114Y872D01*
X787Y872D02*
X793Y872D01*
X808Y872D02*
X814Y872D01*
X836Y872D02*
X842Y872D01*
X863Y872D02*
X869Y872D01*
X886Y872D02*
X892Y872D01*
X936Y872D02*
X970Y872D01*
X1251Y872D02*
X1258Y872D01*
X0Y871D02*
X9Y871D01*
X61Y871D02*
X114Y871D01*
X787Y871D02*
X793Y871D01*
X808Y871D02*
X814Y871D01*
X836Y871D02*
X842Y871D01*
X863Y871D02*
X869Y871D01*
X886Y871D02*
X892Y871D01*
X936Y871D02*
X970Y871D01*
X1251Y871D02*
X1258Y871D01*
X0Y870D02*
X9Y870D01*
X61Y870D02*
X114Y870D01*
X787Y870D02*
X793Y870D01*
X808Y870D02*
X814Y870D01*
X836Y870D02*
X842Y870D01*
X863Y870D02*
X869Y870D01*
X886Y870D02*
X892Y870D01*
X936Y870D02*
X970Y870D01*
X1251Y870D02*
X1258Y870D01*
X0Y869D02*
X9Y869D01*
X61Y869D02*
X114Y869D01*
X787Y869D02*
X793Y869D01*
X808Y869D02*
X814Y869D01*
X836Y869D02*
X842Y869D01*
X863Y869D02*
X869Y869D01*
X886Y869D02*
X892Y869D01*
X937Y869D02*
X970Y869D01*
X1251Y869D02*
X1258Y869D01*
X0Y868D02*
X9Y868D01*
X61Y868D02*
X114Y868D01*
X787Y868D02*
X793Y868D01*
X808Y868D02*
X814Y868D01*
X836Y868D02*
X842Y868D01*
X863Y868D02*
X869Y868D01*
X886Y868D02*
X892Y868D01*
X938Y868D02*
X970Y868D01*
X1251Y868D02*
X1258Y868D01*
X0Y867D02*
X9Y867D01*
X61Y867D02*
X114Y867D01*
X787Y867D02*
X793Y867D01*
X808Y867D02*
X814Y867D01*
X836Y867D02*
X842Y867D01*
X863Y867D02*
X869Y867D01*
X886Y867D02*
X892Y867D01*
X963Y867D02*
X970Y867D01*
X1251Y867D02*
X1258Y867D01*
X0Y866D02*
X9Y866D01*
X61Y866D02*
X114Y866D01*
X787Y866D02*
X793Y866D01*
X808Y866D02*
X814Y866D01*
X836Y866D02*
X842Y866D01*
X863Y866D02*
X869Y866D01*
X886Y866D02*
X892Y866D01*
X964Y866D02*
X970Y866D01*
X1251Y866D02*
X1258Y866D01*
X0Y865D02*
X9Y865D01*
X61Y865D02*
X114Y865D01*
X787Y865D02*
X793Y865D01*
X808Y865D02*
X814Y865D01*
X836Y865D02*
X842Y865D01*
X863Y865D02*
X869Y865D01*
X886Y865D02*
X892Y865D01*
X964Y865D02*
X970Y865D01*
X1251Y865D02*
X1258Y865D01*
X0Y864D02*
X9Y864D01*
X61Y864D02*
X67Y864D01*
X108Y864D02*
X114Y864D01*
X787Y864D02*
X793Y864D01*
X808Y864D02*
X814Y864D01*
X836Y864D02*
X842Y864D01*
X863Y864D02*
X869Y864D01*
X886Y864D02*
X892Y864D01*
X964Y864D02*
X970Y864D01*
X1251Y864D02*
X1258Y864D01*
X0Y863D02*
X9Y863D01*
X61Y863D02*
X67Y863D01*
X108Y863D02*
X114Y863D01*
X787Y863D02*
X793Y863D01*
X808Y863D02*
X814Y863D01*
X836Y863D02*
X842Y863D01*
X863Y863D02*
X869Y863D01*
X886Y863D02*
X892Y863D01*
X964Y863D02*
X970Y863D01*
X1251Y863D02*
X1258Y863D01*
X0Y862D02*
X9Y862D01*
X61Y862D02*
X67Y862D01*
X108Y862D02*
X114Y862D01*
X787Y862D02*
X816Y862D01*
X836Y862D02*
X842Y862D01*
X863Y862D02*
X869Y862D01*
X886Y862D02*
X918Y862D01*
X964Y862D02*
X970Y862D01*
X1251Y862D02*
X1258Y862D01*
X0Y861D02*
X9Y861D01*
X61Y861D02*
X67Y861D01*
X108Y861D02*
X114Y861D01*
X787Y861D02*
X817Y861D01*
X836Y861D02*
X842Y861D01*
X863Y861D02*
X869Y861D01*
X886Y861D02*
X919Y861D01*
X964Y861D02*
X970Y861D01*
X1251Y861D02*
X1258Y861D01*
X0Y860D02*
X9Y860D01*
X61Y860D02*
X67Y860D01*
X108Y860D02*
X114Y860D01*
X787Y860D02*
X817Y860D01*
X836Y860D02*
X842Y860D01*
X863Y860D02*
X869Y860D01*
X886Y860D02*
X919Y860D01*
X964Y860D02*
X970Y860D01*
X1251Y860D02*
X1258Y860D01*
X0Y859D02*
X9Y859D01*
X61Y859D02*
X67Y859D01*
X108Y859D02*
X114Y859D01*
X787Y859D02*
X817Y859D01*
X836Y859D02*
X842Y859D01*
X863Y859D02*
X869Y859D01*
X886Y859D02*
X919Y859D01*
X964Y859D02*
X970Y859D01*
X1251Y859D02*
X1258Y859D01*
X0Y858D02*
X9Y858D01*
X61Y858D02*
X67Y858D01*
X108Y858D02*
X114Y858D01*
X787Y858D02*
X817Y858D01*
X836Y858D02*
X842Y858D01*
X863Y858D02*
X869Y858D01*
X886Y858D02*
X919Y858D01*
X964Y858D02*
X970Y858D01*
X1251Y858D02*
X1258Y858D01*
X0Y857D02*
X9Y857D01*
X61Y857D02*
X67Y857D01*
X108Y857D02*
X114Y857D01*
X787Y857D02*
X816Y857D01*
X836Y857D02*
X842Y857D01*
X863Y857D02*
X869Y857D01*
X886Y857D02*
X919Y857D01*
X964Y857D02*
X970Y857D01*
X1251Y857D02*
X1258Y857D01*
X0Y856D02*
X9Y856D01*
X61Y856D02*
X67Y856D01*
X108Y856D02*
X114Y856D01*
X787Y856D02*
X815Y856D01*
X836Y856D02*
X842Y856D01*
X863Y856D02*
X869Y856D01*
X886Y856D02*
X919Y856D01*
X964Y856D02*
X970Y856D01*
X1251Y856D02*
X1258Y856D01*
X0Y855D02*
X9Y855D01*
X61Y855D02*
X67Y855D01*
X108Y855D02*
X114Y855D01*
X808Y855D02*
X814Y855D01*
X836Y855D02*
X842Y855D01*
X863Y855D02*
X869Y855D01*
X886Y855D02*
X892Y855D01*
X913Y855D02*
X919Y855D01*
X964Y855D02*
X970Y855D01*
X1251Y855D02*
X1258Y855D01*
X0Y854D02*
X9Y854D01*
X61Y854D02*
X67Y854D01*
X108Y854D02*
X114Y854D01*
X808Y854D02*
X814Y854D01*
X836Y854D02*
X842Y854D01*
X863Y854D02*
X869Y854D01*
X886Y854D02*
X892Y854D01*
X913Y854D02*
X919Y854D01*
X964Y854D02*
X970Y854D01*
X1251Y854D02*
X1258Y854D01*
X0Y853D02*
X9Y853D01*
X61Y853D02*
X67Y853D01*
X108Y853D02*
X114Y853D01*
X808Y853D02*
X814Y853D01*
X836Y853D02*
X842Y853D01*
X863Y853D02*
X869Y853D01*
X886Y853D02*
X892Y853D01*
X913Y853D02*
X919Y853D01*
X964Y853D02*
X970Y853D01*
X1251Y853D02*
X1258Y853D01*
X0Y852D02*
X9Y852D01*
X62Y852D02*
X66Y852D01*
X109Y852D02*
X113Y852D01*
X808Y852D02*
X814Y852D01*
X836Y852D02*
X842Y852D01*
X863Y852D02*
X869Y852D01*
X886Y852D02*
X892Y852D01*
X913Y852D02*
X919Y852D01*
X964Y852D02*
X970Y852D01*
X1251Y852D02*
X1258Y852D01*
X0Y851D02*
X9Y851D01*
X63Y851D02*
X65Y851D01*
X110Y851D02*
X112Y851D01*
X808Y851D02*
X814Y851D01*
X836Y851D02*
X842Y851D01*
X863Y851D02*
X869Y851D01*
X886Y851D02*
X892Y851D01*
X913Y851D02*
X919Y851D01*
X964Y851D02*
X970Y851D01*
X1251Y851D02*
X1258Y851D01*
X0Y850D02*
X9Y850D01*
X808Y850D02*
X814Y850D01*
X836Y850D02*
X842Y850D01*
X863Y850D02*
X869Y850D01*
X886Y850D02*
X892Y850D01*
X913Y850D02*
X919Y850D01*
X964Y850D02*
X970Y850D01*
X1251Y850D02*
X1258Y850D01*
X0Y849D02*
X9Y849D01*
X808Y849D02*
X814Y849D01*
X836Y849D02*
X842Y849D01*
X863Y849D02*
X869Y849D01*
X886Y849D02*
X892Y849D01*
X913Y849D02*
X919Y849D01*
X964Y849D02*
X970Y849D01*
X1251Y849D02*
X1258Y849D01*
X0Y848D02*
X9Y848D01*
X808Y848D02*
X814Y848D01*
X836Y848D02*
X842Y848D01*
X863Y848D02*
X869Y848D01*
X886Y848D02*
X892Y848D01*
X913Y848D02*
X919Y848D01*
X964Y848D02*
X970Y848D01*
X1251Y848D02*
X1258Y848D01*
X0Y847D02*
X9Y847D01*
X808Y847D02*
X814Y847D01*
X836Y847D02*
X842Y847D01*
X863Y847D02*
X869Y847D01*
X886Y847D02*
X892Y847D01*
X913Y847D02*
X919Y847D01*
X964Y847D02*
X970Y847D01*
X1251Y847D02*
X1258Y847D01*
X0Y846D02*
X9Y846D01*
X808Y846D02*
X814Y846D01*
X836Y846D02*
X842Y846D01*
X863Y846D02*
X869Y846D01*
X886Y846D02*
X892Y846D01*
X913Y846D02*
X919Y846D01*
X964Y846D02*
X970Y846D01*
X1251Y846D02*
X1258Y846D01*
X0Y845D02*
X9Y845D01*
X808Y845D02*
X814Y845D01*
X836Y845D02*
X842Y845D01*
X863Y845D02*
X869Y845D01*
X886Y845D02*
X892Y845D01*
X913Y845D02*
X919Y845D01*
X963Y845D02*
X970Y845D01*
X1251Y845D02*
X1258Y845D01*
X0Y844D02*
X9Y844D01*
X808Y844D02*
X814Y844D01*
X836Y844D02*
X869Y844D01*
X886Y844D02*
X919Y844D01*
X961Y844D02*
X970Y844D01*
X1251Y844D02*
X1258Y844D01*
X0Y843D02*
X9Y843D01*
X808Y843D02*
X814Y843D01*
X836Y843D02*
X869Y843D01*
X886Y843D02*
X919Y843D01*
X960Y843D02*
X970Y843D01*
X1251Y843D02*
X1258Y843D01*
X0Y842D02*
X9Y842D01*
X808Y842D02*
X814Y842D01*
X836Y842D02*
X869Y842D01*
X886Y842D02*
X919Y842D01*
X960Y842D02*
X970Y842D01*
X1251Y842D02*
X1258Y842D01*
X0Y841D02*
X9Y841D01*
X808Y841D02*
X814Y841D01*
X837Y841D02*
X868Y841D01*
X886Y841D02*
X919Y841D01*
X960Y841D02*
X969Y841D01*
X1251Y841D02*
X1258Y841D01*
X0Y840D02*
X9Y840D01*
X808Y840D02*
X813Y840D01*
X838Y840D02*
X867Y840D01*
X886Y840D02*
X919Y840D01*
X960Y840D02*
X969Y840D01*
X1251Y840D02*
X1258Y840D01*
X0Y839D02*
X9Y839D01*
X809Y839D02*
X813Y839D01*
X839Y839D02*
X866Y839D01*
X887Y839D02*
X918Y839D01*
X961Y839D02*
X968Y839D01*
X1251Y839D02*
X1258Y839D01*
X0Y838D02*
X9Y838D01*
X842Y838D02*
X863Y838D01*
X889Y838D02*
X916Y838D01*
X963Y838D02*
X966Y838D01*
X1251Y838D02*
X1258Y838D01*
X0Y837D02*
X9Y837D01*
X1251Y837D02*
X1258Y837D01*
X0Y836D02*
X9Y836D01*
X1251Y836D02*
X1258Y836D01*
X0Y835D02*
X9Y835D01*
X1251Y835D02*
X1258Y835D01*
X0Y834D02*
X9Y834D01*
X108Y834D02*
X113Y834D01*
X1251Y834D02*
X1258Y834D01*
X0Y833D02*
X9Y833D01*
X105Y833D02*
X114Y833D01*
X1251Y833D02*
X1258Y833D01*
X0Y832D02*
X9Y832D01*
X101Y832D02*
X114Y832D01*
X1251Y832D02*
X1258Y832D01*
X0Y831D02*
X9Y831D01*
X98Y831D02*
X114Y831D01*
X1251Y831D02*
X1258Y831D01*
X0Y830D02*
X9Y830D01*
X94Y830D02*
X114Y830D01*
X1251Y830D02*
X1258Y830D01*
X0Y829D02*
X9Y829D01*
X91Y829D02*
X113Y829D01*
X1251Y829D02*
X1258Y829D01*
X0Y828D02*
X9Y828D01*
X88Y828D02*
X111Y828D01*
X1251Y828D02*
X1258Y828D01*
X0Y827D02*
X9Y827D01*
X84Y827D02*
X108Y827D01*
X1251Y827D02*
X1258Y827D01*
X0Y826D02*
X9Y826D01*
X81Y826D02*
X105Y826D01*
X1251Y826D02*
X1258Y826D01*
X0Y825D02*
X9Y825D01*
X77Y825D02*
X102Y825D01*
X1251Y825D02*
X1258Y825D01*
X0Y824D02*
X9Y824D01*
X74Y824D02*
X102Y824D01*
X1251Y824D02*
X1258Y824D01*
X0Y823D02*
X9Y823D01*
X70Y823D02*
X94Y823D01*
X96Y823D02*
X102Y823D01*
X1251Y823D02*
X1258Y823D01*
X0Y822D02*
X9Y822D01*
X67Y822D02*
X91Y822D01*
X96Y822D02*
X102Y822D01*
X1251Y822D02*
X1258Y822D01*
X0Y821D02*
X9Y821D01*
X64Y821D02*
X88Y821D01*
X96Y821D02*
X102Y821D01*
X1251Y821D02*
X1258Y821D01*
X0Y820D02*
X9Y820D01*
X62Y820D02*
X84Y820D01*
X96Y820D02*
X102Y820D01*
X1251Y820D02*
X1258Y820D01*
X0Y819D02*
X9Y819D01*
X61Y819D02*
X81Y819D01*
X96Y819D02*
X102Y819D01*
X1251Y819D02*
X1258Y819D01*
X0Y818D02*
X9Y818D01*
X61Y818D02*
X77Y818D01*
X96Y818D02*
X102Y818D01*
X1251Y818D02*
X1258Y818D01*
X0Y817D02*
X9Y817D01*
X61Y817D02*
X78Y817D01*
X96Y817D02*
X102Y817D01*
X1251Y817D02*
X1258Y817D01*
X0Y816D02*
X9Y816D01*
X61Y816D02*
X82Y816D01*
X96Y816D02*
X102Y816D01*
X1251Y816D02*
X1258Y816D01*
X0Y815D02*
X9Y815D01*
X62Y815D02*
X85Y815D01*
X96Y815D02*
X102Y815D01*
X1251Y815D02*
X1258Y815D01*
X0Y814D02*
X9Y814D01*
X64Y814D02*
X88Y814D01*
X96Y814D02*
X102Y814D01*
X1251Y814D02*
X1258Y814D01*
X0Y813D02*
X9Y813D01*
X68Y813D02*
X92Y813D01*
X96Y813D02*
X102Y813D01*
X1251Y813D02*
X1258Y813D01*
X0Y812D02*
X9Y812D01*
X71Y812D02*
X102Y812D01*
X1251Y812D02*
X1258Y812D01*
X0Y811D02*
X9Y811D01*
X75Y811D02*
X102Y811D01*
X1251Y811D02*
X1258Y811D01*
X0Y810D02*
X9Y810D01*
X78Y810D02*
X103Y810D01*
X1251Y810D02*
X1258Y810D01*
X0Y809D02*
X9Y809D01*
X81Y809D02*
X105Y809D01*
X1251Y809D02*
X1258Y809D01*
X0Y808D02*
X9Y808D01*
X85Y808D02*
X109Y808D01*
X1251Y808D02*
X1258Y808D01*
X0Y807D02*
X9Y807D01*
X88Y807D02*
X112Y807D01*
X1251Y807D02*
X1258Y807D01*
X0Y806D02*
X9Y806D01*
X92Y806D02*
X113Y806D01*
X1251Y806D02*
X1258Y806D01*
X0Y805D02*
X9Y805D01*
X95Y805D02*
X114Y805D01*
X1251Y805D02*
X1258Y805D01*
X0Y804D02*
X9Y804D01*
X98Y804D02*
X114Y804D01*
X1251Y804D02*
X1258Y804D01*
X0Y803D02*
X9Y803D01*
X102Y803D02*
X114Y803D01*
X1251Y803D02*
X1258Y803D01*
X0Y802D02*
X9Y802D01*
X105Y802D02*
X114Y802D01*
X1251Y802D02*
X1258Y802D01*
X0Y801D02*
X9Y801D01*
X109Y801D02*
X113Y801D01*
X1251Y801D02*
X1258Y801D01*
X0Y800D02*
X9Y800D01*
X1251Y800D02*
X1258Y800D01*
X0Y799D02*
X9Y799D01*
X1251Y799D02*
X1258Y799D01*
X0Y798D02*
X9Y798D01*
X1251Y798D02*
X1258Y798D01*
X0Y797D02*
X9Y797D01*
X1251Y797D02*
X1258Y797D01*
X0Y796D02*
X9Y796D01*
X1251Y796D02*
X1258Y796D01*
X0Y795D02*
X9Y795D01*
X1251Y795D02*
X1258Y795D01*
X0Y794D02*
X9Y794D01*
X1251Y794D02*
X1258Y794D01*
X0Y793D02*
X9Y793D01*
X1251Y793D02*
X1258Y793D01*
X0Y792D02*
X9Y792D01*
X1251Y792D02*
X1258Y792D01*
X0Y791D02*
X9Y791D01*
X1251Y791D02*
X1258Y791D01*
X0Y790D02*
X9Y790D01*
X1251Y790D02*
X1258Y790D01*
X0Y789D02*
X9Y789D01*
X1251Y789D02*
X1258Y789D01*
X0Y788D02*
X9Y788D01*
X1251Y788D02*
X1258Y788D01*
X0Y787D02*
X9Y787D01*
X1251Y787D02*
X1258Y787D01*
X0Y786D02*
X9Y786D01*
X1251Y786D02*
X1258Y786D01*
X0Y785D02*
X9Y785D01*
X1251Y785D02*
X1258Y785D01*
X0Y784D02*
X9Y784D01*
X84Y784D02*
X92Y784D01*
X1251Y784D02*
X1258Y784D01*
X0Y783D02*
X9Y783D01*
X81Y783D02*
X94Y783D01*
X1251Y783D02*
X1258Y783D01*
X0Y782D02*
X9Y782D01*
X79Y782D02*
X96Y782D01*
X1251Y782D02*
X1258Y782D01*
X0Y781D02*
X9Y781D01*
X77Y781D02*
X98Y781D01*
X1251Y781D02*
X1258Y781D01*
X0Y780D02*
X9Y780D01*
X75Y780D02*
X100Y780D01*
X1251Y780D02*
X1258Y780D01*
X0Y779D02*
X9Y779D01*
X73Y779D02*
X102Y779D01*
X1251Y779D02*
X1258Y779D01*
X0Y778D02*
X9Y778D01*
X71Y778D02*
X104Y778D01*
X1251Y778D02*
X1258Y778D01*
X0Y777D02*
X9Y777D01*
X69Y777D02*
X84Y777D01*
X91Y777D02*
X106Y777D01*
X1251Y777D02*
X1258Y777D01*
X0Y776D02*
X9Y776D01*
X67Y776D02*
X82Y776D01*
X94Y776D02*
X108Y776D01*
X1251Y776D02*
X1258Y776D01*
X0Y775D02*
X9Y775D01*
X65Y775D02*
X80Y775D01*
X96Y775D02*
X110Y775D01*
X1251Y775D02*
X1258Y775D01*
X0Y774D02*
X9Y774D01*
X64Y774D02*
X78Y774D01*
X98Y774D02*
X111Y774D01*
X1251Y774D02*
X1258Y774D01*
X0Y773D02*
X9Y773D01*
X63Y773D02*
X76Y773D01*
X100Y773D02*
X112Y773D01*
X1251Y773D02*
X1258Y773D01*
X0Y772D02*
X9Y772D01*
X63Y772D02*
X74Y772D01*
X101Y772D02*
X113Y772D01*
X1251Y772D02*
X1258Y772D01*
X0Y771D02*
X9Y771D01*
X62Y771D02*
X72Y771D01*
X103Y771D02*
X113Y771D01*
X1251Y771D02*
X1258Y771D01*
X0Y770D02*
X9Y770D01*
X62Y770D02*
X70Y770D01*
X105Y770D02*
X114Y770D01*
X1251Y770D02*
X1258Y770D01*
X0Y769D02*
X9Y769D01*
X61Y769D02*
X68Y769D01*
X107Y769D02*
X114Y769D01*
X1251Y769D02*
X1258Y769D01*
X0Y768D02*
X9Y768D01*
X61Y768D02*
X67Y768D01*
X108Y768D02*
X114Y768D01*
X1251Y768D02*
X1258Y768D01*
X0Y767D02*
X9Y767D01*
X61Y767D02*
X67Y767D01*
X108Y767D02*
X114Y767D01*
X1251Y767D02*
X1258Y767D01*
X0Y766D02*
X9Y766D01*
X61Y766D02*
X67Y766D01*
X108Y766D02*
X114Y766D01*
X1251Y766D02*
X1258Y766D01*
X0Y765D02*
X9Y765D01*
X61Y765D02*
X67Y765D01*
X108Y765D02*
X114Y765D01*
X1251Y765D02*
X1258Y765D01*
X0Y764D02*
X9Y764D01*
X61Y764D02*
X114Y764D01*
X1251Y764D02*
X1258Y764D01*
X0Y763D02*
X9Y763D01*
X61Y763D02*
X114Y763D01*
X1251Y763D02*
X1258Y763D01*
X0Y762D02*
X9Y762D01*
X61Y762D02*
X114Y762D01*
X1251Y762D02*
X1258Y762D01*
X0Y761D02*
X9Y761D01*
X61Y761D02*
X114Y761D01*
X1251Y761D02*
X1258Y761D01*
X0Y760D02*
X9Y760D01*
X61Y760D02*
X114Y760D01*
X1251Y760D02*
X1258Y760D01*
X0Y759D02*
X9Y759D01*
X61Y759D02*
X114Y759D01*
X1251Y759D02*
X1258Y759D01*
X0Y758D02*
X9Y758D01*
X61Y758D02*
X114Y758D01*
X1251Y758D02*
X1258Y758D01*
X0Y757D02*
X9Y757D01*
X61Y757D02*
X67Y757D01*
X108Y757D02*
X114Y757D01*
X1251Y757D02*
X1258Y757D01*
X0Y756D02*
X9Y756D01*
X61Y756D02*
X67Y756D01*
X108Y756D02*
X114Y756D01*
X1251Y756D02*
X1258Y756D01*
X0Y755D02*
X9Y755D01*
X61Y755D02*
X67Y755D01*
X108Y755D02*
X114Y755D01*
X1251Y755D02*
X1258Y755D01*
X0Y754D02*
X9Y754D01*
X61Y754D02*
X67Y754D01*
X108Y754D02*
X114Y754D01*
X1251Y754D02*
X1258Y754D01*
X0Y753D02*
X9Y753D01*
X61Y753D02*
X67Y753D01*
X108Y753D02*
X114Y753D01*
X1251Y753D02*
X1258Y753D01*
X0Y752D02*
X9Y752D01*
X62Y752D02*
X67Y752D01*
X109Y752D02*
X114Y752D01*
X1251Y752D02*
X1258Y752D01*
X0Y751D02*
X9Y751D01*
X62Y751D02*
X66Y751D01*
X109Y751D02*
X113Y751D01*
X1251Y751D02*
X1258Y751D01*
X0Y750D02*
X9Y750D01*
X1251Y750D02*
X1258Y750D01*
X0Y749D02*
X9Y749D01*
X1251Y749D02*
X1258Y749D01*
X0Y748D02*
X9Y748D01*
X1251Y748D02*
X1258Y748D01*
X0Y747D02*
X9Y747D01*
X1251Y747D02*
X1258Y747D01*
X0Y746D02*
X9Y746D01*
X1251Y746D02*
X1258Y746D01*
X0Y745D02*
X9Y745D01*
X1251Y745D02*
X1258Y745D01*
X0Y744D02*
X9Y744D01*
X1251Y744D02*
X1258Y744D01*
X0Y743D02*
X9Y743D01*
X1251Y743D02*
X1258Y743D01*
X0Y742D02*
X9Y742D01*
X1251Y742D02*
X1258Y742D01*
X0Y741D02*
X9Y741D01*
X1251Y741D02*
X1258Y741D01*
X0Y740D02*
X9Y740D01*
X1251Y740D02*
X1258Y740D01*
X0Y739D02*
X9Y739D01*
X1251Y739D02*
X1258Y739D01*
X0Y738D02*
X9Y738D01*
X1251Y738D02*
X1258Y738D01*
X0Y737D02*
X9Y737D01*
X1251Y737D02*
X1258Y737D01*
X0Y736D02*
X9Y736D01*
X1251Y736D02*
X1258Y736D01*
X0Y735D02*
X9Y735D01*
X1251Y735D02*
X1258Y735D01*
X0Y734D02*
X9Y734D01*
X1251Y734D02*
X1258Y734D01*
X0Y733D02*
X9Y733D01*
X1251Y733D02*
X1258Y733D01*
X0Y732D02*
X9Y732D01*
X1251Y732D02*
X1258Y732D01*
X0Y731D02*
X9Y731D01*
X1251Y731D02*
X1258Y731D01*
X0Y730D02*
X9Y730D01*
X1251Y730D02*
X1258Y730D01*
X0Y729D02*
X9Y729D01*
X1251Y729D02*
X1258Y729D01*
X0Y728D02*
X9Y728D01*
X1251Y728D02*
X1258Y728D01*
X0Y727D02*
X9Y727D01*
X1251Y727D02*
X1258Y727D01*
X0Y726D02*
X9Y726D01*
X1251Y726D02*
X1258Y726D01*
X0Y725D02*
X9Y725D01*
X1251Y725D02*
X1258Y725D01*
X0Y724D02*
X9Y724D01*
X1251Y724D02*
X1258Y724D01*
X0Y723D02*
X9Y723D01*
X1251Y723D02*
X1258Y723D01*
X0Y722D02*
X9Y722D01*
X1251Y722D02*
X1258Y722D01*
X0Y721D02*
X9Y721D01*
X1251Y721D02*
X1258Y721D01*
X0Y720D02*
X9Y720D01*
X1251Y720D02*
X1258Y720D01*
X0Y719D02*
X9Y719D01*
X1251Y719D02*
X1258Y719D01*
X0Y718D02*
X9Y718D01*
X1251Y718D02*
X1258Y718D01*
X0Y717D02*
X9Y717D01*
X1251Y717D02*
X1258Y717D01*
X0Y716D02*
X9Y716D01*
X1251Y716D02*
X1258Y716D01*
X0Y715D02*
X9Y715D01*
X1251Y715D02*
X1258Y715D01*
X0Y714D02*
X9Y714D01*
X1251Y714D02*
X1258Y714D01*
X0Y713D02*
X9Y713D01*
X1251Y713D02*
X1258Y713D01*
X0Y712D02*
X9Y712D01*
X1251Y712D02*
X1258Y712D01*
X0Y711D02*
X9Y711D01*
X1251Y711D02*
X1258Y711D01*
X0Y710D02*
X9Y710D01*
X1251Y710D02*
X1258Y710D01*
X0Y709D02*
X9Y709D01*
X1251Y709D02*
X1258Y709D01*
X0Y708D02*
X9Y708D01*
X1251Y708D02*
X1258Y708D01*
X0Y707D02*
X9Y707D01*
X1251Y707D02*
X1258Y707D01*
X0Y706D02*
X9Y706D01*
X1251Y706D02*
X1258Y706D01*
X0Y705D02*
X9Y705D01*
X1251Y705D02*
X1258Y705D01*
X0Y704D02*
X9Y704D01*
X1251Y704D02*
X1258Y704D01*
X0Y703D02*
X9Y703D01*
X1251Y703D02*
X1258Y703D01*
X0Y702D02*
X9Y702D01*
X1251Y702D02*
X1258Y702D01*
X0Y701D02*
X9Y701D01*
X1251Y701D02*
X1258Y701D01*
X0Y700D02*
X9Y700D01*
X1251Y700D02*
X1258Y700D01*
X0Y699D02*
X9Y699D01*
X1251Y699D02*
X1258Y699D01*
X0Y698D02*
X9Y698D01*
X1251Y698D02*
X1258Y698D01*
X0Y697D02*
X9Y697D01*
X1251Y697D02*
X1258Y697D01*
X0Y696D02*
X9Y696D01*
X1251Y696D02*
X1258Y696D01*
X0Y695D02*
X9Y695D01*
X1251Y695D02*
X1258Y695D01*
X0Y694D02*
X9Y694D01*
X1251Y694D02*
X1258Y694D01*
X0Y693D02*
X9Y693D01*
X1251Y693D02*
X1258Y693D01*
X0Y692D02*
X9Y692D01*
X1251Y692D02*
X1258Y692D01*
X0Y691D02*
X9Y691D01*
X1251Y691D02*
X1258Y691D01*
X0Y690D02*
X9Y690D01*
X1251Y690D02*
X1258Y690D01*
X0Y689D02*
X9Y689D01*
X1251Y689D02*
X1258Y689D01*
X0Y688D02*
X9Y688D01*
X1251Y688D02*
X1258Y688D01*
X0Y687D02*
X9Y687D01*
X1251Y687D02*
X1258Y687D01*
X0Y686D02*
X9Y686D01*
X1251Y686D02*
X1258Y686D01*
X0Y685D02*
X9Y685D01*
X1251Y685D02*
X1258Y685D01*
X0Y684D02*
X9Y684D01*
X1251Y684D02*
X1258Y684D01*
X0Y683D02*
X9Y683D01*
X1251Y683D02*
X1258Y683D01*
X0Y682D02*
X9Y682D01*
X1251Y682D02*
X1258Y682D01*
X0Y681D02*
X9Y681D01*
X1251Y681D02*
X1258Y681D01*
X0Y680D02*
X9Y680D01*
X1251Y680D02*
X1258Y680D01*
X0Y679D02*
X9Y679D01*
X1251Y679D02*
X1258Y679D01*
X0Y678D02*
X9Y678D01*
X1251Y678D02*
X1258Y678D01*
X0Y677D02*
X9Y677D01*
X1251Y677D02*
X1258Y677D01*
X0Y676D02*
X9Y676D01*
X1251Y676D02*
X1258Y676D01*
X0Y675D02*
X9Y675D01*
X1251Y675D02*
X1258Y675D01*
X0Y674D02*
X9Y674D01*
X1251Y674D02*
X1258Y674D01*
X0Y673D02*
X9Y673D01*
X1251Y673D02*
X1258Y673D01*
X0Y672D02*
X9Y672D01*
X1251Y672D02*
X1258Y672D01*
X0Y671D02*
X9Y671D01*
X1251Y671D02*
X1258Y671D01*
X0Y670D02*
X9Y670D01*
X1251Y670D02*
X1258Y670D01*
X0Y669D02*
X9Y669D01*
X1251Y669D02*
X1258Y669D01*
X0Y668D02*
X9Y668D01*
X1251Y668D02*
X1258Y668D01*
X0Y667D02*
X9Y667D01*
X1251Y667D02*
X1258Y667D01*
X0Y666D02*
X9Y666D01*
X1251Y666D02*
X1258Y666D01*
X0Y665D02*
X9Y665D01*
X1251Y665D02*
X1258Y665D01*
X0Y664D02*
X9Y664D01*
X1251Y664D02*
X1258Y664D01*
X0Y663D02*
X9Y663D01*
X1251Y663D02*
X1258Y663D01*
X0Y662D02*
X9Y662D01*
X1251Y662D02*
X1258Y662D01*
X0Y661D02*
X9Y661D01*
X1251Y661D02*
X1258Y661D01*
X0Y660D02*
X9Y660D01*
X1251Y660D02*
X1258Y660D01*
X0Y659D02*
X9Y659D01*
X1251Y659D02*
X1258Y659D01*
X0Y658D02*
X9Y658D01*
X1251Y658D02*
X1258Y658D01*
X0Y657D02*
X9Y657D01*
X1251Y657D02*
X1258Y657D01*
X0Y656D02*
X9Y656D01*
X1251Y656D02*
X1258Y656D01*
X0Y655D02*
X9Y655D01*
X1251Y655D02*
X1258Y655D01*
X0Y654D02*
X9Y654D01*
X1251Y654D02*
X1258Y654D01*
X0Y653D02*
X9Y653D01*
X1251Y653D02*
X1258Y653D01*
X0Y652D02*
X9Y652D01*
X1251Y652D02*
X1258Y652D01*
X0Y651D02*
X9Y651D01*
X1251Y651D02*
X1258Y651D01*
X0Y650D02*
X9Y650D01*
X1251Y650D02*
X1258Y650D01*
X0Y649D02*
X9Y649D01*
X1251Y649D02*
X1258Y649D01*
X0Y648D02*
X9Y648D01*
X1251Y648D02*
X1258Y648D01*
X0Y647D02*
X9Y647D01*
X1251Y647D02*
X1258Y647D01*
X0Y646D02*
X9Y646D01*
X1251Y646D02*
X1258Y646D01*
X0Y645D02*
X9Y645D01*
X1251Y645D02*
X1258Y645D01*
X0Y644D02*
X9Y644D01*
X1251Y644D02*
X1258Y644D01*
X0Y643D02*
X9Y643D01*
X1251Y643D02*
X1258Y643D01*
X0Y642D02*
X9Y642D01*
X1251Y642D02*
X1258Y642D01*
X0Y641D02*
X9Y641D01*
X1251Y641D02*
X1258Y641D01*
X0Y640D02*
X9Y640D01*
X1251Y640D02*
X1258Y640D01*
X0Y639D02*
X9Y639D01*
X1251Y639D02*
X1258Y639D01*
X0Y638D02*
X9Y638D01*
X1251Y638D02*
X1258Y638D01*
X0Y637D02*
X9Y637D01*
X1251Y637D02*
X1258Y637D01*
X0Y636D02*
X9Y636D01*
X1251Y636D02*
X1258Y636D01*
X0Y635D02*
X9Y635D01*
X1251Y635D02*
X1258Y635D01*
X0Y634D02*
X9Y634D01*
X1251Y634D02*
X1258Y634D01*
X0Y633D02*
X9Y633D01*
X1251Y633D02*
X1258Y633D01*
X0Y632D02*
X9Y632D01*
X1251Y632D02*
X1258Y632D01*
X0Y631D02*
X9Y631D01*
X1251Y631D02*
X1258Y631D01*
X0Y630D02*
X9Y630D01*
X1251Y630D02*
X1258Y630D01*
X0Y629D02*
X9Y629D01*
X1251Y629D02*
X1258Y629D01*
X0Y628D02*
X9Y628D01*
X1251Y628D02*
X1258Y628D01*
X0Y627D02*
X9Y627D01*
X1251Y627D02*
X1258Y627D01*
X0Y626D02*
X9Y626D01*
X1251Y626D02*
X1258Y626D01*
X0Y625D02*
X9Y625D01*
X1251Y625D02*
X1258Y625D01*
X0Y624D02*
X9Y624D01*
X1251Y624D02*
X1258Y624D01*
X0Y623D02*
X9Y623D01*
X1251Y623D02*
X1258Y623D01*
X0Y622D02*
X9Y622D01*
X1251Y622D02*
X1258Y622D01*
X0Y621D02*
X9Y621D01*
X1251Y621D02*
X1258Y621D01*
X0Y620D02*
X9Y620D01*
X1251Y620D02*
X1258Y620D01*
X0Y619D02*
X9Y619D01*
X1251Y619D02*
X1258Y619D01*
X0Y618D02*
X9Y618D01*
X1251Y618D02*
X1258Y618D01*
X0Y617D02*
X9Y617D01*
X1251Y617D02*
X1258Y617D01*
X0Y616D02*
X9Y616D01*
X1251Y616D02*
X1258Y616D01*
X0Y615D02*
X9Y615D01*
X1251Y615D02*
X1258Y615D01*
X0Y614D02*
X9Y614D01*
X1251Y614D02*
X1258Y614D01*
X0Y613D02*
X9Y613D01*
X1251Y613D02*
X1258Y613D01*
X0Y612D02*
X9Y612D01*
X1251Y612D02*
X1258Y612D01*
X0Y611D02*
X9Y611D01*
X1251Y611D02*
X1258Y611D01*
X0Y610D02*
X9Y610D01*
X1251Y610D02*
X1258Y610D01*
X0Y609D02*
X9Y609D01*
X1251Y609D02*
X1258Y609D01*
X0Y608D02*
X9Y608D01*
X1251Y608D02*
X1258Y608D01*
X0Y607D02*
X9Y607D01*
X1251Y607D02*
X1258Y607D01*
X0Y606D02*
X9Y606D01*
X1251Y606D02*
X1258Y606D01*
X0Y605D02*
X9Y605D01*
X1251Y605D02*
X1258Y605D01*
X0Y604D02*
X9Y604D01*
X1251Y604D02*
X1258Y604D01*
X0Y603D02*
X9Y603D01*
X1251Y603D02*
X1258Y603D01*
X0Y602D02*
X9Y602D01*
X1251Y602D02*
X1258Y602D01*
X0Y601D02*
X9Y601D01*
X1251Y601D02*
X1258Y601D01*
X0Y600D02*
X9Y600D01*
X1251Y600D02*
X1258Y600D01*
X0Y599D02*
X9Y599D01*
X1251Y599D02*
X1258Y599D01*
X0Y598D02*
X9Y598D01*
X1251Y598D02*
X1258Y598D01*
X0Y597D02*
X9Y597D01*
X1251Y597D02*
X1258Y597D01*
X0Y596D02*
X9Y596D01*
X1251Y596D02*
X1258Y596D01*
X0Y595D02*
X9Y595D01*
X1251Y595D02*
X1258Y595D01*
X0Y594D02*
X9Y594D01*
X1251Y594D02*
X1258Y594D01*
X0Y593D02*
X9Y593D01*
X1251Y593D02*
X1258Y593D01*
X0Y592D02*
X9Y592D01*
X1251Y592D02*
X1258Y592D01*
X0Y591D02*
X9Y591D01*
X1251Y591D02*
X1258Y591D01*
X0Y590D02*
X9Y590D01*
X1251Y590D02*
X1258Y590D01*
X0Y589D02*
X9Y589D01*
X1251Y589D02*
X1258Y589D01*
X0Y588D02*
X9Y588D01*
X1251Y588D02*
X1258Y588D01*
X0Y587D02*
X9Y587D01*
X1251Y587D02*
X1258Y587D01*
X0Y586D02*
X9Y586D01*
X1251Y586D02*
X1258Y586D01*
X0Y585D02*
X9Y585D01*
X1251Y585D02*
X1258Y585D01*
X0Y584D02*
X9Y584D01*
X1251Y584D02*
X1258Y584D01*
X0Y583D02*
X9Y583D01*
X1251Y583D02*
X1258Y583D01*
X0Y582D02*
X9Y582D01*
X1251Y582D02*
X1258Y582D01*
X0Y581D02*
X9Y581D01*
X1251Y581D02*
X1258Y581D01*
X0Y580D02*
X9Y580D01*
X1251Y580D02*
X1258Y580D01*
X0Y579D02*
X9Y579D01*
X1251Y579D02*
X1258Y579D01*
X0Y578D02*
X9Y578D01*
X1251Y578D02*
X1258Y578D01*
X0Y577D02*
X9Y577D01*
X1251Y577D02*
X1258Y577D01*
X0Y576D02*
X9Y576D01*
X1251Y576D02*
X1258Y576D01*
X0Y575D02*
X9Y575D01*
X1251Y575D02*
X1258Y575D01*
X0Y574D02*
X9Y574D01*
X1251Y574D02*
X1258Y574D01*
X0Y573D02*
X9Y573D01*
X1251Y573D02*
X1258Y573D01*
X0Y572D02*
X9Y572D01*
X1251Y572D02*
X1258Y572D01*
X0Y571D02*
X9Y571D01*
X1251Y571D02*
X1258Y571D01*
X0Y570D02*
X9Y570D01*
X1251Y570D02*
X1258Y570D01*
X0Y569D02*
X9Y569D01*
X1251Y569D02*
X1258Y569D01*
X0Y568D02*
X9Y568D01*
X1251Y568D02*
X1258Y568D01*
X0Y567D02*
X9Y567D01*
X1251Y567D02*
X1258Y567D01*
X0Y566D02*
X9Y566D01*
X1251Y566D02*
X1258Y566D01*
X0Y565D02*
X9Y565D01*
X1251Y565D02*
X1258Y565D01*
X0Y564D02*
X9Y564D01*
X1251Y564D02*
X1258Y564D01*
X0Y563D02*
X9Y563D01*
X667Y563D02*
X667Y563D01*
X1251Y563D02*
X1258Y563D01*
X0Y562D02*
X9Y562D01*
X667Y562D02*
X676Y562D01*
X767Y562D02*
X776Y562D01*
X1251Y562D02*
X1258Y562D01*
X0Y561D02*
X9Y561D01*
X667Y561D02*
X676Y561D01*
X767Y561D02*
X776Y561D01*
X1251Y561D02*
X1258Y561D01*
X0Y560D02*
X9Y560D01*
X667Y560D02*
X676Y560D01*
X767Y560D02*
X776Y560D01*
X1251Y560D02*
X1258Y560D01*
X0Y559D02*
X9Y559D01*
X667Y559D02*
X676Y559D01*
X767Y559D02*
X776Y559D01*
X1251Y559D02*
X1258Y559D01*
X0Y558D02*
X9Y558D01*
X526Y558D02*
X557Y558D01*
X584Y558D02*
X615Y558D01*
X667Y558D02*
X676Y558D01*
X767Y558D02*
X776Y558D01*
X1251Y558D02*
X1258Y558D01*
X0Y557D02*
X9Y557D01*
X526Y557D02*
X561Y557D01*
X579Y557D02*
X615Y557D01*
X667Y557D02*
X676Y557D01*
X767Y557D02*
X776Y557D01*
X1251Y557D02*
X1258Y557D01*
X0Y556D02*
X9Y556D01*
X526Y556D02*
X615Y556D01*
X667Y556D02*
X676Y556D01*
X767Y556D02*
X776Y556D01*
X1251Y556D02*
X1258Y556D01*
X0Y555D02*
X9Y555D01*
X526Y555D02*
X615Y555D01*
X667Y555D02*
X676Y555D01*
X767Y555D02*
X776Y555D01*
X1251Y555D02*
X1258Y555D01*
X0Y554D02*
X9Y554D01*
X526Y554D02*
X615Y554D01*
X667Y554D02*
X676Y554D01*
X767Y554D02*
X776Y554D01*
X1251Y554D02*
X1258Y554D01*
X0Y553D02*
X9Y553D01*
X526Y553D02*
X615Y553D01*
X667Y553D02*
X676Y553D01*
X767Y553D02*
X776Y553D01*
X1251Y553D02*
X1258Y553D01*
X0Y552D02*
X9Y552D01*
X526Y552D02*
X615Y552D01*
X667Y552D02*
X676Y552D01*
X767Y552D02*
X776Y552D01*
X1251Y552D02*
X1258Y552D01*
X0Y551D02*
X9Y551D01*
X526Y551D02*
X615Y551D01*
X667Y551D02*
X676Y551D01*
X767Y551D02*
X776Y551D01*
X1251Y551D02*
X1258Y551D01*
X0Y550D02*
X9Y550D01*
X526Y550D02*
X615Y550D01*
X667Y550D02*
X676Y550D01*
X767Y550D02*
X776Y550D01*
X1251Y550D02*
X1258Y550D01*
X0Y549D02*
X9Y549D01*
X526Y549D02*
X615Y549D01*
X667Y549D02*
X676Y549D01*
X767Y549D02*
X776Y549D01*
X1251Y549D02*
X1258Y549D01*
X0Y548D02*
X9Y548D01*
X667Y548D02*
X676Y548D01*
X767Y548D02*
X776Y548D01*
X1251Y548D02*
X1258Y548D01*
X0Y547D02*
X9Y547D01*
X667Y547D02*
X676Y547D01*
X767Y547D02*
X776Y547D01*
X1251Y547D02*
X1258Y547D01*
X0Y546D02*
X9Y546D01*
X667Y546D02*
X676Y546D01*
X767Y546D02*
X776Y546D01*
X1251Y546D02*
X1258Y546D01*
X0Y545D02*
X9Y545D01*
X667Y545D02*
X676Y545D01*
X767Y545D02*
X776Y545D01*
X1251Y545D02*
X1258Y545D01*
X0Y544D02*
X9Y544D01*
X667Y544D02*
X676Y544D01*
X767Y544D02*
X776Y544D01*
X1251Y544D02*
X1258Y544D01*
X0Y543D02*
X9Y543D01*
X667Y543D02*
X676Y543D01*
X767Y543D02*
X776Y543D01*
X1251Y543D02*
X1258Y543D01*
X0Y542D02*
X9Y542D01*
X667Y542D02*
X676Y542D01*
X767Y542D02*
X776Y542D01*
X1251Y542D02*
X1258Y542D01*
X0Y541D02*
X9Y541D01*
X667Y541D02*
X676Y541D01*
X767Y541D02*
X776Y541D01*
X1251Y541D02*
X1258Y541D01*
X0Y540D02*
X9Y540D01*
X667Y540D02*
X676Y540D01*
X767Y540D02*
X776Y540D01*
X1251Y540D02*
X1258Y540D01*
X0Y539D02*
X9Y539D01*
X667Y539D02*
X676Y539D01*
X767Y539D02*
X776Y539D01*
X1251Y539D02*
X1258Y539D01*
X0Y538D02*
X9Y538D01*
X667Y538D02*
X676Y538D01*
X767Y538D02*
X776Y538D01*
X1251Y538D02*
X1258Y538D01*
X0Y537D02*
X9Y537D01*
X667Y537D02*
X676Y537D01*
X767Y537D02*
X776Y537D01*
X1251Y537D02*
X1258Y537D01*
X0Y536D02*
X9Y536D01*
X667Y536D02*
X676Y536D01*
X767Y536D02*
X776Y536D01*
X1251Y536D02*
X1258Y536D01*
X0Y535D02*
X9Y535D01*
X667Y535D02*
X676Y535D01*
X767Y535D02*
X776Y535D01*
X1251Y535D02*
X1258Y535D01*
X0Y534D02*
X9Y534D01*
X667Y534D02*
X676Y534D01*
X767Y534D02*
X776Y534D01*
X1251Y534D02*
X1258Y534D01*
X0Y533D02*
X9Y533D01*
X667Y533D02*
X676Y533D01*
X767Y533D02*
X776Y533D01*
X1251Y533D02*
X1258Y533D01*
X0Y532D02*
X9Y532D01*
X667Y532D02*
X676Y532D01*
X767Y532D02*
X776Y532D01*
X1251Y532D02*
X1258Y532D01*
X0Y531D02*
X9Y531D01*
X667Y531D02*
X676Y531D01*
X767Y531D02*
X776Y531D01*
X1251Y531D02*
X1258Y531D01*
X0Y530D02*
X9Y530D01*
X667Y530D02*
X676Y530D01*
X767Y530D02*
X776Y530D01*
X1251Y530D02*
X1258Y530D01*
X0Y529D02*
X9Y529D01*
X667Y529D02*
X676Y529D01*
X767Y529D02*
X776Y529D01*
X1251Y529D02*
X1258Y529D01*
X0Y528D02*
X9Y528D01*
X667Y528D02*
X676Y528D01*
X767Y528D02*
X776Y528D01*
X1251Y528D02*
X1258Y528D01*
X0Y527D02*
X9Y527D01*
X667Y527D02*
X676Y527D01*
X767Y527D02*
X776Y527D01*
X1251Y527D02*
X1258Y527D01*
X0Y526D02*
X9Y526D01*
X667Y526D02*
X676Y526D01*
X767Y526D02*
X776Y526D01*
X1251Y526D02*
X1258Y526D01*
X0Y525D02*
X9Y525D01*
X667Y525D02*
X676Y525D01*
X767Y525D02*
X776Y525D01*
X1251Y525D02*
X1258Y525D01*
X0Y524D02*
X9Y524D01*
X667Y524D02*
X676Y524D01*
X767Y524D02*
X776Y524D01*
X1251Y524D02*
X1258Y524D01*
X0Y523D02*
X9Y523D01*
X667Y523D02*
X676Y523D01*
X767Y523D02*
X776Y523D01*
X1251Y523D02*
X1258Y523D01*
X0Y522D02*
X9Y522D01*
X667Y522D02*
X676Y522D01*
X767Y522D02*
X776Y522D01*
X1251Y522D02*
X1258Y522D01*
X0Y521D02*
X9Y521D01*
X667Y521D02*
X676Y521D01*
X767Y521D02*
X776Y521D01*
X0Y520D02*
X9Y520D01*
X667Y520D02*
X676Y520D01*
X767Y520D02*
X776Y520D01*
X0Y519D02*
X9Y519D01*
X667Y519D02*
X676Y519D01*
X767Y519D02*
X776Y519D01*
X0Y518D02*
X9Y518D01*
X667Y518D02*
X676Y518D01*
X767Y518D02*
X776Y518D01*
X0Y517D02*
X9Y517D01*
X667Y517D02*
X676Y517D01*
X767Y517D02*
X776Y517D01*
X0Y516D02*
X9Y516D01*
X667Y516D02*
X676Y516D01*
X767Y516D02*
X776Y516D01*
X0Y515D02*
X9Y515D01*
X668Y515D02*
X676Y515D01*
X767Y515D02*
X776Y515D01*
X0Y514D02*
X9Y514D01*
X1251Y514D02*
X1258Y514D01*
X0Y513D02*
X9Y513D01*
X1251Y513D02*
X1258Y513D01*
X0Y512D02*
X9Y512D01*
X749Y512D02*
X752Y512D01*
X796Y512D02*
X799Y512D01*
X1251Y512D02*
X1258Y512D01*
X0Y511D02*
X9Y511D01*
X748Y511D02*
X753Y511D01*
X795Y511D02*
X800Y511D01*
X1251Y511D02*
X1258Y511D01*
X0Y510D02*
X9Y510D01*
X748Y510D02*
X754Y510D01*
X794Y510D02*
X800Y510D01*
X1251Y510D02*
X1258Y510D01*
X0Y509D02*
X9Y509D01*
X748Y509D02*
X755Y509D01*
X793Y509D02*
X801Y509D01*
X1251Y509D02*
X1258Y509D01*
X0Y508D02*
X9Y508D01*
X748Y508D02*
X756Y508D01*
X792Y508D02*
X800Y508D01*
X1251Y508D02*
X1258Y508D01*
X0Y507D02*
X9Y507D01*
X748Y507D02*
X757Y507D01*
X791Y507D02*
X800Y507D01*
X1251Y507D02*
X1258Y507D01*
X0Y506D02*
X9Y506D01*
X749Y506D02*
X757Y506D01*
X791Y506D02*
X799Y506D01*
X1251Y506D02*
X1258Y506D01*
X0Y505D02*
X9Y505D01*
X750Y505D02*
X758Y505D01*
X790Y505D02*
X798Y505D01*
X1251Y505D02*
X1258Y505D01*
X0Y504D02*
X9Y504D01*
X751Y504D02*
X759Y504D01*
X789Y504D02*
X797Y504D01*
X1251Y504D02*
X1258Y504D01*
X0Y503D02*
X9Y503D01*
X752Y503D02*
X760Y503D01*
X788Y503D02*
X796Y503D01*
X1251Y503D02*
X1258Y503D01*
X0Y502D02*
X9Y502D01*
X753Y502D02*
X761Y502D01*
X787Y502D02*
X795Y502D01*
X1251Y502D02*
X1258Y502D01*
X0Y501D02*
X9Y501D01*
X753Y501D02*
X762Y501D01*
X786Y501D02*
X795Y501D01*
X1251Y501D02*
X1258Y501D01*
X0Y500D02*
X9Y500D01*
X754Y500D02*
X763Y500D01*
X786Y500D02*
X794Y500D01*
X1251Y500D02*
X1258Y500D01*
X0Y499D02*
X9Y499D01*
X755Y499D02*
X763Y499D01*
X785Y499D02*
X793Y499D01*
X1251Y499D02*
X1258Y499D01*
X0Y498D02*
X9Y498D01*
X756Y498D02*
X764Y498D01*
X784Y498D02*
X792Y498D01*
X1251Y498D02*
X1258Y498D01*
X0Y497D02*
X9Y497D01*
X757Y497D02*
X765Y497D01*
X783Y497D02*
X791Y497D01*
X1251Y497D02*
X1258Y497D01*
X0Y496D02*
X9Y496D01*
X758Y496D02*
X766Y496D01*
X782Y496D02*
X790Y496D01*
X1251Y496D02*
X1258Y496D01*
X0Y495D02*
X9Y495D01*
X759Y495D02*
X767Y495D01*
X781Y495D02*
X789Y495D01*
X1251Y495D02*
X1258Y495D01*
X0Y494D02*
X9Y494D01*
X759Y494D02*
X768Y494D01*
X780Y494D02*
X789Y494D01*
X1251Y494D02*
X1258Y494D01*
X0Y493D02*
X9Y493D01*
X760Y493D02*
X769Y493D01*
X780Y493D02*
X788Y493D01*
X1251Y493D02*
X1258Y493D01*
X0Y492D02*
X9Y492D01*
X761Y492D02*
X769Y492D01*
X779Y492D02*
X787Y492D01*
X1251Y492D02*
X1258Y492D01*
X0Y491D02*
X9Y491D01*
X762Y491D02*
X770Y491D01*
X778Y491D02*
X786Y491D01*
X1251Y491D02*
X1258Y491D01*
X0Y490D02*
X9Y490D01*
X763Y490D02*
X771Y490D01*
X777Y490D02*
X785Y490D01*
X1251Y490D02*
X1258Y490D01*
X0Y489D02*
X9Y489D01*
X764Y489D02*
X772Y489D01*
X776Y489D02*
X784Y489D01*
X1251Y489D02*
X1258Y489D01*
X0Y488D02*
X9Y488D01*
X765Y488D02*
X773Y488D01*
X775Y488D02*
X783Y488D01*
X1251Y488D02*
X1258Y488D01*
X0Y487D02*
X9Y487D01*
X765Y487D02*
X783Y487D01*
X1251Y487D02*
X1258Y487D01*
X0Y486D02*
X9Y486D01*
X766Y486D02*
X782Y486D01*
X1251Y486D02*
X1258Y486D01*
X0Y485D02*
X9Y485D01*
X650Y485D02*
X652Y485D01*
X697Y485D02*
X699Y485D01*
X750Y485D02*
X798Y485D01*
X1251Y485D02*
X1258Y485D01*
X0Y484D02*
X9Y484D01*
X648Y484D02*
X653Y484D01*
X695Y484D02*
X700Y484D01*
X748Y484D02*
X800Y484D01*
X1251Y484D02*
X1258Y484D01*
X0Y483D02*
X9Y483D01*
X648Y483D02*
X654Y483D01*
X695Y483D02*
X701Y483D01*
X748Y483D02*
X800Y483D01*
X1251Y483D02*
X1258Y483D01*
X0Y482D02*
X9Y482D01*
X648Y482D02*
X655Y482D01*
X694Y482D02*
X701Y482D01*
X748Y482D02*
X801Y482D01*
X1251Y482D02*
X1258Y482D01*
X0Y481D02*
X9Y481D01*
X648Y481D02*
X656Y481D01*
X693Y481D02*
X701Y481D01*
X748Y481D02*
X800Y481D01*
X1251Y481D02*
X1258Y481D01*
X0Y480D02*
X9Y480D01*
X648Y480D02*
X657Y480D01*
X692Y480D02*
X700Y480D01*
X748Y480D02*
X800Y480D01*
X1251Y480D02*
X1258Y480D01*
X0Y479D02*
X9Y479D01*
X649Y479D02*
X657Y479D01*
X691Y479D02*
X699Y479D01*
X749Y479D02*
X799Y479D01*
X1251Y479D02*
X1258Y479D01*
X0Y478D02*
X9Y478D01*
X650Y478D02*
X658Y478D01*
X690Y478D02*
X699Y478D01*
X1251Y478D02*
X1258Y478D01*
X0Y477D02*
X9Y477D01*
X651Y477D02*
X659Y477D01*
X689Y477D02*
X698Y477D01*
X1251Y477D02*
X1258Y477D01*
X0Y476D02*
X9Y476D01*
X652Y476D02*
X660Y476D01*
X689Y476D02*
X697Y476D01*
X1251Y476D02*
X1258Y476D01*
X0Y475D02*
X9Y475D01*
X653Y475D02*
X661Y475D01*
X688Y475D02*
X696Y475D01*
X1251Y475D02*
X1258Y475D01*
X0Y474D02*
X9Y474D01*
X653Y474D02*
X662Y474D01*
X687Y474D02*
X695Y474D01*
X1251Y474D02*
X1258Y474D01*
X0Y473D02*
X9Y473D01*
X654Y473D02*
X663Y473D01*
X686Y473D02*
X694Y473D01*
X1251Y473D02*
X1258Y473D01*
X0Y472D02*
X9Y472D01*
X655Y472D02*
X663Y472D01*
X685Y472D02*
X693Y472D01*
X1251Y472D02*
X1258Y472D01*
X0Y471D02*
X9Y471D01*
X656Y471D02*
X664Y471D01*
X684Y471D02*
X693Y471D01*
X1251Y471D02*
X1258Y471D01*
X0Y470D02*
X9Y470D01*
X657Y470D02*
X665Y470D01*
X684Y470D02*
X692Y470D01*
X1251Y470D02*
X1258Y470D01*
X0Y469D02*
X9Y469D01*
X658Y469D02*
X666Y469D01*
X683Y469D02*
X691Y469D01*
X1251Y469D02*
X1258Y469D01*
X0Y468D02*
X9Y468D01*
X659Y468D02*
X667Y468D01*
X682Y468D02*
X690Y468D01*
X1251Y468D02*
X1258Y468D01*
X0Y467D02*
X9Y467D01*
X659Y467D02*
X668Y467D01*
X681Y467D02*
X689Y467D01*
X1251Y467D02*
X1258Y467D01*
X0Y466D02*
X9Y466D01*
X660Y466D02*
X669Y466D01*
X680Y466D02*
X688Y466D01*
X1251Y466D02*
X1258Y466D01*
X0Y465D02*
X9Y465D01*
X661Y465D02*
X669Y465D01*
X679Y465D02*
X687Y465D01*
X1251Y465D02*
X1258Y465D01*
X0Y464D02*
X9Y464D01*
X662Y464D02*
X670Y464D01*
X678Y464D02*
X687Y464D01*
X1251Y464D02*
X1258Y464D01*
X0Y463D02*
X9Y463D01*
X663Y463D02*
X671Y463D01*
X678Y463D02*
X686Y463D01*
X1251Y463D02*
X1258Y463D01*
X0Y462D02*
X9Y462D01*
X664Y462D02*
X672Y462D01*
X677Y462D02*
X685Y462D01*
X752Y462D02*
X797Y462D01*
X1251Y462D02*
X1258Y462D01*
X0Y461D02*
X9Y461D01*
X665Y461D02*
X673Y461D01*
X676Y461D02*
X684Y461D01*
X750Y461D02*
X798Y461D01*
X1251Y461D02*
X1258Y461D01*
X0Y460D02*
X9Y460D01*
X665Y460D02*
X683Y460D01*
X749Y460D02*
X799Y460D01*
X1251Y460D02*
X1258Y460D01*
X0Y459D02*
X9Y459D01*
X666Y459D02*
X682Y459D01*
X748Y459D02*
X800Y459D01*
X1251Y459D02*
X1258Y459D01*
X0Y458D02*
X9Y458D01*
X666Y458D02*
X682Y458D01*
X748Y458D02*
X800Y458D01*
X1251Y458D02*
X1258Y458D01*
X0Y457D02*
X9Y457D01*
X649Y457D02*
X700Y457D01*
X748Y457D02*
X800Y457D01*
X1251Y457D02*
X1258Y457D01*
X0Y456D02*
X9Y456D01*
X648Y456D02*
X700Y456D01*
X748Y456D02*
X801Y456D01*
X1251Y456D02*
X1258Y456D01*
X0Y455D02*
X9Y455D01*
X648Y455D02*
X701Y455D01*
X747Y455D02*
X754Y455D01*
X795Y455D02*
X801Y455D01*
X1251Y455D02*
X1258Y455D01*
X0Y454D02*
X9Y454D01*
X648Y454D02*
X701Y454D01*
X747Y454D02*
X754Y454D01*
X795Y454D02*
X801Y454D01*
X1251Y454D02*
X1258Y454D01*
X0Y453D02*
X9Y453D01*
X648Y453D02*
X701Y453D01*
X747Y453D02*
X754Y453D01*
X795Y453D02*
X801Y453D01*
X1251Y453D02*
X1258Y453D01*
X0Y452D02*
X9Y452D01*
X649Y452D02*
X700Y452D01*
X747Y452D02*
X754Y452D01*
X795Y452D02*
X801Y452D01*
X1251Y452D02*
X1258Y452D01*
X0Y451D02*
X9Y451D01*
X651Y451D02*
X698Y451D01*
X747Y451D02*
X754Y451D01*
X795Y451D02*
X801Y451D01*
X1251Y451D02*
X1258Y451D01*
X0Y450D02*
X9Y450D01*
X747Y450D02*
X754Y450D01*
X795Y450D02*
X801Y450D01*
X1251Y450D02*
X1258Y450D01*
X0Y449D02*
X9Y449D01*
X747Y449D02*
X754Y449D01*
X795Y449D02*
X801Y449D01*
X1251Y449D02*
X1258Y449D01*
X0Y448D02*
X9Y448D01*
X747Y448D02*
X754Y448D01*
X795Y448D02*
X801Y448D01*
X1251Y448D02*
X1258Y448D01*
X0Y447D02*
X9Y447D01*
X747Y447D02*
X754Y447D01*
X795Y447D02*
X801Y447D01*
X1251Y447D02*
X1258Y447D01*
X0Y446D02*
X9Y446D01*
X747Y446D02*
X754Y446D01*
X795Y446D02*
X801Y446D01*
X1251Y446D02*
X1258Y446D01*
X0Y445D02*
X9Y445D01*
X747Y445D02*
X754Y445D01*
X795Y445D02*
X801Y445D01*
X1251Y445D02*
X1258Y445D01*
X0Y444D02*
X9Y444D01*
X747Y444D02*
X754Y444D01*
X795Y444D02*
X801Y444D01*
X1251Y444D02*
X1258Y444D01*
X0Y443D02*
X9Y443D01*
X747Y443D02*
X754Y443D01*
X795Y443D02*
X801Y443D01*
X1251Y443D02*
X1258Y443D01*
X0Y442D02*
X9Y442D01*
X747Y442D02*
X754Y442D01*
X795Y442D02*
X801Y442D01*
X1251Y442D02*
X1258Y442D01*
X0Y441D02*
X9Y441D01*
X747Y441D02*
X754Y441D01*
X795Y441D02*
X801Y441D01*
X1251Y441D02*
X1258Y441D01*
X0Y440D02*
X9Y440D01*
X747Y440D02*
X754Y440D01*
X795Y440D02*
X801Y440D01*
X1251Y440D02*
X1258Y440D01*
X0Y439D02*
X9Y439D01*
X747Y439D02*
X754Y439D01*
X795Y439D02*
X801Y439D01*
X1251Y439D02*
X1258Y439D01*
X0Y438D02*
X9Y438D01*
X747Y438D02*
X754Y438D01*
X795Y438D02*
X801Y438D01*
X1251Y438D02*
X1258Y438D01*
X0Y437D02*
X9Y437D01*
X747Y437D02*
X754Y437D01*
X795Y437D02*
X801Y437D01*
X1251Y437D02*
X1258Y437D01*
X0Y436D02*
X9Y436D01*
X747Y436D02*
X754Y436D01*
X795Y436D02*
X801Y436D01*
X1251Y436D02*
X1258Y436D01*
X0Y435D02*
X9Y435D01*
X653Y435D02*
X696Y435D01*
X748Y435D02*
X801Y435D01*
X1251Y435D02*
X1258Y435D01*
X0Y434D02*
X9Y434D01*
X651Y434D02*
X698Y434D01*
X748Y434D02*
X801Y434D01*
X1251Y434D02*
X1258Y434D01*
X0Y433D02*
X9Y433D01*
X650Y433D02*
X699Y433D01*
X748Y433D02*
X800Y433D01*
X1251Y433D02*
X1258Y433D01*
X0Y432D02*
X9Y432D01*
X649Y432D02*
X700Y432D01*
X748Y432D02*
X800Y432D01*
X1251Y432D02*
X1258Y432D01*
X0Y431D02*
X9Y431D01*
X648Y431D02*
X700Y431D01*
X749Y431D02*
X799Y431D01*
X1251Y431D02*
X1258Y431D01*
X0Y430D02*
X9Y430D01*
X648Y430D02*
X701Y430D01*
X750Y430D02*
X798Y430D01*
X1251Y430D02*
X1258Y430D01*
X0Y429D02*
X9Y429D01*
X648Y429D02*
X701Y429D01*
X751Y429D02*
X797Y429D01*
X1251Y429D02*
X1258Y429D01*
X0Y428D02*
X9Y428D01*
X648Y428D02*
X654Y428D01*
X695Y428D02*
X701Y428D01*
X1251Y428D02*
X1258Y428D01*
X0Y427D02*
X9Y427D01*
X648Y427D02*
X654Y427D01*
X695Y427D02*
X701Y427D01*
X1251Y427D02*
X1258Y427D01*
X0Y426D02*
X9Y426D01*
X648Y426D02*
X654Y426D01*
X695Y426D02*
X701Y426D01*
X1251Y426D02*
X1258Y426D01*
X0Y425D02*
X9Y425D01*
X648Y425D02*
X654Y425D01*
X695Y425D02*
X701Y425D01*
X1251Y425D02*
X1258Y425D01*
X0Y424D02*
X9Y424D01*
X648Y424D02*
X654Y424D01*
X695Y424D02*
X701Y424D01*
X1251Y424D02*
X1258Y424D01*
X0Y423D02*
X9Y423D01*
X648Y423D02*
X654Y423D01*
X695Y423D02*
X701Y423D01*
X1251Y423D02*
X1258Y423D01*
X0Y422D02*
X9Y422D01*
X648Y422D02*
X654Y422D01*
X695Y422D02*
X701Y422D01*
X1251Y422D02*
X1258Y422D01*
X0Y421D02*
X9Y421D01*
X648Y421D02*
X654Y421D01*
X695Y421D02*
X701Y421D01*
X1251Y421D02*
X1258Y421D01*
X0Y420D02*
X9Y420D01*
X648Y420D02*
X654Y420D01*
X695Y420D02*
X701Y420D01*
X1251Y420D02*
X1258Y420D01*
X0Y419D02*
X9Y419D01*
X648Y419D02*
X654Y419D01*
X695Y419D02*
X701Y419D01*
X1251Y419D02*
X1258Y419D01*
X0Y418D02*
X9Y418D01*
X648Y418D02*
X654Y418D01*
X695Y418D02*
X701Y418D01*
X1251Y418D02*
X1258Y418D01*
X0Y417D02*
X9Y417D01*
X648Y417D02*
X654Y417D01*
X695Y417D02*
X701Y417D01*
X1251Y417D02*
X1258Y417D01*
X0Y416D02*
X9Y416D01*
X648Y416D02*
X654Y416D01*
X695Y416D02*
X701Y416D01*
X1251Y416D02*
X1258Y416D01*
X0Y415D02*
X9Y415D01*
X648Y415D02*
X654Y415D01*
X695Y415D02*
X701Y415D01*
X1251Y415D02*
X1258Y415D01*
X0Y414D02*
X9Y414D01*
X648Y414D02*
X654Y414D01*
X695Y414D02*
X701Y414D01*
X1251Y414D02*
X1258Y414D01*
X0Y413D02*
X9Y413D01*
X648Y413D02*
X654Y413D01*
X695Y413D02*
X701Y413D01*
X1251Y413D02*
X1258Y413D01*
X0Y412D02*
X9Y412D01*
X648Y412D02*
X654Y412D01*
X695Y412D02*
X701Y412D01*
X752Y412D02*
X796Y412D01*
X1251Y412D02*
X1258Y412D01*
X0Y411D02*
X9Y411D01*
X648Y411D02*
X654Y411D01*
X695Y411D02*
X701Y411D01*
X750Y411D02*
X798Y411D01*
X1251Y411D02*
X1258Y411D01*
X0Y410D02*
X9Y410D01*
X648Y410D02*
X654Y410D01*
X695Y410D02*
X701Y410D01*
X749Y410D02*
X799Y410D01*
X1251Y410D02*
X1258Y410D01*
X0Y409D02*
X9Y409D01*
X648Y409D02*
X654Y409D01*
X695Y409D02*
X701Y409D01*
X749Y409D02*
X800Y409D01*
X1251Y409D02*
X1258Y409D01*
X0Y408D02*
X9Y408D01*
X648Y408D02*
X654Y408D01*
X695Y408D02*
X701Y408D01*
X748Y408D02*
X800Y408D01*
X1251Y408D02*
X1258Y408D01*
X0Y407D02*
X9Y407D01*
X648Y407D02*
X701Y407D01*
X748Y407D02*
X800Y407D01*
X1251Y407D02*
X1258Y407D01*
X0Y406D02*
X9Y406D01*
X648Y406D02*
X701Y406D01*
X748Y406D02*
X801Y406D01*
X1251Y406D02*
X1258Y406D01*
X0Y405D02*
X9Y405D01*
X648Y405D02*
X700Y405D01*
X747Y405D02*
X754Y405D01*
X795Y405D02*
X801Y405D01*
X1251Y405D02*
X1258Y405D01*
X0Y404D02*
X9Y404D01*
X649Y404D02*
X700Y404D01*
X747Y404D02*
X754Y404D01*
X795Y404D02*
X801Y404D01*
X1251Y404D02*
X1258Y404D01*
X0Y403D02*
X9Y403D01*
X650Y403D02*
X699Y403D01*
X747Y403D02*
X754Y403D01*
X795Y403D02*
X801Y403D01*
X1251Y403D02*
X1258Y403D01*
X0Y402D02*
X9Y402D01*
X651Y402D02*
X698Y402D01*
X747Y402D02*
X754Y402D01*
X795Y402D02*
X801Y402D01*
X1251Y402D02*
X1258Y402D01*
X0Y401D02*
X9Y401D01*
X653Y401D02*
X696Y401D01*
X747Y401D02*
X754Y401D01*
X795Y401D02*
X801Y401D01*
X1251Y401D02*
X1258Y401D01*
X0Y400D02*
X9Y400D01*
X747Y400D02*
X754Y400D01*
X795Y400D02*
X801Y400D01*
X1251Y400D02*
X1258Y400D01*
X0Y399D02*
X9Y399D01*
X747Y399D02*
X754Y399D01*
X795Y399D02*
X801Y399D01*
X1251Y399D02*
X1258Y399D01*
X0Y398D02*
X9Y398D01*
X747Y398D02*
X754Y398D01*
X795Y398D02*
X801Y398D01*
X1251Y398D02*
X1258Y398D01*
X0Y397D02*
X9Y397D01*
X747Y397D02*
X754Y397D01*
X795Y397D02*
X801Y397D01*
X1251Y397D02*
X1258Y397D01*
X0Y396D02*
X9Y396D01*
X747Y396D02*
X754Y396D01*
X795Y396D02*
X801Y396D01*
X1251Y396D02*
X1258Y396D01*
X0Y395D02*
X9Y395D01*
X747Y395D02*
X754Y395D01*
X795Y395D02*
X801Y395D01*
X1251Y395D02*
X1258Y395D01*
X0Y394D02*
X9Y394D01*
X747Y394D02*
X754Y394D01*
X795Y394D02*
X801Y394D01*
X1251Y394D02*
X1258Y394D01*
X0Y393D02*
X9Y393D01*
X747Y393D02*
X754Y393D01*
X795Y393D02*
X801Y393D01*
X1251Y393D02*
X1258Y393D01*
X0Y392D02*
X9Y392D01*
X747Y392D02*
X754Y392D01*
X795Y392D02*
X801Y392D01*
X1251Y392D02*
X1258Y392D01*
X0Y391D02*
X9Y391D01*
X747Y391D02*
X754Y391D01*
X795Y391D02*
X801Y391D01*
X1251Y391D02*
X1258Y391D01*
X0Y390D02*
X9Y390D01*
X747Y390D02*
X754Y390D01*
X795Y390D02*
X801Y390D01*
X1251Y390D02*
X1258Y390D01*
X0Y389D02*
X9Y389D01*
X747Y389D02*
X754Y389D01*
X795Y389D02*
X801Y389D01*
X1251Y389D02*
X1258Y389D01*
X0Y388D02*
X9Y388D01*
X747Y388D02*
X754Y388D01*
X795Y388D02*
X801Y388D01*
X1251Y388D02*
X1258Y388D01*
X0Y387D02*
X9Y387D01*
X747Y387D02*
X754Y387D01*
X795Y387D02*
X801Y387D01*
X1251Y387D02*
X1258Y387D01*
X0Y386D02*
X9Y386D01*
X747Y386D02*
X754Y386D01*
X795Y386D02*
X801Y386D01*
X1251Y386D02*
X1258Y386D01*
X0Y385D02*
X9Y385D01*
X653Y385D02*
X672Y385D01*
X698Y385D02*
X698Y385D01*
X748Y385D02*
X754Y385D01*
X794Y385D02*
X801Y385D01*
X1251Y385D02*
X1258Y385D01*
X0Y384D02*
X9Y384D01*
X651Y384D02*
X674Y384D01*
X696Y384D02*
X700Y384D01*
X748Y384D02*
X801Y384D01*
X1251Y384D02*
X1258Y384D01*
X0Y383D02*
X9Y383D01*
X650Y383D02*
X675Y383D01*
X695Y383D02*
X701Y383D01*
X748Y383D02*
X800Y383D01*
X1251Y383D02*
X1258Y383D01*
X0Y382D02*
X9Y382D01*
X649Y382D02*
X676Y382D01*
X695Y382D02*
X701Y382D01*
X748Y382D02*
X800Y382D01*
X1251Y382D02*
X1258Y382D01*
X0Y381D02*
X9Y381D01*
X648Y381D02*
X677Y381D01*
X695Y381D02*
X701Y381D01*
X749Y381D02*
X799Y381D01*
X1251Y381D02*
X1258Y381D01*
X0Y380D02*
X9Y380D01*
X648Y380D02*
X677Y380D01*
X695Y380D02*
X701Y380D01*
X750Y380D02*
X799Y380D01*
X1251Y380D02*
X1258Y380D01*
X0Y379D02*
X9Y379D01*
X648Y379D02*
X677Y379D01*
X695Y379D02*
X701Y379D01*
X751Y379D02*
X797Y379D01*
X1251Y379D02*
X1258Y379D01*
X0Y378D02*
X9Y378D01*
X648Y378D02*
X654Y378D01*
X671Y378D02*
X677Y378D01*
X695Y378D02*
X701Y378D01*
X753Y378D02*
X795Y378D01*
X1251Y378D02*
X1258Y378D01*
X0Y377D02*
X9Y377D01*
X648Y377D02*
X654Y377D01*
X671Y377D02*
X677Y377D01*
X695Y377D02*
X701Y377D01*
X1251Y377D02*
X1258Y377D01*
X0Y376D02*
X9Y376D01*
X648Y376D02*
X654Y376D01*
X671Y376D02*
X677Y376D01*
X695Y376D02*
X701Y376D01*
X1251Y376D02*
X1258Y376D01*
X0Y375D02*
X9Y375D01*
X648Y375D02*
X654Y375D01*
X671Y375D02*
X677Y375D01*
X695Y375D02*
X701Y375D01*
X1251Y375D02*
X1258Y375D01*
X0Y374D02*
X9Y374D01*
X648Y374D02*
X654Y374D01*
X671Y374D02*
X677Y374D01*
X695Y374D02*
X701Y374D01*
X1251Y374D02*
X1258Y374D01*
X0Y373D02*
X9Y373D01*
X648Y373D02*
X654Y373D01*
X671Y373D02*
X677Y373D01*
X695Y373D02*
X701Y373D01*
X1251Y373D02*
X1258Y373D01*
X0Y372D02*
X9Y372D01*
X648Y372D02*
X654Y372D01*
X671Y372D02*
X677Y372D01*
X695Y372D02*
X701Y372D01*
X1251Y372D02*
X1258Y372D01*
X0Y371D02*
X9Y371D01*
X648Y371D02*
X654Y371D01*
X671Y371D02*
X677Y371D01*
X695Y371D02*
X701Y371D01*
X1251Y371D02*
X1258Y371D01*
X0Y370D02*
X9Y370D01*
X648Y370D02*
X654Y370D01*
X671Y370D02*
X677Y370D01*
X695Y370D02*
X701Y370D01*
X1251Y370D02*
X1258Y370D01*
X0Y369D02*
X9Y369D01*
X648Y369D02*
X654Y369D01*
X671Y369D02*
X677Y369D01*
X695Y369D02*
X701Y369D01*
X1251Y369D02*
X1258Y369D01*
X0Y368D02*
X9Y368D01*
X648Y368D02*
X654Y368D01*
X671Y368D02*
X677Y368D01*
X695Y368D02*
X701Y368D01*
X1251Y368D02*
X1258Y368D01*
X0Y367D02*
X9Y367D01*
X648Y367D02*
X654Y367D01*
X671Y367D02*
X677Y367D01*
X695Y367D02*
X701Y367D01*
X1251Y367D02*
X1258Y367D01*
X0Y366D02*
X9Y366D01*
X648Y366D02*
X654Y366D01*
X671Y366D02*
X677Y366D01*
X695Y366D02*
X701Y366D01*
X1251Y366D02*
X1258Y366D01*
X0Y365D02*
X9Y365D01*
X648Y365D02*
X654Y365D01*
X671Y365D02*
X677Y365D01*
X695Y365D02*
X701Y365D01*
X1251Y365D02*
X1258Y365D01*
X0Y364D02*
X9Y364D01*
X648Y364D02*
X654Y364D01*
X671Y364D02*
X677Y364D01*
X695Y364D02*
X701Y364D01*
X1251Y364D02*
X1258Y364D01*
X0Y363D02*
X9Y363D01*
X648Y363D02*
X654Y363D01*
X671Y363D02*
X677Y363D01*
X695Y363D02*
X701Y363D01*
X1251Y363D02*
X1258Y363D01*
X0Y362D02*
X9Y362D01*
X648Y362D02*
X654Y362D01*
X671Y362D02*
X677Y362D01*
X695Y362D02*
X701Y362D01*
X779Y362D02*
X798Y362D01*
X1251Y362D02*
X1258Y362D01*
X0Y361D02*
X9Y361D01*
X648Y361D02*
X654Y361D01*
X671Y361D02*
X677Y361D01*
X695Y361D02*
X701Y361D01*
X778Y361D02*
X800Y361D01*
X1251Y361D02*
X1258Y361D01*
X0Y360D02*
X9Y360D01*
X648Y360D02*
X654Y360D01*
X671Y360D02*
X677Y360D01*
X695Y360D02*
X701Y360D01*
X777Y360D02*
X800Y360D01*
X1251Y360D02*
X1258Y360D01*
X0Y359D02*
X9Y359D01*
X648Y359D02*
X654Y359D01*
X671Y359D02*
X677Y359D01*
X695Y359D02*
X701Y359D01*
X777Y359D02*
X801Y359D01*
X1251Y359D02*
X1258Y359D01*
X0Y358D02*
X9Y358D01*
X566Y358D02*
X575Y358D01*
X648Y358D02*
X654Y358D01*
X671Y358D02*
X677Y358D01*
X695Y358D02*
X701Y358D01*
X777Y358D02*
X801Y358D01*
X1251Y358D02*
X1258Y358D01*
X0Y357D02*
X9Y357D01*
X566Y357D02*
X575Y357D01*
X648Y357D02*
X654Y357D01*
X671Y357D02*
X701Y357D01*
X777Y357D02*
X801Y357D01*
X1251Y357D02*
X1258Y357D01*
X0Y356D02*
X9Y356D01*
X566Y356D02*
X575Y356D01*
X648Y356D02*
X654Y356D01*
X672Y356D02*
X701Y356D01*
X778Y356D02*
X801Y356D01*
X1251Y356D02*
X1258Y356D01*
X0Y355D02*
X9Y355D01*
X566Y355D02*
X575Y355D01*
X648Y355D02*
X654Y355D01*
X672Y355D02*
X701Y355D01*
X794Y355D02*
X801Y355D01*
X1251Y355D02*
X1258Y355D01*
X0Y354D02*
X9Y354D01*
X566Y354D02*
X575Y354D01*
X648Y354D02*
X654Y354D01*
X672Y354D02*
X701Y354D01*
X795Y354D02*
X801Y354D01*
X1251Y354D02*
X1258Y354D01*
X0Y353D02*
X9Y353D01*
X566Y353D02*
X575Y353D01*
X648Y353D02*
X654Y353D01*
X673Y353D02*
X701Y353D01*
X795Y353D02*
X801Y353D01*
X1251Y353D02*
X1258Y353D01*
X0Y352D02*
X9Y352D01*
X566Y352D02*
X575Y352D01*
X649Y352D02*
X653Y352D01*
X674Y352D02*
X701Y352D01*
X795Y352D02*
X801Y352D01*
X1251Y352D02*
X1258Y352D01*
X0Y351D02*
X9Y351D01*
X566Y351D02*
X575Y351D01*
X650Y351D02*
X652Y351D01*
X676Y351D02*
X701Y351D01*
X795Y351D02*
X801Y351D01*
X1251Y351D02*
X1258Y351D01*
X0Y350D02*
X9Y350D01*
X566Y350D02*
X567Y350D01*
X573Y350D02*
X575Y350D01*
X795Y350D02*
X801Y350D01*
X1251Y350D02*
X1258Y350D01*
X0Y349D02*
X9Y349D01*
X795Y349D02*
X801Y349D01*
X1251Y349D02*
X1258Y349D01*
X0Y348D02*
X9Y348D01*
X748Y348D02*
X801Y348D01*
X1251Y348D02*
X1258Y348D01*
X0Y347D02*
X9Y347D01*
X747Y347D02*
X801Y347D01*
X1251Y347D02*
X1258Y347D01*
X0Y346D02*
X9Y346D01*
X747Y346D02*
X801Y346D01*
X1251Y346D02*
X1258Y346D01*
X0Y345D02*
X9Y345D01*
X747Y345D02*
X801Y345D01*
X1251Y345D02*
X1258Y345D01*
X0Y344D02*
X9Y344D01*
X747Y344D02*
X801Y344D01*
X1251Y344D02*
X1258Y344D01*
X0Y343D02*
X9Y343D01*
X747Y343D02*
X801Y343D01*
X1251Y343D02*
X1258Y343D01*
X0Y342D02*
X9Y342D01*
X747Y342D02*
X801Y342D01*
X1251Y342D02*
X1258Y342D01*
X0Y341D02*
X9Y341D01*
X747Y341D02*
X754Y341D01*
X795Y341D02*
X801Y341D01*
X1251Y341D02*
X1258Y341D01*
X0Y340D02*
X9Y340D01*
X747Y340D02*
X754Y340D01*
X795Y340D02*
X801Y340D01*
X1251Y340D02*
X1258Y340D01*
X0Y339D02*
X9Y339D01*
X747Y339D02*
X754Y339D01*
X795Y339D02*
X801Y339D01*
X1251Y339D02*
X1258Y339D01*
X0Y338D02*
X9Y338D01*
X747Y338D02*
X754Y338D01*
X795Y338D02*
X801Y338D01*
X1251Y338D02*
X1258Y338D01*
X0Y337D02*
X9Y337D01*
X747Y337D02*
X754Y337D01*
X795Y337D02*
X801Y337D01*
X1251Y337D02*
X1258Y337D01*
X0Y336D02*
X9Y336D01*
X747Y336D02*
X754Y336D01*
X795Y336D02*
X801Y336D01*
X1251Y336D02*
X1258Y336D01*
X0Y335D02*
X9Y335D01*
X747Y335D02*
X754Y335D01*
X795Y335D02*
X801Y335D01*
X1251Y335D02*
X1258Y335D01*
X0Y334D02*
X9Y334D01*
X747Y334D02*
X754Y334D01*
X795Y334D02*
X801Y334D01*
X1251Y334D02*
X1258Y334D01*
X0Y333D02*
X9Y333D01*
X747Y333D02*
X754Y333D01*
X795Y333D02*
X801Y333D01*
X1251Y333D02*
X1258Y333D01*
X0Y332D02*
X9Y332D01*
X747Y332D02*
X754Y332D01*
X795Y332D02*
X801Y332D01*
X1251Y332D02*
X1258Y332D01*
X0Y331D02*
X9Y331D01*
X748Y331D02*
X753Y331D01*
X795Y331D02*
X801Y331D01*
X1251Y331D02*
X1258Y331D01*
X0Y330D02*
X9Y330D01*
X748Y330D02*
X753Y330D01*
X795Y330D02*
X800Y330D01*
X1251Y330D02*
X1258Y330D01*
X0Y329D02*
X9Y329D01*
X748Y329D02*
X753Y329D01*
X795Y329D02*
X800Y329D01*
X1251Y329D02*
X1258Y329D01*
X0Y328D02*
X9Y328D01*
X750Y328D02*
X751Y328D01*
X797Y328D02*
X798Y328D01*
X1251Y328D02*
X1258Y328D01*
X0Y327D02*
X9Y327D01*
X1251Y327D02*
X1258Y327D01*
X0Y326D02*
X9Y326D01*
X1251Y326D02*
X1258Y326D01*
X0Y325D02*
X9Y325D01*
X1251Y325D02*
X1258Y325D01*
X0Y324D02*
X9Y324D01*
X1251Y324D02*
X1258Y324D01*
X0Y323D02*
X9Y323D01*
X1251Y323D02*
X1258Y323D01*
X0Y322D02*
X9Y322D01*
X1251Y322D02*
X1258Y322D01*
X0Y321D02*
X9Y321D01*
X1251Y321D02*
X1258Y321D01*
X0Y320D02*
X9Y320D01*
X1251Y320D02*
X1258Y320D01*
X0Y319D02*
X9Y319D01*
X1251Y319D02*
X1258Y319D01*
X0Y318D02*
X9Y318D01*
X1251Y318D02*
X1258Y318D01*
X0Y317D02*
X9Y317D01*
X1251Y317D02*
X1258Y317D01*
X0Y316D02*
X9Y316D01*
X1251Y316D02*
X1258Y316D01*
X0Y315D02*
X9Y315D01*
X1251Y315D02*
X1258Y315D01*
X0Y314D02*
X9Y314D01*
X667Y314D02*
X676Y314D01*
X768Y314D02*
X776Y314D01*
X1251Y314D02*
X1258Y314D01*
X0Y313D02*
X9Y313D01*
X667Y313D02*
X676Y313D01*
X767Y313D02*
X776Y313D01*
X1251Y313D02*
X1258Y313D01*
X0Y312D02*
X9Y312D01*
X667Y312D02*
X676Y312D01*
X767Y312D02*
X776Y312D01*
X1251Y312D02*
X1258Y312D01*
X0Y311D02*
X9Y311D01*
X667Y311D02*
X676Y311D01*
X767Y311D02*
X776Y311D01*
X1251Y311D02*
X1258Y311D01*
X0Y310D02*
X9Y310D01*
X667Y310D02*
X676Y310D01*
X767Y310D02*
X776Y310D01*
X1251Y310D02*
X1258Y310D01*
X0Y309D02*
X9Y309D01*
X667Y309D02*
X676Y309D01*
X767Y309D02*
X776Y309D01*
X1251Y309D02*
X1258Y309D01*
X0Y308D02*
X9Y308D01*
X667Y308D02*
X676Y308D01*
X767Y308D02*
X776Y308D01*
X1251Y308D02*
X1258Y308D01*
X0Y307D02*
X9Y307D01*
X667Y307D02*
X676Y307D01*
X767Y307D02*
X776Y307D01*
X1251Y307D02*
X1258Y307D01*
X0Y306D02*
X9Y306D01*
X667Y306D02*
X676Y306D01*
X767Y306D02*
X776Y306D01*
X1251Y306D02*
X1258Y306D01*
X0Y305D02*
X9Y305D01*
X667Y305D02*
X676Y305D01*
X767Y305D02*
X776Y305D01*
X1251Y305D02*
X1258Y305D01*
X0Y304D02*
X9Y304D01*
X667Y304D02*
X676Y304D01*
X767Y304D02*
X776Y304D01*
X1251Y304D02*
X1258Y304D01*
X0Y303D02*
X9Y303D01*
X667Y303D02*
X676Y303D01*
X767Y303D02*
X776Y303D01*
X1251Y303D02*
X1258Y303D01*
X0Y302D02*
X9Y302D01*
X667Y302D02*
X676Y302D01*
X767Y302D02*
X776Y302D01*
X1251Y302D02*
X1258Y302D01*
X0Y301D02*
X9Y301D01*
X667Y301D02*
X676Y301D01*
X767Y301D02*
X776Y301D01*
X1251Y301D02*
X1258Y301D01*
X0Y300D02*
X9Y300D01*
X667Y300D02*
X676Y300D01*
X767Y300D02*
X776Y300D01*
X1251Y300D02*
X1258Y300D01*
X0Y299D02*
X9Y299D01*
X667Y299D02*
X676Y299D01*
X767Y299D02*
X776Y299D01*
X1251Y299D02*
X1258Y299D01*
X0Y298D02*
X9Y298D01*
X667Y298D02*
X676Y298D01*
X767Y298D02*
X776Y298D01*
X1251Y298D02*
X1258Y298D01*
X0Y297D02*
X9Y297D01*
X667Y297D02*
X676Y297D01*
X767Y297D02*
X776Y297D01*
X1251Y297D02*
X1258Y297D01*
X0Y296D02*
X9Y296D01*
X667Y296D02*
X676Y296D01*
X767Y296D02*
X776Y296D01*
X1251Y296D02*
X1258Y296D01*
X0Y295D02*
X9Y295D01*
X667Y295D02*
X676Y295D01*
X767Y295D02*
X776Y295D01*
X1251Y295D02*
X1258Y295D01*
X0Y294D02*
X9Y294D01*
X667Y294D02*
X676Y294D01*
X767Y294D02*
X776Y294D01*
X1251Y294D02*
X1258Y294D01*
X0Y293D02*
X9Y293D01*
X667Y293D02*
X676Y293D01*
X767Y293D02*
X776Y293D01*
X1251Y293D02*
X1258Y293D01*
X0Y292D02*
X9Y292D01*
X667Y292D02*
X676Y292D01*
X767Y292D02*
X776Y292D01*
X1251Y292D02*
X1258Y292D01*
X0Y291D02*
X9Y291D01*
X667Y291D02*
X676Y291D01*
X767Y291D02*
X776Y291D01*
X1251Y291D02*
X1258Y291D01*
X0Y290D02*
X9Y290D01*
X667Y290D02*
X676Y290D01*
X767Y290D02*
X776Y290D01*
X1251Y290D02*
X1258Y290D01*
X0Y289D02*
X9Y289D01*
X667Y289D02*
X676Y289D01*
X767Y289D02*
X776Y289D01*
X1251Y289D02*
X1258Y289D01*
X0Y288D02*
X9Y288D01*
X667Y288D02*
X676Y288D01*
X767Y288D02*
X776Y288D01*
X1251Y288D02*
X1258Y288D01*
X0Y287D02*
X9Y287D01*
X667Y287D02*
X676Y287D01*
X767Y287D02*
X776Y287D01*
X1251Y287D02*
X1258Y287D01*
X0Y286D02*
X9Y286D01*
X667Y286D02*
X676Y286D01*
X767Y286D02*
X776Y286D01*
X1251Y286D02*
X1258Y286D01*
X0Y285D02*
X9Y285D01*
X667Y285D02*
X676Y285D01*
X767Y285D02*
X776Y285D01*
X1251Y285D02*
X1258Y285D01*
X0Y284D02*
X9Y284D01*
X667Y284D02*
X676Y284D01*
X767Y284D02*
X776Y284D01*
X1251Y284D02*
X1258Y284D01*
X0Y283D02*
X9Y283D01*
X667Y283D02*
X676Y283D01*
X767Y283D02*
X776Y283D01*
X1251Y283D02*
X1258Y283D01*
X0Y282D02*
X34Y282D01*
X667Y282D02*
X676Y282D01*
X767Y282D02*
X776Y282D01*
X1251Y282D02*
X1258Y282D01*
X0Y281D02*
X34Y281D01*
X667Y281D02*
X676Y281D01*
X767Y281D02*
X776Y281D01*
X1251Y281D02*
X1258Y281D01*
X0Y280D02*
X34Y280D01*
X667Y280D02*
X676Y280D01*
X767Y280D02*
X776Y280D01*
X1251Y280D02*
X1258Y280D01*
X0Y279D02*
X34Y279D01*
X667Y279D02*
X676Y279D01*
X767Y279D02*
X776Y279D01*
X1251Y279D02*
X1258Y279D01*
X0Y278D02*
X34Y278D01*
X667Y278D02*
X676Y278D01*
X767Y278D02*
X776Y278D01*
X1251Y278D02*
X1258Y278D01*
X0Y277D02*
X34Y277D01*
X667Y277D02*
X676Y277D01*
X767Y277D02*
X776Y277D01*
X1251Y277D02*
X1258Y277D01*
X0Y276D02*
X34Y276D01*
X667Y276D02*
X676Y276D01*
X767Y276D02*
X776Y276D01*
X1251Y276D02*
X1258Y276D01*
X0Y275D02*
X34Y275D01*
X667Y275D02*
X676Y275D01*
X767Y275D02*
X776Y275D01*
X1251Y275D02*
X1258Y275D01*
X0Y274D02*
X34Y274D01*
X667Y274D02*
X676Y274D01*
X767Y274D02*
X776Y274D01*
X1251Y274D02*
X1258Y274D01*
X0Y273D02*
X33Y273D01*
X667Y273D02*
X676Y273D01*
X767Y273D02*
X776Y273D01*
X1251Y273D02*
X1258Y273D01*
X0Y272D02*
X9Y272D01*
X667Y272D02*
X676Y272D01*
X767Y272D02*
X776Y272D01*
X1251Y272D02*
X1258Y272D01*
X0Y271D02*
X9Y271D01*
X667Y271D02*
X676Y271D01*
X767Y271D02*
X776Y271D01*
X1251Y271D02*
X1258Y271D01*
X0Y270D02*
X9Y270D01*
X667Y270D02*
X676Y270D01*
X767Y270D02*
X776Y270D01*
X1251Y270D02*
X1258Y270D01*
X0Y269D02*
X9Y269D01*
X667Y269D02*
X676Y269D01*
X767Y269D02*
X776Y269D01*
X1251Y269D02*
X1258Y269D01*
X0Y268D02*
X9Y268D01*
X667Y268D02*
X676Y268D01*
X767Y268D02*
X776Y268D01*
X1251Y268D02*
X1258Y268D01*
X0Y267D02*
X9Y267D01*
X667Y267D02*
X676Y267D01*
X767Y267D02*
X776Y267D01*
X1251Y267D02*
X1258Y267D01*
X0Y266D02*
X9Y266D01*
X667Y266D02*
X676Y266D01*
X767Y266D02*
X776Y266D01*
X1251Y266D02*
X1258Y266D01*
X0Y265D02*
X9Y265D01*
X667Y265D02*
X676Y265D01*
X767Y265D02*
X776Y265D01*
X1251Y265D02*
X1258Y265D01*
X0Y264D02*
X9Y264D01*
X667Y264D02*
X676Y264D01*
X767Y264D02*
X776Y264D01*
X1251Y264D02*
X1258Y264D01*
X0Y263D02*
X9Y263D01*
X667Y263D02*
X676Y263D01*
X767Y263D02*
X776Y263D01*
X1251Y263D02*
X1258Y263D01*
X0Y262D02*
X9Y262D01*
X667Y262D02*
X676Y262D01*
X767Y262D02*
X776Y262D01*
X1251Y262D02*
X1258Y262D01*
X0Y261D02*
X9Y261D01*
X667Y261D02*
X676Y261D01*
X767Y261D02*
X776Y261D01*
X1251Y261D02*
X1258Y261D01*
X0Y260D02*
X9Y260D01*
X667Y260D02*
X676Y260D01*
X767Y260D02*
X776Y260D01*
X1251Y260D02*
X1258Y260D01*
X0Y259D02*
X9Y259D01*
X667Y259D02*
X676Y259D01*
X767Y259D02*
X776Y259D01*
X1251Y259D02*
X1258Y259D01*
X0Y258D02*
X9Y258D01*
X667Y258D02*
X676Y258D01*
X767Y258D02*
X776Y258D01*
X1251Y258D02*
X1258Y258D01*
X0Y257D02*
X9Y257D01*
X667Y257D02*
X676Y257D01*
X767Y257D02*
X776Y257D01*
X1251Y257D02*
X1258Y257D01*
X0Y256D02*
X9Y256D01*
X667Y256D02*
X676Y256D01*
X767Y256D02*
X776Y256D01*
X1251Y256D02*
X1258Y256D01*
X0Y255D02*
X9Y255D01*
X667Y255D02*
X676Y255D01*
X767Y255D02*
X776Y255D01*
X1251Y255D02*
X1258Y255D01*
X0Y254D02*
X9Y254D01*
X667Y254D02*
X676Y254D01*
X767Y254D02*
X776Y254D01*
X1251Y254D02*
X1258Y254D01*
X0Y253D02*
X9Y253D01*
X667Y253D02*
X676Y253D01*
X767Y253D02*
X776Y253D01*
X1251Y253D02*
X1258Y253D01*
X0Y252D02*
X9Y252D01*
X667Y252D02*
X676Y252D01*
X767Y252D02*
X776Y252D01*
X1251Y252D02*
X1258Y252D01*
X0Y251D02*
X9Y251D01*
X667Y251D02*
X676Y251D01*
X767Y251D02*
X776Y251D01*
X1251Y251D02*
X1258Y251D01*
X0Y250D02*
X9Y250D01*
X667Y250D02*
X676Y250D01*
X767Y250D02*
X776Y250D01*
X1251Y250D02*
X1258Y250D01*
X0Y249D02*
X9Y249D01*
X667Y249D02*
X676Y249D01*
X767Y249D02*
X776Y249D01*
X1251Y249D02*
X1258Y249D01*
X0Y248D02*
X9Y248D01*
X667Y248D02*
X676Y248D01*
X767Y248D02*
X776Y248D01*
X1251Y248D02*
X1258Y248D01*
X0Y247D02*
X9Y247D01*
X767Y247D02*
X769Y247D01*
X774Y247D02*
X776Y247D01*
X1251Y247D02*
X1258Y247D01*
X0Y246D02*
X9Y246D01*
X1251Y246D02*
X1258Y246D01*
X0Y245D02*
X9Y245D01*
X1251Y245D02*
X1258Y245D01*
X0Y244D02*
X9Y244D01*
X1251Y244D02*
X1258Y244D01*
X0Y243D02*
X9Y243D01*
X1251Y243D02*
X1258Y243D01*
X0Y242D02*
X9Y242D01*
X1251Y242D02*
X1258Y242D01*
X0Y241D02*
X9Y241D01*
X1251Y241D02*
X1258Y241D01*
X0Y240D02*
X9Y240D01*
X1251Y240D02*
X1258Y240D01*
X0Y239D02*
X9Y239D01*
X1251Y239D02*
X1258Y239D01*
X0Y238D02*
X9Y238D01*
X1251Y238D02*
X1258Y238D01*
X0Y237D02*
X9Y237D01*
X1251Y237D02*
X1258Y237D01*
X0Y236D02*
X9Y236D01*
X1251Y236D02*
X1258Y236D01*
X0Y235D02*
X9Y235D01*
X1251Y235D02*
X1258Y235D01*
X0Y234D02*
X9Y234D01*
X1251Y234D02*
X1258Y234D01*
X0Y233D02*
X9Y233D01*
X1251Y233D02*
X1258Y233D01*
X0Y232D02*
X9Y232D01*
X1251Y232D02*
X1258Y232D01*
X0Y231D02*
X9Y231D01*
X1251Y231D02*
X1258Y231D01*
X0Y230D02*
X9Y230D01*
X1251Y230D02*
X1258Y230D01*
X0Y229D02*
X9Y229D01*
X1251Y229D02*
X1258Y229D01*
X0Y228D02*
X9Y228D01*
X1251Y228D02*
X1258Y228D01*
X0Y227D02*
X9Y227D01*
X1251Y227D02*
X1258Y227D01*
X0Y226D02*
X9Y226D01*
X1251Y226D02*
X1258Y226D01*
X0Y225D02*
X9Y225D01*
X1251Y225D02*
X1258Y225D01*
X0Y224D02*
X9Y224D01*
X1251Y224D02*
X1258Y224D01*
X0Y223D02*
X9Y223D01*
X1251Y223D02*
X1258Y223D01*
X0Y222D02*
X9Y222D01*
X1251Y222D02*
X1258Y222D01*
X0Y221D02*
X9Y221D01*
X1251Y221D02*
X1258Y221D01*
X0Y220D02*
X9Y220D01*
X1251Y220D02*
X1258Y220D01*
X0Y219D02*
X9Y219D01*
X1251Y219D02*
X1258Y219D01*
X0Y218D02*
X9Y218D01*
X1251Y218D02*
X1258Y218D01*
X0Y217D02*
X9Y217D01*
X1251Y217D02*
X1258Y217D01*
X0Y216D02*
X9Y216D01*
X1251Y216D02*
X1258Y216D01*
X0Y215D02*
X9Y215D01*
X1251Y215D02*
X1258Y215D01*
X0Y214D02*
X9Y214D01*
X1251Y214D02*
X1258Y214D01*
X0Y213D02*
X9Y213D01*
X1251Y213D02*
X1258Y213D01*
X0Y212D02*
X9Y212D01*
X1251Y212D02*
X1258Y212D01*
X0Y211D02*
X9Y211D01*
X1251Y211D02*
X1258Y211D01*
X0Y210D02*
X9Y210D01*
X1251Y210D02*
X1258Y210D01*
X0Y209D02*
X9Y209D01*
X1251Y209D02*
X1258Y209D01*
X0Y208D02*
X9Y208D01*
X1251Y208D02*
X1258Y208D01*
X0Y207D02*
X9Y207D01*
X1251Y207D02*
X1258Y207D01*
X0Y206D02*
X9Y206D01*
X1251Y206D02*
X1258Y206D01*
X0Y205D02*
X9Y205D01*
X1251Y205D02*
X1258Y205D01*
X0Y204D02*
X9Y204D01*
X1251Y204D02*
X1258Y204D01*
X0Y203D02*
X9Y203D01*
X1251Y203D02*
X1258Y203D01*
X0Y202D02*
X9Y202D01*
X1251Y202D02*
X1258Y202D01*
X0Y201D02*
X9Y201D01*
X1251Y201D02*
X1258Y201D01*
X0Y200D02*
X9Y200D01*
X1251Y200D02*
X1258Y200D01*
X0Y199D02*
X9Y199D01*
X1251Y199D02*
X1258Y199D01*
X0Y198D02*
X9Y198D01*
X1251Y198D02*
X1258Y198D01*
X0Y197D02*
X9Y197D01*
X1251Y197D02*
X1258Y197D01*
X0Y196D02*
X9Y196D01*
X1251Y196D02*
X1258Y196D01*
X0Y195D02*
X9Y195D01*
X1251Y195D02*
X1258Y195D01*
X0Y194D02*
X9Y194D01*
X1251Y194D02*
X1258Y194D01*
X0Y193D02*
X9Y193D01*
X1251Y193D02*
X1258Y193D01*
X0Y192D02*
X9Y192D01*
X1251Y192D02*
X1258Y192D01*
X0Y191D02*
X9Y191D01*
X1251Y191D02*
X1258Y191D01*
X0Y190D02*
X9Y190D01*
X1251Y190D02*
X1258Y190D01*
X0Y189D02*
X9Y189D01*
X1251Y189D02*
X1258Y189D01*
X0Y188D02*
X9Y188D01*
X1251Y188D02*
X1258Y188D01*
X0Y187D02*
X9Y187D01*
X1251Y187D02*
X1258Y187D01*
X0Y186D02*
X9Y186D01*
X1251Y186D02*
X1258Y186D01*
X0Y185D02*
X9Y185D01*
X1251Y185D02*
X1258Y185D01*
X0Y184D02*
X9Y184D01*
X1251Y184D02*
X1258Y184D01*
X0Y183D02*
X9Y183D01*
X1251Y183D02*
X1258Y183D01*
X0Y182D02*
X9Y182D01*
X1251Y182D02*
X1258Y182D01*
X0Y181D02*
X9Y181D01*
X1251Y181D02*
X1258Y181D01*
X0Y180D02*
X9Y180D01*
X1251Y180D02*
X1258Y180D01*
X0Y179D02*
X9Y179D01*
X1251Y179D02*
X1258Y179D01*
X0Y178D02*
X9Y178D01*
X1251Y178D02*
X1258Y178D01*
X0Y177D02*
X9Y177D01*
X1251Y177D02*
X1258Y177D01*
X0Y176D02*
X9Y176D01*
X1251Y176D02*
X1258Y176D01*
X0Y175D02*
X9Y175D01*
X1251Y175D02*
X1258Y175D01*
X0Y174D02*
X9Y174D01*
X543Y174D02*
X543Y174D01*
X597Y174D02*
X597Y174D01*
X1251Y174D02*
X1258Y174D01*
X0Y173D02*
X9Y173D01*
X542Y173D02*
X544Y173D01*
X595Y173D02*
X597Y173D01*
X1251Y173D02*
X1258Y173D01*
X0Y172D02*
X9Y172D01*
X542Y172D02*
X546Y172D01*
X594Y172D02*
X598Y172D01*
X1251Y172D02*
X1258Y172D01*
X0Y171D02*
X9Y171D01*
X541Y171D02*
X547Y171D01*
X593Y171D02*
X599Y171D01*
X1251Y171D02*
X1258Y171D01*
X0Y170D02*
X9Y170D01*
X541Y170D02*
X549Y170D01*
X591Y170D02*
X599Y170D01*
X1251Y170D02*
X1258Y170D01*
X0Y169D02*
X9Y169D01*
X540Y169D02*
X548Y169D01*
X591Y169D02*
X600Y169D01*
X1251Y169D02*
X1258Y169D01*
X0Y168D02*
X9Y168D01*
X540Y168D02*
X548Y168D01*
X592Y168D02*
X600Y168D01*
X1251Y168D02*
X1258Y168D01*
X0Y167D02*
X9Y167D01*
X539Y167D02*
X547Y167D01*
X593Y167D02*
X601Y167D01*
X0Y166D02*
X9Y166D01*
X539Y166D02*
X546Y166D01*
X593Y166D02*
X601Y166D01*
X0Y165D02*
X9Y165D01*
X538Y165D02*
X546Y165D01*
X594Y165D02*
X601Y165D01*
X0Y164D02*
X9Y164D01*
X538Y164D02*
X545Y164D01*
X594Y164D02*
X602Y164D01*
X0Y163D02*
X9Y163D01*
X538Y163D02*
X545Y163D01*
X595Y163D02*
X602Y163D01*
X0Y162D02*
X34Y162D01*
X538Y162D02*
X545Y162D01*
X595Y162D02*
X602Y162D01*
X0Y161D02*
X34Y161D01*
X537Y161D02*
X544Y161D01*
X596Y161D02*
X602Y161D01*
X0Y160D02*
X34Y160D01*
X537Y160D02*
X544Y160D01*
X596Y160D02*
X603Y160D01*
X1251Y160D02*
X1258Y160D01*
X0Y159D02*
X34Y159D01*
X537Y159D02*
X544Y159D01*
X596Y159D02*
X603Y159D01*
X1251Y159D02*
X1258Y159D01*
X0Y158D02*
X34Y158D01*
X537Y158D02*
X544Y158D01*
X596Y158D02*
X603Y158D01*
X1251Y158D02*
X1258Y158D01*
X0Y157D02*
X34Y157D01*
X537Y157D02*
X543Y157D01*
X596Y157D02*
X603Y157D01*
X1251Y157D02*
X1258Y157D01*
X0Y156D02*
X34Y156D01*
X537Y156D02*
X543Y156D01*
X596Y156D02*
X603Y156D01*
X1251Y156D02*
X1258Y156D01*
X0Y155D02*
X34Y155D01*
X537Y155D02*
X543Y155D01*
X597Y155D02*
X603Y155D01*
X1251Y155D02*
X1258Y155D01*
X0Y154D02*
X34Y154D01*
X537Y154D02*
X543Y154D01*
X597Y154D02*
X603Y154D01*
X1251Y154D02*
X1258Y154D01*
X0Y153D02*
X33Y153D01*
X537Y153D02*
X543Y153D01*
X597Y153D02*
X603Y153D01*
X1251Y153D02*
X1258Y153D01*
X0Y152D02*
X9Y152D01*
X537Y152D02*
X543Y152D01*
X596Y152D02*
X603Y152D01*
X1251Y152D02*
X1258Y152D01*
X0Y151D02*
X9Y151D01*
X537Y151D02*
X543Y151D01*
X596Y151D02*
X603Y151D01*
X1251Y151D02*
X1258Y151D01*
X0Y150D02*
X9Y150D01*
X537Y150D02*
X544Y150D01*
X596Y150D02*
X603Y150D01*
X1251Y150D02*
X1258Y150D01*
X0Y149D02*
X9Y149D01*
X537Y149D02*
X544Y149D01*
X596Y149D02*
X603Y149D01*
X1251Y149D02*
X1258Y149D01*
X0Y148D02*
X9Y148D01*
X537Y148D02*
X544Y148D01*
X596Y148D02*
X603Y148D01*
X1251Y148D02*
X1258Y148D01*
X0Y147D02*
X9Y147D01*
X537Y147D02*
X544Y147D01*
X595Y147D02*
X602Y147D01*
X1251Y147D02*
X1258Y147D01*
X0Y146D02*
X9Y146D01*
X538Y146D02*
X545Y146D01*
X595Y146D02*
X602Y146D01*
X1251Y146D02*
X1258Y146D01*
X0Y145D02*
X9Y145D01*
X538Y145D02*
X545Y145D01*
X595Y145D02*
X602Y145D01*
X1251Y145D02*
X1258Y145D01*
X0Y144D02*
X9Y144D01*
X538Y144D02*
X546Y144D01*
X594Y144D02*
X602Y144D01*
X1251Y144D02*
X1258Y144D01*
X0Y143D02*
X9Y143D01*
X538Y143D02*
X546Y143D01*
X594Y143D02*
X601Y143D01*
X1251Y143D02*
X1258Y143D01*
X0Y142D02*
X9Y142D01*
X539Y142D02*
X547Y142D01*
X593Y142D02*
X601Y142D01*
X1251Y142D02*
X1258Y142D01*
X0Y141D02*
X9Y141D01*
X539Y141D02*
X547Y141D01*
X593Y141D02*
X601Y141D01*
X1251Y141D02*
X1258Y141D01*
X0Y140D02*
X9Y140D01*
X540Y140D02*
X548Y140D01*
X592Y140D02*
X600Y140D01*
X1251Y140D02*
X1258Y140D01*
X0Y139D02*
X9Y139D01*
X540Y139D02*
X548Y139D01*
X591Y139D02*
X600Y139D01*
X1251Y139D02*
X1258Y139D01*
X0Y138D02*
X9Y138D01*
X541Y138D02*
X549Y138D01*
X591Y138D02*
X599Y138D01*
X1251Y138D02*
X1258Y138D01*
X0Y137D02*
X9Y137D01*
X541Y137D02*
X547Y137D01*
X593Y137D02*
X598Y137D01*
X716Y137D02*
X724Y137D01*
X1251Y137D02*
X1258Y137D01*
X0Y136D02*
X9Y136D01*
X542Y136D02*
X546Y136D01*
X594Y136D02*
X598Y136D01*
X711Y136D02*
X729Y136D01*
X1251Y136D02*
X1258Y136D01*
X0Y135D02*
X9Y135D01*
X543Y135D02*
X544Y135D01*
X596Y135D02*
X597Y135D01*
X708Y135D02*
X732Y135D01*
X1251Y135D02*
X1258Y135D01*
X0Y134D02*
X9Y134D01*
X543Y134D02*
X543Y134D01*
X706Y134D02*
X734Y134D01*
X1251Y134D02*
X1258Y134D01*
X0Y133D02*
X9Y133D01*
X704Y133D02*
X736Y133D01*
X1251Y133D02*
X1258Y133D01*
X0Y132D02*
X9Y132D01*
X703Y132D02*
X738Y132D01*
X1251Y132D02*
X1258Y132D01*
X0Y131D02*
X9Y131D01*
X701Y131D02*
X739Y131D01*
X1251Y131D02*
X1258Y131D01*
X0Y130D02*
X9Y130D01*
X701Y130D02*
X740Y130D01*
X1251Y130D02*
X1258Y130D01*
X0Y129D02*
X9Y129D01*
X701Y129D02*
X714Y129D01*
X726Y129D02*
X739Y129D01*
X1251Y129D02*
X1258Y129D01*
X0Y128D02*
X9Y128D01*
X702Y128D02*
X711Y128D01*
X730Y128D02*
X738Y128D01*
X1251Y128D02*
X1258Y128D01*
X0Y127D02*
X9Y127D01*
X703Y127D02*
X709Y127D01*
X732Y127D02*
X738Y127D01*
X1251Y127D02*
X1258Y127D01*
X0Y126D02*
X9Y126D01*
X704Y126D02*
X707Y126D01*
X733Y126D02*
X737Y126D01*
X1251Y126D02*
X1258Y126D01*
X0Y125D02*
X9Y125D01*
X704Y125D02*
X705Y125D01*
X735Y125D02*
X736Y125D01*
X1251Y125D02*
X1258Y125D01*
X0Y124D02*
X9Y124D01*
X1251Y124D02*
X1258Y124D01*
X0Y123D02*
X9Y123D01*
X1251Y123D02*
X1258Y123D01*
X0Y122D02*
X9Y122D01*
X1251Y122D02*
X1258Y122D01*
X0Y121D02*
X9Y121D01*
X1251Y121D02*
X1258Y121D01*
X0Y120D02*
X9Y120D01*
X1251Y120D02*
X1258Y120D01*
X0Y119D02*
X9Y119D01*
X1251Y119D02*
X1258Y119D01*
X0Y118D02*
X9Y118D01*
X1251Y118D02*
X1258Y118D01*
X0Y117D02*
X9Y117D01*
X1251Y117D02*
X1258Y117D01*
X0Y116D02*
X9Y116D01*
X1251Y116D02*
X1258Y116D01*
X0Y115D02*
X9Y115D01*
X1251Y115D02*
X1258Y115D01*
X0Y114D02*
X9Y114D01*
X1251Y114D02*
X1258Y114D01*
X0Y113D02*
X9Y113D01*
X1251Y113D02*
X1258Y113D01*
X0Y112D02*
X9Y112D01*
X1251Y112D02*
X1258Y112D01*
X0Y111D02*
X9Y111D01*
X1251Y111D02*
X1258Y111D01*
X0Y110D02*
X9Y110D01*
X1251Y110D02*
X1258Y110D01*
X0Y109D02*
X9Y109D01*
X1251Y109D02*
X1258Y109D01*
X0Y108D02*
X9Y108D01*
X1251Y108D02*
X1258Y108D01*
X0Y107D02*
X9Y107D01*
X1251Y107D02*
X1258Y107D01*
X0Y106D02*
X9Y106D01*
X1251Y106D02*
X1258Y106D01*
X0Y105D02*
X9Y105D01*
X1251Y105D02*
X1258Y105D01*
X0Y104D02*
X9Y104D01*
X1251Y104D02*
X1258Y104D01*
X0Y103D02*
X9Y103D01*
X1251Y103D02*
X1258Y103D01*
X0Y102D02*
X34Y102D01*
X1251Y102D02*
X1258Y102D01*
X0Y101D02*
X34Y101D01*
X1251Y101D02*
X1258Y101D01*
X0Y100D02*
X34Y100D01*
X1251Y100D02*
X1258Y100D01*
X0Y99D02*
X34Y99D01*
X1251Y99D02*
X1258Y99D01*
X0Y98D02*
X34Y98D01*
X1251Y98D02*
X1258Y98D01*
X0Y97D02*
X34Y97D01*
X1251Y97D02*
X1258Y97D01*
X0Y96D02*
X34Y96D01*
X1251Y96D02*
X1258Y96D01*
X0Y95D02*
X34Y95D01*
X1251Y95D02*
X1258Y95D01*
X0Y94D02*
X34Y94D01*
X1251Y94D02*
X1258Y94D01*
X0Y93D02*
X33Y93D01*
X1251Y93D02*
X1258Y93D01*
X0Y92D02*
X7Y92D01*
X1251Y92D02*
X1258Y92D01*
X0Y91D02*
X7Y91D01*
X1251Y91D02*
X1258Y91D01*
X0Y90D02*
X7Y90D01*
X1251Y90D02*
X1258Y90D01*
X0Y89D02*
X7Y89D01*
X1251Y89D02*
X1258Y89D01*
X0Y88D02*
X7Y88D01*
X1251Y88D02*
X1258Y88D01*
X0Y87D02*
X7Y87D01*
X1251Y87D02*
X1258Y87D01*
X0Y86D02*
X7Y86D01*
X1251Y86D02*
X1258Y86D01*
X0Y85D02*
X7Y85D01*
X1251Y85D02*
X1258Y85D01*
X0Y84D02*
X7Y84D01*
X1251Y84D02*
X1258Y84D01*
X0Y83D02*
X7Y83D01*
X1251Y83D02*
X1258Y83D01*
X0Y82D02*
X7Y82D01*
X704Y82D02*
X706Y82D01*
X735Y82D02*
X736Y82D01*
X1051Y82D02*
X1078Y82D01*
X1101Y82D02*
X1133Y82D01*
X1166Y82D02*
X1170Y82D01*
X1203Y82D02*
X1221Y82D01*
X1251Y82D02*
X1258Y82D01*
X0Y81D02*
X7Y81D01*
X704Y81D02*
X707Y81D01*
X733Y81D02*
X737Y81D01*
X1051Y81D02*
X1080Y81D01*
X1101Y81D02*
X1134Y81D01*
X1165Y81D02*
X1171Y81D01*
X1202Y81D02*
X1223Y81D01*
X1251Y81D02*
X1258Y81D01*
X0Y80D02*
X7Y80D01*
X703Y80D02*
X709Y80D01*
X732Y80D02*
X738Y80D01*
X1051Y80D02*
X1081Y80D01*
X1101Y80D02*
X1134Y80D01*
X1165Y80D02*
X1171Y80D01*
X1201Y80D02*
X1224Y80D01*
X1251Y80D02*
X1258Y80D01*
X0Y79D02*
X7Y79D01*
X702Y79D02*
X711Y79D01*
X729Y79D02*
X738Y79D01*
X1051Y79D02*
X1082Y79D01*
X1101Y79D02*
X1134Y79D01*
X1165Y79D02*
X1171Y79D01*
X1201Y79D02*
X1225Y79D01*
X1251Y79D02*
X1258Y79D01*
X0Y78D02*
X7Y78D01*
X701Y78D02*
X714Y78D01*
X726Y78D02*
X739Y78D01*
X1051Y78D02*
X1083Y78D01*
X1101Y78D02*
X1134Y78D01*
X1164Y78D02*
X1172Y78D01*
X1202Y78D02*
X1226Y78D01*
X1251Y78D02*
X1258Y78D01*
X0Y77D02*
X7Y77D01*
X701Y77D02*
X740Y77D01*
X1051Y77D02*
X1083Y77D01*
X1101Y77D02*
X1133Y77D01*
X1164Y77D02*
X1172Y77D01*
X1202Y77D02*
X1226Y77D01*
X1251Y77D02*
X1258Y77D01*
X0Y76D02*
X7Y76D01*
X701Y76D02*
X739Y76D01*
X1051Y76D02*
X1084Y76D01*
X1101Y76D02*
X1131Y76D01*
X1164Y76D02*
X1172Y76D01*
X1205Y76D02*
X1227Y76D01*
X1251Y76D02*
X1258Y76D01*
X0Y75D02*
X7Y75D01*
X703Y75D02*
X738Y75D01*
X1051Y75D02*
X1057Y75D01*
X1077Y75D02*
X1084Y75D01*
X1101Y75D02*
X1107Y75D01*
X1163Y75D02*
X1172Y75D01*
X1208Y75D02*
X1214Y75D01*
X1220Y75D02*
X1227Y75D01*
X1251Y75D02*
X1258Y75D01*
X0Y74D02*
X7Y74D01*
X704Y74D02*
X736Y74D01*
X1051Y74D02*
X1057Y74D01*
X1078Y74D02*
X1084Y74D01*
X1101Y74D02*
X1107Y74D01*
X1163Y74D02*
X1173Y74D01*
X1208Y74D02*
X1214Y74D01*
X1221Y74D02*
X1228Y74D01*
X1251Y74D02*
X1258Y74D01*
X0Y73D02*
X7Y73D01*
X706Y73D02*
X734Y73D01*
X1051Y73D02*
X1057Y73D01*
X1078Y73D02*
X1084Y73D01*
X1101Y73D02*
X1107Y73D01*
X1163Y73D02*
X1173Y73D01*
X1208Y73D02*
X1214Y73D01*
X1221Y73D02*
X1228Y73D01*
X1251Y73D02*
X1258Y73D01*
X0Y72D02*
X7Y72D01*
X709Y72D02*
X732Y72D01*
X1051Y72D02*
X1057Y72D01*
X1078Y72D02*
X1084Y72D01*
X1101Y72D02*
X1107Y72D01*
X1163Y72D02*
X1173Y72D01*
X1208Y72D02*
X1214Y72D01*
X1222Y72D02*
X1229Y72D01*
X1251Y72D02*
X1258Y72D01*
X0Y71D02*
X7Y71D01*
X712Y71D02*
X729Y71D01*
X1051Y71D02*
X1057Y71D01*
X1078Y71D02*
X1084Y71D01*
X1101Y71D02*
X1107Y71D01*
X1162Y71D02*
X1174Y71D01*
X1208Y71D02*
X1214Y71D01*
X1222Y71D02*
X1229Y71D01*
X1251Y71D02*
X1258Y71D01*
X0Y70D02*
X7Y70D01*
X717Y70D02*
X724Y70D01*
X1051Y70D02*
X1057Y70D01*
X1078Y70D02*
X1084Y70D01*
X1101Y70D02*
X1107Y70D01*
X1162Y70D02*
X1174Y70D01*
X1208Y70D02*
X1214Y70D01*
X1223Y70D02*
X1230Y70D01*
X1251Y70D02*
X1258Y70D01*
X0Y69D02*
X7Y69D01*
X1051Y69D02*
X1057Y69D01*
X1078Y69D02*
X1084Y69D01*
X1101Y69D02*
X1107Y69D01*
X1162Y69D02*
X1174Y69D01*
X1208Y69D02*
X1214Y69D01*
X1223Y69D02*
X1230Y69D01*
X1251Y69D02*
X1258Y69D01*
X0Y68D02*
X7Y68D01*
X1051Y68D02*
X1057Y68D01*
X1078Y68D02*
X1084Y68D01*
X1101Y68D02*
X1107Y68D01*
X1161Y68D02*
X1174Y68D01*
X1208Y68D02*
X1214Y68D01*
X1224Y68D02*
X1231Y68D01*
X1251Y68D02*
X1258Y68D01*
X0Y67D02*
X7Y67D01*
X1051Y67D02*
X1057Y67D01*
X1078Y67D02*
X1084Y67D01*
X1101Y67D02*
X1107Y67D01*
X1161Y67D02*
X1175Y67D01*
X1208Y67D02*
X1214Y67D01*
X1224Y67D02*
X1231Y67D01*
X1251Y67D02*
X1258Y67D01*
X0Y66D02*
X7Y66D01*
X1051Y66D02*
X1057Y66D01*
X1077Y66D02*
X1084Y66D01*
X1101Y66D02*
X1107Y66D01*
X1161Y66D02*
X1167Y66D01*
X1169Y66D02*
X1175Y66D01*
X1208Y66D02*
X1214Y66D01*
X1225Y66D02*
X1232Y66D01*
X1251Y66D02*
X1258Y66D01*
X0Y65D02*
X7Y65D01*
X1051Y65D02*
X1084Y65D01*
X1101Y65D02*
X1107Y65D01*
X1161Y65D02*
X1167Y65D01*
X1169Y65D02*
X1175Y65D01*
X1208Y65D02*
X1214Y65D01*
X1225Y65D02*
X1232Y65D01*
X1251Y65D02*
X1258Y65D01*
X0Y64D02*
X7Y64D01*
X1051Y64D02*
X1083Y64D01*
X1101Y64D02*
X1107Y64D01*
X1160Y64D02*
X1167Y64D01*
X1169Y64D02*
X1176Y64D01*
X1208Y64D02*
X1214Y64D01*
X1226Y64D02*
X1233Y64D01*
X1251Y64D02*
X1258Y64D01*
X0Y63D02*
X7Y63D01*
X1051Y63D02*
X1083Y63D01*
X1101Y63D02*
X1107Y63D01*
X1160Y63D02*
X1166Y63D01*
X1170Y63D02*
X1176Y63D01*
X1208Y63D02*
X1214Y63D01*
X1226Y63D02*
X1233Y63D01*
X1251Y63D02*
X1258Y63D01*
X0Y62D02*
X7Y62D01*
X658Y62D02*
X674Y62D01*
X711Y62D02*
X732Y62D01*
X758Y62D02*
X782Y62D01*
X1051Y62D02*
X1082Y62D01*
X1101Y62D02*
X1107Y62D01*
X1160Y62D02*
X1166Y62D01*
X1170Y62D02*
X1176Y62D01*
X1208Y62D02*
X1214Y62D01*
X1227Y62D02*
X1234Y62D01*
X1251Y62D02*
X1258Y62D01*
X0Y61D02*
X7Y61D01*
X454Y61D02*
X473Y61D01*
X507Y61D02*
X533Y61D01*
X554Y61D02*
X583Y61D01*
X656Y61D02*
X674Y61D01*
X708Y61D02*
X735Y61D01*
X756Y61D02*
X785Y61D01*
X1051Y61D02*
X1081Y61D01*
X1101Y61D02*
X1107Y61D01*
X1159Y61D02*
X1166Y61D01*
X1170Y61D02*
X1176Y61D01*
X1208Y61D02*
X1214Y61D01*
X1227Y61D02*
X1234Y61D01*
X1251Y61D02*
X1258Y61D01*
X0Y60D02*
X7Y60D01*
X453Y60D02*
X473Y60D01*
X505Y60D02*
X534Y60D01*
X554Y60D02*
X584Y60D01*
X655Y60D02*
X674Y60D01*
X707Y60D02*
X736Y60D01*
X755Y60D02*
X786Y60D01*
X1051Y60D02*
X1080Y60D01*
X1101Y60D02*
X1107Y60D01*
X1159Y60D02*
X1165Y60D01*
X1170Y60D02*
X1177Y60D01*
X1208Y60D02*
X1214Y60D01*
X1228Y60D02*
X1234Y60D01*
X1251Y60D02*
X1258Y60D01*
X0Y59D02*
X7Y59D01*
X453Y59D02*
X473Y59D01*
X504Y59D02*
X535Y59D01*
X553Y59D02*
X585Y59D01*
X655Y59D02*
X674Y59D01*
X706Y59D02*
X737Y59D01*
X755Y59D02*
X787Y59D01*
X1051Y59D02*
X1078Y59D01*
X1101Y59D02*
X1119Y59D01*
X1159Y59D02*
X1165Y59D01*
X1171Y59D02*
X1177Y59D01*
X1208Y59D02*
X1214Y59D01*
X1228Y59D02*
X1235Y59D01*
X1251Y59D02*
X1258Y59D01*
X0Y58D02*
X7Y58D01*
X453Y58D02*
X473Y58D01*
X504Y58D02*
X536Y58D01*
X553Y58D02*
X586Y58D01*
X655Y58D02*
X674Y58D01*
X706Y58D02*
X738Y58D01*
X755Y58D02*
X788Y58D01*
X1051Y58D02*
X1057Y58D01*
X1063Y58D02*
X1070Y58D01*
X1101Y58D02*
X1120Y58D01*
X1158Y58D02*
X1165Y58D01*
X1171Y58D02*
X1177Y58D01*
X1208Y58D02*
X1214Y58D01*
X1229Y58D02*
X1235Y58D01*
X1251Y58D02*
X1258Y58D01*
X0Y57D02*
X7Y57D01*
X453Y57D02*
X473Y57D01*
X503Y57D02*
X536Y57D01*
X553Y57D02*
X586Y57D01*
X655Y57D02*
X674Y57D01*
X705Y57D02*
X738Y57D01*
X755Y57D02*
X788Y57D01*
X1051Y57D02*
X1057Y57D01*
X1063Y57D02*
X1071Y57D01*
X1101Y57D02*
X1121Y57D01*
X1158Y57D02*
X1165Y57D01*
X1171Y57D02*
X1178Y57D01*
X1208Y57D02*
X1214Y57D01*
X1229Y57D02*
X1235Y57D01*
X1251Y57D02*
X1258Y57D01*
X0Y56D02*
X7Y56D01*
X454Y56D02*
X473Y56D01*
X503Y56D02*
X536Y56D01*
X554Y56D02*
X587Y56D01*
X656Y56D02*
X674Y56D01*
X705Y56D02*
X738Y56D01*
X756Y56D02*
X789Y56D01*
X1051Y56D02*
X1057Y56D01*
X1064Y56D02*
X1071Y56D01*
X1101Y56D02*
X1121Y56D01*
X1158Y56D02*
X1164Y56D01*
X1172Y56D02*
X1178Y56D01*
X1208Y56D02*
X1214Y56D01*
X1229Y56D02*
X1235Y56D01*
X1251Y56D02*
X1258Y56D01*
X0Y55D02*
X7Y55D01*
X456Y55D02*
X473Y55D01*
X503Y55D02*
X537Y55D01*
X556Y55D02*
X587Y55D01*
X668Y55D02*
X674Y55D01*
X705Y55D02*
X711Y55D01*
X732Y55D02*
X738Y55D01*
X782Y55D02*
X789Y55D01*
X1051Y55D02*
X1057Y55D01*
X1065Y55D02*
X1072Y55D01*
X1101Y55D02*
X1121Y55D01*
X1158Y55D02*
X1164Y55D01*
X1172Y55D02*
X1178Y55D01*
X1208Y55D02*
X1214Y55D01*
X1229Y55D02*
X1235Y55D01*
X1251Y55D02*
X1258Y55D01*
X0Y54D02*
X7Y54D01*
X467Y54D02*
X473Y54D01*
X503Y54D02*
X509Y54D01*
X531Y54D02*
X537Y54D01*
X581Y54D02*
X587Y54D01*
X668Y54D02*
X674Y54D01*
X705Y54D02*
X711Y54D01*
X732Y54D02*
X738Y54D01*
X783Y54D02*
X789Y54D01*
X1051Y54D02*
X1057Y54D01*
X1065Y54D02*
X1072Y54D01*
X1101Y54D02*
X1120Y54D01*
X1157Y54D02*
X1164Y54D01*
X1172Y54D02*
X1179Y54D01*
X1208Y54D02*
X1214Y54D01*
X1229Y54D02*
X1235Y54D01*
X1251Y54D02*
X1258Y54D01*
X0Y53D02*
X7Y53D01*
X467Y53D02*
X473Y53D01*
X503Y53D02*
X509Y53D01*
X531Y53D02*
X537Y53D01*
X581Y53D02*
X587Y53D01*
X668Y53D02*
X674Y53D01*
X705Y53D02*
X711Y53D01*
X732Y53D02*
X738Y53D01*
X783Y53D02*
X789Y53D01*
X1051Y53D02*
X1057Y53D01*
X1066Y53D02*
X1073Y53D01*
X1101Y53D02*
X1119Y53D01*
X1157Y53D02*
X1163Y53D01*
X1173Y53D02*
X1179Y53D01*
X1208Y53D02*
X1214Y53D01*
X1228Y53D02*
X1235Y53D01*
X1251Y53D02*
X1258Y53D01*
X0Y52D02*
X7Y52D01*
X467Y52D02*
X473Y52D01*
X503Y52D02*
X509Y52D01*
X531Y52D02*
X537Y52D01*
X581Y52D02*
X587Y52D01*
X668Y52D02*
X674Y52D01*
X705Y52D02*
X711Y52D01*
X732Y52D02*
X738Y52D01*
X783Y52D02*
X789Y52D01*
X1051Y52D02*
X1057Y52D01*
X1066Y52D02*
X1074Y52D01*
X1101Y52D02*
X1107Y52D01*
X1157Y52D02*
X1163Y52D01*
X1173Y52D02*
X1179Y52D01*
X1208Y52D02*
X1214Y52D01*
X1228Y52D02*
X1234Y52D01*
X1251Y52D02*
X1258Y52D01*
X0Y51D02*
X7Y51D01*
X467Y51D02*
X473Y51D01*
X503Y51D02*
X509Y51D01*
X531Y51D02*
X537Y51D01*
X581Y51D02*
X587Y51D01*
X668Y51D02*
X674Y51D01*
X705Y51D02*
X711Y51D01*
X732Y51D02*
X738Y51D01*
X783Y51D02*
X789Y51D01*
X1051Y51D02*
X1057Y51D01*
X1067Y51D02*
X1074Y51D01*
X1101Y51D02*
X1107Y51D01*
X1156Y51D02*
X1163Y51D01*
X1173Y51D02*
X1179Y51D01*
X1208Y51D02*
X1214Y51D01*
X1227Y51D02*
X1234Y51D01*
X1251Y51D02*
X1258Y51D01*
X0Y50D02*
X7Y50D01*
X467Y50D02*
X473Y50D01*
X503Y50D02*
X509Y50D01*
X531Y50D02*
X537Y50D01*
X581Y50D02*
X587Y50D01*
X668Y50D02*
X674Y50D01*
X705Y50D02*
X711Y50D01*
X732Y50D02*
X738Y50D01*
X783Y50D02*
X789Y50D01*
X1051Y50D02*
X1057Y50D01*
X1067Y50D02*
X1075Y50D01*
X1101Y50D02*
X1107Y50D01*
X1156Y50D02*
X1162Y50D01*
X1173Y50D02*
X1180Y50D01*
X1208Y50D02*
X1214Y50D01*
X1227Y50D02*
X1234Y50D01*
X1251Y50D02*
X1258Y50D01*
X0Y49D02*
X7Y49D01*
X467Y49D02*
X473Y49D01*
X503Y49D02*
X509Y49D01*
X531Y49D02*
X537Y49D01*
X581Y49D02*
X587Y49D01*
X668Y49D02*
X674Y49D01*
X705Y49D02*
X711Y49D01*
X732Y49D02*
X738Y49D01*
X783Y49D02*
X789Y49D01*
X1051Y49D02*
X1057Y49D01*
X1068Y49D02*
X1075Y49D01*
X1101Y49D02*
X1107Y49D01*
X1156Y49D02*
X1162Y49D01*
X1174Y49D02*
X1180Y49D01*
X1208Y49D02*
X1214Y49D01*
X1226Y49D02*
X1233Y49D01*
X1251Y49D02*
X1258Y49D01*
X0Y48D02*
X7Y48D01*
X467Y48D02*
X473Y48D01*
X503Y48D02*
X509Y48D01*
X531Y48D02*
X537Y48D01*
X581Y48D02*
X587Y48D01*
X668Y48D02*
X674Y48D01*
X705Y48D02*
X711Y48D01*
X732Y48D02*
X738Y48D01*
X783Y48D02*
X789Y48D01*
X1051Y48D02*
X1057Y48D01*
X1069Y48D02*
X1076Y48D01*
X1101Y48D02*
X1107Y48D01*
X1156Y48D02*
X1162Y48D01*
X1174Y48D02*
X1180Y48D01*
X1208Y48D02*
X1214Y48D01*
X1226Y48D02*
X1233Y48D01*
X1251Y48D02*
X1258Y48D01*
X0Y47D02*
X7Y47D01*
X467Y47D02*
X473Y47D01*
X503Y47D02*
X509Y47D01*
X531Y47D02*
X537Y47D01*
X581Y47D02*
X587Y47D01*
X668Y47D02*
X674Y47D01*
X705Y47D02*
X711Y47D01*
X732Y47D02*
X738Y47D01*
X783Y47D02*
X789Y47D01*
X1051Y47D02*
X1057Y47D01*
X1069Y47D02*
X1076Y47D01*
X1101Y47D02*
X1107Y47D01*
X1155Y47D02*
X1181Y47D01*
X1208Y47D02*
X1214Y47D01*
X1225Y47D02*
X1232Y47D01*
X1251Y47D02*
X1258Y47D01*
X0Y46D02*
X7Y46D01*
X467Y46D02*
X473Y46D01*
X503Y46D02*
X509Y46D01*
X531Y46D02*
X537Y46D01*
X581Y46D02*
X587Y46D01*
X668Y46D02*
X674Y46D01*
X705Y46D02*
X711Y46D01*
X732Y46D02*
X738Y46D01*
X783Y46D02*
X789Y46D01*
X1051Y46D02*
X1057Y46D01*
X1070Y46D02*
X1077Y46D01*
X1101Y46D02*
X1107Y46D01*
X1155Y46D02*
X1181Y46D01*
X1208Y46D02*
X1214Y46D01*
X1225Y46D02*
X1232Y46D01*
X1251Y46D02*
X1258Y46D01*
X0Y45D02*
X7Y45D01*
X467Y45D02*
X473Y45D01*
X503Y45D02*
X509Y45D01*
X531Y45D02*
X537Y45D01*
X581Y45D02*
X587Y45D01*
X668Y45D02*
X674Y45D01*
X705Y45D02*
X711Y45D01*
X732Y45D02*
X738Y45D01*
X783Y45D02*
X789Y45D01*
X1051Y45D02*
X1057Y45D01*
X1070Y45D02*
X1078Y45D01*
X1101Y45D02*
X1107Y45D01*
X1155Y45D02*
X1181Y45D01*
X1208Y45D02*
X1214Y45D01*
X1224Y45D02*
X1231Y45D01*
X1251Y45D02*
X1258Y45D01*
X0Y44D02*
X7Y44D01*
X467Y44D02*
X473Y44D01*
X503Y44D02*
X509Y44D01*
X531Y44D02*
X537Y44D01*
X581Y44D02*
X587Y44D01*
X668Y44D02*
X674Y44D01*
X705Y44D02*
X711Y44D01*
X732Y44D02*
X738Y44D01*
X783Y44D02*
X789Y44D01*
X1051Y44D02*
X1057Y44D01*
X1071Y44D02*
X1078Y44D01*
X1101Y44D02*
X1107Y44D01*
X1154Y44D02*
X1181Y44D01*
X1208Y44D02*
X1214Y44D01*
X1224Y44D02*
X1231Y44D01*
X1251Y44D02*
X1258Y44D01*
X0Y43D02*
X7Y43D01*
X467Y43D02*
X473Y43D01*
X503Y43D02*
X509Y43D01*
X531Y43D02*
X537Y43D01*
X581Y43D02*
X587Y43D01*
X668Y43D02*
X674Y43D01*
X705Y43D02*
X711Y43D01*
X732Y43D02*
X738Y43D01*
X783Y43D02*
X789Y43D01*
X1051Y43D02*
X1057Y43D01*
X1072Y43D02*
X1079Y43D01*
X1101Y43D02*
X1107Y43D01*
X1154Y43D02*
X1182Y43D01*
X1208Y43D02*
X1214Y43D01*
X1223Y43D02*
X1230Y43D01*
X1251Y43D02*
X1258Y43D01*
X0Y42D02*
X7Y42D01*
X467Y42D02*
X473Y42D01*
X503Y42D02*
X509Y42D01*
X531Y42D02*
X537Y42D01*
X581Y42D02*
X587Y42D01*
X668Y42D02*
X674Y42D01*
X705Y42D02*
X711Y42D01*
X732Y42D02*
X738Y42D01*
X783Y42D02*
X789Y42D01*
X1051Y42D02*
X1057Y42D01*
X1072Y42D02*
X1079Y42D01*
X1101Y42D02*
X1107Y42D01*
X1154Y42D02*
X1182Y42D01*
X1208Y42D02*
X1214Y42D01*
X1223Y42D02*
X1230Y42D01*
X1251Y42D02*
X1258Y42D01*
X0Y41D02*
X7Y41D01*
X467Y41D02*
X473Y41D01*
X503Y41D02*
X509Y41D01*
X531Y41D02*
X537Y41D01*
X581Y41D02*
X587Y41D01*
X668Y41D02*
X674Y41D01*
X705Y41D02*
X711Y41D01*
X732Y41D02*
X738Y41D01*
X782Y41D02*
X789Y41D01*
X1051Y41D02*
X1057Y41D01*
X1073Y41D02*
X1080Y41D01*
X1101Y41D02*
X1107Y41D01*
X1154Y41D02*
X1182Y41D01*
X1208Y41D02*
X1214Y41D01*
X1222Y41D02*
X1229Y41D01*
X1251Y41D02*
X1258Y41D01*
X0Y40D02*
X7Y40D01*
X467Y40D02*
X473Y40D01*
X503Y40D02*
X509Y40D01*
X531Y40D02*
X537Y40D01*
X580Y40D02*
X587Y40D01*
X668Y40D02*
X674Y40D01*
X705Y40D02*
X711Y40D01*
X732Y40D02*
X738Y40D01*
X782Y40D02*
X788Y40D01*
X1051Y40D02*
X1057Y40D01*
X1073Y40D02*
X1081Y40D01*
X1101Y40D02*
X1107Y40D01*
X1153Y40D02*
X1160Y40D01*
X1176Y40D02*
X1183Y40D01*
X1208Y40D02*
X1214Y40D01*
X1222Y40D02*
X1229Y40D01*
X1251Y40D02*
X1258Y40D01*
X0Y39D02*
X7Y39D01*
X467Y39D02*
X473Y39D01*
X503Y39D02*
X509Y39D01*
X531Y39D02*
X537Y39D01*
X579Y39D02*
X586Y39D01*
X668Y39D02*
X674Y39D01*
X705Y39D02*
X711Y39D01*
X732Y39D02*
X738Y39D01*
X781Y39D02*
X788Y39D01*
X1051Y39D02*
X1057Y39D01*
X1074Y39D02*
X1081Y39D01*
X1101Y39D02*
X1107Y39D01*
X1153Y39D02*
X1159Y39D01*
X1177Y39D02*
X1183Y39D01*
X1208Y39D02*
X1214Y39D01*
X1221Y39D02*
X1228Y39D01*
X1251Y39D02*
X1258Y39D01*
X0Y38D02*
X7Y38D01*
X467Y38D02*
X473Y38D01*
X503Y38D02*
X509Y38D01*
X531Y38D02*
X537Y38D01*
X562Y38D02*
X586Y38D01*
X668Y38D02*
X674Y38D01*
X705Y38D02*
X711Y38D01*
X732Y38D02*
X738Y38D01*
X764Y38D02*
X788Y38D01*
X1051Y38D02*
X1057Y38D01*
X1074Y38D02*
X1082Y38D01*
X1101Y38D02*
X1107Y38D01*
X1153Y38D02*
X1159Y38D01*
X1177Y38D02*
X1183Y38D01*
X1208Y38D02*
X1214Y38D01*
X1221Y38D02*
X1228Y38D01*
X1251Y38D02*
X1258Y38D01*
X0Y37D02*
X7Y37D01*
X467Y37D02*
X473Y37D01*
X503Y37D02*
X509Y37D01*
X531Y37D02*
X537Y37D01*
X561Y37D02*
X585Y37D01*
X668Y37D02*
X674Y37D01*
X705Y37D02*
X711Y37D01*
X732Y37D02*
X738Y37D01*
X763Y37D02*
X787Y37D01*
X1051Y37D02*
X1057Y37D01*
X1075Y37D02*
X1082Y37D01*
X1101Y37D02*
X1107Y37D01*
X1152Y37D02*
X1159Y37D01*
X1177Y37D02*
X1183Y37D01*
X1208Y37D02*
X1214Y37D01*
X1220Y37D02*
X1227Y37D01*
X1251Y37D02*
X1258Y37D01*
X0Y36D02*
X7Y36D01*
X467Y36D02*
X473Y36D01*
X503Y36D02*
X509Y36D01*
X531Y36D02*
X537Y36D01*
X560Y36D02*
X585Y36D01*
X668Y36D02*
X674Y36D01*
X705Y36D02*
X711Y36D01*
X732Y36D02*
X738Y36D01*
X762Y36D02*
X787Y36D01*
X1051Y36D02*
X1057Y36D01*
X1076Y36D02*
X1083Y36D01*
X1101Y36D02*
X1107Y36D01*
X1152Y36D02*
X1158Y36D01*
X1178Y36D02*
X1184Y36D01*
X1208Y36D02*
X1215Y36D01*
X1219Y36D02*
X1227Y36D01*
X1251Y36D02*
X1258Y36D01*
X0Y35D02*
X7Y35D01*
X467Y35D02*
X473Y35D01*
X503Y35D02*
X509Y35D01*
X531Y35D02*
X537Y35D01*
X560Y35D02*
X584Y35D01*
X668Y35D02*
X674Y35D01*
X705Y35D02*
X711Y35D01*
X732Y35D02*
X738Y35D01*
X762Y35D02*
X786Y35D01*
X1051Y35D02*
X1057Y35D01*
X1076Y35D02*
X1083Y35D01*
X1101Y35D02*
X1133Y35D01*
X1152Y35D02*
X1158Y35D01*
X1178Y35D02*
X1184Y35D01*
X1203Y35D02*
X1226Y35D01*
X1251Y35D02*
X1258Y35D01*
X0Y34D02*
X7Y34D01*
X467Y34D02*
X473Y34D01*
X503Y34D02*
X509Y34D01*
X531Y34D02*
X537Y34D01*
X560Y34D02*
X585Y34D01*
X668Y34D02*
X674Y34D01*
X705Y34D02*
X711Y34D01*
X732Y34D02*
X738Y34D01*
X762Y34D02*
X787Y34D01*
X1051Y34D02*
X1057Y34D01*
X1077Y34D02*
X1084Y34D01*
X1101Y34D02*
X1134Y34D01*
X1151Y34D02*
X1158Y34D01*
X1178Y34D02*
X1184Y34D01*
X1202Y34D02*
X1226Y34D01*
X1251Y34D02*
X1258Y34D01*
X0Y33D02*
X7Y33D01*
X467Y33D02*
X473Y33D01*
X503Y33D02*
X509Y33D01*
X531Y33D02*
X537Y33D01*
X561Y33D02*
X585Y33D01*
X668Y33D02*
X674Y33D01*
X705Y33D02*
X711Y33D01*
X732Y33D02*
X738Y33D01*
X763Y33D02*
X787Y33D01*
X1051Y33D02*
X1057Y33D01*
X1077Y33D02*
X1084Y33D01*
X1101Y33D02*
X1134Y33D01*
X1151Y33D02*
X1157Y33D01*
X1178Y33D02*
X1185Y33D01*
X1201Y33D02*
X1225Y33D01*
X1251Y33D02*
X1258Y33D01*
X0Y32D02*
X7Y32D01*
X467Y32D02*
X473Y32D01*
X482Y32D02*
X484Y32D01*
X503Y32D02*
X509Y32D01*
X531Y32D02*
X537Y32D01*
X562Y32D02*
X586Y32D01*
X668Y32D02*
X674Y32D01*
X684Y32D02*
X687Y32D01*
X705Y32D02*
X711Y32D01*
X732Y32D02*
X738Y32D01*
X764Y32D02*
X788Y32D01*
X1051Y32D02*
X1057Y32D01*
X1078Y32D02*
X1084Y32D01*
X1101Y32D02*
X1135Y32D01*
X1151Y32D02*
X1157Y32D01*
X1179Y32D02*
X1185Y32D01*
X1201Y32D02*
X1224Y32D01*
X1251Y32D02*
X1258Y32D01*
X0Y31D02*
X7Y31D01*
X467Y31D02*
X473Y31D01*
X481Y31D02*
X486Y31D01*
X503Y31D02*
X509Y31D01*
X531Y31D02*
X537Y31D01*
X578Y31D02*
X586Y31D01*
X668Y31D02*
X674Y31D01*
X683Y31D02*
X688Y31D01*
X705Y31D02*
X711Y31D01*
X732Y31D02*
X738Y31D01*
X781Y31D02*
X788Y31D01*
X1051Y31D02*
X1057Y31D01*
X1079Y31D02*
X1084Y31D01*
X1101Y31D02*
X1134Y31D01*
X1151Y31D02*
X1157Y31D01*
X1179Y31D02*
X1184Y31D01*
X1202Y31D02*
X1223Y31D01*
X1251Y31D02*
X1258Y31D01*
X0Y30D02*
X7Y30D01*
X467Y30D02*
X473Y30D01*
X481Y30D02*
X486Y30D01*
X503Y30D02*
X509Y30D01*
X531Y30D02*
X537Y30D01*
X580Y30D02*
X586Y30D01*
X668Y30D02*
X674Y30D01*
X682Y30D02*
X688Y30D01*
X705Y30D02*
X711Y30D01*
X732Y30D02*
X738Y30D01*
X782Y30D02*
X788Y30D01*
X1052Y30D02*
X1056Y30D01*
X1079Y30D02*
X1083Y30D01*
X1101Y30D02*
X1134Y30D01*
X1152Y30D02*
X1156Y30D01*
X1180Y30D02*
X1184Y30D01*
X1202Y30D02*
X1221Y30D01*
X1251Y30D02*
X1258Y30D01*
X0Y29D02*
X7Y29D01*
X467Y29D02*
X473Y29D01*
X480Y29D02*
X486Y29D01*
X503Y29D02*
X509Y29D01*
X531Y29D02*
X537Y29D01*
X580Y29D02*
X587Y29D01*
X668Y29D02*
X674Y29D01*
X682Y29D02*
X688Y29D01*
X705Y29D02*
X711Y29D01*
X732Y29D02*
X738Y29D01*
X782Y29D02*
X789Y29D01*
X1053Y29D02*
X1054Y29D01*
X1081Y29D02*
X1082Y29D01*
X1101Y29D02*
X1132Y29D01*
X1154Y29D02*
X1155Y29D01*
X1181Y29D02*
X1182Y29D01*
X1204Y29D02*
X1218Y29D01*
X1251Y29D02*
X1258Y29D01*
X0Y28D02*
X7Y28D01*
X467Y28D02*
X473Y28D01*
X480Y28D02*
X486Y28D01*
X503Y28D02*
X509Y28D01*
X531Y28D02*
X537Y28D01*
X581Y28D02*
X587Y28D01*
X668Y28D02*
X674Y28D01*
X682Y28D02*
X688Y28D01*
X705Y28D02*
X711Y28D01*
X732Y28D02*
X738Y28D01*
X783Y28D02*
X789Y28D01*
X1251Y28D02*
X1258Y28D01*
X0Y27D02*
X7Y27D01*
X467Y27D02*
X473Y27D01*
X480Y27D02*
X486Y27D01*
X503Y27D02*
X509Y27D01*
X531Y27D02*
X537Y27D01*
X581Y27D02*
X587Y27D01*
X668Y27D02*
X674Y27D01*
X682Y27D02*
X688Y27D01*
X705Y27D02*
X711Y27D01*
X732Y27D02*
X738Y27D01*
X783Y27D02*
X789Y27D01*
X1251Y27D02*
X1258Y27D01*
X0Y26D02*
X7Y26D01*
X467Y26D02*
X473Y26D01*
X480Y26D02*
X486Y26D01*
X503Y26D02*
X509Y26D01*
X531Y26D02*
X537Y26D01*
X581Y26D02*
X587Y26D01*
X668Y26D02*
X674Y26D01*
X682Y26D02*
X688Y26D01*
X705Y26D02*
X711Y26D01*
X732Y26D02*
X738Y26D01*
X783Y26D02*
X789Y26D01*
X1251Y26D02*
X1258Y26D01*
X0Y25D02*
X7Y25D01*
X467Y25D02*
X473Y25D01*
X480Y25D02*
X486Y25D01*
X503Y25D02*
X509Y25D01*
X531Y25D02*
X537Y25D01*
X581Y25D02*
X587Y25D01*
X668Y25D02*
X674Y25D01*
X682Y25D02*
X688Y25D01*
X705Y25D02*
X711Y25D01*
X732Y25D02*
X738Y25D01*
X783Y25D02*
X789Y25D01*
X1251Y25D02*
X1258Y25D01*
X0Y24D02*
X7Y24D01*
X467Y24D02*
X473Y24D01*
X480Y24D02*
X486Y24D01*
X503Y24D02*
X509Y24D01*
X531Y24D02*
X537Y24D01*
X581Y24D02*
X587Y24D01*
X668Y24D02*
X674Y24D01*
X682Y24D02*
X688Y24D01*
X705Y24D02*
X711Y24D01*
X732Y24D02*
X738Y24D01*
X783Y24D02*
X789Y24D01*
X1251Y24D02*
X1258Y24D01*
X0Y23D02*
X7Y23D01*
X467Y23D02*
X473Y23D01*
X480Y23D02*
X486Y23D01*
X503Y23D02*
X509Y23D01*
X531Y23D02*
X537Y23D01*
X581Y23D02*
X587Y23D01*
X668Y23D02*
X674Y23D01*
X682Y23D02*
X688Y23D01*
X705Y23D02*
X711Y23D01*
X732Y23D02*
X738Y23D01*
X783Y23D02*
X789Y23D01*
X1251Y23D02*
X1258Y23D01*
X0Y22D02*
X7Y22D01*
X467Y22D02*
X473Y22D01*
X480Y22D02*
X486Y22D01*
X503Y22D02*
X509Y22D01*
X531Y22D02*
X537Y22D01*
X581Y22D02*
X587Y22D01*
X668Y22D02*
X674Y22D01*
X682Y22D02*
X688Y22D01*
X705Y22D02*
X711Y22D01*
X732Y22D02*
X738Y22D01*
X783Y22D02*
X789Y22D01*
X1251Y22D02*
X1258Y22D01*
X0Y21D02*
X7Y21D01*
X467Y21D02*
X473Y21D01*
X480Y21D02*
X486Y21D01*
X503Y21D02*
X509Y21D01*
X531Y21D02*
X537Y21D01*
X581Y21D02*
X587Y21D01*
X668Y21D02*
X674Y21D01*
X682Y21D02*
X688Y21D01*
X705Y21D02*
X711Y21D01*
X732Y21D02*
X738Y21D01*
X783Y21D02*
X789Y21D01*
X1251Y21D02*
X1258Y21D01*
X0Y20D02*
X7Y20D01*
X467Y20D02*
X473Y20D01*
X480Y20D02*
X486Y20D01*
X503Y20D02*
X509Y20D01*
X531Y20D02*
X537Y20D01*
X581Y20D02*
X587Y20D01*
X668Y20D02*
X674Y20D01*
X682Y20D02*
X688Y20D01*
X705Y20D02*
X711Y20D01*
X732Y20D02*
X738Y20D01*
X783Y20D02*
X789Y20D01*
X1251Y20D02*
X1258Y20D01*
X0Y19D02*
X7Y19D01*
X467Y19D02*
X473Y19D01*
X480Y19D02*
X486Y19D01*
X503Y19D02*
X509Y19D01*
X531Y19D02*
X537Y19D01*
X581Y19D02*
X587Y19D01*
X668Y19D02*
X674Y19D01*
X682Y19D02*
X688Y19D01*
X705Y19D02*
X711Y19D01*
X732Y19D02*
X738Y19D01*
X783Y19D02*
X789Y19D01*
X1251Y19D02*
X1258Y19D01*
X0Y18D02*
X7Y18D01*
X467Y18D02*
X473Y18D01*
X480Y18D02*
X486Y18D01*
X503Y18D02*
X509Y18D01*
X531Y18D02*
X537Y18D01*
X581Y18D02*
X587Y18D01*
X668Y18D02*
X674Y18D01*
X682Y18D02*
X688Y18D01*
X705Y18D02*
X711Y18D01*
X732Y18D02*
X738Y18D01*
X783Y18D02*
X789Y18D01*
X1251Y18D02*
X1258Y18D01*
X0Y17D02*
X7Y17D01*
X467Y17D02*
X473Y17D01*
X480Y17D02*
X486Y17D01*
X503Y17D02*
X509Y17D01*
X531Y17D02*
X537Y17D01*
X581Y17D02*
X587Y17D01*
X668Y17D02*
X674Y17D01*
X682Y17D02*
X688Y17D01*
X705Y17D02*
X711Y17D01*
X732Y17D02*
X738Y17D01*
X783Y17D02*
X789Y17D01*
X1251Y17D02*
X1258Y17D01*
X0Y16D02*
X7Y16D01*
X467Y16D02*
X473Y16D01*
X480Y16D02*
X486Y16D01*
X503Y16D02*
X509Y16D01*
X531Y16D02*
X537Y16D01*
X581Y16D02*
X587Y16D01*
X668Y16D02*
X674Y16D01*
X682Y16D02*
X688Y16D01*
X705Y16D02*
X711Y16D01*
X732Y16D02*
X738Y16D01*
X783Y16D02*
X789Y16D01*
X1251Y16D02*
X1258Y16D01*
X0Y15D02*
X7Y15D01*
X466Y15D02*
X473Y15D01*
X480Y15D02*
X486Y15D01*
X503Y15D02*
X509Y15D01*
X530Y15D02*
X537Y15D01*
X581Y15D02*
X587Y15D01*
X668Y15D02*
X675Y15D01*
X682Y15D02*
X688Y15D01*
X705Y15D02*
X711Y15D01*
X732Y15D02*
X738Y15D01*
X782Y15D02*
X789Y15D01*
X1251Y15D02*
X1258Y15D01*
X0Y14D02*
X7Y14D01*
X454Y14D02*
X486Y14D01*
X503Y14D02*
X536Y14D01*
X555Y14D02*
X587Y14D01*
X656Y14D02*
X688Y14D01*
X705Y14D02*
X738Y14D01*
X756Y14D02*
X789Y14D01*
X1251Y14D02*
X1258Y14D01*
X0Y13D02*
X7Y13D01*
X453Y13D02*
X486Y13D01*
X503Y13D02*
X536Y13D01*
X554Y13D02*
X586Y13D01*
X655Y13D02*
X688Y13D01*
X705Y13D02*
X738Y13D01*
X755Y13D02*
X788Y13D01*
X1251Y13D02*
X1258Y13D01*
X0Y12D02*
X7Y12D01*
X453Y12D02*
X486Y12D01*
X504Y12D02*
X536Y12D01*
X553Y12D02*
X586Y12D01*
X655Y12D02*
X688Y12D01*
X706Y12D02*
X738Y12D01*
X755Y12D02*
X788Y12D01*
X1251Y12D02*
X1258Y12D01*
X0Y11D02*
X7Y11D01*
X453Y11D02*
X486Y11D01*
X504Y11D02*
X535Y11D01*
X553Y11D02*
X586Y11D01*
X655Y11D02*
X688Y11D01*
X706Y11D02*
X737Y11D01*
X755Y11D02*
X787Y11D01*
X1251Y11D02*
X1258Y11D01*
X0Y10D02*
X7Y10D01*
X453Y10D02*
X486Y10D01*
X505Y10D02*
X535Y10D01*
X553Y10D02*
X585Y10D01*
X655Y10D02*
X688Y10D01*
X707Y10D02*
X736Y10D01*
X755Y10D02*
X786Y10D01*
X1251Y10D02*
X1258Y10D01*
X0Y9D02*
X7Y9D01*
X454Y9D02*
X485Y9D01*
X506Y9D02*
X533Y9D01*
X554Y9D02*
X584Y9D01*
X656Y9D02*
X687Y9D01*
X708Y9D02*
X735Y9D01*
X756Y9D02*
X785Y9D01*
X1251Y9D02*
X1258Y9D01*
X0Y8D02*
X1258Y8D01*
X0Y7D02*
X1258Y7D01*
X0Y6D02*
X1258Y6D01*
X0Y5D02*
X1258Y5D01*
X0Y4D02*
X1258Y4D01*
X0Y3D02*
X1258Y3D01*
X0Y2D02*
X1258Y2D01*
X0Y1D02*
X1258Y1D01*
D02*
G04 End of Silk1*
M02*