G04 MADE WITH FRITZING*
G04 WWW.FRITZING.ORG*
G04 DOUBLE SIDED*
G04 HOLES PLATED*
G04 CONTOUR ON CENTER OF CONTOUR VECTOR*
%ASAXBY*%
%FSLAX23Y23*%
%MOIN*%
%OFA0B0*%
%SFA1.0B1.0*%
%ADD10C,0.060000*%
%ADD11C,0.250000*%
%ADD12C,0.251968*%
%ADD13C,0.087695*%
%ADD14C,0.087722*%
%ADD15C,0.075000*%
%ADD16C,0.070000*%
%ADD17C,0.082000*%
%ADD18C,0.039370*%
%ADD19R,0.075000X0.075000*%
%ADD20R,0.082000X0.082000*%
%ADD21C,0.024000*%
%ADD22R,0.001000X0.001000*%
%LNCOPPER0*%
G90*
G70*
G54D10*
X426Y487D03*
X426Y595D03*
X426Y703D03*
X426Y811D03*
X426Y919D03*
X426Y1027D03*
X426Y1135D03*
X426Y1243D03*
X314Y541D03*
X314Y649D03*
X314Y757D03*
X314Y865D03*
X314Y973D03*
X314Y1081D03*
X314Y1189D03*
G54D11*
X370Y1513D03*
X370Y217D03*
G54D12*
X370Y1513D03*
X370Y217D03*
G54D13*
X1117Y1393D03*
G54D14*
X921Y1196D03*
X921Y1294D03*
G54D13*
X921Y1491D03*
G54D14*
X921Y1589D03*
G54D13*
X1117Y341D03*
G54D14*
X921Y144D03*
X921Y242D03*
G54D13*
X921Y439D03*
G54D14*
X921Y537D03*
G54D15*
X574Y715D03*
X574Y1015D03*
X674Y715D03*
X674Y1015D03*
X774Y715D03*
X774Y1015D03*
X874Y715D03*
X874Y1015D03*
X974Y715D03*
X974Y1015D03*
X1074Y715D03*
X1074Y1015D03*
X1174Y715D03*
X1174Y1015D03*
G54D16*
X560Y1288D03*
X560Y1188D03*
G54D15*
X662Y1188D03*
X662Y1588D03*
X762Y1188D03*
X762Y1588D03*
G54D17*
X571Y304D03*
X571Y602D03*
G54D16*
X571Y204D03*
X571Y103D03*
G54D15*
X673Y205D03*
X673Y605D03*
X773Y204D03*
X773Y604D03*
G54D16*
X671Y103D03*
X771Y103D03*
G54D18*
X197Y416D03*
G54D19*
X574Y715D03*
G54D20*
X571Y303D03*
G54D21*
X1036Y341D02*
X1036Y105D01*
D02*
X1036Y105D02*
X973Y37D01*
D02*
X973Y37D02*
X671Y37D01*
D02*
X1080Y341D02*
X1036Y341D01*
D02*
X671Y37D02*
X671Y77D01*
D02*
X671Y37D02*
X275Y37D01*
D02*
X275Y37D02*
X197Y121D01*
D02*
X671Y77D02*
X671Y37D01*
D02*
X216Y416D02*
X348Y416D01*
D02*
X197Y121D02*
X197Y397D01*
D02*
X348Y416D02*
X405Y468D01*
D02*
X1037Y564D02*
X1037Y341D01*
D02*
X1037Y341D02*
X1080Y341D01*
D02*
X1154Y694D02*
X1037Y564D01*
D02*
X1035Y1172D02*
X986Y1111D01*
D02*
X1035Y1393D02*
X1035Y1172D01*
D02*
X1080Y1393D02*
X1035Y1393D01*
D02*
X762Y1111D02*
X986Y1111D01*
D02*
X762Y1160D02*
X762Y1111D01*
D02*
X197Y1597D02*
X272Y1684D01*
D02*
X272Y1684D02*
X954Y1684D01*
D02*
X954Y1684D02*
X1035Y1613D01*
D02*
X1035Y1613D02*
X1035Y1393D01*
D02*
X1035Y1393D02*
X1080Y1393D01*
D02*
X197Y435D02*
X197Y1597D01*
D02*
X1109Y866D02*
X498Y866D01*
D02*
X1174Y801D02*
X1109Y866D01*
D02*
X498Y866D02*
X498Y558D01*
D02*
X498Y558D02*
X446Y507D01*
D02*
X1174Y743D02*
X1174Y801D01*
D02*
X498Y557D02*
X498Y1055D01*
D02*
X498Y1055D02*
X553Y1111D01*
D02*
X553Y1111D02*
X762Y1111D01*
D02*
X762Y1111D02*
X762Y1160D01*
D02*
X446Y507D02*
X498Y557D01*
G54D22*
D02*
G04 End of Copper0*
M02*