G04 MADE WITH FRITZING*
G04 WWW.FRITZING.ORG*
G04 DOUBLE SIDED*
G04 HOLES PLATED*
G04 CONTOUR ON CENTER OF CONTOUR VECTOR*
%ASAXBY*%
%FSLAX23Y23*%
%MOIN*%
%OFA0B0*%
%SFA1.0B1.0*%
%ADD10R,1.259840X1.732280X1.243840X1.716280*%
%ADD11C,0.008000*%
%ADD12R,0.001000X0.001000*%
%LNSILK0*%
G90*
G70*
G54D11*
X4Y1728D02*
X1256Y1728D01*
X1256Y4D01*
X4Y4D01*
X4Y1728D01*
D02*
G54D12*
X41Y1665D02*
X107Y1665D01*
X41Y1664D02*
X109Y1664D01*
X41Y1663D02*
X109Y1663D01*
X41Y1662D02*
X110Y1662D01*
X41Y1661D02*
X110Y1661D01*
X41Y1660D02*
X110Y1660D01*
X41Y1659D02*
X110Y1659D01*
X41Y1658D02*
X109Y1658D01*
X41Y1657D02*
X108Y1657D01*
X41Y1656D02*
X49Y1656D01*
X64Y1656D02*
X72Y1656D01*
X41Y1655D02*
X49Y1655D01*
X64Y1655D02*
X72Y1655D01*
X41Y1654D02*
X49Y1654D01*
X64Y1654D02*
X72Y1654D01*
X41Y1653D02*
X49Y1653D01*
X64Y1653D02*
X72Y1653D01*
X41Y1652D02*
X49Y1652D01*
X64Y1652D02*
X72Y1652D01*
X41Y1651D02*
X49Y1651D01*
X64Y1651D02*
X72Y1651D01*
X41Y1650D02*
X49Y1650D01*
X64Y1650D02*
X72Y1650D01*
X41Y1649D02*
X49Y1649D01*
X64Y1649D02*
X72Y1649D01*
X41Y1648D02*
X49Y1648D01*
X64Y1648D02*
X72Y1648D01*
X41Y1647D02*
X49Y1647D01*
X64Y1647D02*
X72Y1647D01*
X41Y1646D02*
X49Y1646D01*
X64Y1646D02*
X72Y1646D01*
X41Y1645D02*
X49Y1645D01*
X64Y1645D02*
X72Y1645D01*
X41Y1644D02*
X49Y1644D01*
X64Y1644D02*
X72Y1644D01*
X41Y1643D02*
X49Y1643D01*
X64Y1643D02*
X72Y1643D01*
X41Y1642D02*
X49Y1642D01*
X64Y1642D02*
X72Y1642D01*
X41Y1641D02*
X49Y1641D01*
X64Y1641D02*
X72Y1641D01*
X41Y1640D02*
X49Y1640D01*
X64Y1640D02*
X72Y1640D01*
X41Y1639D02*
X49Y1639D01*
X64Y1639D02*
X72Y1639D01*
X41Y1638D02*
X49Y1638D01*
X64Y1638D02*
X72Y1638D01*
X41Y1637D02*
X49Y1637D01*
X64Y1637D02*
X72Y1637D01*
X41Y1636D02*
X49Y1636D01*
X64Y1636D02*
X72Y1636D01*
X41Y1635D02*
X49Y1635D01*
X64Y1635D02*
X72Y1635D01*
X41Y1634D02*
X49Y1634D01*
X64Y1634D02*
X72Y1634D01*
X41Y1633D02*
X49Y1633D01*
X64Y1633D02*
X72Y1633D01*
X41Y1632D02*
X49Y1632D01*
X64Y1632D02*
X72Y1632D01*
X41Y1631D02*
X49Y1631D01*
X65Y1631D02*
X71Y1631D01*
X41Y1630D02*
X49Y1630D01*
X66Y1630D02*
X70Y1630D01*
X41Y1629D02*
X49Y1629D01*
X41Y1628D02*
X49Y1628D01*
X41Y1627D02*
X49Y1627D01*
X41Y1626D02*
X49Y1626D01*
X41Y1625D02*
X49Y1625D01*
X41Y1624D02*
X49Y1624D01*
X42Y1623D02*
X49Y1623D01*
X42Y1622D02*
X48Y1622D01*
X43Y1621D02*
X47Y1621D01*
X91Y1600D02*
X99Y1600D01*
X87Y1599D02*
X102Y1599D01*
X85Y1598D02*
X104Y1598D01*
X84Y1597D02*
X105Y1597D01*
X83Y1596D02*
X106Y1596D01*
X82Y1595D02*
X107Y1595D01*
X81Y1594D02*
X108Y1594D01*
X81Y1593D02*
X109Y1593D01*
X80Y1592D02*
X109Y1592D01*
X63Y1591D02*
X65Y1591D01*
X80Y1591D02*
X91Y1591D01*
X98Y1591D02*
X109Y1591D01*
X62Y1590D02*
X67Y1590D01*
X80Y1590D02*
X89Y1590D01*
X100Y1590D02*
X110Y1590D01*
X61Y1589D02*
X67Y1589D01*
X79Y1589D02*
X88Y1589D01*
X101Y1589D02*
X110Y1589D01*
X60Y1588D02*
X68Y1588D01*
X79Y1588D02*
X87Y1588D01*
X102Y1588D02*
X110Y1588D01*
X60Y1587D02*
X68Y1587D01*
X79Y1587D02*
X87Y1587D01*
X102Y1587D02*
X110Y1587D01*
X60Y1586D02*
X68Y1586D01*
X79Y1586D02*
X87Y1586D01*
X102Y1586D02*
X110Y1586D01*
X60Y1585D02*
X68Y1585D01*
X79Y1585D02*
X87Y1585D01*
X102Y1585D02*
X110Y1585D01*
X60Y1584D02*
X68Y1584D01*
X79Y1584D02*
X87Y1584D01*
X102Y1584D02*
X110Y1584D01*
X60Y1583D02*
X68Y1583D01*
X79Y1583D02*
X87Y1583D01*
X102Y1583D02*
X110Y1583D01*
X60Y1582D02*
X68Y1582D01*
X79Y1582D02*
X87Y1582D01*
X102Y1582D02*
X110Y1582D01*
X60Y1581D02*
X68Y1581D01*
X79Y1581D02*
X87Y1581D01*
X102Y1581D02*
X110Y1581D01*
X60Y1580D02*
X68Y1580D01*
X79Y1580D02*
X87Y1580D01*
X102Y1580D02*
X110Y1580D01*
X60Y1579D02*
X68Y1579D01*
X79Y1579D02*
X87Y1579D01*
X102Y1579D02*
X110Y1579D01*
X60Y1578D02*
X68Y1578D01*
X79Y1578D02*
X87Y1578D01*
X102Y1578D02*
X110Y1578D01*
X60Y1577D02*
X68Y1577D01*
X79Y1577D02*
X87Y1577D01*
X102Y1577D02*
X110Y1577D01*
X60Y1576D02*
X68Y1576D01*
X79Y1576D02*
X87Y1576D01*
X102Y1576D02*
X110Y1576D01*
X60Y1575D02*
X68Y1575D01*
X79Y1575D02*
X87Y1575D01*
X102Y1575D02*
X110Y1575D01*
X60Y1574D02*
X68Y1574D01*
X79Y1574D02*
X87Y1574D01*
X102Y1574D02*
X110Y1574D01*
X60Y1573D02*
X68Y1573D01*
X79Y1573D02*
X87Y1573D01*
X101Y1573D02*
X110Y1573D01*
X60Y1572D02*
X68Y1572D01*
X79Y1572D02*
X87Y1572D01*
X100Y1572D02*
X110Y1572D01*
X60Y1571D02*
X68Y1571D01*
X79Y1571D02*
X87Y1571D01*
X100Y1571D02*
X109Y1571D01*
X60Y1570D02*
X68Y1570D01*
X79Y1570D02*
X87Y1570D01*
X99Y1570D02*
X109Y1570D01*
X60Y1569D02*
X68Y1569D01*
X79Y1569D02*
X87Y1569D01*
X99Y1569D02*
X108Y1569D01*
X60Y1568D02*
X69Y1568D01*
X79Y1568D02*
X88Y1568D01*
X98Y1568D02*
X108Y1568D01*
X60Y1567D02*
X69Y1567D01*
X79Y1567D02*
X88Y1567D01*
X98Y1567D02*
X107Y1567D01*
X61Y1566D02*
X71Y1566D01*
X80Y1566D02*
X89Y1566D01*
X97Y1566D02*
X107Y1566D01*
X61Y1565D02*
X106Y1565D01*
X62Y1564D02*
X108Y1564D01*
X62Y1563D02*
X109Y1563D01*
X63Y1562D02*
X110Y1562D01*
X64Y1561D02*
X110Y1561D01*
X65Y1560D02*
X110Y1560D01*
X66Y1559D02*
X110Y1559D01*
X68Y1558D02*
X110Y1558D01*
X70Y1557D02*
X109Y1557D01*
X89Y1556D02*
X108Y1556D01*
X62Y1535D02*
X108Y1535D01*
X61Y1534D02*
X109Y1534D01*
X60Y1533D02*
X110Y1533D01*
X60Y1532D02*
X110Y1532D01*
X60Y1531D02*
X110Y1531D01*
X60Y1530D02*
X110Y1530D01*
X61Y1529D02*
X109Y1529D01*
X62Y1528D02*
X109Y1528D01*
X63Y1527D02*
X106Y1527D01*
X62Y1526D02*
X73Y1526D01*
X62Y1525D02*
X72Y1525D01*
X61Y1524D02*
X72Y1524D01*
X61Y1523D02*
X71Y1523D01*
X60Y1522D02*
X70Y1522D01*
X60Y1521D02*
X69Y1521D01*
X60Y1520D02*
X68Y1520D01*
X60Y1519D02*
X68Y1519D01*
X60Y1518D02*
X69Y1518D01*
X60Y1517D02*
X107Y1517D01*
X61Y1516D02*
X109Y1516D01*
X61Y1515D02*
X109Y1515D01*
X61Y1514D02*
X110Y1514D01*
X62Y1513D02*
X110Y1513D01*
X63Y1512D02*
X110Y1512D01*
X64Y1511D02*
X110Y1511D01*
X64Y1510D02*
X109Y1510D01*
X63Y1509D02*
X108Y1509D01*
X62Y1508D02*
X73Y1508D01*
X62Y1507D02*
X72Y1507D01*
X61Y1506D02*
X71Y1506D01*
X61Y1505D02*
X71Y1505D01*
X61Y1504D02*
X70Y1504D01*
X60Y1503D02*
X69Y1503D01*
X60Y1502D02*
X68Y1502D01*
X60Y1501D02*
X68Y1501D01*
X61Y1500D02*
X73Y1500D01*
X61Y1499D02*
X101Y1499D01*
X61Y1498D02*
X108Y1498D01*
X62Y1497D02*
X109Y1497D01*
X62Y1496D02*
X110Y1496D01*
X63Y1495D02*
X110Y1495D01*
X64Y1494D02*
X110Y1494D01*
X65Y1493D02*
X110Y1493D01*
X67Y1492D02*
X109Y1492D01*
X73Y1491D02*
X109Y1491D01*
X100Y1490D02*
X107Y1490D01*
X62Y1465D02*
X66Y1465D01*
X104Y1465D02*
X108Y1465D01*
X61Y1464D02*
X67Y1464D01*
X103Y1464D02*
X109Y1464D01*
X61Y1463D02*
X68Y1463D01*
X102Y1463D02*
X110Y1463D01*
X60Y1462D02*
X68Y1462D01*
X102Y1462D02*
X110Y1462D01*
X60Y1461D02*
X68Y1461D01*
X102Y1461D02*
X110Y1461D01*
X60Y1460D02*
X68Y1460D01*
X102Y1460D02*
X110Y1460D01*
X60Y1459D02*
X68Y1459D01*
X102Y1459D02*
X110Y1459D01*
X60Y1458D02*
X68Y1458D01*
X102Y1458D02*
X110Y1458D01*
X60Y1457D02*
X68Y1457D01*
X102Y1457D02*
X110Y1457D01*
X39Y1456D02*
X47Y1456D01*
X60Y1456D02*
X68Y1456D01*
X102Y1456D02*
X110Y1456D01*
X38Y1455D02*
X48Y1455D01*
X60Y1455D02*
X68Y1455D01*
X102Y1455D02*
X110Y1455D01*
X38Y1454D02*
X49Y1454D01*
X60Y1454D02*
X68Y1454D01*
X102Y1454D02*
X110Y1454D01*
X37Y1453D02*
X49Y1453D01*
X60Y1453D02*
X68Y1453D01*
X102Y1453D02*
X110Y1453D01*
X37Y1452D02*
X49Y1452D01*
X60Y1452D02*
X110Y1452D01*
X37Y1451D02*
X49Y1451D01*
X60Y1451D02*
X110Y1451D01*
X37Y1450D02*
X49Y1450D01*
X60Y1450D02*
X110Y1450D01*
X37Y1449D02*
X49Y1449D01*
X60Y1449D02*
X110Y1449D01*
X37Y1448D02*
X49Y1448D01*
X60Y1448D02*
X110Y1448D01*
X37Y1447D02*
X49Y1447D01*
X60Y1447D02*
X110Y1447D01*
X38Y1446D02*
X49Y1446D01*
X61Y1446D02*
X110Y1446D01*
X38Y1445D02*
X48Y1445D01*
X61Y1445D02*
X110Y1445D01*
X39Y1444D02*
X47Y1444D01*
X62Y1444D02*
X110Y1444D01*
X172Y1444D02*
X175Y1444D01*
X102Y1443D02*
X110Y1443D01*
X167Y1443D02*
X179Y1443D01*
X102Y1442D02*
X110Y1442D01*
X165Y1442D02*
X182Y1442D01*
X102Y1441D02*
X110Y1441D01*
X163Y1441D02*
X184Y1441D01*
X102Y1440D02*
X110Y1440D01*
X161Y1440D02*
X186Y1440D01*
X102Y1439D02*
X110Y1439D01*
X159Y1439D02*
X188Y1439D01*
X102Y1438D02*
X110Y1438D01*
X157Y1438D02*
X190Y1438D01*
X102Y1437D02*
X110Y1437D01*
X154Y1437D02*
X192Y1437D01*
X102Y1436D02*
X110Y1436D01*
X152Y1436D02*
X194Y1436D01*
X102Y1435D02*
X110Y1435D01*
X150Y1435D02*
X196Y1435D01*
X102Y1434D02*
X110Y1434D01*
X148Y1434D02*
X168Y1434D01*
X178Y1434D02*
X198Y1434D01*
X102Y1433D02*
X110Y1433D01*
X146Y1433D02*
X166Y1433D01*
X181Y1433D02*
X200Y1433D01*
X103Y1432D02*
X109Y1432D01*
X145Y1432D02*
X164Y1432D01*
X183Y1432D02*
X202Y1432D01*
X104Y1431D02*
X108Y1431D01*
X143Y1431D02*
X162Y1431D01*
X184Y1431D02*
X203Y1431D01*
X106Y1430D02*
X106Y1430D01*
X142Y1430D02*
X160Y1430D01*
X186Y1430D02*
X204Y1430D01*
X141Y1429D02*
X158Y1429D01*
X188Y1429D02*
X205Y1429D01*
X141Y1428D02*
X156Y1428D01*
X190Y1428D02*
X206Y1428D01*
X140Y1427D02*
X154Y1427D01*
X192Y1427D02*
X206Y1427D01*
X140Y1426D02*
X152Y1426D01*
X194Y1426D02*
X207Y1426D01*
X139Y1425D02*
X150Y1425D01*
X196Y1425D02*
X207Y1425D01*
X139Y1424D02*
X148Y1424D01*
X198Y1424D02*
X208Y1424D01*
X139Y1423D02*
X147Y1423D01*
X199Y1423D02*
X208Y1423D01*
X139Y1422D02*
X147Y1422D01*
X200Y1422D02*
X208Y1422D01*
X138Y1421D02*
X147Y1421D01*
X200Y1421D02*
X208Y1421D01*
X138Y1420D02*
X147Y1420D01*
X200Y1420D02*
X208Y1420D01*
X138Y1419D02*
X147Y1419D01*
X200Y1419D02*
X208Y1419D01*
X138Y1418D02*
X147Y1418D01*
X200Y1418D02*
X208Y1418D01*
X138Y1417D02*
X147Y1417D01*
X200Y1417D02*
X208Y1417D01*
X138Y1416D02*
X147Y1416D01*
X200Y1416D02*
X208Y1416D01*
X138Y1415D02*
X147Y1415D01*
X200Y1415D02*
X208Y1415D01*
X138Y1414D02*
X147Y1414D01*
X200Y1414D02*
X208Y1414D01*
X138Y1413D02*
X147Y1413D01*
X200Y1413D02*
X208Y1413D01*
X138Y1412D02*
X147Y1412D01*
X200Y1412D02*
X208Y1412D01*
X138Y1411D02*
X147Y1411D01*
X200Y1411D02*
X208Y1411D01*
X138Y1410D02*
X147Y1410D01*
X200Y1410D02*
X208Y1410D01*
X138Y1409D02*
X147Y1409D01*
X200Y1409D02*
X208Y1409D01*
X138Y1408D02*
X147Y1408D01*
X200Y1408D02*
X208Y1408D01*
X138Y1407D02*
X147Y1407D01*
X200Y1407D02*
X208Y1407D01*
X138Y1406D02*
X147Y1406D01*
X200Y1406D02*
X208Y1406D01*
X78Y1405D02*
X92Y1405D01*
X138Y1405D02*
X147Y1405D01*
X200Y1405D02*
X208Y1405D01*
X75Y1404D02*
X96Y1404D01*
X138Y1404D02*
X147Y1404D01*
X200Y1404D02*
X208Y1404D01*
X73Y1403D02*
X97Y1403D01*
X138Y1403D02*
X146Y1403D01*
X200Y1403D02*
X208Y1403D01*
X72Y1402D02*
X99Y1402D01*
X139Y1402D02*
X146Y1402D01*
X200Y1402D02*
X208Y1402D01*
X70Y1401D02*
X100Y1401D01*
X139Y1401D02*
X146Y1401D01*
X201Y1401D02*
X207Y1401D01*
X70Y1400D02*
X101Y1400D01*
X140Y1400D02*
X145Y1400D01*
X202Y1400D02*
X207Y1400D01*
X69Y1399D02*
X102Y1399D01*
X142Y1399D02*
X143Y1399D01*
X204Y1399D02*
X204Y1399D01*
X68Y1398D02*
X102Y1398D01*
X67Y1397D02*
X103Y1397D01*
X66Y1396D02*
X78Y1396D01*
X91Y1396D02*
X104Y1396D01*
X65Y1395D02*
X76Y1395D01*
X94Y1395D02*
X105Y1395D01*
X64Y1394D02*
X75Y1394D01*
X95Y1394D02*
X106Y1394D01*
X63Y1393D02*
X75Y1393D01*
X96Y1393D02*
X107Y1393D01*
X63Y1392D02*
X74Y1392D01*
X97Y1392D02*
X107Y1392D01*
X62Y1391D02*
X73Y1391D01*
X97Y1391D02*
X108Y1391D01*
X62Y1390D02*
X72Y1390D01*
X98Y1390D02*
X109Y1390D01*
X61Y1389D02*
X71Y1389D01*
X99Y1389D02*
X109Y1389D01*
X61Y1388D02*
X70Y1388D01*
X100Y1388D02*
X110Y1388D01*
X60Y1387D02*
X69Y1387D01*
X101Y1387D02*
X110Y1387D01*
X60Y1386D02*
X69Y1386D01*
X101Y1386D02*
X110Y1386D01*
X60Y1385D02*
X68Y1385D01*
X102Y1385D02*
X110Y1385D01*
X60Y1384D02*
X68Y1384D01*
X102Y1384D02*
X110Y1384D01*
X60Y1383D02*
X68Y1383D01*
X102Y1383D02*
X110Y1383D01*
X60Y1382D02*
X68Y1382D01*
X102Y1382D02*
X110Y1382D01*
X60Y1381D02*
X68Y1381D01*
X102Y1381D02*
X110Y1381D01*
X60Y1380D02*
X68Y1380D01*
X102Y1380D02*
X110Y1380D01*
X60Y1379D02*
X68Y1379D01*
X102Y1379D02*
X110Y1379D01*
X60Y1378D02*
X68Y1378D01*
X102Y1378D02*
X110Y1378D01*
X187Y1378D02*
X198Y1378D01*
X60Y1377D02*
X68Y1377D01*
X102Y1377D02*
X110Y1377D01*
X184Y1377D02*
X201Y1377D01*
X60Y1376D02*
X68Y1376D01*
X102Y1376D02*
X110Y1376D01*
X183Y1376D02*
X202Y1376D01*
X60Y1375D02*
X68Y1375D01*
X102Y1375D02*
X110Y1375D01*
X182Y1375D02*
X204Y1375D01*
X60Y1374D02*
X68Y1374D01*
X102Y1374D02*
X110Y1374D01*
X181Y1374D02*
X205Y1374D01*
X60Y1373D02*
X68Y1373D01*
X102Y1373D02*
X110Y1373D01*
X180Y1373D02*
X205Y1373D01*
X60Y1372D02*
X68Y1372D01*
X102Y1372D02*
X110Y1372D01*
X179Y1372D02*
X206Y1372D01*
X60Y1371D02*
X68Y1371D01*
X102Y1371D02*
X110Y1371D01*
X178Y1371D02*
X207Y1371D01*
X60Y1370D02*
X68Y1370D01*
X102Y1370D02*
X110Y1370D01*
X178Y1370D02*
X207Y1370D01*
X60Y1369D02*
X68Y1369D01*
X102Y1369D02*
X110Y1369D01*
X160Y1369D02*
X163Y1369D01*
X178Y1369D02*
X188Y1369D01*
X197Y1369D02*
X208Y1369D01*
X60Y1368D02*
X68Y1368D01*
X102Y1368D02*
X110Y1368D01*
X159Y1368D02*
X165Y1368D01*
X177Y1368D02*
X187Y1368D01*
X199Y1368D02*
X208Y1368D01*
X60Y1367D02*
X68Y1367D01*
X102Y1367D02*
X110Y1367D01*
X158Y1367D02*
X165Y1367D01*
X177Y1367D02*
X186Y1367D01*
X199Y1367D02*
X208Y1367D01*
X60Y1366D02*
X68Y1366D01*
X102Y1366D02*
X110Y1366D01*
X158Y1366D02*
X166Y1366D01*
X177Y1366D02*
X185Y1366D01*
X200Y1366D02*
X208Y1366D01*
X60Y1365D02*
X68Y1365D01*
X102Y1365D02*
X110Y1365D01*
X158Y1365D02*
X166Y1365D01*
X177Y1365D02*
X185Y1365D01*
X200Y1365D02*
X208Y1365D01*
X60Y1364D02*
X68Y1364D01*
X102Y1364D02*
X110Y1364D01*
X158Y1364D02*
X166Y1364D01*
X177Y1364D02*
X185Y1364D01*
X200Y1364D02*
X208Y1364D01*
X61Y1363D02*
X68Y1363D01*
X103Y1363D02*
X110Y1363D01*
X158Y1363D02*
X166Y1363D01*
X177Y1363D02*
X185Y1363D01*
X200Y1363D02*
X208Y1363D01*
X61Y1362D02*
X67Y1362D01*
X103Y1362D02*
X109Y1362D01*
X158Y1362D02*
X166Y1362D01*
X177Y1362D02*
X185Y1362D01*
X200Y1362D02*
X208Y1362D01*
X62Y1361D02*
X66Y1361D01*
X104Y1361D02*
X108Y1361D01*
X158Y1361D02*
X166Y1361D01*
X177Y1361D02*
X185Y1361D01*
X200Y1361D02*
X208Y1361D01*
X158Y1360D02*
X166Y1360D01*
X177Y1360D02*
X185Y1360D01*
X200Y1360D02*
X208Y1360D01*
X158Y1359D02*
X166Y1359D01*
X177Y1359D02*
X185Y1359D01*
X200Y1359D02*
X208Y1359D01*
X158Y1358D02*
X166Y1358D01*
X177Y1358D02*
X185Y1358D01*
X200Y1358D02*
X208Y1358D01*
X158Y1357D02*
X166Y1357D01*
X177Y1357D02*
X185Y1357D01*
X200Y1357D02*
X208Y1357D01*
X158Y1356D02*
X166Y1356D01*
X177Y1356D02*
X185Y1356D01*
X200Y1356D02*
X208Y1356D01*
X158Y1355D02*
X166Y1355D01*
X177Y1355D02*
X185Y1355D01*
X200Y1355D02*
X208Y1355D01*
X158Y1354D02*
X166Y1354D01*
X177Y1354D02*
X185Y1354D01*
X200Y1354D02*
X208Y1354D01*
X158Y1353D02*
X166Y1353D01*
X177Y1353D02*
X185Y1353D01*
X200Y1353D02*
X208Y1353D01*
X158Y1352D02*
X166Y1352D01*
X177Y1352D02*
X185Y1352D01*
X200Y1352D02*
X208Y1352D01*
X158Y1351D02*
X166Y1351D01*
X177Y1351D02*
X185Y1351D01*
X199Y1351D02*
X208Y1351D01*
X158Y1350D02*
X166Y1350D01*
X177Y1350D02*
X185Y1350D01*
X198Y1350D02*
X208Y1350D01*
X158Y1349D02*
X166Y1349D01*
X177Y1349D02*
X185Y1349D01*
X198Y1349D02*
X208Y1349D01*
X158Y1348D02*
X166Y1348D01*
X177Y1348D02*
X185Y1348D01*
X197Y1348D02*
X207Y1348D01*
X158Y1347D02*
X166Y1347D01*
X177Y1347D02*
X185Y1347D01*
X197Y1347D02*
X206Y1347D01*
X158Y1346D02*
X166Y1346D01*
X177Y1346D02*
X185Y1346D01*
X196Y1346D02*
X206Y1346D01*
X158Y1345D02*
X167Y1345D01*
X177Y1345D02*
X186Y1345D01*
X196Y1345D02*
X205Y1345D01*
X158Y1344D02*
X169Y1344D01*
X177Y1344D02*
X187Y1344D01*
X195Y1344D02*
X205Y1344D01*
X159Y1343D02*
X189Y1343D01*
X194Y1343D02*
X204Y1343D01*
X159Y1342D02*
X205Y1342D01*
X160Y1341D02*
X207Y1341D01*
X75Y1340D02*
X95Y1340D01*
X160Y1340D02*
X208Y1340D01*
X71Y1339D02*
X99Y1339D01*
X161Y1339D02*
X208Y1339D01*
X69Y1338D02*
X101Y1338D01*
X162Y1338D02*
X208Y1338D01*
X68Y1337D02*
X103Y1337D01*
X163Y1337D02*
X208Y1337D01*
X67Y1336D02*
X104Y1336D01*
X165Y1336D02*
X208Y1336D01*
X66Y1335D02*
X105Y1335D01*
X167Y1335D02*
X207Y1335D01*
X65Y1334D02*
X105Y1334D01*
X182Y1334D02*
X206Y1334D01*
X64Y1333D02*
X106Y1333D01*
X63Y1332D02*
X107Y1332D01*
X62Y1331D02*
X75Y1331D01*
X95Y1331D02*
X108Y1331D01*
X62Y1330D02*
X73Y1330D01*
X98Y1330D02*
X108Y1330D01*
X61Y1329D02*
X72Y1329D01*
X99Y1329D02*
X109Y1329D01*
X61Y1328D02*
X71Y1328D01*
X100Y1328D02*
X109Y1328D01*
X61Y1327D02*
X70Y1327D01*
X100Y1327D02*
X110Y1327D01*
X60Y1326D02*
X69Y1326D01*
X101Y1326D02*
X110Y1326D01*
X60Y1325D02*
X68Y1325D01*
X102Y1325D02*
X110Y1325D01*
X60Y1324D02*
X68Y1324D01*
X102Y1324D02*
X110Y1324D01*
X60Y1323D02*
X68Y1323D01*
X102Y1323D02*
X110Y1323D01*
X60Y1322D02*
X68Y1322D01*
X102Y1322D02*
X110Y1322D01*
X60Y1321D02*
X68Y1321D01*
X102Y1321D02*
X110Y1321D01*
X60Y1320D02*
X68Y1320D01*
X102Y1320D02*
X110Y1320D01*
X60Y1319D02*
X68Y1319D01*
X102Y1319D02*
X110Y1319D01*
X60Y1318D02*
X68Y1318D01*
X102Y1318D02*
X110Y1318D01*
X60Y1317D02*
X68Y1317D01*
X102Y1317D02*
X110Y1317D01*
X60Y1316D02*
X68Y1316D01*
X102Y1316D02*
X110Y1316D01*
X60Y1315D02*
X68Y1315D01*
X102Y1315D02*
X110Y1315D01*
X60Y1314D02*
X68Y1314D01*
X102Y1314D02*
X110Y1314D01*
X60Y1313D02*
X68Y1313D01*
X102Y1313D02*
X110Y1313D01*
X60Y1312D02*
X68Y1312D01*
X102Y1312D02*
X110Y1312D01*
X198Y1312D02*
X202Y1312D01*
X60Y1311D02*
X68Y1311D01*
X102Y1311D02*
X110Y1311D01*
X165Y1311D02*
X172Y1311D01*
X197Y1311D02*
X203Y1311D01*
X60Y1310D02*
X69Y1310D01*
X101Y1310D02*
X110Y1310D01*
X163Y1310D02*
X174Y1310D01*
X197Y1310D02*
X204Y1310D01*
X60Y1309D02*
X69Y1309D01*
X101Y1309D02*
X110Y1309D01*
X162Y1309D02*
X175Y1309D01*
X196Y1309D02*
X205Y1309D01*
X61Y1308D02*
X70Y1308D01*
X100Y1308D02*
X109Y1308D01*
X161Y1308D02*
X177Y1308D01*
X196Y1308D02*
X206Y1308D01*
X61Y1307D02*
X71Y1307D01*
X99Y1307D02*
X109Y1307D01*
X160Y1307D02*
X178Y1307D01*
X196Y1307D02*
X206Y1307D01*
X62Y1306D02*
X72Y1306D01*
X98Y1306D02*
X109Y1306D01*
X159Y1306D02*
X178Y1306D01*
X197Y1306D02*
X207Y1306D01*
X62Y1305D02*
X73Y1305D01*
X97Y1305D02*
X108Y1305D01*
X159Y1305D02*
X179Y1305D01*
X198Y1305D02*
X207Y1305D01*
X63Y1304D02*
X107Y1304D01*
X158Y1304D02*
X179Y1304D01*
X198Y1304D02*
X207Y1304D01*
X64Y1303D02*
X107Y1303D01*
X158Y1303D02*
X180Y1303D01*
X199Y1303D02*
X208Y1303D01*
X65Y1302D02*
X106Y1302D01*
X158Y1302D02*
X167Y1302D01*
X171Y1302D02*
X180Y1302D01*
X199Y1302D02*
X208Y1302D01*
X65Y1301D02*
X105Y1301D01*
X158Y1301D02*
X166Y1301D01*
X172Y1301D02*
X181Y1301D01*
X200Y1301D02*
X208Y1301D01*
X66Y1300D02*
X104Y1300D01*
X158Y1300D02*
X166Y1300D01*
X172Y1300D02*
X181Y1300D01*
X200Y1300D02*
X208Y1300D01*
X67Y1299D02*
X103Y1299D01*
X158Y1299D02*
X166Y1299D01*
X173Y1299D02*
X181Y1299D01*
X200Y1299D02*
X208Y1299D01*
X68Y1298D02*
X102Y1298D01*
X158Y1298D02*
X166Y1298D01*
X173Y1298D02*
X182Y1298D01*
X200Y1298D02*
X208Y1298D01*
X70Y1297D02*
X100Y1297D01*
X158Y1297D02*
X166Y1297D01*
X173Y1297D02*
X182Y1297D01*
X200Y1297D02*
X208Y1297D01*
X72Y1296D02*
X98Y1296D01*
X158Y1296D02*
X166Y1296D01*
X174Y1296D02*
X183Y1296D01*
X200Y1296D02*
X208Y1296D01*
X158Y1295D02*
X166Y1295D01*
X174Y1295D02*
X183Y1295D01*
X200Y1295D02*
X208Y1295D01*
X158Y1294D02*
X166Y1294D01*
X175Y1294D02*
X184Y1294D01*
X200Y1294D02*
X208Y1294D01*
X158Y1293D02*
X166Y1293D01*
X175Y1293D02*
X184Y1293D01*
X200Y1293D02*
X208Y1293D01*
X158Y1292D02*
X166Y1292D01*
X176Y1292D02*
X185Y1292D01*
X200Y1292D02*
X208Y1292D01*
X158Y1291D02*
X166Y1291D01*
X176Y1291D02*
X185Y1291D01*
X200Y1291D02*
X208Y1291D01*
X158Y1290D02*
X166Y1290D01*
X176Y1290D02*
X185Y1290D01*
X200Y1290D02*
X208Y1290D01*
X158Y1289D02*
X166Y1289D01*
X177Y1289D02*
X186Y1289D01*
X200Y1289D02*
X208Y1289D01*
X158Y1288D02*
X166Y1288D01*
X177Y1288D02*
X186Y1288D01*
X200Y1288D02*
X208Y1288D01*
X158Y1287D02*
X166Y1287D01*
X178Y1287D02*
X187Y1287D01*
X200Y1287D02*
X208Y1287D01*
X158Y1286D02*
X166Y1286D01*
X178Y1286D02*
X187Y1286D01*
X200Y1286D02*
X208Y1286D01*
X158Y1285D02*
X166Y1285D01*
X179Y1285D02*
X188Y1285D01*
X200Y1285D02*
X208Y1285D01*
X158Y1284D02*
X166Y1284D01*
X179Y1284D02*
X188Y1284D01*
X200Y1284D02*
X208Y1284D01*
X158Y1283D02*
X166Y1283D01*
X179Y1283D02*
X188Y1283D01*
X200Y1283D02*
X208Y1283D01*
X158Y1282D02*
X166Y1282D01*
X180Y1282D02*
X189Y1282D01*
X200Y1282D02*
X208Y1282D01*
X158Y1281D02*
X166Y1281D01*
X180Y1281D02*
X189Y1281D01*
X200Y1281D02*
X208Y1281D01*
X158Y1280D02*
X166Y1280D01*
X181Y1280D02*
X190Y1280D01*
X200Y1280D02*
X208Y1280D01*
X158Y1279D02*
X166Y1279D01*
X181Y1279D02*
X190Y1279D01*
X199Y1279D02*
X208Y1279D01*
X158Y1278D02*
X167Y1278D01*
X182Y1278D02*
X191Y1278D01*
X198Y1278D02*
X208Y1278D01*
X158Y1277D02*
X168Y1277D01*
X182Y1277D02*
X207Y1277D01*
X158Y1276D02*
X168Y1276D01*
X183Y1276D02*
X207Y1276D01*
X62Y1275D02*
X108Y1275D01*
X159Y1275D02*
X169Y1275D01*
X183Y1275D02*
X207Y1275D01*
X61Y1274D02*
X109Y1274D01*
X159Y1274D02*
X169Y1274D01*
X184Y1274D02*
X206Y1274D01*
X60Y1273D02*
X110Y1273D01*
X160Y1273D02*
X170Y1273D01*
X184Y1273D02*
X205Y1273D01*
X60Y1272D02*
X110Y1272D01*
X161Y1272D02*
X169Y1272D01*
X185Y1272D02*
X204Y1272D01*
X60Y1271D02*
X110Y1271D01*
X162Y1271D02*
X169Y1271D01*
X187Y1271D02*
X203Y1271D01*
X60Y1270D02*
X110Y1270D01*
X163Y1270D02*
X168Y1270D01*
X188Y1270D02*
X202Y1270D01*
X61Y1269D02*
X109Y1269D01*
X164Y1269D02*
X167Y1269D01*
X189Y1269D02*
X200Y1269D01*
X62Y1268D02*
X109Y1268D01*
X193Y1268D02*
X197Y1268D01*
X63Y1267D02*
X107Y1267D01*
X62Y1266D02*
X73Y1266D01*
X62Y1265D02*
X72Y1265D01*
X61Y1264D02*
X72Y1264D01*
X61Y1263D02*
X71Y1263D01*
X60Y1262D02*
X70Y1262D01*
X60Y1261D02*
X69Y1261D01*
X60Y1260D02*
X68Y1260D01*
X60Y1259D02*
X68Y1259D01*
X60Y1258D02*
X69Y1258D01*
X60Y1257D02*
X107Y1257D01*
X61Y1256D02*
X109Y1256D01*
X61Y1255D02*
X109Y1255D01*
X61Y1254D02*
X110Y1254D01*
X62Y1253D02*
X110Y1253D01*
X63Y1252D02*
X110Y1252D01*
X64Y1251D02*
X110Y1251D01*
X64Y1250D02*
X109Y1250D01*
X63Y1249D02*
X108Y1249D01*
X62Y1248D02*
X73Y1248D01*
X62Y1247D02*
X72Y1247D01*
X200Y1247D02*
X201Y1247D01*
X61Y1246D02*
X71Y1246D01*
X198Y1246D02*
X203Y1246D01*
X61Y1245D02*
X71Y1245D01*
X164Y1245D02*
X173Y1245D01*
X197Y1245D02*
X204Y1245D01*
X61Y1244D02*
X70Y1244D01*
X163Y1244D02*
X175Y1244D01*
X196Y1244D02*
X204Y1244D01*
X60Y1243D02*
X69Y1243D01*
X162Y1243D02*
X176Y1243D01*
X196Y1243D02*
X205Y1243D01*
X60Y1242D02*
X68Y1242D01*
X161Y1242D02*
X177Y1242D01*
X196Y1242D02*
X206Y1242D01*
X60Y1241D02*
X68Y1241D01*
X160Y1241D02*
X178Y1241D01*
X197Y1241D02*
X206Y1241D01*
X61Y1240D02*
X72Y1240D01*
X159Y1240D02*
X178Y1240D01*
X197Y1240D02*
X207Y1240D01*
X61Y1239D02*
X100Y1239D01*
X159Y1239D02*
X179Y1239D01*
X198Y1239D02*
X207Y1239D01*
X61Y1238D02*
X108Y1238D01*
X158Y1238D02*
X179Y1238D01*
X198Y1238D02*
X207Y1238D01*
X62Y1237D02*
X109Y1237D01*
X158Y1237D02*
X180Y1237D01*
X199Y1237D02*
X208Y1237D01*
X62Y1236D02*
X110Y1236D01*
X158Y1236D02*
X166Y1236D01*
X171Y1236D02*
X180Y1236D01*
X199Y1236D02*
X208Y1236D01*
X63Y1235D02*
X110Y1235D01*
X158Y1235D02*
X166Y1235D01*
X172Y1235D02*
X181Y1235D01*
X200Y1235D02*
X208Y1235D01*
X64Y1234D02*
X110Y1234D01*
X158Y1234D02*
X166Y1234D01*
X172Y1234D02*
X181Y1234D01*
X200Y1234D02*
X208Y1234D01*
X65Y1233D02*
X110Y1233D01*
X158Y1233D02*
X166Y1233D01*
X173Y1233D02*
X182Y1233D01*
X200Y1233D02*
X208Y1233D01*
X67Y1232D02*
X109Y1232D01*
X158Y1232D02*
X166Y1232D01*
X173Y1232D02*
X182Y1232D01*
X200Y1232D02*
X208Y1232D01*
X73Y1231D02*
X109Y1231D01*
X158Y1231D02*
X166Y1231D01*
X174Y1231D02*
X182Y1231D01*
X200Y1231D02*
X208Y1231D01*
X99Y1230D02*
X107Y1230D01*
X158Y1230D02*
X166Y1230D01*
X174Y1230D02*
X183Y1230D01*
X200Y1230D02*
X208Y1230D01*
X158Y1229D02*
X166Y1229D01*
X174Y1229D02*
X183Y1229D01*
X200Y1229D02*
X208Y1229D01*
X158Y1228D02*
X166Y1228D01*
X175Y1228D02*
X184Y1228D01*
X200Y1228D02*
X208Y1228D01*
X158Y1227D02*
X166Y1227D01*
X175Y1227D02*
X184Y1227D01*
X200Y1227D02*
X208Y1227D01*
X158Y1226D02*
X166Y1226D01*
X176Y1226D02*
X185Y1226D01*
X200Y1226D02*
X208Y1226D01*
X158Y1225D02*
X166Y1225D01*
X176Y1225D02*
X185Y1225D01*
X200Y1225D02*
X208Y1225D01*
X158Y1224D02*
X166Y1224D01*
X177Y1224D02*
X186Y1224D01*
X200Y1224D02*
X208Y1224D01*
X158Y1223D02*
X166Y1223D01*
X177Y1223D02*
X186Y1223D01*
X200Y1223D02*
X208Y1223D01*
X158Y1222D02*
X166Y1222D01*
X177Y1222D02*
X186Y1222D01*
X200Y1222D02*
X208Y1222D01*
X158Y1221D02*
X166Y1221D01*
X178Y1221D02*
X187Y1221D01*
X200Y1221D02*
X208Y1221D01*
X158Y1220D02*
X166Y1220D01*
X178Y1220D02*
X187Y1220D01*
X200Y1220D02*
X208Y1220D01*
X158Y1219D02*
X166Y1219D01*
X179Y1219D02*
X188Y1219D01*
X200Y1219D02*
X208Y1219D01*
X158Y1218D02*
X166Y1218D01*
X179Y1218D02*
X188Y1218D01*
X200Y1218D02*
X208Y1218D01*
X158Y1217D02*
X166Y1217D01*
X180Y1217D02*
X189Y1217D01*
X200Y1217D02*
X208Y1217D01*
X158Y1216D02*
X166Y1216D01*
X180Y1216D02*
X189Y1216D01*
X200Y1216D02*
X208Y1216D01*
X158Y1215D02*
X166Y1215D01*
X180Y1215D02*
X189Y1215D01*
X200Y1215D02*
X208Y1215D01*
X158Y1214D02*
X166Y1214D01*
X181Y1214D02*
X190Y1214D01*
X200Y1214D02*
X208Y1214D01*
X158Y1213D02*
X166Y1213D01*
X181Y1213D02*
X190Y1213D01*
X199Y1213D02*
X208Y1213D01*
X158Y1212D02*
X167Y1212D01*
X182Y1212D02*
X192Y1212D01*
X198Y1212D02*
X208Y1212D01*
X158Y1211D02*
X168Y1211D01*
X182Y1211D02*
X207Y1211D01*
X159Y1210D02*
X169Y1210D01*
X183Y1210D02*
X207Y1210D01*
X159Y1209D02*
X169Y1209D01*
X183Y1209D02*
X206Y1209D01*
X160Y1208D02*
X170Y1208D01*
X184Y1208D02*
X206Y1208D01*
X160Y1207D02*
X170Y1207D01*
X185Y1207D02*
X205Y1207D01*
X161Y1206D02*
X169Y1206D01*
X186Y1206D02*
X204Y1206D01*
X162Y1205D02*
X169Y1205D01*
X187Y1205D02*
X203Y1205D01*
X163Y1204D02*
X168Y1204D01*
X188Y1204D02*
X201Y1204D01*
X165Y1203D02*
X166Y1203D01*
X190Y1203D02*
X200Y1203D01*
X171Y1181D02*
X195Y1181D01*
X168Y1180D02*
X198Y1180D01*
X167Y1179D02*
X200Y1179D01*
X165Y1178D02*
X201Y1178D01*
X164Y1177D02*
X202Y1177D01*
X163Y1176D02*
X203Y1176D01*
X162Y1175D02*
X204Y1175D01*
X161Y1174D02*
X205Y1174D01*
X161Y1173D02*
X205Y1173D01*
X160Y1172D02*
X172Y1172D01*
X181Y1172D02*
X189Y1172D01*
X194Y1172D02*
X206Y1172D01*
X159Y1171D02*
X170Y1171D01*
X181Y1171D02*
X189Y1171D01*
X196Y1171D02*
X207Y1171D01*
X159Y1170D02*
X169Y1170D01*
X181Y1170D02*
X189Y1170D01*
X197Y1170D02*
X207Y1170D01*
X158Y1169D02*
X168Y1169D01*
X181Y1169D02*
X189Y1169D01*
X198Y1169D02*
X207Y1169D01*
X158Y1168D02*
X167Y1168D01*
X181Y1168D02*
X189Y1168D01*
X199Y1168D02*
X208Y1168D01*
X158Y1167D02*
X167Y1167D01*
X181Y1167D02*
X189Y1167D01*
X199Y1167D02*
X208Y1167D01*
X158Y1166D02*
X166Y1166D01*
X181Y1166D02*
X189Y1166D01*
X200Y1166D02*
X208Y1166D01*
X158Y1165D02*
X166Y1165D01*
X181Y1165D02*
X189Y1165D01*
X200Y1165D02*
X208Y1165D01*
X158Y1164D02*
X166Y1164D01*
X181Y1164D02*
X189Y1164D01*
X200Y1164D02*
X208Y1164D01*
X158Y1163D02*
X166Y1163D01*
X181Y1163D02*
X189Y1163D01*
X200Y1163D02*
X208Y1163D01*
X158Y1162D02*
X166Y1162D01*
X181Y1162D02*
X189Y1162D01*
X200Y1162D02*
X208Y1162D01*
X158Y1161D02*
X166Y1161D01*
X181Y1161D02*
X189Y1161D01*
X200Y1161D02*
X208Y1161D01*
X158Y1160D02*
X166Y1160D01*
X181Y1160D02*
X189Y1160D01*
X200Y1160D02*
X208Y1160D01*
X158Y1159D02*
X166Y1159D01*
X181Y1159D02*
X189Y1159D01*
X200Y1159D02*
X208Y1159D01*
X158Y1158D02*
X166Y1158D01*
X181Y1158D02*
X189Y1158D01*
X200Y1158D02*
X208Y1158D01*
X158Y1157D02*
X166Y1157D01*
X181Y1157D02*
X189Y1157D01*
X200Y1157D02*
X208Y1157D01*
X158Y1156D02*
X166Y1156D01*
X181Y1156D02*
X189Y1156D01*
X200Y1156D02*
X208Y1156D01*
X158Y1155D02*
X166Y1155D01*
X181Y1155D02*
X189Y1155D01*
X200Y1155D02*
X208Y1155D01*
X158Y1154D02*
X166Y1154D01*
X181Y1154D02*
X189Y1154D01*
X200Y1154D02*
X208Y1154D01*
X158Y1153D02*
X166Y1153D01*
X181Y1153D02*
X189Y1153D01*
X200Y1153D02*
X208Y1153D01*
X158Y1152D02*
X166Y1152D01*
X181Y1152D02*
X189Y1152D01*
X200Y1152D02*
X208Y1152D01*
X158Y1151D02*
X166Y1151D01*
X181Y1151D02*
X189Y1151D01*
X200Y1151D02*
X208Y1151D01*
X158Y1150D02*
X167Y1150D01*
X181Y1150D02*
X189Y1150D01*
X200Y1150D02*
X208Y1150D01*
X158Y1149D02*
X168Y1149D01*
X181Y1149D02*
X189Y1149D01*
X200Y1149D02*
X208Y1149D01*
X159Y1148D02*
X168Y1148D01*
X181Y1148D02*
X189Y1148D01*
X200Y1148D02*
X208Y1148D01*
X159Y1147D02*
X170Y1147D01*
X181Y1147D02*
X189Y1147D01*
X200Y1147D02*
X208Y1147D01*
X160Y1146D02*
X171Y1146D01*
X181Y1146D02*
X189Y1146D01*
X200Y1146D02*
X208Y1146D01*
X45Y1145D02*
X106Y1145D01*
X160Y1145D02*
X189Y1145D01*
X200Y1145D02*
X208Y1145D01*
X43Y1144D02*
X108Y1144D01*
X161Y1144D02*
X189Y1144D01*
X200Y1144D02*
X208Y1144D01*
X42Y1143D02*
X109Y1143D01*
X162Y1143D02*
X189Y1143D01*
X200Y1143D02*
X208Y1143D01*
X41Y1142D02*
X110Y1142D01*
X163Y1142D02*
X189Y1142D01*
X200Y1142D02*
X208Y1142D01*
X41Y1141D02*
X110Y1141D01*
X164Y1141D02*
X189Y1141D01*
X200Y1141D02*
X208Y1141D01*
X41Y1140D02*
X110Y1140D01*
X165Y1140D02*
X189Y1140D01*
X200Y1140D02*
X208Y1140D01*
X41Y1139D02*
X110Y1139D01*
X166Y1139D02*
X189Y1139D01*
X200Y1139D02*
X208Y1139D01*
X42Y1138D02*
X109Y1138D01*
X167Y1138D02*
X188Y1138D01*
X201Y1138D02*
X207Y1138D01*
X43Y1137D02*
X108Y1137D01*
X170Y1137D02*
X187Y1137D01*
X202Y1137D02*
X206Y1137D01*
X66Y1136D02*
X86Y1136D01*
X65Y1135D02*
X86Y1135D01*
X64Y1134D02*
X87Y1134D01*
X64Y1133D02*
X75Y1133D01*
X77Y1133D02*
X88Y1133D01*
X63Y1132D02*
X74Y1132D01*
X77Y1132D02*
X88Y1132D01*
X62Y1131D02*
X73Y1131D01*
X78Y1131D02*
X89Y1131D01*
X61Y1130D02*
X72Y1130D01*
X79Y1130D02*
X90Y1130D01*
X60Y1129D02*
X71Y1129D01*
X80Y1129D02*
X91Y1129D01*
X59Y1128D02*
X70Y1128D01*
X81Y1128D02*
X92Y1128D01*
X58Y1127D02*
X69Y1127D01*
X82Y1127D02*
X93Y1127D01*
X58Y1126D02*
X69Y1126D01*
X83Y1126D02*
X94Y1126D01*
X57Y1125D02*
X68Y1125D01*
X83Y1125D02*
X94Y1125D01*
X56Y1124D02*
X67Y1124D01*
X84Y1124D02*
X95Y1124D01*
X55Y1123D02*
X66Y1123D01*
X85Y1123D02*
X96Y1123D01*
X54Y1122D02*
X65Y1122D01*
X86Y1122D02*
X97Y1122D01*
X53Y1121D02*
X64Y1121D01*
X87Y1121D02*
X98Y1121D01*
X52Y1120D02*
X63Y1120D01*
X88Y1120D02*
X99Y1120D01*
X52Y1119D02*
X63Y1119D01*
X89Y1119D02*
X100Y1119D01*
X51Y1118D02*
X62Y1118D01*
X89Y1118D02*
X100Y1118D01*
X50Y1117D02*
X61Y1117D01*
X90Y1117D02*
X101Y1117D01*
X49Y1116D02*
X60Y1116D01*
X91Y1116D02*
X102Y1116D01*
X48Y1115D02*
X59Y1115D01*
X92Y1115D02*
X103Y1115D01*
X160Y1115D02*
X164Y1115D01*
X47Y1114D02*
X58Y1114D01*
X93Y1114D02*
X104Y1114D01*
X159Y1114D02*
X165Y1114D01*
X46Y1113D02*
X57Y1113D01*
X94Y1113D02*
X105Y1113D01*
X158Y1113D02*
X165Y1113D01*
X46Y1112D02*
X57Y1112D01*
X95Y1112D02*
X106Y1112D01*
X158Y1112D02*
X166Y1112D01*
X45Y1111D02*
X56Y1111D01*
X95Y1111D02*
X106Y1111D01*
X158Y1111D02*
X166Y1111D01*
X44Y1110D02*
X55Y1110D01*
X96Y1110D02*
X107Y1110D01*
X158Y1110D02*
X166Y1110D01*
X43Y1109D02*
X54Y1109D01*
X97Y1109D02*
X108Y1109D01*
X158Y1109D02*
X166Y1109D01*
X42Y1108D02*
X53Y1108D01*
X98Y1108D02*
X109Y1108D01*
X158Y1108D02*
X166Y1108D01*
X42Y1107D02*
X52Y1107D01*
X99Y1107D02*
X110Y1107D01*
X157Y1107D02*
X166Y1107D01*
X41Y1106D02*
X51Y1106D01*
X100Y1106D02*
X110Y1106D01*
X144Y1106D02*
X199Y1106D01*
X41Y1105D02*
X51Y1105D01*
X101Y1105D02*
X110Y1105D01*
X143Y1105D02*
X201Y1105D01*
X41Y1104D02*
X50Y1104D01*
X101Y1104D02*
X110Y1104D01*
X143Y1104D02*
X203Y1104D01*
X42Y1103D02*
X49Y1103D01*
X102Y1103D02*
X110Y1103D01*
X142Y1103D02*
X204Y1103D01*
X42Y1102D02*
X48Y1102D01*
X103Y1102D02*
X109Y1102D01*
X142Y1102D02*
X205Y1102D01*
X43Y1101D02*
X47Y1101D01*
X104Y1101D02*
X108Y1101D01*
X142Y1101D02*
X206Y1101D01*
X143Y1100D02*
X206Y1100D01*
X144Y1099D02*
X207Y1099D01*
X145Y1098D02*
X207Y1098D01*
X158Y1097D02*
X166Y1097D01*
X198Y1097D02*
X208Y1097D01*
X158Y1096D02*
X166Y1096D01*
X199Y1096D02*
X208Y1096D01*
X158Y1095D02*
X166Y1095D01*
X200Y1095D02*
X208Y1095D01*
X158Y1094D02*
X166Y1094D01*
X200Y1094D02*
X208Y1094D01*
X158Y1093D02*
X166Y1093D01*
X200Y1093D02*
X208Y1093D01*
X158Y1092D02*
X166Y1092D01*
X200Y1092D02*
X208Y1092D01*
X158Y1091D02*
X166Y1091D01*
X200Y1091D02*
X208Y1091D01*
X158Y1090D02*
X166Y1090D01*
X200Y1090D02*
X208Y1090D01*
X158Y1089D02*
X166Y1089D01*
X200Y1089D02*
X208Y1089D01*
X158Y1088D02*
X166Y1088D01*
X200Y1088D02*
X208Y1088D01*
X158Y1087D02*
X166Y1087D01*
X200Y1087D02*
X208Y1087D01*
X158Y1086D02*
X166Y1086D01*
X200Y1086D02*
X208Y1086D01*
X158Y1085D02*
X166Y1085D01*
X200Y1085D02*
X208Y1085D01*
X158Y1084D02*
X166Y1084D01*
X200Y1084D02*
X208Y1084D01*
X158Y1083D02*
X166Y1083D01*
X200Y1083D02*
X208Y1083D01*
X158Y1082D02*
X166Y1082D01*
X199Y1082D02*
X208Y1082D01*
X158Y1081D02*
X166Y1081D01*
X199Y1081D02*
X208Y1081D01*
X75Y1080D02*
X95Y1080D01*
X158Y1080D02*
X166Y1080D01*
X197Y1080D02*
X208Y1080D01*
X71Y1079D02*
X99Y1079D01*
X158Y1079D02*
X166Y1079D01*
X195Y1079D02*
X207Y1079D01*
X69Y1078D02*
X101Y1078D01*
X158Y1078D02*
X165Y1078D01*
X194Y1078D02*
X207Y1078D01*
X68Y1077D02*
X103Y1077D01*
X159Y1077D02*
X165Y1077D01*
X193Y1077D02*
X206Y1077D01*
X67Y1076D02*
X104Y1076D01*
X160Y1076D02*
X164Y1076D01*
X192Y1076D02*
X205Y1076D01*
X66Y1075D02*
X105Y1075D01*
X192Y1075D02*
X205Y1075D01*
X65Y1074D02*
X105Y1074D01*
X193Y1074D02*
X204Y1074D01*
X64Y1073D02*
X106Y1073D01*
X193Y1073D02*
X202Y1073D01*
X63Y1072D02*
X107Y1072D01*
X194Y1072D02*
X201Y1072D01*
X62Y1071D02*
X75Y1071D01*
X83Y1071D02*
X91Y1071D01*
X95Y1071D02*
X108Y1071D01*
X195Y1071D02*
X198Y1071D01*
X62Y1070D02*
X73Y1070D01*
X83Y1070D02*
X91Y1070D01*
X98Y1070D02*
X108Y1070D01*
X61Y1069D02*
X72Y1069D01*
X83Y1069D02*
X91Y1069D01*
X99Y1069D02*
X109Y1069D01*
X61Y1068D02*
X71Y1068D01*
X83Y1068D02*
X91Y1068D01*
X100Y1068D02*
X109Y1068D01*
X61Y1067D02*
X70Y1067D01*
X83Y1067D02*
X91Y1067D01*
X100Y1067D02*
X110Y1067D01*
X60Y1066D02*
X69Y1066D01*
X83Y1066D02*
X91Y1066D01*
X101Y1066D02*
X110Y1066D01*
X60Y1065D02*
X68Y1065D01*
X83Y1065D02*
X91Y1065D01*
X102Y1065D02*
X110Y1065D01*
X60Y1064D02*
X68Y1064D01*
X83Y1064D02*
X91Y1064D01*
X102Y1064D02*
X110Y1064D01*
X60Y1063D02*
X68Y1063D01*
X83Y1063D02*
X91Y1063D01*
X102Y1063D02*
X110Y1063D01*
X60Y1062D02*
X68Y1062D01*
X83Y1062D02*
X91Y1062D01*
X102Y1062D02*
X110Y1062D01*
X60Y1061D02*
X68Y1061D01*
X83Y1061D02*
X91Y1061D01*
X102Y1061D02*
X110Y1061D01*
X60Y1060D02*
X68Y1060D01*
X83Y1060D02*
X91Y1060D01*
X102Y1060D02*
X110Y1060D01*
X60Y1059D02*
X68Y1059D01*
X83Y1059D02*
X91Y1059D01*
X102Y1059D02*
X110Y1059D01*
X60Y1058D02*
X68Y1058D01*
X83Y1058D02*
X91Y1058D01*
X102Y1058D02*
X110Y1058D01*
X60Y1057D02*
X68Y1057D01*
X83Y1057D02*
X91Y1057D01*
X102Y1057D02*
X110Y1057D01*
X60Y1056D02*
X68Y1056D01*
X83Y1056D02*
X91Y1056D01*
X102Y1056D02*
X110Y1056D01*
X60Y1055D02*
X68Y1055D01*
X83Y1055D02*
X91Y1055D01*
X102Y1055D02*
X110Y1055D01*
X60Y1054D02*
X68Y1054D01*
X83Y1054D02*
X91Y1054D01*
X102Y1054D02*
X110Y1054D01*
X60Y1053D02*
X68Y1053D01*
X83Y1053D02*
X91Y1053D01*
X102Y1053D02*
X110Y1053D01*
X60Y1052D02*
X68Y1052D01*
X83Y1052D02*
X91Y1052D01*
X102Y1052D02*
X110Y1052D01*
X60Y1051D02*
X68Y1051D01*
X83Y1051D02*
X91Y1051D01*
X102Y1051D02*
X110Y1051D01*
X60Y1050D02*
X69Y1050D01*
X83Y1050D02*
X91Y1050D01*
X102Y1050D02*
X110Y1050D01*
X162Y1050D02*
X162Y1050D01*
X60Y1049D02*
X69Y1049D01*
X83Y1049D02*
X91Y1049D01*
X102Y1049D02*
X110Y1049D01*
X159Y1049D02*
X164Y1049D01*
X61Y1048D02*
X70Y1048D01*
X83Y1048D02*
X91Y1048D01*
X102Y1048D02*
X110Y1048D01*
X158Y1048D02*
X165Y1048D01*
X61Y1047D02*
X71Y1047D01*
X83Y1047D02*
X91Y1047D01*
X102Y1047D02*
X110Y1047D01*
X158Y1047D02*
X166Y1047D01*
X62Y1046D02*
X72Y1046D01*
X83Y1046D02*
X91Y1046D01*
X102Y1046D02*
X110Y1046D01*
X158Y1046D02*
X166Y1046D01*
X62Y1045D02*
X73Y1045D01*
X83Y1045D02*
X91Y1045D01*
X102Y1045D02*
X110Y1045D01*
X158Y1045D02*
X166Y1045D01*
X63Y1044D02*
X91Y1044D01*
X102Y1044D02*
X110Y1044D01*
X158Y1044D02*
X166Y1044D01*
X64Y1043D02*
X91Y1043D01*
X102Y1043D02*
X110Y1043D01*
X158Y1043D02*
X166Y1043D01*
X64Y1042D02*
X91Y1042D01*
X102Y1042D02*
X110Y1042D01*
X158Y1042D02*
X166Y1042D01*
X65Y1041D02*
X91Y1041D01*
X102Y1041D02*
X110Y1041D01*
X146Y1041D02*
X195Y1041D01*
X66Y1040D02*
X91Y1040D01*
X102Y1040D02*
X110Y1040D01*
X144Y1040D02*
X200Y1040D01*
X67Y1039D02*
X91Y1039D01*
X102Y1039D02*
X110Y1039D01*
X143Y1039D02*
X202Y1039D01*
X68Y1038D02*
X91Y1038D01*
X103Y1038D02*
X110Y1038D01*
X143Y1038D02*
X203Y1038D01*
X70Y1037D02*
X90Y1037D01*
X103Y1037D02*
X109Y1037D01*
X142Y1037D02*
X204Y1037D01*
X72Y1036D02*
X89Y1036D01*
X104Y1036D02*
X108Y1036D01*
X142Y1036D02*
X205Y1036D01*
X143Y1035D02*
X206Y1035D01*
X143Y1034D02*
X206Y1034D01*
X144Y1033D02*
X207Y1033D01*
X146Y1032D02*
X207Y1032D01*
X158Y1031D02*
X166Y1031D01*
X198Y1031D02*
X208Y1031D01*
X158Y1030D02*
X166Y1030D01*
X199Y1030D02*
X208Y1030D01*
X158Y1029D02*
X166Y1029D01*
X200Y1029D02*
X208Y1029D01*
X158Y1028D02*
X166Y1028D01*
X200Y1028D02*
X208Y1028D01*
X158Y1027D02*
X166Y1027D01*
X200Y1027D02*
X208Y1027D01*
X158Y1026D02*
X166Y1026D01*
X200Y1026D02*
X208Y1026D01*
X158Y1025D02*
X166Y1025D01*
X200Y1025D02*
X208Y1025D01*
X158Y1024D02*
X166Y1024D01*
X200Y1024D02*
X208Y1024D01*
X158Y1023D02*
X166Y1023D01*
X200Y1023D02*
X208Y1023D01*
X158Y1022D02*
X166Y1022D01*
X200Y1022D02*
X208Y1022D01*
X158Y1021D02*
X166Y1021D01*
X200Y1021D02*
X208Y1021D01*
X158Y1020D02*
X166Y1020D01*
X200Y1020D02*
X208Y1020D01*
X158Y1019D02*
X166Y1019D01*
X200Y1019D02*
X208Y1019D01*
X158Y1018D02*
X166Y1018D01*
X200Y1018D02*
X208Y1018D01*
X158Y1017D02*
X166Y1017D01*
X200Y1017D02*
X208Y1017D01*
X158Y1016D02*
X166Y1016D01*
X199Y1016D02*
X208Y1016D01*
X64Y1015D02*
X72Y1015D01*
X125Y1015D02*
X125Y1015D01*
X158Y1015D02*
X166Y1015D01*
X198Y1015D02*
X208Y1015D01*
X62Y1014D02*
X75Y1014D01*
X123Y1014D02*
X128Y1014D01*
X158Y1014D02*
X166Y1014D01*
X196Y1014D02*
X207Y1014D01*
X61Y1013D02*
X77Y1013D01*
X122Y1013D02*
X128Y1013D01*
X158Y1013D02*
X166Y1013D01*
X194Y1013D02*
X207Y1013D01*
X60Y1012D02*
X79Y1012D01*
X121Y1012D02*
X129Y1012D01*
X158Y1012D02*
X165Y1012D01*
X193Y1012D02*
X206Y1012D01*
X60Y1011D02*
X82Y1011D01*
X121Y1011D02*
X129Y1011D01*
X159Y1011D02*
X165Y1011D01*
X193Y1011D02*
X206Y1011D01*
X60Y1010D02*
X84Y1010D01*
X121Y1010D02*
X129Y1010D01*
X160Y1010D02*
X163Y1010D01*
X192Y1010D02*
X205Y1010D01*
X60Y1009D02*
X86Y1009D01*
X121Y1009D02*
X129Y1009D01*
X192Y1009D02*
X204Y1009D01*
X61Y1008D02*
X89Y1008D01*
X121Y1008D02*
X129Y1008D01*
X193Y1008D02*
X203Y1008D01*
X62Y1007D02*
X91Y1007D01*
X121Y1007D02*
X129Y1007D01*
X193Y1007D02*
X202Y1007D01*
X71Y1006D02*
X93Y1006D01*
X121Y1006D02*
X129Y1006D01*
X194Y1006D02*
X200Y1006D01*
X74Y1005D02*
X95Y1005D01*
X121Y1005D02*
X129Y1005D01*
X196Y1005D02*
X197Y1005D01*
X76Y1004D02*
X98Y1004D01*
X121Y1004D02*
X129Y1004D01*
X78Y1003D02*
X100Y1003D01*
X121Y1003D02*
X129Y1003D01*
X81Y1002D02*
X102Y1002D01*
X121Y1002D02*
X129Y1002D01*
X83Y1001D02*
X104Y1001D01*
X120Y1001D02*
X129Y1001D01*
X85Y1000D02*
X105Y1000D01*
X118Y1000D02*
X129Y1000D01*
X87Y999D02*
X106Y999D01*
X116Y999D02*
X129Y999D01*
X90Y998D02*
X106Y998D01*
X113Y998D02*
X129Y998D01*
X92Y997D02*
X106Y997D01*
X111Y997D02*
X129Y997D01*
X94Y996D02*
X106Y996D01*
X109Y996D02*
X129Y996D01*
X97Y995D02*
X128Y995D01*
X98Y994D02*
X126Y994D01*
X98Y993D02*
X124Y993D01*
X98Y992D02*
X122Y992D01*
X97Y991D02*
X119Y991D01*
X95Y990D02*
X117Y990D01*
X93Y989D02*
X115Y989D01*
X91Y988D02*
X112Y988D01*
X88Y987D02*
X110Y987D01*
X86Y986D02*
X108Y986D01*
X84Y985D02*
X106Y985D01*
X82Y984D02*
X103Y984D01*
X171Y984D02*
X195Y984D01*
X79Y983D02*
X101Y983D01*
X168Y983D02*
X198Y983D01*
X77Y982D02*
X99Y982D01*
X167Y982D02*
X200Y982D01*
X75Y981D02*
X96Y981D01*
X165Y981D02*
X201Y981D01*
X72Y980D02*
X94Y980D01*
X164Y980D02*
X202Y980D01*
X63Y979D02*
X92Y979D01*
X163Y979D02*
X203Y979D01*
X61Y978D02*
X90Y978D01*
X162Y978D02*
X204Y978D01*
X61Y977D02*
X87Y977D01*
X161Y977D02*
X204Y977D01*
X60Y976D02*
X85Y976D01*
X161Y976D02*
X205Y976D01*
X60Y975D02*
X83Y975D01*
X160Y975D02*
X172Y975D01*
X181Y975D02*
X189Y975D01*
X194Y975D02*
X206Y975D01*
X60Y974D02*
X80Y974D01*
X159Y974D02*
X170Y974D01*
X181Y974D02*
X189Y974D01*
X196Y974D02*
X207Y974D01*
X61Y973D02*
X78Y973D01*
X159Y973D02*
X169Y973D01*
X181Y973D02*
X189Y973D01*
X197Y973D02*
X207Y973D01*
X61Y972D02*
X76Y972D01*
X158Y972D02*
X168Y972D01*
X181Y972D02*
X189Y972D01*
X198Y972D02*
X207Y972D01*
X62Y971D02*
X74Y971D01*
X158Y971D02*
X167Y971D01*
X181Y971D02*
X189Y971D01*
X198Y971D02*
X208Y971D01*
X158Y970D02*
X167Y970D01*
X181Y970D02*
X189Y970D01*
X199Y970D02*
X208Y970D01*
X158Y969D02*
X166Y969D01*
X181Y969D02*
X189Y969D01*
X200Y969D02*
X208Y969D01*
X158Y968D02*
X166Y968D01*
X181Y968D02*
X189Y968D01*
X200Y968D02*
X208Y968D01*
X158Y967D02*
X166Y967D01*
X181Y967D02*
X189Y967D01*
X200Y967D02*
X208Y967D01*
X158Y966D02*
X166Y966D01*
X181Y966D02*
X189Y966D01*
X200Y966D02*
X208Y966D01*
X158Y965D02*
X166Y965D01*
X181Y965D02*
X189Y965D01*
X200Y965D02*
X208Y965D01*
X158Y964D02*
X166Y964D01*
X181Y964D02*
X189Y964D01*
X200Y964D02*
X208Y964D01*
X158Y963D02*
X166Y963D01*
X181Y963D02*
X189Y963D01*
X200Y963D02*
X208Y963D01*
X158Y962D02*
X166Y962D01*
X181Y962D02*
X189Y962D01*
X200Y962D02*
X208Y962D01*
X158Y961D02*
X166Y961D01*
X181Y961D02*
X189Y961D01*
X200Y961D02*
X208Y961D01*
X158Y960D02*
X166Y960D01*
X181Y960D02*
X189Y960D01*
X200Y960D02*
X208Y960D01*
X158Y959D02*
X166Y959D01*
X181Y959D02*
X189Y959D01*
X200Y959D02*
X208Y959D01*
X158Y958D02*
X166Y958D01*
X181Y958D02*
X189Y958D01*
X200Y958D02*
X208Y958D01*
X158Y957D02*
X166Y957D01*
X181Y957D02*
X189Y957D01*
X200Y957D02*
X208Y957D01*
X158Y956D02*
X166Y956D01*
X181Y956D02*
X189Y956D01*
X200Y956D02*
X208Y956D01*
X158Y955D02*
X166Y955D01*
X181Y955D02*
X189Y955D01*
X200Y955D02*
X208Y955D01*
X158Y954D02*
X166Y954D01*
X181Y954D02*
X189Y954D01*
X200Y954D02*
X208Y954D01*
X158Y953D02*
X167Y953D01*
X181Y953D02*
X189Y953D01*
X200Y953D02*
X208Y953D01*
X158Y952D02*
X168Y952D01*
X181Y952D02*
X189Y952D01*
X200Y952D02*
X208Y952D01*
X159Y951D02*
X168Y951D01*
X181Y951D02*
X189Y951D01*
X200Y951D02*
X208Y951D01*
X45Y950D02*
X106Y950D01*
X159Y950D02*
X170Y950D01*
X181Y950D02*
X189Y950D01*
X200Y950D02*
X208Y950D01*
X43Y949D02*
X108Y949D01*
X160Y949D02*
X171Y949D01*
X181Y949D02*
X189Y949D01*
X200Y949D02*
X208Y949D01*
X42Y948D02*
X109Y948D01*
X160Y948D02*
X189Y948D01*
X200Y948D02*
X208Y948D01*
X41Y947D02*
X110Y947D01*
X161Y947D02*
X189Y947D01*
X200Y947D02*
X208Y947D01*
X41Y946D02*
X110Y946D01*
X162Y946D02*
X189Y946D01*
X200Y946D02*
X208Y946D01*
X41Y945D02*
X110Y945D01*
X163Y945D02*
X189Y945D01*
X200Y945D02*
X208Y945D01*
X41Y944D02*
X110Y944D01*
X164Y944D02*
X189Y944D01*
X200Y944D02*
X208Y944D01*
X42Y943D02*
X109Y943D01*
X165Y943D02*
X189Y943D01*
X200Y943D02*
X208Y943D01*
X43Y942D02*
X108Y942D01*
X166Y942D02*
X189Y942D01*
X200Y942D02*
X208Y942D01*
X65Y941D02*
X79Y941D01*
X91Y941D02*
X105Y941D01*
X167Y941D02*
X188Y941D01*
X201Y941D02*
X207Y941D01*
X65Y940D02*
X76Y940D01*
X94Y940D02*
X105Y940D01*
X169Y940D02*
X187Y940D01*
X202Y940D02*
X206Y940D01*
X64Y939D02*
X75Y939D01*
X95Y939D02*
X106Y939D01*
X63Y938D02*
X75Y938D01*
X96Y938D02*
X107Y938D01*
X63Y937D02*
X74Y937D01*
X96Y937D02*
X108Y937D01*
X62Y936D02*
X73Y936D01*
X97Y936D02*
X108Y936D01*
X62Y935D02*
X72Y935D01*
X98Y935D02*
X109Y935D01*
X61Y934D02*
X71Y934D01*
X99Y934D02*
X109Y934D01*
X61Y933D02*
X70Y933D01*
X100Y933D02*
X109Y933D01*
X60Y932D02*
X69Y932D01*
X101Y932D02*
X110Y932D01*
X60Y931D02*
X69Y931D01*
X101Y931D02*
X110Y931D01*
X60Y930D02*
X68Y930D01*
X102Y930D02*
X110Y930D01*
X60Y929D02*
X68Y929D01*
X102Y929D02*
X110Y929D01*
X60Y928D02*
X68Y928D01*
X102Y928D02*
X110Y928D01*
X60Y927D02*
X68Y927D01*
X102Y927D02*
X110Y927D01*
X60Y926D02*
X68Y926D01*
X102Y926D02*
X110Y926D01*
X60Y925D02*
X68Y925D01*
X102Y925D02*
X110Y925D01*
X60Y924D02*
X68Y924D01*
X102Y924D02*
X110Y924D01*
X60Y923D02*
X68Y923D01*
X102Y923D02*
X110Y923D01*
X60Y922D02*
X68Y922D01*
X102Y922D02*
X110Y922D01*
X60Y921D02*
X68Y921D01*
X102Y921D02*
X110Y921D01*
X60Y920D02*
X69Y920D01*
X102Y920D02*
X110Y920D01*
X60Y919D02*
X69Y919D01*
X101Y919D02*
X110Y919D01*
X61Y918D02*
X70Y918D01*
X100Y918D02*
X109Y918D01*
X61Y917D02*
X71Y917D01*
X99Y917D02*
X109Y917D01*
X62Y916D02*
X72Y916D01*
X98Y916D02*
X109Y916D01*
X62Y915D02*
X73Y915D01*
X97Y915D02*
X108Y915D01*
X63Y914D02*
X107Y914D01*
X64Y913D02*
X107Y913D01*
X64Y912D02*
X106Y912D01*
X65Y911D02*
X105Y911D01*
X66Y910D02*
X104Y910D01*
X67Y909D02*
X103Y909D01*
X68Y908D02*
X102Y908D01*
X70Y907D02*
X100Y907D01*
X72Y906D02*
X98Y906D01*
X75Y885D02*
X95Y885D01*
X71Y884D02*
X99Y884D01*
X69Y883D02*
X101Y883D01*
X68Y882D02*
X103Y882D01*
X67Y881D02*
X104Y881D01*
X66Y880D02*
X104Y880D01*
X65Y879D02*
X105Y879D01*
X64Y878D02*
X106Y878D01*
X63Y877D02*
X107Y877D01*
X62Y876D02*
X75Y876D01*
X95Y876D02*
X108Y876D01*
X62Y875D02*
X73Y875D01*
X98Y875D02*
X108Y875D01*
X61Y874D02*
X72Y874D01*
X99Y874D02*
X109Y874D01*
X61Y873D02*
X71Y873D01*
X100Y873D02*
X109Y873D01*
X61Y872D02*
X70Y872D01*
X100Y872D02*
X110Y872D01*
X60Y871D02*
X69Y871D01*
X101Y871D02*
X110Y871D01*
X60Y870D02*
X68Y870D01*
X102Y870D02*
X110Y870D01*
X60Y869D02*
X68Y869D01*
X102Y869D02*
X110Y869D01*
X60Y868D02*
X68Y868D01*
X102Y868D02*
X110Y868D01*
X60Y867D02*
X68Y867D01*
X102Y867D02*
X110Y867D01*
X60Y866D02*
X68Y866D01*
X102Y866D02*
X110Y866D01*
X60Y865D02*
X68Y865D01*
X102Y865D02*
X110Y865D01*
X60Y864D02*
X68Y864D01*
X102Y864D02*
X110Y864D01*
X60Y863D02*
X68Y863D01*
X102Y863D02*
X110Y863D01*
X60Y862D02*
X68Y862D01*
X102Y862D02*
X110Y862D01*
X60Y861D02*
X68Y861D01*
X102Y861D02*
X110Y861D01*
X60Y860D02*
X68Y860D01*
X102Y860D02*
X110Y860D01*
X60Y859D02*
X68Y859D01*
X102Y859D02*
X110Y859D01*
X60Y858D02*
X68Y858D01*
X102Y858D02*
X110Y858D01*
X60Y857D02*
X68Y857D01*
X102Y857D02*
X110Y857D01*
X60Y856D02*
X68Y856D01*
X102Y856D02*
X110Y856D01*
X60Y855D02*
X69Y855D01*
X102Y855D02*
X110Y855D01*
X60Y854D02*
X69Y854D01*
X101Y854D02*
X110Y854D01*
X61Y853D02*
X70Y853D01*
X100Y853D02*
X109Y853D01*
X61Y852D02*
X71Y852D01*
X99Y852D02*
X109Y852D01*
X140Y852D02*
X145Y852D01*
X202Y852D02*
X206Y852D01*
X62Y851D02*
X72Y851D01*
X98Y851D02*
X109Y851D01*
X139Y851D02*
X146Y851D01*
X201Y851D02*
X207Y851D01*
X62Y850D02*
X73Y850D01*
X97Y850D02*
X108Y850D01*
X139Y850D02*
X146Y850D01*
X200Y850D02*
X208Y850D01*
X63Y849D02*
X107Y849D01*
X138Y849D02*
X146Y849D01*
X200Y849D02*
X208Y849D01*
X64Y848D02*
X107Y848D01*
X138Y848D02*
X147Y848D01*
X200Y848D02*
X208Y848D01*
X64Y847D02*
X106Y847D01*
X138Y847D02*
X147Y847D01*
X200Y847D02*
X208Y847D01*
X65Y846D02*
X105Y846D01*
X138Y846D02*
X147Y846D01*
X200Y846D02*
X208Y846D01*
X66Y845D02*
X104Y845D01*
X138Y845D02*
X147Y845D01*
X200Y845D02*
X208Y845D01*
X67Y844D02*
X103Y844D01*
X138Y844D02*
X147Y844D01*
X200Y844D02*
X208Y844D01*
X68Y843D02*
X102Y843D01*
X138Y843D02*
X147Y843D01*
X200Y843D02*
X208Y843D01*
X70Y842D02*
X100Y842D01*
X138Y842D02*
X147Y842D01*
X200Y842D02*
X208Y842D01*
X72Y841D02*
X98Y841D01*
X138Y841D02*
X147Y841D01*
X200Y841D02*
X208Y841D01*
X138Y840D02*
X147Y840D01*
X200Y840D02*
X208Y840D01*
X138Y839D02*
X147Y839D01*
X200Y839D02*
X208Y839D01*
X138Y838D02*
X147Y838D01*
X200Y838D02*
X208Y838D01*
X138Y837D02*
X147Y837D01*
X200Y837D02*
X208Y837D01*
X138Y836D02*
X147Y836D01*
X200Y836D02*
X208Y836D01*
X138Y835D02*
X208Y835D01*
X138Y834D02*
X208Y834D01*
X138Y833D02*
X208Y833D01*
X138Y832D02*
X208Y832D01*
X138Y831D02*
X208Y831D01*
X138Y830D02*
X208Y830D01*
X138Y829D02*
X208Y829D01*
X138Y828D02*
X208Y828D01*
X138Y827D02*
X208Y827D01*
X138Y826D02*
X208Y826D01*
X138Y825D02*
X147Y825D01*
X200Y825D02*
X208Y825D01*
X138Y824D02*
X147Y824D01*
X200Y824D02*
X208Y824D01*
X138Y823D02*
X147Y823D01*
X200Y823D02*
X208Y823D01*
X138Y822D02*
X147Y822D01*
X200Y822D02*
X208Y822D01*
X138Y821D02*
X147Y821D01*
X200Y821D02*
X208Y821D01*
X91Y820D02*
X98Y820D01*
X138Y820D02*
X147Y820D01*
X200Y820D02*
X208Y820D01*
X87Y819D02*
X102Y819D01*
X138Y819D02*
X147Y819D01*
X200Y819D02*
X208Y819D01*
X85Y818D02*
X104Y818D01*
X138Y818D02*
X147Y818D01*
X200Y818D02*
X208Y818D01*
X84Y817D02*
X105Y817D01*
X138Y817D02*
X147Y817D01*
X200Y817D02*
X208Y817D01*
X83Y816D02*
X106Y816D01*
X138Y816D02*
X147Y816D01*
X200Y816D02*
X208Y816D01*
X82Y815D02*
X107Y815D01*
X138Y815D02*
X147Y815D01*
X200Y815D02*
X208Y815D01*
X81Y814D02*
X108Y814D01*
X138Y814D02*
X147Y814D01*
X200Y814D02*
X208Y814D01*
X81Y813D02*
X108Y813D01*
X138Y813D02*
X147Y813D01*
X200Y813D02*
X208Y813D01*
X80Y812D02*
X109Y812D01*
X138Y812D02*
X146Y812D01*
X200Y812D02*
X208Y812D01*
X64Y811D02*
X65Y811D01*
X80Y811D02*
X92Y811D01*
X98Y811D02*
X109Y811D01*
X139Y811D02*
X146Y811D01*
X200Y811D02*
X208Y811D01*
X62Y810D02*
X67Y810D01*
X80Y810D02*
X89Y810D01*
X100Y810D02*
X110Y810D01*
X139Y810D02*
X146Y810D01*
X201Y810D02*
X207Y810D01*
X61Y809D02*
X67Y809D01*
X79Y809D02*
X88Y809D01*
X101Y809D02*
X110Y809D01*
X140Y809D02*
X145Y809D01*
X202Y809D02*
X207Y809D01*
X60Y808D02*
X68Y808D01*
X79Y808D02*
X87Y808D01*
X102Y808D02*
X110Y808D01*
X142Y808D02*
X143Y808D01*
X204Y808D02*
X205Y808D01*
X60Y807D02*
X68Y807D01*
X79Y807D02*
X87Y807D01*
X102Y807D02*
X110Y807D01*
X60Y806D02*
X68Y806D01*
X79Y806D02*
X87Y806D01*
X102Y806D02*
X110Y806D01*
X60Y805D02*
X68Y805D01*
X79Y805D02*
X87Y805D01*
X102Y805D02*
X110Y805D01*
X60Y804D02*
X68Y804D01*
X79Y804D02*
X87Y804D01*
X102Y804D02*
X110Y804D01*
X60Y803D02*
X68Y803D01*
X79Y803D02*
X87Y803D01*
X102Y803D02*
X110Y803D01*
X60Y802D02*
X68Y802D01*
X79Y802D02*
X87Y802D01*
X102Y802D02*
X110Y802D01*
X60Y801D02*
X68Y801D01*
X79Y801D02*
X87Y801D01*
X102Y801D02*
X110Y801D01*
X60Y800D02*
X68Y800D01*
X79Y800D02*
X87Y800D01*
X102Y800D02*
X110Y800D01*
X60Y799D02*
X68Y799D01*
X79Y799D02*
X87Y799D01*
X102Y799D02*
X110Y799D01*
X60Y798D02*
X68Y798D01*
X79Y798D02*
X87Y798D01*
X102Y798D02*
X110Y798D01*
X60Y797D02*
X68Y797D01*
X79Y797D02*
X87Y797D01*
X102Y797D02*
X110Y797D01*
X60Y796D02*
X68Y796D01*
X79Y796D02*
X87Y796D01*
X102Y796D02*
X110Y796D01*
X60Y795D02*
X68Y795D01*
X79Y795D02*
X87Y795D01*
X102Y795D02*
X110Y795D01*
X60Y794D02*
X68Y794D01*
X79Y794D02*
X87Y794D01*
X102Y794D02*
X110Y794D01*
X60Y793D02*
X68Y793D01*
X79Y793D02*
X87Y793D01*
X101Y793D02*
X110Y793D01*
X60Y792D02*
X68Y792D01*
X79Y792D02*
X87Y792D01*
X101Y792D02*
X110Y792D01*
X60Y791D02*
X68Y791D01*
X79Y791D02*
X87Y791D01*
X100Y791D02*
X109Y791D01*
X60Y790D02*
X68Y790D01*
X79Y790D02*
X87Y790D01*
X99Y790D02*
X109Y790D01*
X60Y789D02*
X68Y789D01*
X79Y789D02*
X87Y789D01*
X99Y789D02*
X108Y789D01*
X60Y788D02*
X69Y788D01*
X79Y788D02*
X88Y788D01*
X98Y788D02*
X108Y788D01*
X60Y787D02*
X69Y787D01*
X79Y787D02*
X88Y787D01*
X98Y787D02*
X107Y787D01*
X161Y787D02*
X205Y787D01*
X61Y786D02*
X71Y786D01*
X80Y786D02*
X89Y786D01*
X97Y786D02*
X107Y786D01*
X159Y786D02*
X207Y786D01*
X61Y785D02*
X91Y785D01*
X96Y785D02*
X106Y785D01*
X158Y785D02*
X208Y785D01*
X61Y784D02*
X107Y784D01*
X158Y784D02*
X208Y784D01*
X62Y783D02*
X109Y783D01*
X158Y783D02*
X208Y783D01*
X63Y782D02*
X110Y782D01*
X158Y782D02*
X208Y782D01*
X64Y781D02*
X110Y781D01*
X158Y781D02*
X208Y781D01*
X65Y780D02*
X110Y780D01*
X159Y780D02*
X207Y780D01*
X66Y779D02*
X110Y779D01*
X160Y779D02*
X206Y779D01*
X67Y778D02*
X110Y778D01*
X165Y778D02*
X175Y778D01*
X70Y777D02*
X109Y777D01*
X165Y777D02*
X175Y777D01*
X87Y776D02*
X108Y776D01*
X164Y776D02*
X174Y776D01*
X163Y775D02*
X173Y775D01*
X163Y774D02*
X173Y774D01*
X162Y773D02*
X172Y773D01*
X161Y772D02*
X171Y772D01*
X161Y771D02*
X171Y771D01*
X160Y770D02*
X170Y770D01*
X160Y769D02*
X169Y769D01*
X159Y768D02*
X169Y768D01*
X159Y767D02*
X168Y767D01*
X158Y766D02*
X167Y766D01*
X158Y765D02*
X167Y765D01*
X158Y764D02*
X166Y764D01*
X158Y763D02*
X166Y763D01*
X158Y762D02*
X166Y762D01*
X158Y761D02*
X166Y761D01*
X158Y760D02*
X166Y760D01*
X158Y759D02*
X166Y759D01*
X158Y758D02*
X166Y758D01*
X158Y757D02*
X166Y757D01*
X158Y756D02*
X166Y756D01*
X64Y755D02*
X106Y755D01*
X158Y755D02*
X166Y755D01*
X62Y754D02*
X108Y754D01*
X158Y754D02*
X167Y754D01*
X61Y753D02*
X109Y753D01*
X158Y753D02*
X168Y753D01*
X60Y752D02*
X110Y752D01*
X159Y752D02*
X184Y752D01*
X60Y751D02*
X110Y751D01*
X159Y751D02*
X205Y751D01*
X60Y750D02*
X110Y750D01*
X160Y750D02*
X207Y750D01*
X60Y749D02*
X110Y749D01*
X160Y749D02*
X208Y749D01*
X61Y748D02*
X109Y748D01*
X161Y748D02*
X208Y748D01*
X62Y747D02*
X108Y747D01*
X162Y747D02*
X208Y747D01*
X69Y746D02*
X81Y746D01*
X163Y746D02*
X208Y746D01*
X69Y745D02*
X80Y745D01*
X165Y745D02*
X208Y745D01*
X68Y744D02*
X79Y744D01*
X167Y744D02*
X207Y744D01*
X67Y743D02*
X78Y743D01*
X180Y743D02*
X206Y743D01*
X67Y742D02*
X78Y742D01*
X66Y741D02*
X77Y741D01*
X65Y740D02*
X76Y740D01*
X64Y739D02*
X75Y739D01*
X63Y738D02*
X74Y738D01*
X62Y737D02*
X73Y737D01*
X61Y736D02*
X72Y736D01*
X61Y735D02*
X72Y735D01*
X60Y734D02*
X71Y734D01*
X60Y733D02*
X70Y733D01*
X60Y732D02*
X69Y732D01*
X60Y731D02*
X68Y731D01*
X60Y730D02*
X68Y730D01*
X60Y729D02*
X68Y729D01*
X60Y728D02*
X68Y728D01*
X60Y727D02*
X68Y727D01*
X60Y726D02*
X68Y726D01*
X60Y725D02*
X68Y725D01*
X60Y724D02*
X68Y724D01*
X60Y723D02*
X68Y723D01*
X60Y722D02*
X69Y722D01*
X60Y721D02*
X69Y721D01*
X160Y721D02*
X164Y721D01*
X61Y720D02*
X70Y720D01*
X159Y720D02*
X165Y720D01*
X61Y719D02*
X77Y719D01*
X158Y719D02*
X165Y719D01*
X61Y718D02*
X78Y718D01*
X158Y718D02*
X166Y718D01*
X62Y717D02*
X79Y717D01*
X158Y717D02*
X166Y717D01*
X63Y716D02*
X79Y716D01*
X158Y716D02*
X166Y716D01*
X63Y715D02*
X80Y715D01*
X158Y715D02*
X166Y715D01*
X64Y714D02*
X79Y714D01*
X158Y714D02*
X166Y714D01*
X66Y713D02*
X79Y713D01*
X158Y713D02*
X166Y713D01*
X67Y712D02*
X78Y712D01*
X144Y712D02*
X199Y712D01*
X69Y711D02*
X77Y711D01*
X143Y711D02*
X201Y711D01*
X143Y710D02*
X203Y710D01*
X142Y709D02*
X204Y709D01*
X142Y708D02*
X205Y708D01*
X142Y707D02*
X206Y707D01*
X143Y706D02*
X206Y706D01*
X144Y705D02*
X207Y705D01*
X145Y704D02*
X207Y704D01*
X158Y703D02*
X166Y703D01*
X198Y703D02*
X208Y703D01*
X158Y702D02*
X166Y702D01*
X199Y702D02*
X208Y702D01*
X158Y701D02*
X166Y701D01*
X200Y701D02*
X208Y701D01*
X158Y700D02*
X166Y700D01*
X200Y700D02*
X208Y700D01*
X158Y699D02*
X166Y699D01*
X200Y699D02*
X208Y699D01*
X158Y698D02*
X166Y698D01*
X200Y698D02*
X208Y698D01*
X158Y697D02*
X166Y697D01*
X200Y697D02*
X208Y697D01*
X158Y696D02*
X166Y696D01*
X200Y696D02*
X208Y696D01*
X158Y695D02*
X166Y695D01*
X200Y695D02*
X208Y695D01*
X158Y694D02*
X166Y694D01*
X200Y694D02*
X208Y694D01*
X158Y693D02*
X166Y693D01*
X200Y693D02*
X208Y693D01*
X158Y692D02*
X166Y692D01*
X200Y692D02*
X208Y692D01*
X158Y691D02*
X166Y691D01*
X200Y691D02*
X208Y691D01*
X75Y690D02*
X95Y690D01*
X158Y690D02*
X166Y690D01*
X200Y690D02*
X208Y690D01*
X71Y689D02*
X99Y689D01*
X158Y689D02*
X166Y689D01*
X200Y689D02*
X208Y689D01*
X69Y688D02*
X101Y688D01*
X158Y688D02*
X166Y688D01*
X199Y688D02*
X208Y688D01*
X68Y687D02*
X102Y687D01*
X158Y687D02*
X166Y687D01*
X199Y687D02*
X208Y687D01*
X67Y686D02*
X104Y686D01*
X158Y686D02*
X166Y686D01*
X197Y686D02*
X208Y686D01*
X66Y685D02*
X104Y685D01*
X158Y685D02*
X166Y685D01*
X195Y685D02*
X207Y685D01*
X65Y684D02*
X105Y684D01*
X158Y684D02*
X165Y684D01*
X194Y684D02*
X207Y684D01*
X64Y683D02*
X106Y683D01*
X159Y683D02*
X165Y683D01*
X193Y683D02*
X206Y683D01*
X63Y682D02*
X107Y682D01*
X160Y682D02*
X164Y682D01*
X192Y682D02*
X205Y682D01*
X63Y681D02*
X108Y681D01*
X192Y681D02*
X205Y681D01*
X62Y680D02*
X73Y680D01*
X98Y680D02*
X108Y680D01*
X193Y680D02*
X204Y680D01*
X61Y679D02*
X72Y679D01*
X99Y679D02*
X109Y679D01*
X193Y679D02*
X202Y679D01*
X61Y678D02*
X71Y678D01*
X100Y678D02*
X109Y678D01*
X194Y678D02*
X201Y678D01*
X61Y677D02*
X70Y677D01*
X100Y677D02*
X110Y677D01*
X195Y677D02*
X199Y677D01*
X60Y676D02*
X69Y676D01*
X101Y676D02*
X110Y676D01*
X60Y675D02*
X68Y675D01*
X102Y675D02*
X110Y675D01*
X60Y674D02*
X68Y674D01*
X102Y674D02*
X110Y674D01*
X60Y673D02*
X68Y673D01*
X102Y673D02*
X110Y673D01*
X60Y672D02*
X68Y672D01*
X102Y672D02*
X110Y672D01*
X60Y671D02*
X68Y671D01*
X102Y671D02*
X110Y671D01*
X60Y670D02*
X68Y670D01*
X102Y670D02*
X110Y670D01*
X60Y669D02*
X68Y669D01*
X102Y669D02*
X110Y669D01*
X60Y668D02*
X68Y668D01*
X102Y668D02*
X110Y668D01*
X60Y667D02*
X68Y667D01*
X102Y667D02*
X110Y667D01*
X60Y666D02*
X68Y666D01*
X102Y666D02*
X110Y666D01*
X60Y665D02*
X68Y665D01*
X102Y665D02*
X110Y665D01*
X60Y664D02*
X69Y664D01*
X101Y664D02*
X110Y664D01*
X61Y663D02*
X70Y663D01*
X100Y663D02*
X110Y663D01*
X61Y662D02*
X71Y662D01*
X99Y662D02*
X109Y662D01*
X61Y661D02*
X72Y661D01*
X99Y661D02*
X109Y661D01*
X62Y660D02*
X72Y660D01*
X98Y660D02*
X108Y660D01*
X62Y659D02*
X73Y659D01*
X97Y659D02*
X108Y659D01*
X63Y658D02*
X74Y658D01*
X96Y658D02*
X107Y658D01*
X64Y657D02*
X75Y657D01*
X95Y657D02*
X106Y657D01*
X65Y656D02*
X76Y656D01*
X94Y656D02*
X106Y656D01*
X174Y656D02*
X192Y656D01*
X66Y655D02*
X77Y655D01*
X93Y655D02*
X105Y655D01*
X169Y655D02*
X197Y655D01*
X44Y654D02*
X107Y654D01*
X167Y654D02*
X199Y654D01*
X42Y653D02*
X109Y653D01*
X166Y653D02*
X200Y653D01*
X42Y652D02*
X110Y652D01*
X164Y652D02*
X201Y652D01*
X41Y651D02*
X110Y651D01*
X164Y651D02*
X202Y651D01*
X41Y650D02*
X110Y650D01*
X163Y650D02*
X203Y650D01*
X41Y649D02*
X110Y649D01*
X162Y649D02*
X204Y649D01*
X42Y648D02*
X110Y648D01*
X161Y648D02*
X205Y648D01*
X42Y647D02*
X109Y647D01*
X160Y647D02*
X206Y647D01*
X43Y646D02*
X108Y646D01*
X160Y646D02*
X171Y646D01*
X181Y646D02*
X189Y646D01*
X195Y646D02*
X206Y646D01*
X159Y645D02*
X169Y645D01*
X181Y645D02*
X189Y645D01*
X197Y645D02*
X207Y645D01*
X159Y644D02*
X168Y644D01*
X181Y644D02*
X189Y644D01*
X197Y644D02*
X207Y644D01*
X158Y643D02*
X168Y643D01*
X181Y643D02*
X189Y643D01*
X198Y643D02*
X208Y643D01*
X158Y642D02*
X167Y642D01*
X181Y642D02*
X189Y642D01*
X199Y642D02*
X208Y642D01*
X158Y641D02*
X166Y641D01*
X181Y641D02*
X189Y641D01*
X200Y641D02*
X208Y641D01*
X158Y640D02*
X166Y640D01*
X181Y640D02*
X189Y640D01*
X200Y640D02*
X208Y640D01*
X158Y639D02*
X166Y639D01*
X181Y639D02*
X189Y639D01*
X200Y639D02*
X208Y639D01*
X158Y638D02*
X166Y638D01*
X181Y638D02*
X189Y638D01*
X200Y638D02*
X208Y638D01*
X158Y637D02*
X166Y637D01*
X181Y637D02*
X189Y637D01*
X200Y637D02*
X208Y637D01*
X158Y636D02*
X166Y636D01*
X181Y636D02*
X189Y636D01*
X200Y636D02*
X208Y636D01*
X158Y635D02*
X166Y635D01*
X181Y635D02*
X189Y635D01*
X200Y635D02*
X208Y635D01*
X158Y634D02*
X166Y634D01*
X181Y634D02*
X189Y634D01*
X200Y634D02*
X208Y634D01*
X158Y633D02*
X166Y633D01*
X181Y633D02*
X189Y633D01*
X200Y633D02*
X208Y633D01*
X158Y632D02*
X166Y632D01*
X181Y632D02*
X189Y632D01*
X200Y632D02*
X208Y632D01*
X158Y631D02*
X166Y631D01*
X181Y631D02*
X189Y631D01*
X200Y631D02*
X208Y631D01*
X158Y630D02*
X166Y630D01*
X181Y630D02*
X189Y630D01*
X200Y630D02*
X208Y630D01*
X158Y629D02*
X166Y629D01*
X181Y629D02*
X189Y629D01*
X200Y629D02*
X208Y629D01*
X158Y628D02*
X166Y628D01*
X181Y628D02*
X189Y628D01*
X200Y628D02*
X208Y628D01*
X158Y627D02*
X166Y627D01*
X181Y627D02*
X189Y627D01*
X200Y627D02*
X208Y627D01*
X158Y626D02*
X166Y626D01*
X181Y626D02*
X189Y626D01*
X200Y626D02*
X208Y626D01*
X158Y625D02*
X167Y625D01*
X181Y625D02*
X189Y625D01*
X200Y625D02*
X208Y625D01*
X158Y624D02*
X167Y624D01*
X181Y624D02*
X189Y624D01*
X200Y624D02*
X208Y624D01*
X158Y623D02*
X168Y623D01*
X181Y623D02*
X189Y623D01*
X200Y623D02*
X208Y623D01*
X159Y622D02*
X169Y622D01*
X181Y622D02*
X189Y622D01*
X200Y622D02*
X208Y622D01*
X159Y621D02*
X170Y621D01*
X181Y621D02*
X189Y621D01*
X200Y621D02*
X208Y621D01*
X160Y620D02*
X173Y620D01*
X180Y620D02*
X189Y620D01*
X200Y620D02*
X208Y620D01*
X161Y619D02*
X189Y619D01*
X200Y619D02*
X208Y619D01*
X162Y618D02*
X189Y618D01*
X200Y618D02*
X208Y618D01*
X162Y617D02*
X189Y617D01*
X200Y617D02*
X208Y617D01*
X163Y616D02*
X189Y616D01*
X200Y616D02*
X208Y616D01*
X164Y615D02*
X189Y615D01*
X200Y615D02*
X208Y615D01*
X165Y614D02*
X189Y614D01*
X200Y614D02*
X208Y614D01*
X167Y613D02*
X188Y613D01*
X201Y613D02*
X207Y613D01*
X168Y612D02*
X187Y612D01*
X202Y612D02*
X207Y612D01*
X172Y611D02*
X185Y611D01*
X204Y611D02*
X205Y611D01*
X161Y590D02*
X205Y590D01*
X159Y589D02*
X207Y589D01*
X158Y588D02*
X208Y588D01*
X158Y587D02*
X208Y587D01*
X158Y586D02*
X208Y586D01*
X158Y585D02*
X208Y585D01*
X158Y584D02*
X208Y584D01*
X159Y583D02*
X207Y583D01*
X160Y582D02*
X206Y582D01*
X167Y581D02*
X179Y581D01*
X167Y580D02*
X178Y580D01*
X166Y579D02*
X177Y579D01*
X165Y578D02*
X176Y578D01*
X164Y577D02*
X175Y577D01*
X163Y576D02*
X174Y576D01*
X162Y575D02*
X173Y575D01*
X161Y574D02*
X173Y574D01*
X161Y573D02*
X172Y573D01*
X160Y572D02*
X171Y572D01*
X159Y571D02*
X170Y571D01*
X158Y570D02*
X169Y570D01*
X158Y569D02*
X168Y569D01*
X158Y568D02*
X167Y568D01*
X158Y567D02*
X167Y567D01*
X158Y566D02*
X166Y566D01*
X158Y565D02*
X166Y565D01*
X158Y564D02*
X166Y564D01*
X158Y563D02*
X166Y563D01*
X158Y562D02*
X166Y562D01*
X158Y561D02*
X166Y561D01*
X41Y560D02*
X110Y560D01*
X158Y560D02*
X166Y560D01*
X41Y559D02*
X110Y559D01*
X158Y559D02*
X166Y559D01*
X41Y558D02*
X110Y558D01*
X158Y558D02*
X166Y558D01*
X41Y557D02*
X110Y557D01*
X158Y557D02*
X166Y557D01*
X41Y556D02*
X110Y556D01*
X158Y556D02*
X167Y556D01*
X41Y555D02*
X110Y555D01*
X158Y555D02*
X168Y555D01*
X41Y554D02*
X110Y554D01*
X159Y554D02*
X174Y554D01*
X41Y553D02*
X110Y553D01*
X159Y553D02*
X176Y553D01*
X41Y552D02*
X110Y552D01*
X160Y552D02*
X177Y552D01*
X41Y551D02*
X110Y551D01*
X160Y551D02*
X177Y551D01*
X41Y550D02*
X49Y550D01*
X71Y550D02*
X80Y550D01*
X102Y550D02*
X110Y550D01*
X161Y550D02*
X177Y550D01*
X41Y549D02*
X49Y549D01*
X71Y549D02*
X80Y549D01*
X102Y549D02*
X110Y549D01*
X162Y549D02*
X177Y549D01*
X41Y548D02*
X49Y548D01*
X71Y548D02*
X80Y548D01*
X102Y548D02*
X110Y548D01*
X163Y548D02*
X177Y548D01*
X41Y547D02*
X49Y547D01*
X71Y547D02*
X80Y547D01*
X102Y547D02*
X110Y547D01*
X164Y547D02*
X176Y547D01*
X41Y546D02*
X49Y546D01*
X71Y546D02*
X80Y546D01*
X102Y546D02*
X110Y546D01*
X166Y546D02*
X175Y546D01*
X41Y545D02*
X49Y545D01*
X71Y545D02*
X80Y545D01*
X102Y545D02*
X110Y545D01*
X41Y544D02*
X49Y544D01*
X71Y544D02*
X80Y544D01*
X102Y544D02*
X110Y544D01*
X41Y543D02*
X49Y543D01*
X71Y543D02*
X80Y543D01*
X102Y543D02*
X110Y543D01*
X41Y542D02*
X49Y542D01*
X71Y542D02*
X80Y542D01*
X102Y542D02*
X110Y542D01*
X41Y541D02*
X49Y541D01*
X71Y541D02*
X80Y541D01*
X102Y541D02*
X110Y541D01*
X41Y540D02*
X49Y540D01*
X71Y540D02*
X80Y540D01*
X102Y540D02*
X110Y540D01*
X41Y539D02*
X49Y539D01*
X71Y539D02*
X80Y539D01*
X102Y539D02*
X110Y539D01*
X41Y538D02*
X49Y538D01*
X72Y538D02*
X80Y538D01*
X102Y538D02*
X110Y538D01*
X41Y537D02*
X49Y537D01*
X72Y537D02*
X79Y537D01*
X102Y537D02*
X110Y537D01*
X41Y536D02*
X49Y536D01*
X72Y536D02*
X79Y536D01*
X102Y536D02*
X110Y536D01*
X41Y535D02*
X49Y535D01*
X73Y535D02*
X79Y535D01*
X102Y535D02*
X110Y535D01*
X41Y534D02*
X49Y534D01*
X74Y534D02*
X77Y534D01*
X102Y534D02*
X110Y534D01*
X41Y533D02*
X49Y533D01*
X102Y533D02*
X110Y533D01*
X41Y532D02*
X49Y532D01*
X102Y532D02*
X110Y532D01*
X41Y531D02*
X49Y531D01*
X102Y531D02*
X110Y531D01*
X41Y530D02*
X49Y530D01*
X102Y530D02*
X110Y530D01*
X41Y529D02*
X49Y529D01*
X102Y529D02*
X110Y529D01*
X41Y528D02*
X49Y528D01*
X102Y528D02*
X110Y528D01*
X41Y527D02*
X49Y527D01*
X102Y527D02*
X110Y527D01*
X41Y526D02*
X49Y526D01*
X102Y526D02*
X110Y526D01*
X41Y525D02*
X49Y525D01*
X102Y525D02*
X110Y525D01*
X41Y524D02*
X49Y524D01*
X102Y524D02*
X110Y524D01*
X41Y523D02*
X49Y523D01*
X102Y523D02*
X110Y523D01*
X41Y522D02*
X49Y522D01*
X102Y522D02*
X110Y522D01*
X160Y522D02*
X163Y522D01*
X41Y521D02*
X49Y521D01*
X102Y521D02*
X110Y521D01*
X159Y521D02*
X165Y521D01*
X41Y520D02*
X49Y520D01*
X102Y520D02*
X110Y520D01*
X158Y520D02*
X165Y520D01*
X41Y519D02*
X49Y519D01*
X102Y519D02*
X110Y519D01*
X158Y519D02*
X166Y519D01*
X41Y518D02*
X49Y518D01*
X103Y518D02*
X110Y518D01*
X158Y518D02*
X166Y518D01*
X42Y517D02*
X48Y517D01*
X103Y517D02*
X109Y517D01*
X158Y517D02*
X166Y517D01*
X43Y516D02*
X47Y516D01*
X104Y516D02*
X108Y516D01*
X158Y516D02*
X166Y516D01*
X158Y515D02*
X166Y515D01*
X158Y514D02*
X166Y514D01*
X151Y513D02*
X206Y513D01*
X148Y512D02*
X207Y512D01*
X146Y511D02*
X208Y511D01*
X145Y510D02*
X208Y510D01*
X143Y509D02*
X208Y509D01*
X142Y508D02*
X208Y508D01*
X142Y507D02*
X208Y507D01*
X141Y506D02*
X207Y506D01*
X140Y505D02*
X206Y505D01*
X140Y504D02*
X151Y504D01*
X158Y504D02*
X166Y504D01*
X139Y503D02*
X149Y503D01*
X158Y503D02*
X166Y503D01*
X139Y502D02*
X148Y502D01*
X158Y502D02*
X166Y502D01*
X139Y501D02*
X148Y501D01*
X158Y501D02*
X166Y501D01*
X139Y500D02*
X147Y500D01*
X158Y500D02*
X166Y500D01*
X139Y499D02*
X147Y499D01*
X158Y499D02*
X166Y499D01*
X138Y498D02*
X147Y498D01*
X158Y498D02*
X166Y498D01*
X138Y497D02*
X147Y497D01*
X158Y497D02*
X166Y497D01*
X138Y496D02*
X147Y496D01*
X158Y496D02*
X166Y496D01*
X62Y495D02*
X108Y495D01*
X138Y495D02*
X147Y495D01*
X158Y495D02*
X166Y495D01*
X61Y494D02*
X109Y494D01*
X138Y494D02*
X147Y494D01*
X158Y494D02*
X166Y494D01*
X60Y493D02*
X110Y493D01*
X138Y493D02*
X147Y493D01*
X158Y493D02*
X165Y493D01*
X60Y492D02*
X110Y492D01*
X138Y492D02*
X147Y492D01*
X159Y492D02*
X164Y492D01*
X60Y491D02*
X110Y491D01*
X138Y491D02*
X147Y491D01*
X161Y491D02*
X162Y491D01*
X60Y490D02*
X110Y490D01*
X138Y490D02*
X147Y490D01*
X61Y489D02*
X109Y489D01*
X138Y489D02*
X147Y489D01*
X62Y488D02*
X109Y488D01*
X138Y488D02*
X147Y488D01*
X63Y487D02*
X107Y487D01*
X138Y487D02*
X147Y487D01*
X62Y486D02*
X73Y486D01*
X138Y486D02*
X146Y486D01*
X62Y485D02*
X73Y485D01*
X139Y485D02*
X146Y485D01*
X61Y484D02*
X72Y484D01*
X139Y484D02*
X146Y484D01*
X61Y483D02*
X71Y483D01*
X140Y483D02*
X145Y483D01*
X60Y482D02*
X70Y482D01*
X142Y482D02*
X143Y482D01*
X60Y481D02*
X69Y481D01*
X60Y480D02*
X68Y480D01*
X60Y479D02*
X68Y479D01*
X60Y478D02*
X69Y478D01*
X60Y477D02*
X107Y477D01*
X61Y476D02*
X109Y476D01*
X61Y475D02*
X109Y475D01*
X61Y474D02*
X110Y474D01*
X62Y473D02*
X110Y473D01*
X63Y472D02*
X110Y472D01*
X64Y471D02*
X110Y471D01*
X64Y470D02*
X109Y470D01*
X63Y469D02*
X108Y469D01*
X62Y468D02*
X73Y468D01*
X62Y467D02*
X72Y467D01*
X61Y466D02*
X72Y466D01*
X61Y465D02*
X71Y465D01*
X61Y464D02*
X70Y464D01*
X60Y463D02*
X69Y463D01*
X60Y462D02*
X68Y462D01*
X60Y461D02*
X68Y461D01*
X61Y460D02*
X70Y460D01*
X61Y459D02*
X98Y459D01*
X191Y459D02*
X194Y459D01*
X61Y458D02*
X108Y458D01*
X185Y458D02*
X200Y458D01*
X61Y457D02*
X109Y457D01*
X183Y457D02*
X202Y457D01*
X62Y456D02*
X110Y456D01*
X182Y456D02*
X203Y456D01*
X63Y455D02*
X110Y455D01*
X181Y455D02*
X204Y455D01*
X64Y454D02*
X110Y454D01*
X180Y454D02*
X205Y454D01*
X65Y453D02*
X110Y453D01*
X179Y453D02*
X206Y453D01*
X66Y452D02*
X110Y452D01*
X179Y452D02*
X206Y452D01*
X71Y451D02*
X109Y451D01*
X178Y451D02*
X207Y451D01*
X97Y450D02*
X107Y450D01*
X178Y450D02*
X207Y450D01*
X159Y449D02*
X164Y449D01*
X177Y449D02*
X187Y449D01*
X198Y449D02*
X208Y449D01*
X159Y448D02*
X165Y448D01*
X177Y448D02*
X186Y448D01*
X199Y448D02*
X208Y448D01*
X158Y447D02*
X166Y447D01*
X177Y447D02*
X185Y447D01*
X200Y447D02*
X208Y447D01*
X158Y446D02*
X166Y446D01*
X177Y446D02*
X185Y446D01*
X200Y446D02*
X208Y446D01*
X158Y445D02*
X166Y445D01*
X177Y445D02*
X185Y445D01*
X200Y445D02*
X208Y445D01*
X158Y444D02*
X166Y444D01*
X177Y444D02*
X185Y444D01*
X200Y444D02*
X208Y444D01*
X158Y443D02*
X166Y443D01*
X177Y443D02*
X185Y443D01*
X200Y443D02*
X208Y443D01*
X158Y442D02*
X166Y442D01*
X177Y442D02*
X185Y442D01*
X200Y442D02*
X208Y442D01*
X158Y441D02*
X166Y441D01*
X177Y441D02*
X185Y441D01*
X201Y441D02*
X208Y441D01*
X158Y440D02*
X166Y440D01*
X177Y440D02*
X185Y440D01*
X204Y440D02*
X208Y440D01*
X158Y439D02*
X166Y439D01*
X177Y439D02*
X185Y439D01*
X207Y439D02*
X208Y439D01*
X158Y438D02*
X166Y438D01*
X177Y438D02*
X184Y438D01*
X158Y437D02*
X166Y437D01*
X177Y437D02*
X182Y437D01*
X158Y436D02*
X166Y436D01*
X177Y436D02*
X181Y436D01*
X158Y435D02*
X166Y435D01*
X177Y435D02*
X179Y435D01*
X158Y434D02*
X166Y434D01*
X177Y434D02*
X178Y434D01*
X158Y433D02*
X166Y433D01*
X177Y433D02*
X177Y433D01*
X158Y432D02*
X166Y432D01*
X177Y432D02*
X177Y432D01*
X158Y431D02*
X166Y431D01*
X64Y430D02*
X66Y430D01*
X158Y430D02*
X166Y430D01*
X62Y429D02*
X97Y429D01*
X158Y429D02*
X166Y429D01*
X61Y428D02*
X102Y428D01*
X158Y428D02*
X166Y428D01*
X60Y427D02*
X104Y427D01*
X158Y427D02*
X166Y427D01*
X60Y426D02*
X105Y426D01*
X158Y426D02*
X166Y426D01*
X60Y425D02*
X106Y425D01*
X158Y425D02*
X168Y425D01*
X60Y424D02*
X107Y424D01*
X158Y424D02*
X173Y424D01*
X61Y423D02*
X108Y423D01*
X159Y423D02*
X172Y423D01*
X62Y422D02*
X108Y422D01*
X159Y422D02*
X172Y422D01*
X66Y421D02*
X109Y421D01*
X160Y421D02*
X172Y421D01*
X95Y420D02*
X109Y420D01*
X161Y420D02*
X171Y420D01*
X100Y419D02*
X110Y419D01*
X162Y419D02*
X171Y419D01*
X101Y418D02*
X110Y418D01*
X163Y418D02*
X171Y418D01*
X102Y417D02*
X110Y417D01*
X164Y417D02*
X171Y417D01*
X102Y416D02*
X110Y416D01*
X166Y416D02*
X171Y416D01*
X102Y415D02*
X110Y415D01*
X170Y415D02*
X171Y415D01*
X102Y414D02*
X110Y414D01*
X102Y413D02*
X110Y413D01*
X102Y412D02*
X110Y412D01*
X102Y411D02*
X110Y411D01*
X102Y410D02*
X110Y410D01*
X102Y409D02*
X110Y409D01*
X101Y408D02*
X110Y408D01*
X101Y407D02*
X110Y407D01*
X100Y406D02*
X109Y406D01*
X99Y405D02*
X109Y405D01*
X99Y404D02*
X108Y404D01*
X98Y403D02*
X108Y403D01*
X98Y402D02*
X107Y402D01*
X97Y401D02*
X107Y401D01*
X96Y400D02*
X106Y400D01*
X96Y399D02*
X105Y399D01*
X95Y398D02*
X105Y398D01*
X94Y397D02*
X104Y397D01*
X94Y396D02*
X103Y396D01*
X93Y395D02*
X103Y395D01*
X63Y394D02*
X107Y394D01*
X61Y393D02*
X109Y393D01*
X175Y393D02*
X190Y393D01*
X61Y392D02*
X110Y392D01*
X172Y392D02*
X194Y392D01*
X60Y391D02*
X110Y391D01*
X170Y391D02*
X196Y391D01*
X60Y390D02*
X110Y390D01*
X169Y390D02*
X197Y390D01*
X60Y389D02*
X110Y389D01*
X168Y389D02*
X198Y389D01*
X61Y388D02*
X110Y388D01*
X167Y388D02*
X199Y388D01*
X61Y387D02*
X109Y387D01*
X166Y387D02*
X200Y387D01*
X62Y386D02*
X108Y386D01*
X165Y386D02*
X200Y386D01*
X164Y385D02*
X201Y385D01*
X163Y384D02*
X176Y384D01*
X190Y384D02*
X202Y384D01*
X163Y383D02*
X174Y383D01*
X192Y383D02*
X203Y383D01*
X162Y382D02*
X173Y382D01*
X193Y382D02*
X204Y382D01*
X161Y381D02*
X172Y381D01*
X194Y381D02*
X205Y381D01*
X160Y380D02*
X171Y380D01*
X195Y380D02*
X206Y380D01*
X160Y379D02*
X171Y379D01*
X195Y379D02*
X206Y379D01*
X159Y378D02*
X170Y378D01*
X196Y378D02*
X207Y378D01*
X159Y377D02*
X169Y377D01*
X197Y377D02*
X207Y377D01*
X158Y376D02*
X168Y376D01*
X198Y376D02*
X208Y376D01*
X158Y375D02*
X167Y375D01*
X199Y375D02*
X208Y375D01*
X158Y374D02*
X166Y374D01*
X199Y374D02*
X208Y374D01*
X158Y373D02*
X166Y373D01*
X200Y373D02*
X208Y373D01*
X158Y372D02*
X166Y372D01*
X200Y372D02*
X208Y372D01*
X158Y371D02*
X166Y371D01*
X200Y371D02*
X208Y371D01*
X158Y370D02*
X166Y370D01*
X200Y370D02*
X208Y370D01*
X158Y369D02*
X166Y369D01*
X200Y369D02*
X208Y369D01*
X158Y368D02*
X166Y368D01*
X200Y368D02*
X208Y368D01*
X158Y367D02*
X166Y367D01*
X200Y367D02*
X208Y367D01*
X158Y366D02*
X166Y366D01*
X200Y366D02*
X208Y366D01*
X158Y365D02*
X166Y365D01*
X200Y365D02*
X208Y365D01*
X158Y364D02*
X166Y364D01*
X200Y364D02*
X208Y364D01*
X158Y363D02*
X166Y363D01*
X200Y363D02*
X208Y363D01*
X158Y362D02*
X166Y362D01*
X200Y362D02*
X208Y362D01*
X158Y361D02*
X166Y361D01*
X200Y361D02*
X208Y361D01*
X43Y360D02*
X47Y360D01*
X104Y360D02*
X108Y360D01*
X158Y360D02*
X166Y360D01*
X200Y360D02*
X208Y360D01*
X42Y359D02*
X48Y359D01*
X103Y359D02*
X109Y359D01*
X158Y359D02*
X166Y359D01*
X200Y359D02*
X208Y359D01*
X42Y358D02*
X49Y358D01*
X103Y358D02*
X110Y358D01*
X158Y358D02*
X166Y358D01*
X200Y358D02*
X208Y358D01*
X41Y357D02*
X49Y357D01*
X102Y357D02*
X110Y357D01*
X158Y357D02*
X166Y357D01*
X200Y357D02*
X208Y357D01*
X41Y356D02*
X49Y356D01*
X102Y356D02*
X110Y356D01*
X158Y356D02*
X166Y356D01*
X200Y356D02*
X208Y356D01*
X41Y355D02*
X49Y355D01*
X102Y355D02*
X110Y355D01*
X158Y355D02*
X166Y355D01*
X200Y355D02*
X208Y355D01*
X41Y354D02*
X49Y354D01*
X102Y354D02*
X110Y354D01*
X158Y354D02*
X166Y354D01*
X200Y354D02*
X208Y354D01*
X41Y353D02*
X49Y353D01*
X102Y353D02*
X110Y353D01*
X158Y353D02*
X166Y353D01*
X200Y353D02*
X208Y353D01*
X41Y352D02*
X49Y352D01*
X102Y352D02*
X110Y352D01*
X158Y352D02*
X166Y352D01*
X200Y352D02*
X208Y352D01*
X41Y351D02*
X49Y351D01*
X102Y351D02*
X110Y351D01*
X158Y351D02*
X165Y351D01*
X200Y351D02*
X208Y351D01*
X41Y350D02*
X49Y350D01*
X102Y350D02*
X110Y350D01*
X159Y350D02*
X165Y350D01*
X201Y350D02*
X207Y350D01*
X41Y349D02*
X49Y349D01*
X102Y349D02*
X110Y349D01*
X160Y349D02*
X164Y349D01*
X202Y349D02*
X206Y349D01*
X41Y348D02*
X49Y348D01*
X102Y348D02*
X110Y348D01*
X41Y347D02*
X110Y347D01*
X41Y346D02*
X110Y346D01*
X41Y345D02*
X110Y345D01*
X41Y344D02*
X110Y344D01*
X41Y343D02*
X110Y343D01*
X41Y342D02*
X110Y342D01*
X41Y341D02*
X110Y341D01*
X42Y340D02*
X110Y340D01*
X43Y339D02*
X110Y339D01*
X102Y338D02*
X110Y338D01*
X102Y337D02*
X110Y337D01*
X102Y336D02*
X110Y336D01*
X102Y335D02*
X110Y335D01*
X102Y334D02*
X110Y334D01*
X102Y333D02*
X110Y333D01*
X102Y332D02*
X110Y332D01*
X102Y331D02*
X110Y331D01*
X102Y330D02*
X110Y330D01*
X102Y329D02*
X110Y329D01*
X102Y328D02*
X110Y328D01*
X103Y327D02*
X109Y327D01*
X170Y327D02*
X196Y327D01*
X104Y326D02*
X109Y326D01*
X168Y326D02*
X198Y326D01*
X105Y325D02*
X107Y325D01*
X166Y325D02*
X200Y325D01*
X165Y324D02*
X201Y324D01*
X164Y323D02*
X202Y323D01*
X163Y322D02*
X203Y322D01*
X162Y321D02*
X204Y321D01*
X161Y320D02*
X205Y320D01*
X160Y319D02*
X205Y319D01*
X160Y318D02*
X171Y318D01*
X181Y318D02*
X189Y318D01*
X195Y318D02*
X206Y318D01*
X159Y317D02*
X170Y317D01*
X181Y317D02*
X189Y317D01*
X196Y317D02*
X207Y317D01*
X159Y316D02*
X169Y316D01*
X181Y316D02*
X189Y316D01*
X197Y316D02*
X207Y316D01*
X158Y315D02*
X168Y315D01*
X181Y315D02*
X189Y315D01*
X198Y315D02*
X208Y315D01*
X158Y314D02*
X167Y314D01*
X181Y314D02*
X189Y314D01*
X199Y314D02*
X208Y314D01*
X158Y313D02*
X166Y313D01*
X181Y313D02*
X189Y313D01*
X199Y313D02*
X208Y313D01*
X158Y312D02*
X166Y312D01*
X181Y312D02*
X189Y312D01*
X200Y312D02*
X208Y312D01*
X158Y311D02*
X166Y311D01*
X181Y311D02*
X189Y311D01*
X200Y311D02*
X208Y311D01*
X158Y310D02*
X166Y310D01*
X181Y310D02*
X189Y310D01*
X200Y310D02*
X208Y310D01*
X158Y309D02*
X166Y309D01*
X181Y309D02*
X189Y309D01*
X200Y309D02*
X208Y309D01*
X158Y308D02*
X166Y308D01*
X181Y308D02*
X189Y308D01*
X200Y308D02*
X208Y308D01*
X158Y307D02*
X166Y307D01*
X181Y307D02*
X189Y307D01*
X200Y307D02*
X208Y307D01*
X158Y306D02*
X166Y306D01*
X181Y306D02*
X189Y306D01*
X200Y306D02*
X208Y306D01*
X158Y305D02*
X166Y305D01*
X181Y305D02*
X189Y305D01*
X200Y305D02*
X208Y305D01*
X158Y304D02*
X166Y304D01*
X181Y304D02*
X189Y304D01*
X200Y304D02*
X208Y304D01*
X158Y303D02*
X166Y303D01*
X181Y303D02*
X189Y303D01*
X200Y303D02*
X208Y303D01*
X158Y302D02*
X166Y302D01*
X181Y302D02*
X189Y302D01*
X200Y302D02*
X208Y302D01*
X158Y301D02*
X166Y301D01*
X181Y301D02*
X189Y301D01*
X200Y301D02*
X208Y301D01*
X92Y300D02*
X97Y300D01*
X158Y300D02*
X166Y300D01*
X181Y300D02*
X189Y300D01*
X200Y300D02*
X208Y300D01*
X87Y299D02*
X102Y299D01*
X158Y299D02*
X166Y299D01*
X181Y299D02*
X189Y299D01*
X200Y299D02*
X208Y299D01*
X85Y298D02*
X104Y298D01*
X158Y298D02*
X166Y298D01*
X181Y298D02*
X189Y298D01*
X200Y298D02*
X208Y298D01*
X84Y297D02*
X105Y297D01*
X158Y297D02*
X166Y297D01*
X181Y297D02*
X189Y297D01*
X200Y297D02*
X208Y297D01*
X83Y296D02*
X106Y296D01*
X158Y296D02*
X167Y296D01*
X181Y296D02*
X189Y296D01*
X200Y296D02*
X208Y296D01*
X82Y295D02*
X107Y295D01*
X158Y295D02*
X168Y295D01*
X181Y295D02*
X189Y295D01*
X200Y295D02*
X208Y295D01*
X81Y294D02*
X108Y294D01*
X159Y294D02*
X169Y294D01*
X181Y294D02*
X189Y294D01*
X200Y294D02*
X208Y294D01*
X81Y293D02*
X108Y293D01*
X159Y293D02*
X170Y293D01*
X181Y293D02*
X189Y293D01*
X200Y293D02*
X208Y293D01*
X80Y292D02*
X109Y292D01*
X160Y292D02*
X171Y292D01*
X181Y292D02*
X189Y292D01*
X200Y292D02*
X208Y292D01*
X64Y291D02*
X64Y291D01*
X80Y291D02*
X109Y291D01*
X161Y291D02*
X189Y291D01*
X200Y291D02*
X208Y291D01*
X62Y290D02*
X67Y290D01*
X80Y290D02*
X89Y290D01*
X100Y290D02*
X110Y290D01*
X161Y290D02*
X189Y290D01*
X200Y290D02*
X208Y290D01*
X61Y289D02*
X67Y289D01*
X79Y289D02*
X88Y289D01*
X101Y289D02*
X110Y289D01*
X162Y289D02*
X189Y289D01*
X200Y289D02*
X208Y289D01*
X60Y288D02*
X68Y288D01*
X79Y288D02*
X87Y288D01*
X102Y288D02*
X110Y288D01*
X163Y288D02*
X189Y288D01*
X200Y288D02*
X208Y288D01*
X60Y287D02*
X68Y287D01*
X79Y287D02*
X87Y287D01*
X102Y287D02*
X110Y287D01*
X164Y287D02*
X189Y287D01*
X200Y287D02*
X208Y287D01*
X60Y286D02*
X68Y286D01*
X79Y286D02*
X87Y286D01*
X102Y286D02*
X110Y286D01*
X165Y286D02*
X189Y286D01*
X200Y286D02*
X208Y286D01*
X60Y285D02*
X68Y285D01*
X79Y285D02*
X87Y285D01*
X102Y285D02*
X110Y285D01*
X166Y285D02*
X188Y285D01*
X201Y285D02*
X208Y285D01*
X60Y284D02*
X68Y284D01*
X79Y284D02*
X87Y284D01*
X102Y284D02*
X110Y284D01*
X168Y284D02*
X188Y284D01*
X201Y284D02*
X207Y284D01*
X60Y283D02*
X68Y283D01*
X79Y283D02*
X87Y283D01*
X102Y283D02*
X110Y283D01*
X170Y283D02*
X186Y283D01*
X203Y283D02*
X206Y283D01*
X60Y282D02*
X68Y282D01*
X79Y282D02*
X87Y282D01*
X102Y282D02*
X110Y282D01*
X60Y281D02*
X68Y281D01*
X79Y281D02*
X87Y281D01*
X102Y281D02*
X110Y281D01*
X60Y280D02*
X68Y280D01*
X79Y280D02*
X87Y280D01*
X102Y280D02*
X110Y280D01*
X60Y279D02*
X68Y279D01*
X79Y279D02*
X87Y279D01*
X102Y279D02*
X110Y279D01*
X60Y278D02*
X68Y278D01*
X79Y278D02*
X87Y278D01*
X102Y278D02*
X110Y278D01*
X60Y277D02*
X68Y277D01*
X79Y277D02*
X87Y277D01*
X102Y277D02*
X110Y277D01*
X60Y276D02*
X68Y276D01*
X79Y276D02*
X87Y276D01*
X102Y276D02*
X110Y276D01*
X60Y275D02*
X68Y275D01*
X79Y275D02*
X87Y275D01*
X102Y275D02*
X110Y275D01*
X60Y274D02*
X68Y274D01*
X79Y274D02*
X87Y274D01*
X102Y274D02*
X110Y274D01*
X60Y273D02*
X68Y273D01*
X79Y273D02*
X87Y273D01*
X101Y273D02*
X110Y273D01*
X60Y272D02*
X68Y272D01*
X79Y272D02*
X87Y272D01*
X101Y272D02*
X110Y272D01*
X60Y271D02*
X68Y271D01*
X79Y271D02*
X87Y271D01*
X100Y271D02*
X109Y271D01*
X60Y270D02*
X68Y270D01*
X79Y270D02*
X87Y270D01*
X99Y270D02*
X109Y270D01*
X60Y269D02*
X68Y269D01*
X79Y269D02*
X87Y269D01*
X99Y269D02*
X108Y269D01*
X60Y268D02*
X69Y268D01*
X79Y268D02*
X87Y268D01*
X98Y268D02*
X108Y268D01*
X60Y267D02*
X69Y267D01*
X79Y267D02*
X88Y267D01*
X98Y267D02*
X107Y267D01*
X61Y266D02*
X71Y266D01*
X80Y266D02*
X89Y266D01*
X97Y266D02*
X107Y266D01*
X61Y265D02*
X91Y265D01*
X96Y265D02*
X106Y265D01*
X61Y264D02*
X107Y264D01*
X62Y263D02*
X109Y263D01*
X63Y262D02*
X110Y262D01*
X64Y261D02*
X110Y261D01*
X65Y260D02*
X110Y260D01*
X66Y259D02*
X110Y259D01*
X67Y258D02*
X110Y258D01*
X70Y257D02*
X109Y257D01*
X86Y256D02*
X108Y256D01*
X62Y234D02*
X66Y234D01*
X61Y233D02*
X67Y233D01*
X60Y232D02*
X68Y232D01*
X60Y231D02*
X68Y231D01*
X60Y230D02*
X68Y230D01*
X60Y229D02*
X68Y229D01*
X60Y228D02*
X68Y228D01*
X60Y227D02*
X68Y227D01*
X49Y226D02*
X98Y226D01*
X46Y225D02*
X102Y225D01*
X46Y224D02*
X104Y224D01*
X45Y223D02*
X105Y223D01*
X45Y222D02*
X106Y222D01*
X45Y221D02*
X107Y221D01*
X45Y220D02*
X108Y220D01*
X46Y219D02*
X108Y219D01*
X47Y218D02*
X109Y218D01*
X60Y217D02*
X69Y217D01*
X98Y217D02*
X109Y217D01*
X60Y216D02*
X68Y216D01*
X100Y216D02*
X110Y216D01*
X60Y215D02*
X68Y215D01*
X101Y215D02*
X110Y215D01*
X60Y214D02*
X68Y214D01*
X102Y214D02*
X110Y214D01*
X60Y213D02*
X68Y213D01*
X102Y213D02*
X110Y213D01*
X60Y212D02*
X68Y212D01*
X102Y212D02*
X110Y212D01*
X60Y211D02*
X68Y211D01*
X102Y211D02*
X110Y211D01*
X60Y210D02*
X68Y210D01*
X102Y210D02*
X110Y210D01*
X60Y209D02*
X68Y209D01*
X102Y209D02*
X110Y209D01*
X60Y208D02*
X68Y208D01*
X102Y208D02*
X110Y208D01*
X60Y207D02*
X68Y207D01*
X102Y207D02*
X110Y207D01*
X60Y206D02*
X68Y206D01*
X102Y206D02*
X110Y206D01*
X60Y205D02*
X68Y205D01*
X102Y205D02*
X110Y205D01*
X60Y204D02*
X68Y204D01*
X102Y204D02*
X110Y204D01*
X60Y203D02*
X68Y203D01*
X102Y203D02*
X110Y203D01*
X60Y202D02*
X68Y202D01*
X102Y202D02*
X110Y202D01*
X60Y201D02*
X68Y201D01*
X101Y201D02*
X110Y201D01*
X60Y200D02*
X68Y200D01*
X100Y200D02*
X110Y200D01*
X60Y199D02*
X68Y199D01*
X98Y199D02*
X109Y199D01*
X60Y198D02*
X68Y198D01*
X96Y198D02*
X109Y198D01*
X61Y197D02*
X67Y197D01*
X95Y197D02*
X108Y197D01*
X62Y196D02*
X67Y196D01*
X95Y196D02*
X108Y196D01*
X64Y195D02*
X64Y195D01*
X94Y195D02*
X107Y195D01*
X95Y194D02*
X106Y194D01*
X95Y193D02*
X105Y193D01*
X96Y192D02*
X103Y192D01*
X97Y191D02*
X101Y191D01*
X76Y170D02*
X94Y170D01*
X72Y169D02*
X99Y169D01*
X70Y168D02*
X101Y168D01*
X68Y167D02*
X102Y167D01*
X67Y166D02*
X103Y166D01*
X66Y165D02*
X104Y165D01*
X65Y164D02*
X105Y164D01*
X64Y163D02*
X106Y163D01*
X63Y162D02*
X107Y162D01*
X63Y161D02*
X108Y161D01*
X62Y160D02*
X73Y160D01*
X97Y160D02*
X108Y160D01*
X61Y159D02*
X72Y159D01*
X99Y159D02*
X109Y159D01*
X61Y158D02*
X71Y158D01*
X100Y158D02*
X109Y158D01*
X61Y157D02*
X70Y157D01*
X100Y157D02*
X110Y157D01*
X60Y156D02*
X69Y156D01*
X101Y156D02*
X110Y156D01*
X60Y155D02*
X68Y155D01*
X102Y155D02*
X110Y155D01*
X60Y154D02*
X68Y154D01*
X102Y154D02*
X110Y154D01*
X60Y153D02*
X68Y153D01*
X102Y153D02*
X110Y153D01*
X60Y152D02*
X68Y152D01*
X102Y152D02*
X110Y152D01*
X60Y151D02*
X68Y151D01*
X102Y151D02*
X110Y151D01*
X60Y150D02*
X68Y150D01*
X102Y150D02*
X110Y150D01*
X60Y149D02*
X68Y149D01*
X102Y149D02*
X110Y149D01*
X60Y148D02*
X68Y148D01*
X102Y148D02*
X110Y148D01*
X60Y147D02*
X68Y147D01*
X102Y147D02*
X110Y147D01*
X60Y146D02*
X68Y146D01*
X102Y146D02*
X110Y146D01*
X60Y145D02*
X68Y145D01*
X102Y145D02*
X110Y145D01*
X60Y144D02*
X68Y144D01*
X102Y144D02*
X110Y144D01*
X60Y143D02*
X68Y143D01*
X102Y143D02*
X110Y143D01*
X60Y142D02*
X68Y142D01*
X102Y142D02*
X110Y142D01*
X60Y141D02*
X68Y141D01*
X102Y141D02*
X110Y141D01*
X60Y140D02*
X69Y140D01*
X102Y140D02*
X110Y140D01*
X60Y139D02*
X69Y139D01*
X101Y139D02*
X110Y139D01*
X61Y138D02*
X70Y138D01*
X100Y138D02*
X109Y138D01*
X61Y137D02*
X71Y137D01*
X99Y137D02*
X109Y137D01*
X62Y136D02*
X72Y136D01*
X98Y136D02*
X109Y136D01*
X62Y135D02*
X73Y135D01*
X97Y135D02*
X108Y135D01*
X63Y134D02*
X107Y134D01*
X64Y133D02*
X107Y133D01*
X64Y132D02*
X106Y132D01*
X65Y131D02*
X105Y131D01*
X66Y130D02*
X104Y130D01*
X67Y129D02*
X103Y129D01*
X68Y128D02*
X102Y128D01*
X70Y127D02*
X100Y127D01*
X72Y126D02*
X98Y126D01*
X65Y105D02*
X106Y105D01*
X62Y104D02*
X108Y104D01*
X61Y103D02*
X109Y103D01*
X60Y102D02*
X110Y102D01*
X60Y101D02*
X110Y101D01*
X60Y100D02*
X110Y100D01*
X60Y99D02*
X110Y99D01*
X61Y98D02*
X109Y98D01*
X62Y97D02*
X108Y97D01*
X64Y96D02*
X106Y96D01*
X69Y95D02*
X80Y95D01*
X68Y94D02*
X79Y94D01*
X67Y93D02*
X78Y93D01*
X67Y92D02*
X78Y92D01*
X66Y91D02*
X77Y91D01*
X65Y90D02*
X76Y90D01*
X64Y89D02*
X75Y89D01*
X63Y88D02*
X74Y88D01*
X62Y87D02*
X73Y87D01*
X61Y86D02*
X72Y86D01*
X61Y85D02*
X72Y85D01*
X60Y84D02*
X71Y84D01*
X60Y83D02*
X70Y83D01*
X60Y82D02*
X69Y82D01*
X60Y81D02*
X68Y81D01*
X60Y80D02*
X68Y80D01*
X60Y79D02*
X68Y79D01*
X60Y78D02*
X68Y78D01*
X60Y77D02*
X68Y77D01*
X60Y76D02*
X68Y76D01*
X60Y75D02*
X68Y75D01*
X60Y74D02*
X68Y74D01*
X60Y73D02*
X68Y73D01*
X60Y72D02*
X69Y72D01*
X60Y71D02*
X69Y71D01*
X61Y70D02*
X70Y70D01*
X61Y69D02*
X77Y69D01*
X61Y68D02*
X78Y68D01*
X62Y67D02*
X79Y67D01*
X63Y66D02*
X79Y66D01*
X63Y65D02*
X80Y65D01*
X64Y64D02*
X79Y64D01*
X66Y63D02*
X79Y63D01*
X67Y62D02*
X79Y62D01*
X69Y61D02*
X77Y61D01*
D02*
G04 End of Silk0*
M02*