G04 MADE WITH FRITZING*
G04 WWW.FRITZING.ORG*
G04 DOUBLE SIDED*
G04 HOLES PLATED*
G04 CONTOUR ON CENTER OF CONTOUR VECTOR*
%ASAXBY*%
%FSLAX23Y23*%
%MOIN*%
%OFA0B0*%
%SFA1.0B1.0*%
%ADD10C,0.039370*%
%ADD11C,0.075000*%
%ADD12C,0.062992*%
%ADD13C,0.070000*%
%ADD14C,0.082000*%
%ADD15C,0.078000*%
%ADD16R,0.078740X0.078740*%
%ADD17R,0.062992X0.062992*%
%ADD18R,0.082000X0.082000*%
%ADD19R,0.078000X0.078000*%
%ADD20R,0.051181X0.141823*%
%ADD21R,0.075000X0.075000*%
%ADD22C,0.012000*%
%ADD23C,0.024000*%
%LNCOPPER1*%
G90*
G70*
G54D10*
X2429Y1919D03*
X2047Y1978D03*
X2046Y1679D03*
X2002Y1649D03*
X1937Y1979D03*
X1873Y1979D03*
X609Y1659D03*
X2429Y1799D03*
X2901Y1475D03*
X3037Y1475D03*
X1959Y2079D03*
X2021Y2079D03*
X2542Y1919D03*
X2429Y1978D03*
X2461Y1133D03*
X48Y2221D03*
X47Y2932D03*
X160Y1800D03*
X1807Y487D03*
X1958Y698D03*
X2047Y1619D03*
X2374Y1619D03*
X2429Y1859D03*
X2047Y1799D03*
X710Y2431D03*
X48Y2103D03*
X47Y1582D03*
X244Y1027D03*
X244Y502D03*
G54D11*
X1021Y2957D03*
X1421Y2957D03*
X1021Y2857D03*
X1421Y2857D03*
X1021Y2757D03*
X1421Y2757D03*
X1021Y2657D03*
X1421Y2657D03*
G54D12*
X159Y2222D03*
X159Y2522D03*
X259Y2222D03*
X259Y2522D03*
X359Y2222D03*
X359Y2522D03*
X459Y2222D03*
X459Y2522D03*
X559Y2222D03*
X559Y2522D03*
X659Y2222D03*
X659Y2522D03*
X759Y2222D03*
X759Y2522D03*
X859Y2222D03*
X859Y2522D03*
X959Y2222D03*
X959Y2522D03*
X1059Y2222D03*
X1059Y2522D03*
X1159Y2222D03*
X1159Y2522D03*
X1259Y2222D03*
X1259Y2522D03*
X1359Y2222D03*
X1359Y2522D03*
X1459Y2222D03*
X1459Y2522D03*
X458Y625D03*
X458Y1225D03*
X558Y625D03*
X558Y1225D03*
X658Y625D03*
X658Y1225D03*
X758Y625D03*
X758Y1225D03*
X858Y625D03*
X858Y1225D03*
X958Y625D03*
X958Y1225D03*
X1058Y625D03*
X1058Y1225D03*
X1158Y625D03*
X1158Y1225D03*
X1258Y625D03*
X1258Y1225D03*
X1358Y625D03*
X1358Y1225D03*
X1458Y625D03*
X1458Y1225D03*
X1558Y625D03*
X1558Y1225D03*
X1658Y625D03*
X1658Y1225D03*
X1758Y625D03*
X1758Y1225D03*
X1858Y625D03*
X1858Y1225D03*
X1958Y625D03*
X1958Y1225D03*
X259Y1423D03*
X259Y2023D03*
X359Y1423D03*
X359Y2023D03*
X459Y1423D03*
X459Y2023D03*
X559Y1423D03*
X559Y2023D03*
X659Y1423D03*
X659Y2023D03*
X759Y1423D03*
X759Y2023D03*
X859Y1423D03*
X859Y2023D03*
X959Y1423D03*
X959Y2023D03*
X1059Y1423D03*
X1059Y2023D03*
X1159Y1423D03*
X1159Y2023D03*
X1259Y1423D03*
X1259Y2023D03*
X1359Y1423D03*
X1359Y2023D03*
X1459Y1423D03*
X1459Y2023D03*
X1559Y1423D03*
X1559Y2023D03*
X1659Y1423D03*
X1659Y2023D03*
X1759Y1423D03*
X1759Y2023D03*
X2587Y1724D03*
X2587Y2024D03*
X2687Y1724D03*
X2687Y2024D03*
X2787Y1724D03*
X2787Y2024D03*
X2887Y1724D03*
X2887Y2024D03*
X2987Y1724D03*
X2987Y2024D03*
X3087Y1724D03*
X3087Y2024D03*
X3187Y1724D03*
X3187Y2024D03*
X2112Y624D03*
X2112Y1224D03*
X2212Y624D03*
X2212Y1224D03*
X2312Y624D03*
X2312Y1224D03*
X2412Y624D03*
X2412Y1224D03*
X2512Y624D03*
X2512Y1224D03*
X2612Y624D03*
X2612Y1224D03*
X2712Y624D03*
X2712Y1224D03*
X2812Y624D03*
X2812Y1224D03*
X2912Y624D03*
X2912Y1224D03*
X3012Y624D03*
X3012Y1224D03*
X3112Y624D03*
X3112Y1224D03*
X3212Y624D03*
X3212Y1224D03*
X3312Y624D03*
X3312Y1224D03*
X3412Y624D03*
X3412Y1224D03*
X3512Y624D03*
X3512Y1224D03*
X3612Y624D03*
X3612Y1224D03*
G54D13*
X3347Y1841D03*
X3347Y1941D03*
X3528Y1941D03*
X3528Y1841D03*
X2687Y1535D03*
X2787Y1535D03*
X260Y2930D03*
X160Y2930D03*
X260Y2819D03*
X160Y2819D03*
X342Y831D03*
X342Y931D03*
G54D14*
X859Y2924D03*
X561Y2924D03*
X860Y3031D03*
X562Y3031D03*
G54D11*
X916Y2827D03*
X516Y2827D03*
G54D15*
X745Y3290D03*
X745Y3190D03*
G54D11*
X989Y3084D03*
X989Y3384D03*
X1089Y3084D03*
X1089Y3384D03*
X1189Y3084D03*
X1189Y3384D03*
X1289Y3084D03*
X1289Y3384D03*
X1389Y3084D03*
X1389Y3384D03*
G54D10*
X2963Y697D03*
X3014Y1102D03*
X2763Y696D03*
X2763Y781D03*
X3562Y696D03*
X3704Y501D03*
X3705Y1027D03*
X3704Y1582D03*
X3185Y1534D03*
X3704Y2103D03*
X3289Y2104D03*
X2363Y1013D03*
X2261Y1074D03*
X2762Y895D03*
X2863Y955D03*
X1957Y1512D03*
X1809Y1800D03*
X1924Y445D03*
X1755Y355D03*
X1857Y1722D03*
X1857Y1424D03*
X2025Y508D03*
X1807Y400D03*
X1859Y445D03*
X874Y364D03*
X874Y446D03*
X1409Y698D03*
X1209Y759D03*
X1308Y895D03*
X709Y954D03*
X509Y1513D03*
X209Y2431D03*
G54D16*
X2111Y1558D03*
X2111Y1680D03*
X2111Y1440D03*
X2111Y1799D03*
X2111Y1919D03*
X2111Y2038D03*
X560Y2673D03*
X2211Y1558D03*
X2211Y1440D03*
X2211Y1680D03*
X2211Y1799D03*
X2211Y1919D03*
X2211Y2038D03*
X660Y2673D03*
X2311Y1680D03*
X2311Y1558D03*
X2311Y1440D03*
X2311Y1799D03*
X2311Y1919D03*
X2311Y2038D03*
X760Y2673D03*
X3162Y1389D03*
X3062Y1389D03*
X2962Y1389D03*
X2812Y1389D03*
X2712Y1389D03*
X2612Y1389D03*
G54D17*
X159Y2222D03*
X458Y625D03*
X259Y1423D03*
X2587Y1724D03*
X2112Y624D03*
G54D18*
X860Y2924D03*
X861Y3031D03*
G54D19*
X745Y3290D03*
G54D20*
X2024Y228D03*
X2124Y86D03*
X2224Y228D03*
X2324Y86D03*
X2424Y228D03*
X2524Y86D03*
X2624Y228D03*
X2724Y86D03*
X2824Y228D03*
X2924Y86D03*
X3024Y228D03*
X3124Y86D03*
X3224Y228D03*
X3324Y86D03*
X3424Y228D03*
X3424Y86D03*
X3324Y228D03*
X3224Y86D03*
X3124Y228D03*
X3024Y86D03*
X2924Y228D03*
X2824Y86D03*
X2724Y228D03*
X2624Y86D03*
X2524Y228D03*
X2424Y86D03*
X2324Y228D03*
X2224Y86D03*
X2124Y228D03*
X2024Y86D03*
X1924Y86D03*
X1824Y228D03*
X1724Y86D03*
X1624Y228D03*
X1524Y86D03*
X1424Y228D03*
X1324Y86D03*
X1224Y228D03*
X1124Y86D03*
X1024Y228D03*
X924Y86D03*
X824Y228D03*
X724Y86D03*
X624Y228D03*
X524Y86D03*
X524Y228D03*
X624Y86D03*
X724Y228D03*
X824Y86D03*
X924Y228D03*
X1024Y86D03*
X1124Y228D03*
X1224Y86D03*
X1324Y228D03*
X1424Y86D03*
X1524Y228D03*
X1624Y86D03*
X1724Y228D03*
X1824Y86D03*
X1924Y228D03*
G54D21*
X989Y3084D03*
G54D22*
X623Y1659D02*
X1879Y1659D01*
D02*
X2032Y1859D02*
X1879Y1659D01*
D02*
X2162Y1859D02*
X2032Y1859D01*
D02*
X2188Y1827D02*
X2162Y1859D01*
D02*
X939Y2866D02*
X928Y2847D01*
D02*
X939Y3023D02*
X939Y2866D01*
D02*
X916Y2573D02*
X945Y2539D01*
D02*
X916Y2804D02*
X916Y2573D01*
D02*
X974Y3066D02*
X939Y3023D01*
D02*
X2812Y1475D02*
X2812Y1426D01*
D02*
X2888Y1475D02*
X2812Y1475D01*
D02*
X2962Y1475D02*
X2962Y1426D01*
D02*
X3023Y1475D02*
X2962Y1475D01*
D02*
X2021Y2149D02*
X2021Y2092D01*
D02*
X1589Y2149D02*
X2021Y2149D01*
D02*
X1959Y2124D02*
X1959Y2093D01*
D02*
X1561Y2124D02*
X1959Y2124D01*
D02*
X1589Y2807D02*
X1589Y2149D01*
D02*
X1438Y2942D02*
X1589Y2807D01*
D02*
X1561Y2735D02*
X1561Y2124D01*
D02*
X1438Y2841D02*
X1561Y2735D01*
G54D23*
D02*
X1389Y3290D02*
X1389Y3355D01*
D02*
X776Y3290D02*
X1389Y3290D01*
D02*
X1289Y3290D02*
X1289Y3355D01*
D02*
X776Y3290D02*
X1289Y3290D01*
D02*
X1189Y3290D02*
X1189Y3355D01*
D02*
X776Y3290D02*
X1189Y3290D01*
D02*
X1089Y3290D02*
X1089Y3355D01*
D02*
X776Y3290D02*
X1089Y3290D01*
D02*
X2111Y1962D02*
X2111Y1996D01*
G54D22*
D02*
X2374Y2038D02*
X2348Y2038D01*
D02*
X2420Y1988D02*
X2374Y2038D01*
D02*
X3087Y1919D02*
X2555Y1919D01*
D02*
X3172Y2009D02*
X3087Y1919D01*
D02*
X2261Y1979D02*
X2235Y2010D01*
D02*
X1991Y1978D02*
X2033Y1978D01*
D02*
X1308Y1870D02*
X1902Y1870D01*
D02*
X1902Y1870D02*
X1991Y1978D01*
D02*
X2374Y1979D02*
X2261Y1979D01*
D02*
X2420Y1929D02*
X2374Y1979D01*
D02*
X1259Y1929D02*
X1308Y1870D01*
D02*
X1259Y2002D02*
X1259Y1929D01*
D02*
X1807Y698D02*
X1807Y500D01*
D02*
X1945Y698D02*
X1807Y698D01*
G54D23*
D02*
X2612Y1465D02*
X2612Y1432D01*
D02*
X2735Y1465D02*
X2612Y1465D01*
D02*
X2771Y1514D02*
X2735Y1465D01*
D02*
X159Y2496D02*
X159Y2249D01*
D02*
X66Y2931D02*
X134Y2930D01*
D02*
X48Y2240D02*
X47Y2913D01*
G54D22*
D02*
X808Y500D02*
X808Y698D01*
D02*
X2374Y1919D02*
X2420Y1869D01*
D02*
X2047Y1500D02*
X2211Y1500D01*
D02*
X2374Y1799D02*
X2374Y1633D01*
D02*
X2211Y1500D02*
X2211Y1521D01*
D02*
X2374Y1859D02*
X2420Y1809D01*
D02*
X2262Y1859D02*
X2374Y1859D01*
D02*
X2448Y1133D02*
X1534Y1133D01*
D02*
X2047Y1605D02*
X2047Y1500D01*
D02*
X2348Y1799D02*
X2374Y1799D01*
D02*
X2060Y1799D02*
X2074Y1799D01*
D02*
X2348Y1919D02*
X2374Y1919D01*
D02*
X2749Y895D02*
X1322Y895D01*
D02*
X1534Y1133D02*
X1472Y1208D01*
D02*
X2235Y1891D02*
X2262Y1859D01*
G54D23*
D02*
X2013Y1919D02*
X1869Y1737D01*
D02*
X2069Y1919D02*
X2013Y1919D01*
G54D22*
D02*
X2020Y1561D02*
X2020Y1440D01*
D02*
X1904Y1605D02*
X2010Y1739D01*
D02*
X2010Y1739D02*
X2161Y1739D01*
D02*
X2020Y1440D02*
X2074Y1440D01*
D02*
X1994Y1381D02*
X2211Y1381D01*
D02*
X1994Y1534D02*
X1994Y1381D01*
D02*
X1957Y1568D02*
X1994Y1534D01*
D02*
X2002Y1582D02*
X2020Y1561D01*
D02*
X2002Y1636D02*
X2002Y1582D01*
D02*
X1873Y2100D02*
X1873Y1993D01*
D02*
X1821Y2075D02*
X1508Y2075D01*
D02*
X1508Y2075D02*
X1508Y2572D01*
G54D23*
D02*
X2311Y1601D02*
X2311Y1637D01*
G54D22*
D02*
X1535Y2100D02*
X1873Y2100D01*
D02*
X1535Y2651D02*
X1535Y2100D01*
D02*
X1438Y2742D02*
X1535Y2651D01*
D02*
X2211Y1381D02*
X2211Y1403D01*
D02*
X459Y1568D02*
X1957Y1568D01*
D02*
X459Y1445D02*
X459Y1568D01*
D02*
X1508Y2572D02*
X1438Y2641D01*
D02*
X1883Y1914D02*
X1821Y1914D01*
D02*
X1821Y1914D02*
X1821Y2075D01*
D02*
X1928Y1969D02*
X1883Y1914D01*
D02*
X2074Y1679D02*
X2059Y1679D01*
D02*
X2111Y1595D02*
X2111Y1643D01*
D02*
X408Y1605D02*
X1904Y1605D01*
D02*
X359Y1553D02*
X408Y1605D01*
D02*
X2161Y1739D02*
X2187Y1708D01*
D02*
X359Y1445D02*
X359Y1553D01*
G54D23*
D02*
X1957Y1345D02*
X2091Y1241D01*
D02*
X1957Y1493D02*
X1957Y1345D01*
D02*
X2111Y2104D02*
X2486Y2104D01*
D02*
X2486Y2104D02*
X2486Y1607D01*
D02*
X2486Y1607D02*
X2687Y1607D01*
D02*
X2687Y1607D02*
X2687Y1561D01*
D02*
X2111Y2081D02*
X2111Y2104D01*
D02*
X2311Y1397D02*
X2312Y1251D01*
D02*
X2311Y1516D02*
X2311Y1482D01*
D02*
X2025Y831D02*
X368Y831D01*
D02*
X2025Y527D02*
X2025Y831D01*
D02*
X2185Y624D02*
X2139Y624D01*
D02*
X2239Y624D02*
X2285Y624D01*
D02*
X2185Y1224D02*
X2139Y1224D01*
D02*
X2285Y1224D02*
X2239Y1224D01*
G54D22*
D02*
X2412Y1322D02*
X2412Y1245D01*
D02*
X2712Y1322D02*
X2412Y1322D01*
D02*
X2712Y1352D02*
X2712Y1322D01*
D02*
X2512Y1292D02*
X2512Y1245D01*
D02*
X3062Y1292D02*
X2512Y1292D01*
D02*
X3062Y1352D02*
X3062Y1292D01*
G54D23*
D02*
X2400Y1389D02*
X2569Y1389D01*
D02*
X2312Y1300D02*
X2400Y1389D01*
D02*
X2312Y1251D02*
X2312Y1300D01*
G54D22*
D02*
X3262Y1389D02*
X3199Y1389D01*
D02*
X3262Y832D02*
X3262Y1389D01*
D02*
X3612Y832D02*
X3262Y832D01*
D02*
X3612Y645D02*
X3612Y832D01*
G54D23*
D02*
X3685Y2103D02*
X3308Y2104D01*
D02*
X3087Y2104D02*
X3087Y2051D01*
D02*
X3270Y2104D02*
X3087Y2104D01*
D02*
X2987Y2104D02*
X2987Y2051D01*
D02*
X3270Y2104D02*
X2987Y2104D01*
D02*
X2887Y2104D02*
X2887Y2051D01*
D02*
X3270Y2104D02*
X2887Y2104D01*
D02*
X2787Y2104D02*
X2787Y2051D01*
D02*
X3270Y2104D02*
X2787Y2104D01*
D02*
X2587Y2104D02*
X2587Y2051D01*
D02*
X3270Y2104D02*
X2587Y2104D01*
D02*
X3326Y1825D02*
X3209Y1740D01*
D02*
X3166Y1534D02*
X2813Y1535D01*
G54D22*
D02*
X659Y2636D02*
X659Y2544D01*
D02*
X560Y2612D02*
X510Y2578D01*
D02*
X471Y2431D02*
X223Y2431D01*
D02*
X510Y2473D02*
X471Y2431D01*
D02*
X510Y2578D02*
X510Y2473D01*
D02*
X560Y2636D02*
X560Y2612D01*
D02*
X760Y2612D02*
X710Y2577D01*
D02*
X710Y2577D02*
X710Y2444D01*
D02*
X760Y2636D02*
X760Y2612D01*
G54D23*
D02*
X332Y2023D02*
X286Y2023D01*
D02*
X432Y2023D02*
X386Y2023D01*
D02*
X531Y1225D02*
X485Y1225D01*
D02*
X631Y1225D02*
X585Y1225D01*
G54D22*
D02*
X259Y2431D02*
X259Y2501D01*
D02*
X223Y2431D02*
X259Y2431D01*
G54D23*
D02*
X160Y2793D02*
X159Y2549D01*
D02*
X745Y2924D02*
X593Y2924D01*
D02*
X745Y3160D02*
X745Y2924D01*
D02*
X759Y2321D02*
X759Y2496D01*
D02*
X1459Y2321D02*
X759Y2321D01*
D02*
X1459Y2249D02*
X1459Y2321D01*
D02*
X524Y395D02*
X524Y293D01*
D02*
X414Y502D02*
X524Y395D01*
D02*
X263Y502D02*
X414Y502D01*
D02*
X244Y831D02*
X316Y831D01*
D02*
X244Y1008D02*
X244Y831D01*
D02*
X244Y1008D02*
X244Y521D01*
D02*
X47Y1350D02*
X244Y1350D01*
D02*
X244Y1350D02*
X244Y1046D01*
D02*
X47Y1563D02*
X47Y1350D01*
D02*
X48Y2084D02*
X47Y1601D01*
D02*
X48Y1722D02*
X48Y2084D01*
D02*
X1459Y2103D02*
X67Y2103D01*
D02*
X1459Y2196D02*
X1459Y2103D01*
D02*
X745Y3395D02*
X745Y3320D01*
D02*
X260Y3395D02*
X745Y3395D01*
D02*
X260Y2956D02*
X260Y3395D01*
D02*
X260Y2845D02*
X260Y2904D01*
D02*
X160Y2682D02*
X160Y2793D01*
D02*
X359Y2682D02*
X160Y2682D01*
D02*
X359Y2549D02*
X359Y2682D01*
D02*
X359Y2682D02*
X359Y2549D01*
D02*
X495Y2807D02*
X359Y2682D01*
D02*
X761Y2827D02*
X545Y2827D01*
D02*
X836Y2901D02*
X761Y2827D01*
D02*
X859Y2956D02*
X860Y2999D01*
D02*
X3528Y2104D02*
X3308Y2104D01*
D02*
X3528Y1967D02*
X3528Y2104D01*
D02*
X3374Y1387D02*
X3200Y1522D01*
D02*
X3704Y1387D02*
X3374Y1387D01*
D02*
X3704Y1563D02*
X3704Y1387D01*
D02*
X3424Y395D02*
X3424Y293D01*
D02*
X3543Y501D02*
X3424Y395D01*
D02*
X3685Y501D02*
X3543Y501D01*
D02*
X3705Y1008D02*
X3704Y520D01*
D02*
X3704Y1563D02*
X3705Y1046D01*
D02*
X3704Y1601D02*
X3704Y2084D01*
D02*
X1838Y1722D02*
X48Y1722D01*
D02*
X3374Y1841D02*
X3501Y1841D01*
G54D22*
D02*
X3512Y573D02*
X3224Y319D01*
D02*
X3212Y573D02*
X2924Y318D01*
D02*
X2924Y318D02*
X2924Y293D01*
D02*
X3212Y603D02*
X3212Y573D01*
D02*
X3024Y319D02*
X3024Y293D01*
D02*
X3312Y573D02*
X3024Y319D01*
D02*
X3312Y603D02*
X3312Y573D01*
D02*
X3124Y319D02*
X3124Y293D01*
D02*
X3412Y573D02*
X3124Y319D01*
D02*
X3412Y603D02*
X3412Y573D01*
D02*
X3224Y319D02*
X3224Y293D01*
D02*
X3512Y603D02*
X3512Y573D01*
G54D23*
D02*
X1838Y1424D02*
X1786Y1424D01*
D02*
X2025Y625D02*
X1985Y625D01*
D02*
X2025Y527D02*
X2025Y625D01*
D02*
X2025Y489D02*
X2025Y293D01*
G54D22*
D02*
X2612Y573D02*
X2324Y319D01*
D02*
X2712Y573D02*
X2424Y319D01*
D02*
X2812Y573D02*
X2524Y319D01*
D02*
X2912Y573D02*
X2624Y319D01*
D02*
X3012Y573D02*
X2724Y319D01*
D02*
X3112Y573D02*
X2824Y319D01*
D02*
X2824Y319D02*
X2824Y293D01*
D02*
X2724Y319D02*
X2724Y293D01*
D02*
X2624Y319D02*
X2624Y293D01*
D02*
X2524Y319D02*
X2524Y293D01*
D02*
X2424Y319D02*
X2424Y293D01*
D02*
X2324Y319D02*
X2324Y293D01*
D02*
X2612Y603D02*
X2612Y573D01*
D02*
X2712Y603D02*
X2712Y573D01*
D02*
X2812Y603D02*
X2812Y573D01*
D02*
X2912Y603D02*
X2912Y573D01*
D02*
X3012Y603D02*
X3012Y573D01*
D02*
X3112Y603D02*
X3112Y573D01*
D02*
X1458Y510D02*
X1624Y315D01*
D02*
X1558Y499D02*
X1724Y305D01*
D02*
X1624Y315D02*
X1624Y293D01*
D02*
X1725Y305D02*
X1725Y293D01*
D02*
X1458Y604D02*
X1458Y510D01*
D02*
X1558Y604D02*
X1558Y499D01*
D02*
X1658Y467D02*
X1747Y365D01*
D02*
X1658Y604D02*
X1658Y467D01*
D02*
X1758Y455D02*
X1798Y410D01*
D02*
X1758Y604D02*
X1758Y455D01*
D02*
X1858Y604D02*
X1859Y458D01*
D02*
X1824Y356D02*
X1824Y293D01*
D02*
X1914Y436D02*
X1824Y356D01*
D02*
X924Y388D02*
X924Y293D01*
D02*
X883Y436D02*
X924Y388D01*
D02*
X824Y321D02*
X824Y293D01*
D02*
X864Y356D02*
X824Y321D01*
D02*
X724Y394D02*
X724Y293D01*
D02*
X808Y500D02*
X724Y394D01*
D02*
X3324Y358D02*
X3324Y293D01*
D02*
X3562Y570D02*
X3324Y358D01*
D02*
X3562Y683D02*
X3562Y570D01*
G54D23*
D02*
X2687Y1607D02*
X3187Y1607D01*
D02*
X3187Y1607D02*
X3187Y1697D01*
D02*
X2687Y1561D02*
X2687Y1607D01*
G54D22*
D02*
X1036Y1013D02*
X872Y1209D01*
D02*
X2349Y1013D02*
X1036Y1013D01*
D02*
X1158Y534D02*
X1324Y345D01*
D02*
X1258Y527D02*
X1424Y337D01*
D02*
X1358Y517D02*
X1524Y327D01*
D02*
X1058Y545D02*
X1224Y357D01*
D02*
X958Y551D02*
X1124Y367D01*
D02*
X858Y560D02*
X1024Y375D01*
D02*
X1024Y375D02*
X1024Y293D01*
D02*
X1124Y367D02*
X1124Y293D01*
D02*
X1224Y357D02*
X1224Y293D01*
D02*
X1325Y345D02*
X1325Y293D01*
D02*
X1424Y337D02*
X1424Y293D01*
D02*
X1525Y327D02*
X1525Y293D01*
D02*
X858Y604D02*
X858Y560D01*
D02*
X958Y604D02*
X958Y551D01*
D02*
X1058Y604D02*
X1058Y545D01*
D02*
X1158Y604D02*
X1158Y534D01*
D02*
X1258Y604D02*
X1258Y527D01*
D02*
X1358Y604D02*
X1358Y517D01*
D02*
X1383Y1074D02*
X1272Y1208D01*
D02*
X2248Y1074D02*
X1383Y1074D01*
D02*
X624Y395D02*
X624Y293D01*
D02*
X708Y501D02*
X624Y395D01*
D02*
X708Y759D02*
X708Y501D01*
D02*
X1196Y759D02*
X708Y759D01*
D02*
X2912Y1102D02*
X2826Y1208D01*
D02*
X3001Y1102D02*
X2912Y1102D01*
D02*
X2963Y739D02*
X2412Y739D01*
D02*
X2412Y739D02*
X2412Y645D01*
D02*
X2963Y710D02*
X2963Y739D01*
D02*
X2224Y363D02*
X2224Y293D01*
D02*
X2462Y574D02*
X2224Y363D01*
D02*
X2462Y696D02*
X2462Y574D01*
D02*
X2749Y696D02*
X2462Y696D01*
D02*
X2124Y365D02*
X2124Y293D01*
D02*
X2363Y781D02*
X2363Y574D01*
D02*
X2363Y574D02*
X2124Y365D01*
D02*
X2749Y781D02*
X2363Y781D01*
D02*
X174Y1800D02*
X1795Y1800D01*
G54D23*
D02*
X2025Y832D02*
X3612Y832D01*
D02*
X3612Y832D02*
X3612Y651D01*
D02*
X2025Y527D02*
X2025Y832D01*
G54D22*
D02*
X1396Y698D02*
X808Y698D01*
D02*
X722Y954D02*
X2849Y955D01*
G54D23*
D02*
X1938Y1512D02*
X528Y1513D01*
G54D22*
D02*
X524Y162D02*
X524Y152D01*
D02*
X624Y163D02*
X624Y151D01*
D02*
X724Y162D02*
X724Y152D01*
D02*
X824Y163D02*
X824Y151D01*
D02*
X924Y162D02*
X924Y152D01*
D02*
X1024Y163D02*
X1024Y151D01*
D02*
X1124Y162D02*
X1124Y152D01*
D02*
X1224Y163D02*
X1224Y151D01*
D02*
X1324Y162D02*
X1324Y152D01*
D02*
X1424Y163D02*
X1424Y151D01*
D02*
X1524Y162D02*
X1524Y152D01*
D02*
X1624Y163D02*
X1624Y151D01*
D02*
X1724Y162D02*
X1724Y152D01*
D02*
X1824Y163D02*
X1824Y151D01*
D02*
X1924Y162D02*
X1924Y152D01*
D02*
X2024Y162D02*
X2024Y152D01*
D02*
X2124Y163D02*
X2124Y151D01*
D02*
X2224Y162D02*
X2224Y152D01*
D02*
X2324Y163D02*
X2324Y151D01*
D02*
X2424Y162D02*
X2424Y152D01*
D02*
X2524Y163D02*
X2524Y151D01*
D02*
X2624Y162D02*
X2624Y152D01*
D02*
X2724Y163D02*
X2724Y151D01*
D02*
X2824Y162D02*
X2824Y152D01*
D02*
X2924Y163D02*
X2924Y151D01*
D02*
X3024Y162D02*
X3024Y152D01*
D02*
X3124Y163D02*
X3124Y151D01*
D02*
X3224Y162D02*
X3224Y152D01*
D02*
X3324Y163D02*
X3324Y151D01*
D02*
X3424Y162D02*
X3424Y152D01*
G04 End of Copper1*
M02*