; NON-PLATED HOLES START AT T1
; THROUGH (PLATED) HOLES START AT T100
M48
INCH
T1C0.236220
T100C0.035000
T101C0.031496
T102C0.042000
T103C0.015748
T104C0.038000
T105C0.030000
%
T1
X005207Y032288
X034288Y015806
T100
X012888Y033835
X010209Y028565
X010209Y027574
X014214Y026569
X010888Y030835
X010210Y029572
X010888Y033835
X010214Y026569
X005164Y028267
X012888Y030835
X009888Y033835
X013888Y030835
X011888Y033835
X011888Y030835
X014210Y029572
X009164Y028267
X009888Y030835
X014209Y027574
X014209Y028565
X013888Y033835
T101
X005581Y006248
X028868Y020243
X009581Y012248
X028122Y006241
X017592Y020233
X005592Y020233
X012581Y012248
X025122Y012241
X028868Y017243
X015581Y012248
X034122Y006241
X026122Y012241
X009592Y022224
X017592Y014233
X011592Y022224
X010592Y022224
X013581Y012248
X011592Y025224
X008592Y022224
X008581Y012248
X009592Y014233
X004592Y020233
X006581Y006248
X033122Y012241
X018581Y006248
X011581Y012248
X010581Y006248
X024122Y012241
X009581Y006248
X013592Y020233
X014581Y006248
X003592Y025224
X014581Y012248
X009592Y020233
X007581Y012248
X022122Y006241
X023122Y006241
X027868Y020243
X007592Y014233
X002592Y020233
X029868Y017243
X001592Y025224
X021122Y012241
X026868Y020243
X013592Y014233
X013581Y006248
X027122Y006241
X012592Y022224
X014592Y020233
X025868Y017243
X011581Y006248
X006592Y014233
X025122Y006241
X015581Y006248
X003592Y022224
X030868Y020243
X035122Y012241
X003592Y020233
X030122Y006241
X024122Y006241
X028122Y012241
X008592Y020233
X006592Y020233
X018581Y012248
X025868Y020243
X010592Y014233
X005581Y012248
X009592Y025224
X001592Y022224
X005592Y022224
X010581Y012248
X032122Y006241
X004592Y025224
X005592Y025224
X019581Y006248
X010592Y020233
X007581Y006248
X030868Y017243
X033122Y006241
X004581Y012248
X007592Y025224
X005592Y014233
X008581Y006248
X004592Y014233
X016581Y012248
X008592Y025224
X002592Y022224
X029122Y012241
X014592Y014233
X017581Y012248
X026122Y006241
X007592Y022224
X021122Y006241
X035122Y006241
X004592Y022224
X002592Y014233
X010592Y025224
X012581Y006248
X015592Y014233
X022122Y012241
X012592Y014233
X029122Y006241
X013592Y022224
X003592Y014233
X016581Y006248
X029868Y020243
X026868Y017243
X011592Y014233
X012592Y020233
X013592Y025224
X008592Y014233
X006592Y025224
X004581Y006248
X032122Y012241
X023122Y012241
X031122Y012241
X034122Y012241
X019581Y012248
X017581Y006248
X016592Y014233
X036122Y012241
X016592Y020233
X030122Y012241
X006592Y022224
X006581Y012248
X027868Y017243
X011592Y020233
X015592Y020233
X031868Y020243
X007592Y020233
X027122Y012241
X031122Y006241
X014592Y022224
X002592Y025224
X014592Y025224
X036122Y006241
X031868Y017243
X012592Y025224
T102
X008597Y030314
X005617Y030314
X005611Y029240
X008591Y029240
T103
X001602Y017998
X002091Y024314
X019243Y004453
X018073Y004000
X023735Y016192
X024288Y019194
X002440Y010268
X025417Y019188
X013080Y008952
X005087Y015126
X017554Y003552
X027621Y008946
X000477Y021028
X022614Y010737
X000466Y029317
X037047Y010268
X024287Y019784
X018571Y017220
X020250Y005077
X029627Y006966
X007087Y009537
X032888Y021036
X037043Y021033
X027625Y006956
X006094Y016593
X007095Y024309
X018074Y004866
X018589Y004447
X020210Y020785
X008738Y004461
X028625Y009547
X019367Y019792
X031851Y015338
X023625Y010130
X029011Y014751
X020459Y016787
X019584Y006981
X035619Y006963
X024292Y018587
X027627Y007805
X020465Y016189
X018731Y019792
X002437Y005016
X000469Y015817
X024292Y017991
X012093Y007593
X020015Y016491
X018573Y014239
X030140Y011018
X020466Y019776
X014089Y006982
X008740Y003643
X000477Y022213
X020467Y017993
X019594Y020792
X019573Y015124
X030367Y014753
X024612Y011331
X018088Y017998
X037043Y015815
X037038Y005009
T104
X007454Y031898
X007454Y032898
T105
X002599Y028187
X027870Y015345
X003417Y009307
X033474Y019407
X035275Y018410
X026869Y015345
X001597Y028187
X003417Y008306
X001601Y029296
X035275Y019411
X033474Y018405
X002603Y029296
T00
M30
