G04 MADE WITH FRITZING*
G04 WWW.FRITZING.ORG*
G04 DOUBLE SIDED*
G04 HOLES PLATED*
G04 CONTOUR ON CENTER OF CONTOUR VECTOR*
%ASAXBY*%
%FSLAX23Y23*%
%MOIN*%
%OFA0B0*%
%SFA1.0B1.0*%
%ADD10R,0.051181X0.141823*%
%LNPASTEMASK0*%
G90*
G70*
G54D10*
X1924Y228D03*
X1824Y86D03*
X1724Y228D03*
X1624Y86D03*
X1524Y228D03*
X1424Y86D03*
X1324Y228D03*
X1224Y86D03*
X1124Y228D03*
X1024Y86D03*
X924Y228D03*
X824Y86D03*
X724Y228D03*
X624Y86D03*
X524Y228D03*
X524Y86D03*
X624Y228D03*
X724Y86D03*
X824Y228D03*
X924Y86D03*
X1024Y228D03*
X1124Y86D03*
X1224Y228D03*
X1324Y86D03*
X1424Y228D03*
X1524Y86D03*
X1624Y228D03*
X1724Y86D03*
X1824Y228D03*
X1924Y86D03*
X2024Y86D03*
X2124Y228D03*
X2224Y86D03*
X2324Y228D03*
X2424Y86D03*
X2524Y228D03*
X2624Y86D03*
X2724Y228D03*
X2824Y86D03*
X2924Y228D03*
X3024Y86D03*
X3124Y228D03*
X3224Y86D03*
X3324Y228D03*
X3424Y86D03*
X3424Y228D03*
X3324Y86D03*
X3224Y228D03*
X3124Y86D03*
X3024Y228D03*
X2924Y86D03*
X2824Y228D03*
X2724Y86D03*
X2624Y228D03*
X2524Y86D03*
X2424Y228D03*
X2324Y86D03*
X2224Y228D03*
X2124Y86D03*
X2024Y228D03*
G04 End of PasteMask0*
M02*