; NON-PLATED HOLES START AT T1
; THROUGH (PLATED) HOLES START AT T100
M48
INCH
T100C0.027559
T101C0.125984
T102C0.125000
T103C0.038000
T104C0.035000
%
T100
X006276Y009383
X020721Y007020
X006276Y008792
X006276Y012335
X006276Y013516
X006276Y008201
X020721Y007611
X020721Y014107
X020721Y006430
X020721Y013516
X006276Y014107
X020721Y010564
X006276Y006430
X020721Y008201
X006276Y009973
X020721Y011154
X020721Y012335
X006276Y010564
X020721Y014697
X006276Y011154
X006276Y007020
X006276Y012926
X020721Y009383
X020721Y008792
X020721Y009973
X006276Y007611
X020721Y012926
X006276Y011745
X006276Y014697
X020721Y011745
T101
X003387Y004059
X023665Y004059
X003415Y017003
X023665Y017031
T102
X023665Y004071
X003402Y017022
X003402Y004062
X023665Y017031
T103
X016127Y003315
X014174Y015420
X024079Y020038
X017127Y003315
X025079Y020038
X018125Y001047
X020094Y001039
X009572Y020031
X013573Y020031
X012869Y015429
X020079Y020038
X007572Y020031
X017125Y001047
X018079Y020038
X014125Y001047
X025094Y001039
X012573Y020031
X015489Y017429
X019079Y020038
X015489Y016429
X018127Y003315
X010573Y020031
X008572Y020031
X022079Y020038
X024094Y001039
X015489Y015429
X013125Y001047
X014174Y016420
X011563Y017429
X011563Y016429
X022094Y001039
X023094Y001039
X021094Y001039
X015573Y020031
X021079Y020038
X012869Y016429
X014573Y020031
X016125Y001047
X014174Y017420
X011573Y020031
X012869Y017429
X016573Y020031
X023079Y020038
X011125Y001047
X012125Y001047
X011563Y015429
X015125Y001047
T104
X008719Y004249
X024225Y012711
X023105Y014331
X003962Y012162
X002842Y011622
X003962Y007842
X023105Y012171
X023105Y007851
X002842Y013782
X023105Y013251
X003962Y014322
X023105Y006771
X023105Y010011
X003962Y008922
X023105Y008931
X024225Y011631
X003962Y010002
X024225Y010551
X011279Y004249
X024225Y013791
X003962Y013242
X002842Y009462
X003962Y006762
X023105Y011091
X002842Y007302
X008719Y002478
X011279Y002478
X024225Y009471
X002842Y012702
X002842Y010542
X024225Y007311
X024225Y008391
X003962Y011082
X002842Y008382
T00
M30
