G04 MADE WITH FRITZING*
G04 WWW.FRITZING.ORG*
G04 DOUBLE SIDED*
G04 HOLES PLATED*
G04 CONTOUR ON CENTER OF CONTOUR VECTOR*
%ASAXBY*%
%FSLAX23Y23*%
%MOIN*%
%OFA0B0*%
%SFA1.0B1.0*%
%ADD10R,0.051181X0.141823*%
%ADD11C,0.032000*%
%LNCOPPER0*%
G90*
G70*
G54D10*
X1493Y232D03*
X1393Y90D03*
X1293Y232D03*
X1193Y90D03*
X1093Y232D03*
X993Y90D03*
X893Y232D03*
X793Y90D03*
X693Y232D03*
X593Y90D03*
X493Y232D03*
X393Y90D03*
X293Y232D03*
X193Y90D03*
X93Y232D03*
X1493Y1209D03*
X1393Y1068D03*
X1293Y1209D03*
X1193Y1068D03*
X1093Y1209D03*
X993Y1068D03*
X893Y1209D03*
X793Y1068D03*
X693Y1209D03*
X593Y1068D03*
X493Y1209D03*
X393Y1068D03*
X293Y1209D03*
X193Y1068D03*
X93Y1209D03*
X94Y1068D03*
X194Y1210D03*
X294Y1068D03*
X394Y1210D03*
X494Y1068D03*
X594Y1210D03*
X694Y1068D03*
X794Y1210D03*
X894Y1068D03*
X994Y1210D03*
X1094Y1068D03*
X1194Y1210D03*
X1294Y1068D03*
X1394Y1210D03*
X1494Y1068D03*
X94Y90D03*
X194Y232D03*
X294Y90D03*
X394Y232D03*
X494Y90D03*
X594Y232D03*
X694Y90D03*
X794Y232D03*
X894Y90D03*
X994Y232D03*
X1094Y90D03*
X1194Y232D03*
X1294Y90D03*
X1394Y232D03*
X1494Y90D03*
X1594Y1068D03*
X1694Y1210D03*
X1794Y1068D03*
X1894Y1210D03*
X1994Y1068D03*
X2094Y1210D03*
X2194Y1068D03*
X2294Y1210D03*
X2394Y1068D03*
X2494Y1210D03*
X2594Y1068D03*
X2694Y1210D03*
X2794Y1068D03*
X2894Y1210D03*
X2994Y1068D03*
X1594Y90D03*
X1694Y232D03*
X1794Y90D03*
X1894Y232D03*
X1994Y90D03*
X2094Y232D03*
X2194Y90D03*
X2294Y232D03*
X2394Y90D03*
X2494Y232D03*
X2594Y90D03*
X2694Y232D03*
X2794Y90D03*
X2894Y232D03*
X2994Y90D03*
X2993Y1209D03*
X2893Y1068D03*
X2793Y1209D03*
X2693Y1068D03*
X2593Y1209D03*
X2493Y1068D03*
X2393Y1209D03*
X2293Y1068D03*
X2193Y1209D03*
X2093Y1068D03*
X1993Y1209D03*
X1893Y1068D03*
X1793Y1209D03*
X1693Y1068D03*
X1593Y1209D03*
X2993Y232D03*
X2893Y90D03*
X2793Y232D03*
X2693Y90D03*
X2593Y232D03*
X2493Y90D03*
X2393Y232D03*
X2293Y90D03*
X2193Y232D03*
X2093Y90D03*
X1993Y232D03*
X1893Y90D03*
X1793Y232D03*
X1693Y90D03*
X1593Y232D03*
G54D11*
X2993Y166D02*
X2993Y155D01*
D02*
X2993Y1144D02*
X2993Y1133D01*
D02*
X2893Y1144D02*
X2893Y1133D01*
D02*
X2893Y166D02*
X2893Y155D01*
D02*
X2793Y1144D02*
X2793Y1133D01*
D02*
X2793Y166D02*
X2793Y155D01*
D02*
X2693Y166D02*
X2693Y155D01*
D02*
X2693Y1144D02*
X2693Y1133D01*
D02*
X2593Y166D02*
X2593Y155D01*
D02*
X2593Y1144D02*
X2593Y1133D01*
D02*
X2493Y1144D02*
X2493Y1133D01*
D02*
X2493Y166D02*
X2493Y155D01*
D02*
X2393Y1144D02*
X2393Y1133D01*
D02*
X2393Y166D02*
X2393Y155D01*
D02*
X2293Y1144D02*
X2293Y1133D01*
D02*
X2293Y166D02*
X2293Y155D01*
D02*
X2193Y1144D02*
X2193Y1133D01*
D02*
X2193Y166D02*
X2193Y155D01*
D02*
X2093Y166D02*
X2093Y155D01*
D02*
X2093Y1144D02*
X2093Y1133D01*
D02*
X1993Y166D02*
X1993Y155D01*
D02*
X1993Y1144D02*
X1993Y1133D01*
D02*
X1893Y1144D02*
X1893Y1133D01*
D02*
X1893Y166D02*
X1893Y155D01*
D02*
X1793Y1144D02*
X1793Y1133D01*
D02*
X1793Y166D02*
X1793Y155D01*
D02*
X1693Y166D02*
X1693Y155D01*
D02*
X1693Y1144D02*
X1693Y1133D01*
D02*
X1593Y1144D02*
X1593Y1133D01*
D02*
X1593Y166D02*
X1593Y155D01*
D02*
X1493Y1144D02*
X1493Y1133D01*
D02*
X1493Y166D02*
X1493Y155D01*
D02*
X1393Y1144D02*
X1393Y1133D01*
D02*
X1393Y166D02*
X1393Y155D01*
D02*
X1293Y1144D02*
X1293Y1133D01*
D02*
X1293Y166D02*
X1293Y155D01*
D02*
X1193Y166D02*
X1193Y155D01*
D02*
X1193Y1144D02*
X1193Y1133D01*
D02*
X1093Y166D02*
X1093Y155D01*
D02*
X1093Y1144D02*
X1093Y1133D01*
D02*
X993Y166D02*
X993Y155D01*
D02*
X993Y1144D02*
X993Y1133D01*
D02*
X893Y1144D02*
X893Y1133D01*
D02*
X893Y166D02*
X893Y155D01*
D02*
X793Y1144D02*
X793Y1133D01*
D02*
X793Y166D02*
X793Y155D01*
D02*
X693Y1144D02*
X693Y1133D01*
D02*
X693Y166D02*
X693Y155D01*
D02*
X593Y166D02*
X593Y155D01*
D02*
X593Y1144D02*
X593Y1133D01*
D02*
X493Y166D02*
X493Y155D01*
D02*
X493Y1144D02*
X493Y1133D01*
D02*
X393Y1144D02*
X393Y1133D01*
D02*
X393Y166D02*
X393Y155D01*
D02*
X293Y1144D02*
X293Y1133D01*
D02*
X293Y166D02*
X293Y155D01*
D02*
X193Y166D02*
X193Y155D01*
D02*
X193Y1144D02*
X193Y1133D01*
D02*
X93Y1144D02*
X93Y1133D01*
D02*
X93Y166D02*
X93Y155D01*
D02*
X2994Y1002D02*
X2993Y297D01*
D02*
X2893Y1002D02*
X2894Y297D01*
D02*
X2794Y1002D02*
X2793Y297D01*
D02*
X2693Y1002D02*
X2694Y297D01*
D02*
X2594Y1002D02*
X2593Y297D01*
D02*
X2493Y1002D02*
X2494Y297D01*
D02*
X2394Y1002D02*
X2393Y297D01*
D02*
X2293Y1002D02*
X2294Y297D01*
D02*
X2194Y1002D02*
X2193Y297D01*
D02*
X2093Y1002D02*
X2094Y297D01*
D02*
X1994Y1002D02*
X1993Y297D01*
D02*
X1893Y1002D02*
X1894Y297D01*
D02*
X1794Y1002D02*
X1793Y297D01*
D02*
X1693Y1002D02*
X1694Y297D01*
D02*
X1594Y1002D02*
X1593Y297D01*
D02*
X1494Y1002D02*
X1493Y297D01*
D02*
X1393Y1002D02*
X1394Y297D01*
D02*
X1294Y1002D02*
X1293Y297D01*
D02*
X1193Y1002D02*
X1194Y297D01*
D02*
X1094Y1002D02*
X1093Y297D01*
D02*
X993Y1002D02*
X994Y297D01*
D02*
X894Y1002D02*
X893Y297D01*
D02*
X793Y1002D02*
X794Y297D01*
D02*
X694Y1002D02*
X693Y297D01*
D02*
X593Y1002D02*
X594Y297D01*
D02*
X494Y1002D02*
X493Y297D01*
D02*
X393Y1002D02*
X394Y297D01*
D02*
X294Y1002D02*
X293Y297D01*
D02*
X193Y1002D02*
X194Y297D01*
D02*
X94Y1002D02*
X93Y297D01*
G04 End of Copper0*
M02*