G04 MADE WITH FRITZING*
G04 WWW.FRITZING.ORG*
G04 DOUBLE SIDED*
G04 HOLES PLATED*
G04 CONTOUR ON CENTER OF CONTOUR VECTOR*
%ASAXBY*%
%FSLAX23Y23*%
%MOIN*%
%OFA0B0*%
%SFA1.0B1.0*%
%ADD10R,0.061181X0.151823*%
%LNMASK1*%
G90*
G70*
G54D10*
X1594Y232D03*
X1694Y90D03*
X1794Y232D03*
X1894Y90D03*
X1994Y232D03*
X2094Y90D03*
X2194Y232D03*
X2294Y90D03*
X2394Y232D03*
X2494Y90D03*
X2594Y232D03*
X2694Y90D03*
X2794Y232D03*
X2894Y90D03*
X2994Y232D03*
X1594Y1209D03*
X1694Y1068D03*
X1794Y1209D03*
X1894Y1068D03*
X1994Y1209D03*
X2094Y1068D03*
X2194Y1209D03*
X2294Y1068D03*
X2394Y1209D03*
X2494Y1068D03*
X2594Y1209D03*
X2694Y1068D03*
X2794Y1209D03*
X2894Y1068D03*
X2994Y1209D03*
X2993Y90D03*
X2893Y232D03*
X2793Y90D03*
X2693Y232D03*
X2593Y90D03*
X2493Y232D03*
X2393Y90D03*
X2293Y232D03*
X2193Y90D03*
X2093Y232D03*
X1993Y90D03*
X1893Y232D03*
X1793Y90D03*
X1693Y232D03*
X1593Y90D03*
X2993Y1068D03*
X2893Y1210D03*
X2793Y1068D03*
X2693Y1210D03*
X2593Y1068D03*
X2493Y1210D03*
X2393Y1068D03*
X2293Y1210D03*
X2193Y1068D03*
X2093Y1210D03*
X1993Y1068D03*
X1893Y1210D03*
X1793Y1068D03*
X1693Y1210D03*
X1593Y1068D03*
X1493Y90D03*
X1393Y232D03*
X1293Y90D03*
X1193Y232D03*
X1093Y90D03*
X993Y232D03*
X893Y90D03*
X793Y232D03*
X693Y90D03*
X593Y232D03*
X493Y90D03*
X393Y232D03*
X293Y90D03*
X193Y232D03*
X93Y90D03*
X1493Y1068D03*
X1393Y1210D03*
X1293Y1068D03*
X1193Y1210D03*
X1093Y1068D03*
X993Y1210D03*
X893Y1068D03*
X793Y1210D03*
X693Y1068D03*
X593Y1210D03*
X493Y1068D03*
X393Y1210D03*
X293Y1068D03*
X193Y1210D03*
X93Y1068D03*
X94Y232D03*
X194Y90D03*
X294Y232D03*
X394Y90D03*
X494Y232D03*
X594Y90D03*
X694Y232D03*
X794Y90D03*
X894Y232D03*
X994Y90D03*
X1094Y232D03*
X1194Y90D03*
X1294Y232D03*
X1394Y90D03*
X1494Y232D03*
X94Y1209D03*
X194Y1068D03*
X294Y1209D03*
X394Y1068D03*
X494Y1209D03*
X594Y1068D03*
X694Y1209D03*
X794Y1068D03*
X894Y1209D03*
X994Y1068D03*
X1094Y1209D03*
X1194Y1068D03*
X1294Y1209D03*
X1394Y1068D03*
X1494Y1209D03*
G04 End of Mask1*
M02*