G04 MADE WITH FRITZING*
G04 WWW.FRITZING.ORG*
G04 DOUBLE SIDED*
G04 HOLES PLATED*
G04 CONTOUR ON CENTER OF CONTOUR VECTOR*
%ASAXBY*%
%FSLAX23Y23*%
%MOIN*%
%OFA0B0*%
%SFA1.0B1.0*%
%ADD10R,3.094490X1.299210X3.078490X1.283210*%
%ADD11C,0.008000*%
%ADD12R,0.001000X0.001000*%
%LNSILK1*%
G90*
G70*
G54D11*
X4Y1295D02*
X3090Y1295D01*
X3090Y4D01*
X4Y4D01*
X4Y1295D01*
D02*
G54D12*
X978Y722D02*
X1021Y722D01*
X1122Y722D02*
X1133Y722D01*
X1159Y722D02*
X1170Y722D01*
X1199Y722D02*
X1238Y722D01*
X1292Y722D02*
X1310Y722D01*
X1363Y722D02*
X1363Y722D01*
X1411Y722D02*
X1422Y722D01*
X1448Y722D02*
X1459Y722D01*
X1556Y722D02*
X1599Y722D01*
X1701Y722D02*
X1748Y722D01*
X1773Y722D02*
X1816Y722D01*
X1845Y722D02*
X1857Y722D01*
X1922Y722D02*
X1940Y722D01*
X1990Y722D02*
X2033Y722D01*
X2062Y722D02*
X2095Y722D01*
X977Y721D02*
X1024Y721D01*
X1071Y721D02*
X1076Y721D01*
X1122Y721D02*
X1134Y721D01*
X1158Y721D02*
X1171Y721D01*
X1196Y721D02*
X1241Y721D01*
X1287Y721D02*
X1313Y721D01*
X1358Y721D02*
X1368Y721D01*
X1411Y721D02*
X1423Y721D01*
X1447Y721D02*
X1460Y721D01*
X1555Y721D02*
X1602Y721D01*
X1630Y721D02*
X1635Y721D01*
X1669Y721D02*
X1674Y721D01*
X1700Y721D02*
X1749Y721D01*
X1772Y721D02*
X1819Y721D01*
X1845Y721D02*
X1857Y721D01*
X1886Y721D02*
X1891Y721D01*
X1919Y721D02*
X1945Y721D01*
X1989Y721D02*
X2036Y721D01*
X2061Y721D02*
X2101Y721D01*
X977Y720D02*
X1025Y720D01*
X1070Y720D02*
X1077Y720D01*
X1122Y720D02*
X1135Y720D01*
X1157Y720D02*
X1171Y720D01*
X1195Y720D02*
X1242Y720D01*
X1285Y720D02*
X1314Y720D01*
X1357Y720D02*
X1369Y720D01*
X1411Y720D02*
X1424Y720D01*
X1447Y720D02*
X1460Y720D01*
X1555Y720D02*
X1603Y720D01*
X1629Y720D02*
X1636Y720D01*
X1668Y720D02*
X1675Y720D01*
X1700Y720D02*
X1749Y720D01*
X1772Y720D02*
X1820Y720D01*
X1845Y720D02*
X1858Y720D01*
X1885Y720D02*
X1892Y720D01*
X1918Y720D02*
X1947Y720D01*
X1989Y720D02*
X2037Y720D01*
X2061Y720D02*
X2103Y720D01*
X977Y719D02*
X1026Y719D01*
X1070Y719D02*
X1078Y719D01*
X1122Y719D02*
X1136Y719D01*
X1157Y719D02*
X1171Y719D01*
X1195Y719D02*
X1242Y719D01*
X1283Y719D02*
X1315Y719D01*
X1355Y719D02*
X1371Y719D01*
X1411Y719D02*
X1425Y719D01*
X1446Y719D02*
X1460Y719D01*
X1555Y719D02*
X1604Y719D01*
X1628Y719D02*
X1637Y719D01*
X1668Y719D02*
X1676Y719D01*
X1700Y719D02*
X1749Y719D01*
X1772Y719D02*
X1821Y719D01*
X1845Y719D02*
X1858Y719D01*
X1885Y719D02*
X1893Y719D01*
X1917Y719D02*
X1948Y719D01*
X1989Y719D02*
X2038Y719D01*
X2061Y719D02*
X2104Y719D01*
X977Y718D02*
X1026Y718D01*
X1069Y718D02*
X1078Y718D01*
X1122Y718D02*
X1136Y718D01*
X1156Y718D02*
X1171Y718D01*
X1194Y718D02*
X1243Y718D01*
X1282Y718D02*
X1315Y718D01*
X1354Y718D02*
X1372Y718D01*
X1411Y718D02*
X1425Y718D01*
X1445Y718D02*
X1460Y718D01*
X1555Y718D02*
X1604Y718D01*
X1628Y718D02*
X1637Y718D01*
X1667Y718D02*
X1676Y718D01*
X1700Y718D02*
X1749Y718D01*
X1772Y718D02*
X1821Y718D01*
X1845Y718D02*
X1859Y718D01*
X1885Y718D02*
X1893Y718D01*
X1917Y718D02*
X1950Y718D01*
X1989Y718D02*
X2038Y718D01*
X2061Y718D02*
X2105Y718D01*
X977Y717D02*
X1026Y717D01*
X1069Y717D02*
X1079Y717D01*
X1122Y717D02*
X1137Y717D01*
X1155Y717D02*
X1171Y717D01*
X1194Y717D02*
X1243Y717D01*
X1281Y717D02*
X1315Y717D01*
X1353Y717D02*
X1373Y717D01*
X1411Y717D02*
X1426Y717D01*
X1445Y717D02*
X1460Y717D01*
X1555Y717D02*
X1604Y717D01*
X1628Y717D02*
X1638Y717D01*
X1667Y717D02*
X1677Y717D01*
X1700Y717D02*
X1749Y717D01*
X1772Y717D02*
X1821Y717D01*
X1845Y717D02*
X1859Y717D01*
X1884Y717D02*
X1893Y717D01*
X1917Y717D02*
X1951Y717D01*
X1989Y717D02*
X2038Y717D01*
X2061Y717D02*
X2106Y717D01*
X977Y716D02*
X1026Y716D01*
X1069Y716D02*
X1079Y716D01*
X1122Y716D02*
X1138Y716D01*
X1155Y716D02*
X1171Y716D01*
X1194Y716D02*
X1243Y716D01*
X1280Y716D02*
X1315Y716D01*
X1353Y716D02*
X1373Y716D01*
X1411Y716D02*
X1427Y716D01*
X1444Y716D02*
X1460Y716D01*
X1555Y716D02*
X1604Y716D01*
X1628Y716D02*
X1638Y716D01*
X1666Y716D02*
X1676Y716D01*
X1700Y716D02*
X1749Y716D01*
X1772Y716D02*
X1821Y716D01*
X1845Y716D02*
X1860Y716D01*
X1884Y716D02*
X1893Y716D01*
X1917Y716D02*
X1952Y716D01*
X1989Y716D02*
X2038Y716D01*
X2061Y716D02*
X2107Y716D01*
X977Y715D02*
X1026Y715D01*
X1068Y715D02*
X1079Y715D01*
X1122Y715D02*
X1138Y715D01*
X1154Y715D02*
X1171Y715D01*
X1195Y715D02*
X1242Y715D01*
X1280Y715D02*
X1315Y715D01*
X1352Y715D02*
X1374Y715D01*
X1411Y715D02*
X1427Y715D01*
X1443Y715D02*
X1460Y715D01*
X1555Y715D02*
X1604Y715D01*
X1628Y715D02*
X1639Y715D01*
X1665Y715D02*
X1676Y715D01*
X1700Y715D02*
X1749Y715D01*
X1772Y715D02*
X1821Y715D01*
X1845Y715D02*
X1860Y715D01*
X1884Y715D02*
X1893Y715D01*
X1917Y715D02*
X1952Y715D01*
X1989Y715D02*
X2038Y715D01*
X2061Y715D02*
X2108Y715D01*
X977Y714D02*
X1025Y714D01*
X1068Y714D02*
X1079Y714D01*
X1122Y714D02*
X1139Y714D01*
X1153Y714D02*
X1171Y714D01*
X1195Y714D02*
X1242Y714D01*
X1279Y714D02*
X1314Y714D01*
X1351Y714D02*
X1375Y714D01*
X1411Y714D02*
X1428Y714D01*
X1442Y714D02*
X1460Y714D01*
X1555Y714D02*
X1603Y714D01*
X1629Y714D02*
X1639Y714D01*
X1665Y714D02*
X1676Y714D01*
X1700Y714D02*
X1749Y714D01*
X1772Y714D02*
X1820Y714D01*
X1845Y714D02*
X1860Y714D01*
X1884Y714D02*
X1893Y714D01*
X1918Y714D02*
X1953Y714D01*
X1989Y714D02*
X2037Y714D01*
X2061Y714D02*
X2108Y714D01*
X977Y713D02*
X1024Y713D01*
X1068Y713D02*
X1080Y713D01*
X1122Y713D02*
X1140Y713D01*
X1153Y713D02*
X1171Y713D01*
X1196Y713D02*
X1241Y713D01*
X1278Y713D02*
X1313Y713D01*
X1351Y713D02*
X1375Y713D01*
X1411Y713D02*
X1429Y713D01*
X1442Y713D02*
X1460Y713D01*
X1555Y713D02*
X1602Y713D01*
X1629Y713D02*
X1640Y713D01*
X1664Y713D02*
X1675Y713D01*
X1700Y713D02*
X1749Y713D01*
X1772Y713D02*
X1819Y713D01*
X1845Y713D02*
X1861Y713D01*
X1884Y713D02*
X1893Y713D01*
X1919Y713D02*
X1953Y713D01*
X1989Y713D02*
X2036Y713D01*
X2061Y713D02*
X2109Y713D01*
X977Y712D02*
X1021Y712D01*
X1068Y712D02*
X1080Y712D01*
X1122Y712D02*
X1140Y712D01*
X1152Y712D02*
X1171Y712D01*
X1199Y712D02*
X1238Y712D01*
X1278Y712D02*
X1310Y712D01*
X1350Y712D02*
X1376Y712D01*
X1411Y712D02*
X1430Y712D01*
X1441Y712D02*
X1460Y712D01*
X1555Y712D02*
X1600Y712D01*
X1630Y712D02*
X1641Y712D01*
X1664Y712D02*
X1674Y712D01*
X1700Y712D02*
X1749Y712D01*
X1772Y712D02*
X1816Y712D01*
X1845Y712D02*
X1861Y712D01*
X1884Y712D02*
X1893Y712D01*
X1922Y712D02*
X1954Y712D01*
X1989Y712D02*
X2033Y712D01*
X2061Y712D02*
X2109Y712D01*
X977Y711D02*
X986Y711D01*
X1067Y711D02*
X1080Y711D01*
X1122Y711D02*
X1141Y711D01*
X1151Y711D02*
X1171Y711D01*
X1214Y711D02*
X1223Y711D01*
X1278Y711D02*
X1289Y711D01*
X1350Y711D02*
X1361Y711D01*
X1365Y711D02*
X1376Y711D01*
X1411Y711D02*
X1430Y711D01*
X1440Y711D02*
X1460Y711D01*
X1555Y711D02*
X1565Y711D01*
X1630Y711D02*
X1641Y711D01*
X1663Y711D02*
X1674Y711D01*
X1700Y711D02*
X1709Y711D01*
X1720Y711D02*
X1729Y711D01*
X1740Y711D02*
X1749Y711D01*
X1772Y711D02*
X1781Y711D01*
X1845Y711D02*
X1862Y711D01*
X1884Y711D02*
X1893Y711D01*
X1927Y711D02*
X1936Y711D01*
X1943Y711D02*
X1954Y711D01*
X1989Y711D02*
X1998Y711D01*
X2061Y711D02*
X2071Y711D01*
X2099Y711D02*
X2110Y711D01*
X977Y710D02*
X986Y710D01*
X1067Y710D02*
X1081Y710D01*
X1122Y710D02*
X1142Y710D01*
X1150Y710D02*
X1171Y710D01*
X1214Y710D02*
X1223Y710D01*
X1277Y710D02*
X1288Y710D01*
X1349Y710D02*
X1360Y710D01*
X1366Y710D02*
X1377Y710D01*
X1411Y710D02*
X1431Y710D01*
X1440Y710D02*
X1460Y710D01*
X1555Y710D02*
X1565Y710D01*
X1631Y710D02*
X1642Y710D01*
X1663Y710D02*
X1673Y710D01*
X1700Y710D02*
X1709Y710D01*
X1720Y710D02*
X1729Y710D01*
X1740Y710D02*
X1749Y710D01*
X1772Y710D02*
X1781Y710D01*
X1845Y710D02*
X1862Y710D01*
X1884Y710D02*
X1893Y710D01*
X1927Y710D02*
X1936Y710D01*
X1944Y710D02*
X1955Y710D01*
X1989Y710D02*
X1998Y710D01*
X2061Y710D02*
X2071Y710D01*
X2100Y710D02*
X2110Y710D01*
X977Y709D02*
X986Y709D01*
X1067Y709D02*
X1081Y709D01*
X1122Y709D02*
X1143Y709D01*
X1150Y709D02*
X1171Y709D01*
X1214Y709D02*
X1223Y709D01*
X1277Y709D02*
X1287Y709D01*
X1349Y709D02*
X1359Y709D01*
X1367Y709D02*
X1377Y709D01*
X1411Y709D02*
X1432Y709D01*
X1439Y709D02*
X1460Y709D01*
X1555Y709D02*
X1565Y709D01*
X1632Y709D02*
X1642Y709D01*
X1662Y709D02*
X1673Y709D01*
X1700Y709D02*
X1709Y709D01*
X1720Y709D02*
X1729Y709D01*
X1740Y709D02*
X1749Y709D01*
X1772Y709D02*
X1781Y709D01*
X1845Y709D02*
X1863Y709D01*
X1884Y709D02*
X1893Y709D01*
X1927Y709D02*
X1936Y709D01*
X1945Y709D02*
X1955Y709D01*
X1989Y709D02*
X1998Y709D01*
X2061Y709D02*
X2071Y709D01*
X2101Y709D02*
X2110Y709D01*
X977Y708D02*
X986Y708D01*
X1066Y708D02*
X1081Y708D01*
X1122Y708D02*
X1143Y708D01*
X1149Y708D02*
X1171Y708D01*
X1214Y708D02*
X1223Y708D01*
X1276Y708D02*
X1286Y708D01*
X1348Y708D02*
X1359Y708D01*
X1367Y708D02*
X1378Y708D01*
X1411Y708D02*
X1432Y708D01*
X1438Y708D02*
X1460Y708D01*
X1555Y708D02*
X1565Y708D01*
X1632Y708D02*
X1643Y708D01*
X1661Y708D02*
X1672Y708D01*
X1700Y708D02*
X1709Y708D01*
X1720Y708D02*
X1729Y708D01*
X1740Y708D02*
X1749Y708D01*
X1772Y708D02*
X1781Y708D01*
X1845Y708D02*
X1863Y708D01*
X1884Y708D02*
X1893Y708D01*
X1927Y708D02*
X1936Y708D01*
X1946Y708D02*
X1956Y708D01*
X1989Y708D02*
X1998Y708D01*
X2061Y708D02*
X2071Y708D01*
X2101Y708D02*
X2110Y708D01*
X977Y707D02*
X986Y707D01*
X1066Y707D02*
X1082Y707D01*
X1122Y707D02*
X1131Y707D01*
X1133Y707D02*
X1144Y707D01*
X1148Y707D02*
X1171Y707D01*
X1214Y707D02*
X1223Y707D01*
X1276Y707D02*
X1286Y707D01*
X1348Y707D02*
X1358Y707D01*
X1368Y707D02*
X1378Y707D01*
X1411Y707D02*
X1420Y707D01*
X1422Y707D02*
X1433Y707D01*
X1438Y707D02*
X1449Y707D01*
X1451Y707D02*
X1460Y707D01*
X1555Y707D02*
X1565Y707D01*
X1633Y707D02*
X1644Y707D01*
X1661Y707D02*
X1672Y707D01*
X1700Y707D02*
X1709Y707D01*
X1720Y707D02*
X1729Y707D01*
X1740Y707D02*
X1749Y707D01*
X1772Y707D02*
X1781Y707D01*
X1845Y707D02*
X1864Y707D01*
X1884Y707D02*
X1893Y707D01*
X1927Y707D02*
X1936Y707D01*
X1946Y707D02*
X1956Y707D01*
X1989Y707D02*
X1998Y707D01*
X2061Y707D02*
X2071Y707D01*
X2101Y707D02*
X2110Y707D01*
X977Y706D02*
X986Y706D01*
X1066Y706D02*
X1082Y706D01*
X1122Y706D02*
X1131Y706D01*
X1133Y706D02*
X1145Y706D01*
X1148Y706D02*
X1159Y706D01*
X1161Y706D02*
X1171Y706D01*
X1214Y706D02*
X1223Y706D01*
X1275Y706D02*
X1285Y706D01*
X1347Y706D02*
X1358Y706D01*
X1368Y706D02*
X1379Y706D01*
X1411Y706D02*
X1420Y706D01*
X1422Y706D02*
X1434Y706D01*
X1437Y706D02*
X1448Y706D01*
X1451Y706D02*
X1460Y706D01*
X1555Y706D02*
X1565Y706D01*
X1633Y706D02*
X1644Y706D01*
X1660Y706D02*
X1671Y706D01*
X1701Y706D02*
X1708Y706D01*
X1720Y706D02*
X1729Y706D01*
X1741Y706D02*
X1748Y706D01*
X1772Y706D02*
X1781Y706D01*
X1845Y706D02*
X1864Y706D01*
X1884Y706D02*
X1893Y706D01*
X1927Y706D02*
X1936Y706D01*
X1947Y706D02*
X1957Y706D01*
X1989Y706D02*
X1998Y706D01*
X2061Y706D02*
X2071Y706D01*
X2101Y706D02*
X2110Y706D01*
X977Y705D02*
X986Y705D01*
X1066Y705D02*
X1082Y705D01*
X1122Y705D02*
X1131Y705D01*
X1134Y705D02*
X1145Y705D01*
X1147Y705D02*
X1158Y705D01*
X1161Y705D02*
X1171Y705D01*
X1214Y705D02*
X1223Y705D01*
X1275Y705D02*
X1285Y705D01*
X1347Y705D02*
X1357Y705D01*
X1369Y705D02*
X1379Y705D01*
X1411Y705D02*
X1420Y705D01*
X1423Y705D02*
X1447Y705D01*
X1451Y705D02*
X1460Y705D01*
X1555Y705D02*
X1565Y705D01*
X1634Y705D02*
X1645Y705D01*
X1660Y705D02*
X1670Y705D01*
X1702Y705D02*
X1708Y705D01*
X1720Y705D02*
X1729Y705D01*
X1741Y705D02*
X1747Y705D01*
X1772Y705D02*
X1781Y705D01*
X1845Y705D02*
X1864Y705D01*
X1884Y705D02*
X1893Y705D01*
X1927Y705D02*
X1936Y705D01*
X1947Y705D02*
X1957Y705D01*
X1989Y705D02*
X1998Y705D01*
X2061Y705D02*
X2071Y705D01*
X2101Y705D02*
X2110Y705D01*
X977Y704D02*
X986Y704D01*
X1065Y704D02*
X1082Y704D01*
X1122Y704D02*
X1131Y704D01*
X1135Y704D02*
X1158Y704D01*
X1161Y704D02*
X1171Y704D01*
X1214Y704D02*
X1223Y704D01*
X1274Y704D02*
X1284Y704D01*
X1346Y704D02*
X1357Y704D01*
X1369Y704D02*
X1380Y704D01*
X1411Y704D02*
X1420Y704D01*
X1424Y704D02*
X1447Y704D01*
X1451Y704D02*
X1460Y704D01*
X1555Y704D02*
X1565Y704D01*
X1635Y704D02*
X1645Y704D01*
X1659Y704D02*
X1670Y704D01*
X1703Y704D02*
X1706Y704D01*
X1720Y704D02*
X1729Y704D01*
X1743Y704D02*
X1746Y704D01*
X1772Y704D02*
X1781Y704D01*
X1845Y704D02*
X1865Y704D01*
X1884Y704D02*
X1893Y704D01*
X1927Y704D02*
X1936Y704D01*
X1948Y704D02*
X1958Y704D01*
X1989Y704D02*
X1998Y704D01*
X2061Y704D02*
X2071Y704D01*
X2101Y704D02*
X2110Y704D01*
X977Y703D02*
X986Y703D01*
X1065Y703D02*
X1083Y703D01*
X1122Y703D02*
X1131Y703D01*
X1135Y703D02*
X1157Y703D01*
X1161Y703D02*
X1171Y703D01*
X1214Y703D02*
X1223Y703D01*
X1274Y703D02*
X1284Y703D01*
X1346Y703D02*
X1356Y703D01*
X1370Y703D02*
X1380Y703D01*
X1411Y703D02*
X1420Y703D01*
X1425Y703D02*
X1446Y703D01*
X1451Y703D02*
X1460Y703D01*
X1555Y703D02*
X1565Y703D01*
X1635Y703D02*
X1646Y703D01*
X1658Y703D02*
X1669Y703D01*
X1720Y703D02*
X1729Y703D01*
X1772Y703D02*
X1781Y703D01*
X1845Y703D02*
X1865Y703D01*
X1884Y703D02*
X1893Y703D01*
X1927Y703D02*
X1936Y703D01*
X1948Y703D02*
X1958Y703D01*
X1989Y703D02*
X1998Y703D01*
X2061Y703D02*
X2071Y703D01*
X2101Y703D02*
X2110Y703D01*
X977Y702D02*
X986Y702D01*
X1065Y702D02*
X1083Y702D01*
X1122Y702D02*
X1131Y702D01*
X1136Y702D02*
X1156Y702D01*
X1161Y702D02*
X1171Y702D01*
X1214Y702D02*
X1223Y702D01*
X1273Y702D02*
X1283Y702D01*
X1345Y702D02*
X1356Y702D01*
X1370Y702D02*
X1381Y702D01*
X1411Y702D02*
X1420Y702D01*
X1425Y702D02*
X1445Y702D01*
X1451Y702D02*
X1460Y702D01*
X1555Y702D02*
X1565Y702D01*
X1636Y702D02*
X1646Y702D01*
X1658Y702D02*
X1669Y702D01*
X1720Y702D02*
X1729Y702D01*
X1772Y702D02*
X1781Y702D01*
X1845Y702D02*
X1854Y702D01*
X1856Y702D02*
X1866Y702D01*
X1884Y702D02*
X1893Y702D01*
X1927Y702D02*
X1936Y702D01*
X1949Y702D02*
X1959Y702D01*
X1989Y702D02*
X1998Y702D01*
X2061Y702D02*
X2071Y702D01*
X2101Y702D02*
X2110Y702D01*
X977Y701D02*
X986Y701D01*
X1064Y701D02*
X1083Y701D01*
X1122Y701D02*
X1131Y701D01*
X1137Y701D02*
X1155Y701D01*
X1161Y701D02*
X1171Y701D01*
X1214Y701D02*
X1223Y701D01*
X1273Y701D02*
X1283Y701D01*
X1345Y701D02*
X1355Y701D01*
X1371Y701D02*
X1381Y701D01*
X1411Y701D02*
X1420Y701D01*
X1426Y701D02*
X1445Y701D01*
X1451Y701D02*
X1460Y701D01*
X1555Y701D02*
X1565Y701D01*
X1636Y701D02*
X1647Y701D01*
X1657Y701D02*
X1668Y701D01*
X1720Y701D02*
X1729Y701D01*
X1772Y701D02*
X1781Y701D01*
X1845Y701D02*
X1854Y701D01*
X1856Y701D02*
X1866Y701D01*
X1884Y701D02*
X1893Y701D01*
X1927Y701D02*
X1936Y701D01*
X1949Y701D02*
X1959Y701D01*
X1989Y701D02*
X1998Y701D01*
X2061Y701D02*
X2071Y701D01*
X2101Y701D02*
X2110Y701D01*
X977Y700D02*
X986Y700D01*
X1064Y700D02*
X1084Y700D01*
X1122Y700D02*
X1131Y700D01*
X1137Y700D02*
X1155Y700D01*
X1161Y700D02*
X1171Y700D01*
X1214Y700D02*
X1223Y700D01*
X1272Y700D02*
X1282Y700D01*
X1344Y700D02*
X1355Y700D01*
X1371Y700D02*
X1382Y700D01*
X1411Y700D02*
X1420Y700D01*
X1427Y700D02*
X1444Y700D01*
X1451Y700D02*
X1460Y700D01*
X1555Y700D02*
X1565Y700D01*
X1637Y700D02*
X1648Y700D01*
X1657Y700D02*
X1667Y700D01*
X1720Y700D02*
X1729Y700D01*
X1772Y700D02*
X1781Y700D01*
X1845Y700D02*
X1854Y700D01*
X1857Y700D02*
X1867Y700D01*
X1884Y700D02*
X1893Y700D01*
X1927Y700D02*
X1936Y700D01*
X1950Y700D02*
X1960Y700D01*
X1989Y700D02*
X1998Y700D01*
X2061Y700D02*
X2071Y700D01*
X2101Y700D02*
X2110Y700D01*
X977Y699D02*
X986Y699D01*
X1064Y699D02*
X1084Y699D01*
X1122Y699D02*
X1131Y699D01*
X1138Y699D02*
X1154Y699D01*
X1161Y699D02*
X1171Y699D01*
X1214Y699D02*
X1223Y699D01*
X1272Y699D02*
X1282Y699D01*
X1344Y699D02*
X1354Y699D01*
X1372Y699D02*
X1382Y699D01*
X1411Y699D02*
X1420Y699D01*
X1427Y699D02*
X1443Y699D01*
X1451Y699D02*
X1460Y699D01*
X1555Y699D02*
X1565Y699D01*
X1637Y699D02*
X1648Y699D01*
X1656Y699D02*
X1667Y699D01*
X1720Y699D02*
X1729Y699D01*
X1772Y699D02*
X1781Y699D01*
X1845Y699D02*
X1854Y699D01*
X1857Y699D02*
X1867Y699D01*
X1884Y699D02*
X1893Y699D01*
X1927Y699D02*
X1936Y699D01*
X1950Y699D02*
X1960Y699D01*
X1989Y699D02*
X1998Y699D01*
X2061Y699D02*
X2071Y699D01*
X2100Y699D02*
X2110Y699D01*
X977Y698D02*
X986Y698D01*
X1064Y698D02*
X1073Y698D01*
X1075Y698D02*
X1084Y698D01*
X1122Y698D02*
X1131Y698D01*
X1139Y698D02*
X1153Y698D01*
X1161Y698D02*
X1171Y698D01*
X1214Y698D02*
X1223Y698D01*
X1271Y698D02*
X1281Y698D01*
X1343Y698D02*
X1354Y698D01*
X1372Y698D02*
X1383Y698D01*
X1411Y698D02*
X1420Y698D01*
X1428Y698D02*
X1443Y698D01*
X1451Y698D02*
X1460Y698D01*
X1555Y698D02*
X1565Y698D01*
X1638Y698D02*
X1649Y698D01*
X1656Y698D02*
X1666Y698D01*
X1720Y698D02*
X1729Y698D01*
X1772Y698D02*
X1781Y698D01*
X1845Y698D02*
X1854Y698D01*
X1857Y698D02*
X1867Y698D01*
X1884Y698D02*
X1893Y698D01*
X1927Y698D02*
X1936Y698D01*
X1951Y698D02*
X1961Y698D01*
X1989Y698D02*
X1998Y698D01*
X2061Y698D02*
X2071Y698D01*
X2099Y698D02*
X2110Y698D01*
X977Y697D02*
X986Y697D01*
X1063Y697D02*
X1073Y697D01*
X1075Y697D02*
X1084Y697D01*
X1122Y697D02*
X1131Y697D01*
X1140Y697D02*
X1153Y697D01*
X1161Y697D02*
X1171Y697D01*
X1214Y697D02*
X1223Y697D01*
X1271Y697D02*
X1281Y697D01*
X1343Y697D02*
X1353Y697D01*
X1373Y697D02*
X1383Y697D01*
X1411Y697D02*
X1420Y697D01*
X1429Y697D02*
X1442Y697D01*
X1451Y697D02*
X1460Y697D01*
X1555Y697D02*
X1565Y697D01*
X1639Y697D02*
X1649Y697D01*
X1655Y697D02*
X1666Y697D01*
X1720Y697D02*
X1729Y697D01*
X1772Y697D02*
X1781Y697D01*
X1845Y697D02*
X1854Y697D01*
X1858Y697D02*
X1868Y697D01*
X1884Y697D02*
X1893Y697D01*
X1927Y697D02*
X1936Y697D01*
X1951Y697D02*
X1961Y697D01*
X1989Y697D02*
X1998Y697D01*
X2061Y697D02*
X2071Y697D01*
X2098Y697D02*
X2110Y697D01*
X977Y696D02*
X1013Y696D01*
X1063Y696D02*
X1072Y696D01*
X1075Y696D02*
X1085Y696D01*
X1122Y696D02*
X1131Y696D01*
X1140Y696D02*
X1152Y696D01*
X1161Y696D02*
X1171Y696D01*
X1214Y696D02*
X1223Y696D01*
X1270Y696D02*
X1280Y696D01*
X1342Y696D02*
X1353Y696D01*
X1373Y696D02*
X1384Y696D01*
X1411Y696D02*
X1420Y696D01*
X1429Y696D02*
X1441Y696D01*
X1451Y696D02*
X1460Y696D01*
X1555Y696D02*
X1565Y696D01*
X1639Y696D02*
X1650Y696D01*
X1654Y696D02*
X1665Y696D01*
X1720Y696D02*
X1729Y696D01*
X1772Y696D02*
X1781Y696D01*
X1845Y696D02*
X1854Y696D01*
X1858Y696D02*
X1868Y696D01*
X1884Y696D02*
X1893Y696D01*
X1927Y696D02*
X1936Y696D01*
X1952Y696D02*
X1962Y696D01*
X1989Y696D02*
X1998Y696D01*
X2061Y696D02*
X2109Y696D01*
X977Y695D02*
X1015Y695D01*
X1063Y695D02*
X1072Y695D01*
X1075Y695D02*
X1085Y695D01*
X1122Y695D02*
X1131Y695D01*
X1141Y695D02*
X1151Y695D01*
X1161Y695D02*
X1171Y695D01*
X1214Y695D02*
X1223Y695D01*
X1270Y695D02*
X1280Y695D01*
X1342Y695D02*
X1352Y695D01*
X1374Y695D02*
X1384Y695D01*
X1411Y695D02*
X1420Y695D01*
X1430Y695D02*
X1440Y695D01*
X1451Y695D02*
X1460Y695D01*
X1555Y695D02*
X1565Y695D01*
X1640Y695D02*
X1651Y695D01*
X1654Y695D02*
X1664Y695D01*
X1720Y695D02*
X1729Y695D01*
X1772Y695D02*
X1781Y695D01*
X1845Y695D02*
X1854Y695D01*
X1859Y695D02*
X1869Y695D01*
X1884Y695D02*
X1893Y695D01*
X1927Y695D02*
X1936Y695D01*
X1952Y695D02*
X1962Y695D01*
X1989Y695D02*
X1998Y695D01*
X2061Y695D02*
X2109Y695D01*
X977Y694D02*
X1015Y694D01*
X1062Y694D02*
X1072Y694D01*
X1076Y694D02*
X1085Y694D01*
X1122Y694D02*
X1131Y694D01*
X1142Y694D02*
X1151Y694D01*
X1161Y694D02*
X1171Y694D01*
X1214Y694D02*
X1223Y694D01*
X1269Y694D02*
X1279Y694D01*
X1341Y694D02*
X1352Y694D01*
X1374Y694D02*
X1385Y694D01*
X1411Y694D02*
X1420Y694D01*
X1431Y694D02*
X1440Y694D01*
X1451Y694D02*
X1460Y694D01*
X1555Y694D02*
X1565Y694D01*
X1640Y694D02*
X1651Y694D01*
X1653Y694D02*
X1664Y694D01*
X1720Y694D02*
X1729Y694D01*
X1772Y694D02*
X1781Y694D01*
X1845Y694D02*
X1854Y694D01*
X1859Y694D02*
X1869Y694D01*
X1884Y694D02*
X1893Y694D01*
X1927Y694D02*
X1936Y694D01*
X1953Y694D02*
X1963Y694D01*
X1989Y694D02*
X1998Y694D01*
X2061Y694D02*
X2108Y694D01*
X977Y693D02*
X1016Y693D01*
X1062Y693D02*
X1072Y693D01*
X1076Y693D02*
X1086Y693D01*
X1122Y693D02*
X1131Y693D01*
X1142Y693D02*
X1151Y693D01*
X1161Y693D02*
X1171Y693D01*
X1214Y693D02*
X1223Y693D01*
X1269Y693D02*
X1279Y693D01*
X1341Y693D02*
X1351Y693D01*
X1375Y693D02*
X1385Y693D01*
X1411Y693D02*
X1420Y693D01*
X1431Y693D02*
X1440Y693D01*
X1451Y693D02*
X1460Y693D01*
X1555Y693D02*
X1565Y693D01*
X1641Y693D02*
X1663Y693D01*
X1720Y693D02*
X1729Y693D01*
X1772Y693D02*
X1781Y693D01*
X1845Y693D02*
X1854Y693D01*
X1860Y693D02*
X1870Y693D01*
X1884Y693D02*
X1893Y693D01*
X1927Y693D02*
X1936Y693D01*
X1953Y693D02*
X1963Y693D01*
X1989Y693D02*
X1998Y693D01*
X2061Y693D02*
X2107Y693D01*
X977Y692D02*
X1016Y692D01*
X1062Y692D02*
X1071Y692D01*
X1076Y692D02*
X1086Y692D01*
X1122Y692D02*
X1131Y692D01*
X1142Y692D02*
X1151Y692D01*
X1161Y692D02*
X1171Y692D01*
X1214Y692D02*
X1223Y692D01*
X1268Y692D02*
X1278Y692D01*
X1340Y692D02*
X1351Y692D01*
X1375Y692D02*
X1386Y692D01*
X1411Y692D02*
X1420Y692D01*
X1431Y692D02*
X1440Y692D01*
X1451Y692D02*
X1460Y692D01*
X1555Y692D02*
X1565Y692D01*
X1642Y692D02*
X1663Y692D01*
X1720Y692D02*
X1729Y692D01*
X1772Y692D02*
X1781Y692D01*
X1845Y692D02*
X1854Y692D01*
X1860Y692D02*
X1870Y692D01*
X1884Y692D02*
X1893Y692D01*
X1927Y692D02*
X1936Y692D01*
X1954Y692D02*
X1964Y692D01*
X1989Y692D02*
X1998Y692D01*
X2061Y692D02*
X2107Y692D01*
X977Y691D02*
X1016Y691D01*
X1061Y691D02*
X1071Y691D01*
X1077Y691D02*
X1086Y691D01*
X1122Y691D02*
X1131Y691D01*
X1142Y691D02*
X1151Y691D01*
X1161Y691D02*
X1171Y691D01*
X1214Y691D02*
X1223Y691D01*
X1268Y691D02*
X1278Y691D01*
X1340Y691D02*
X1350Y691D01*
X1376Y691D02*
X1386Y691D01*
X1411Y691D02*
X1420Y691D01*
X1431Y691D02*
X1440Y691D01*
X1451Y691D02*
X1460Y691D01*
X1555Y691D02*
X1565Y691D01*
X1642Y691D02*
X1662Y691D01*
X1720Y691D02*
X1729Y691D01*
X1772Y691D02*
X1781Y691D01*
X1845Y691D02*
X1854Y691D01*
X1860Y691D02*
X1871Y691D01*
X1884Y691D02*
X1893Y691D01*
X1927Y691D02*
X1936Y691D01*
X1954Y691D02*
X1964Y691D01*
X1989Y691D02*
X1998Y691D01*
X2061Y691D02*
X2106Y691D01*
X977Y690D02*
X1016Y690D01*
X1061Y690D02*
X1071Y690D01*
X1077Y690D02*
X1086Y690D01*
X1122Y690D02*
X1131Y690D01*
X1142Y690D02*
X1150Y690D01*
X1161Y690D02*
X1171Y690D01*
X1214Y690D02*
X1223Y690D01*
X1267Y690D02*
X1277Y690D01*
X1340Y690D02*
X1350Y690D01*
X1376Y690D02*
X1386Y690D01*
X1411Y690D02*
X1420Y690D01*
X1431Y690D02*
X1440Y690D01*
X1451Y690D02*
X1460Y690D01*
X1555Y690D02*
X1565Y690D01*
X1643Y690D02*
X1662Y690D01*
X1720Y690D02*
X1729Y690D01*
X1772Y690D02*
X1781Y690D01*
X1845Y690D02*
X1854Y690D01*
X1861Y690D02*
X1871Y690D01*
X1884Y690D02*
X1893Y690D01*
X1927Y690D02*
X1936Y690D01*
X1955Y690D02*
X1965Y690D01*
X1989Y690D02*
X1998Y690D01*
X2061Y690D02*
X2105Y690D01*
X977Y689D02*
X1015Y689D01*
X1061Y689D02*
X1070Y689D01*
X1077Y689D02*
X1087Y689D01*
X1122Y689D02*
X1131Y689D01*
X1142Y689D02*
X1150Y689D01*
X1161Y689D02*
X1171Y689D01*
X1214Y689D02*
X1223Y689D01*
X1267Y689D02*
X1277Y689D01*
X1339Y689D02*
X1349Y689D01*
X1377Y689D02*
X1387Y689D01*
X1411Y689D02*
X1420Y689D01*
X1432Y689D02*
X1439Y689D01*
X1451Y689D02*
X1460Y689D01*
X1555Y689D02*
X1565Y689D01*
X1643Y689D02*
X1661Y689D01*
X1720Y689D02*
X1729Y689D01*
X1772Y689D02*
X1781Y689D01*
X1845Y689D02*
X1854Y689D01*
X1861Y689D02*
X1871Y689D01*
X1884Y689D02*
X1893Y689D01*
X1927Y689D02*
X1936Y689D01*
X1955Y689D02*
X1965Y689D01*
X1989Y689D02*
X1998Y689D01*
X2061Y689D02*
X2103Y689D01*
X977Y688D02*
X1015Y688D01*
X1061Y688D02*
X1070Y688D01*
X1078Y688D02*
X1087Y688D01*
X1122Y688D02*
X1131Y688D01*
X1143Y688D02*
X1149Y688D01*
X1161Y688D02*
X1171Y688D01*
X1214Y688D02*
X1223Y688D01*
X1267Y688D02*
X1276Y688D01*
X1339Y688D02*
X1349Y688D01*
X1377Y688D02*
X1387Y688D01*
X1411Y688D02*
X1420Y688D01*
X1432Y688D02*
X1438Y688D01*
X1451Y688D02*
X1460Y688D01*
X1555Y688D02*
X1580Y688D01*
X1644Y688D02*
X1660Y688D01*
X1720Y688D02*
X1729Y688D01*
X1772Y688D02*
X1797Y688D01*
X1845Y688D02*
X1854Y688D01*
X1862Y688D02*
X1872Y688D01*
X1884Y688D02*
X1893Y688D01*
X1927Y688D02*
X1936Y688D01*
X1956Y688D02*
X1965Y688D01*
X1989Y688D02*
X2014Y688D01*
X2061Y688D02*
X2102Y688D01*
X977Y687D02*
X1013Y687D01*
X1060Y687D02*
X1070Y687D01*
X1078Y687D02*
X1087Y687D01*
X1122Y687D02*
X1131Y687D01*
X1145Y687D02*
X1148Y687D01*
X1161Y687D02*
X1171Y687D01*
X1214Y687D02*
X1223Y687D01*
X1267Y687D02*
X1276Y687D01*
X1339Y687D02*
X1348Y687D01*
X1378Y687D02*
X1387Y687D01*
X1411Y687D02*
X1420Y687D01*
X1434Y687D02*
X1437Y687D01*
X1451Y687D02*
X1460Y687D01*
X1555Y687D02*
X1582Y687D01*
X1644Y687D02*
X1660Y687D01*
X1720Y687D02*
X1729Y687D01*
X1772Y687D02*
X1799Y687D01*
X1845Y687D02*
X1854Y687D01*
X1862Y687D02*
X1872Y687D01*
X1884Y687D02*
X1893Y687D01*
X1927Y687D02*
X1936Y687D01*
X1956Y687D02*
X1965Y687D01*
X1989Y687D02*
X2016Y687D01*
X2061Y687D02*
X2099Y687D01*
X977Y686D02*
X986Y686D01*
X1060Y686D02*
X1070Y686D01*
X1078Y686D02*
X1088Y686D01*
X1122Y686D02*
X1131Y686D01*
X1161Y686D02*
X1171Y686D01*
X1214Y686D02*
X1223Y686D01*
X1267Y686D02*
X1276Y686D01*
X1339Y686D02*
X1348Y686D01*
X1378Y686D02*
X1387Y686D01*
X1411Y686D02*
X1420Y686D01*
X1451Y686D02*
X1460Y686D01*
X1555Y686D02*
X1583Y686D01*
X1645Y686D02*
X1659Y686D01*
X1720Y686D02*
X1729Y686D01*
X1772Y686D02*
X1800Y686D01*
X1845Y686D02*
X1854Y686D01*
X1863Y686D02*
X1873Y686D01*
X1884Y686D02*
X1893Y686D01*
X1927Y686D02*
X1936Y686D01*
X1956Y686D02*
X1966Y686D01*
X1989Y686D02*
X2017Y686D01*
X2061Y686D02*
X2071Y686D01*
X2079Y686D02*
X2090Y686D01*
X977Y685D02*
X986Y685D01*
X1060Y685D02*
X1069Y685D01*
X1078Y685D02*
X1088Y685D01*
X1122Y685D02*
X1131Y685D01*
X1161Y685D02*
X1171Y685D01*
X1214Y685D02*
X1223Y685D01*
X1266Y685D02*
X1276Y685D01*
X1339Y685D02*
X1348Y685D01*
X1378Y685D02*
X1387Y685D01*
X1411Y685D02*
X1420Y685D01*
X1451Y685D02*
X1460Y685D01*
X1555Y685D02*
X1584Y685D01*
X1646Y685D02*
X1659Y685D01*
X1720Y685D02*
X1729Y685D01*
X1772Y685D02*
X1801Y685D01*
X1845Y685D02*
X1854Y685D01*
X1863Y685D02*
X1873Y685D01*
X1884Y685D02*
X1893Y685D01*
X1927Y685D02*
X1936Y685D01*
X1956Y685D02*
X1966Y685D01*
X1989Y685D02*
X2018Y685D01*
X2061Y685D02*
X2071Y685D01*
X2079Y685D02*
X2090Y685D01*
X977Y684D02*
X986Y684D01*
X1059Y684D02*
X1069Y684D01*
X1079Y684D02*
X1088Y684D01*
X1122Y684D02*
X1131Y684D01*
X1161Y684D02*
X1171Y684D01*
X1214Y684D02*
X1223Y684D01*
X1266Y684D02*
X1276Y684D01*
X1339Y684D02*
X1348Y684D01*
X1378Y684D02*
X1387Y684D01*
X1411Y684D02*
X1420Y684D01*
X1451Y684D02*
X1460Y684D01*
X1555Y684D02*
X1584Y684D01*
X1646Y684D02*
X1658Y684D01*
X1720Y684D02*
X1729Y684D01*
X1772Y684D02*
X1801Y684D01*
X1845Y684D02*
X1854Y684D01*
X1864Y684D02*
X1874Y684D01*
X1884Y684D02*
X1893Y684D01*
X1927Y684D02*
X1936Y684D01*
X1957Y684D02*
X1966Y684D01*
X1989Y684D02*
X2018Y684D01*
X2061Y684D02*
X2071Y684D01*
X2080Y684D02*
X2091Y684D01*
X977Y683D02*
X986Y683D01*
X1059Y683D02*
X1069Y683D01*
X1079Y683D02*
X1089Y683D01*
X1122Y683D02*
X1131Y683D01*
X1161Y683D02*
X1171Y683D01*
X1214Y683D02*
X1223Y683D01*
X1266Y683D02*
X1275Y683D01*
X1339Y683D02*
X1348Y683D01*
X1378Y683D02*
X1387Y683D01*
X1411Y683D02*
X1420Y683D01*
X1451Y683D02*
X1460Y683D01*
X1555Y683D02*
X1584Y683D01*
X1647Y683D02*
X1658Y683D01*
X1720Y683D02*
X1729Y683D01*
X1772Y683D02*
X1801Y683D01*
X1845Y683D02*
X1854Y683D01*
X1864Y683D02*
X1874Y683D01*
X1884Y683D02*
X1893Y683D01*
X1927Y683D02*
X1936Y683D01*
X1957Y683D02*
X1966Y683D01*
X1989Y683D02*
X2018Y683D01*
X2061Y683D02*
X2071Y683D01*
X2081Y683D02*
X2091Y683D01*
X977Y682D02*
X986Y682D01*
X1059Y682D02*
X1068Y682D01*
X1079Y682D02*
X1089Y682D01*
X1122Y682D02*
X1131Y682D01*
X1161Y682D02*
X1171Y682D01*
X1214Y682D02*
X1223Y682D01*
X1266Y682D02*
X1276Y682D01*
X1339Y682D02*
X1348Y682D01*
X1378Y682D02*
X1387Y682D01*
X1411Y682D02*
X1420Y682D01*
X1451Y682D02*
X1460Y682D01*
X1555Y682D02*
X1584Y682D01*
X1646Y682D02*
X1658Y682D01*
X1720Y682D02*
X1729Y682D01*
X1772Y682D02*
X1801Y682D01*
X1845Y682D02*
X1854Y682D01*
X1864Y682D02*
X1875Y682D01*
X1884Y682D02*
X1893Y682D01*
X1927Y682D02*
X1936Y682D01*
X1956Y682D02*
X1966Y682D01*
X1989Y682D02*
X2018Y682D01*
X2061Y682D02*
X2071Y682D01*
X2081Y682D02*
X2092Y682D01*
X977Y681D02*
X986Y681D01*
X1059Y681D02*
X1068Y681D01*
X1080Y681D02*
X1089Y681D01*
X1122Y681D02*
X1131Y681D01*
X1161Y681D02*
X1171Y681D01*
X1214Y681D02*
X1223Y681D01*
X1266Y681D02*
X1276Y681D01*
X1339Y681D02*
X1348Y681D01*
X1378Y681D02*
X1387Y681D01*
X1411Y681D02*
X1420Y681D01*
X1451Y681D02*
X1460Y681D01*
X1555Y681D02*
X1584Y681D01*
X1646Y681D02*
X1659Y681D01*
X1720Y681D02*
X1729Y681D01*
X1772Y681D02*
X1801Y681D01*
X1845Y681D02*
X1854Y681D01*
X1865Y681D02*
X1875Y681D01*
X1884Y681D02*
X1893Y681D01*
X1927Y681D02*
X1936Y681D01*
X1956Y681D02*
X1966Y681D01*
X1989Y681D02*
X2018Y681D01*
X2061Y681D02*
X2071Y681D01*
X2082Y681D02*
X2092Y681D01*
X977Y680D02*
X986Y680D01*
X1058Y680D02*
X1068Y680D01*
X1080Y680D02*
X1089Y680D01*
X1122Y680D02*
X1131Y680D01*
X1161Y680D02*
X1171Y680D01*
X1214Y680D02*
X1223Y680D01*
X1267Y680D02*
X1276Y680D01*
X1339Y680D02*
X1348Y680D01*
X1378Y680D02*
X1387Y680D01*
X1411Y680D02*
X1420Y680D01*
X1451Y680D02*
X1460Y680D01*
X1555Y680D02*
X1583Y680D01*
X1645Y680D02*
X1659Y680D01*
X1720Y680D02*
X1729Y680D01*
X1772Y680D02*
X1800Y680D01*
X1845Y680D02*
X1854Y680D01*
X1865Y680D02*
X1875Y680D01*
X1884Y680D02*
X1893Y680D01*
X1927Y680D02*
X1936Y680D01*
X1956Y680D02*
X1965Y680D01*
X1989Y680D02*
X2017Y680D01*
X2061Y680D02*
X2071Y680D01*
X2082Y680D02*
X2093Y680D01*
X977Y679D02*
X986Y679D01*
X1058Y679D02*
X1067Y679D01*
X1080Y679D02*
X1090Y679D01*
X1122Y679D02*
X1131Y679D01*
X1161Y679D02*
X1171Y679D01*
X1214Y679D02*
X1223Y679D01*
X1267Y679D02*
X1276Y679D01*
X1339Y679D02*
X1348Y679D01*
X1378Y679D02*
X1387Y679D01*
X1411Y679D02*
X1420Y679D01*
X1451Y679D02*
X1460Y679D01*
X1555Y679D02*
X1582Y679D01*
X1644Y679D02*
X1660Y679D01*
X1720Y679D02*
X1729Y679D01*
X1772Y679D02*
X1799Y679D01*
X1845Y679D02*
X1854Y679D01*
X1866Y679D02*
X1876Y679D01*
X1884Y679D02*
X1893Y679D01*
X1927Y679D02*
X1936Y679D01*
X1956Y679D02*
X1965Y679D01*
X1989Y679D02*
X2016Y679D01*
X2061Y679D02*
X2071Y679D01*
X2083Y679D02*
X2094Y679D01*
X977Y678D02*
X986Y678D01*
X1058Y678D02*
X1067Y678D01*
X1080Y678D02*
X1090Y678D01*
X1122Y678D02*
X1131Y678D01*
X1161Y678D02*
X1171Y678D01*
X1214Y678D02*
X1223Y678D01*
X1267Y678D02*
X1277Y678D01*
X1339Y678D02*
X1349Y678D01*
X1377Y678D02*
X1387Y678D01*
X1411Y678D02*
X1420Y678D01*
X1451Y678D02*
X1460Y678D01*
X1555Y678D02*
X1565Y678D01*
X1644Y678D02*
X1660Y678D01*
X1720Y678D02*
X1729Y678D01*
X1772Y678D02*
X1782Y678D01*
X1845Y678D02*
X1854Y678D01*
X1866Y678D02*
X1876Y678D01*
X1884Y678D02*
X1893Y678D01*
X1927Y678D02*
X1936Y678D01*
X1955Y678D02*
X1965Y678D01*
X1989Y678D02*
X1999Y678D01*
X2061Y678D02*
X2071Y678D01*
X2083Y678D02*
X2094Y678D01*
X977Y677D02*
X986Y677D01*
X1057Y677D02*
X1067Y677D01*
X1081Y677D02*
X1090Y677D01*
X1122Y677D02*
X1131Y677D01*
X1161Y677D02*
X1171Y677D01*
X1214Y677D02*
X1223Y677D01*
X1267Y677D02*
X1277Y677D01*
X1339Y677D02*
X1349Y677D01*
X1377Y677D02*
X1387Y677D01*
X1411Y677D02*
X1420Y677D01*
X1451Y677D02*
X1460Y677D01*
X1555Y677D02*
X1565Y677D01*
X1643Y677D02*
X1661Y677D01*
X1720Y677D02*
X1729Y677D01*
X1772Y677D02*
X1781Y677D01*
X1845Y677D02*
X1854Y677D01*
X1867Y677D02*
X1877Y677D01*
X1884Y677D02*
X1893Y677D01*
X1927Y677D02*
X1936Y677D01*
X1955Y677D02*
X1965Y677D01*
X1989Y677D02*
X1998Y677D01*
X2061Y677D02*
X2071Y677D01*
X2084Y677D02*
X2095Y677D01*
X977Y676D02*
X986Y676D01*
X1057Y676D02*
X1067Y676D01*
X1081Y676D02*
X1091Y676D01*
X1122Y676D02*
X1131Y676D01*
X1161Y676D02*
X1171Y676D01*
X1214Y676D02*
X1223Y676D01*
X1268Y676D02*
X1277Y676D01*
X1340Y676D02*
X1350Y676D01*
X1376Y676D02*
X1386Y676D01*
X1411Y676D02*
X1420Y676D01*
X1451Y676D02*
X1460Y676D01*
X1555Y676D02*
X1565Y676D01*
X1643Y676D02*
X1662Y676D01*
X1720Y676D02*
X1729Y676D01*
X1772Y676D02*
X1781Y676D01*
X1845Y676D02*
X1854Y676D01*
X1867Y676D02*
X1877Y676D01*
X1884Y676D02*
X1893Y676D01*
X1927Y676D02*
X1936Y676D01*
X1955Y676D02*
X1965Y676D01*
X1989Y676D02*
X1998Y676D01*
X2061Y676D02*
X2071Y676D01*
X2085Y676D02*
X2095Y676D01*
X977Y675D02*
X986Y675D01*
X1057Y675D02*
X1066Y675D01*
X1081Y675D02*
X1091Y675D01*
X1122Y675D02*
X1131Y675D01*
X1161Y675D02*
X1171Y675D01*
X1214Y675D02*
X1223Y675D01*
X1268Y675D02*
X1278Y675D01*
X1340Y675D02*
X1350Y675D01*
X1376Y675D02*
X1386Y675D01*
X1411Y675D02*
X1420Y675D01*
X1451Y675D02*
X1460Y675D01*
X1555Y675D02*
X1565Y675D01*
X1642Y675D02*
X1662Y675D01*
X1720Y675D02*
X1729Y675D01*
X1772Y675D02*
X1781Y675D01*
X1845Y675D02*
X1854Y675D01*
X1867Y675D02*
X1878Y675D01*
X1884Y675D02*
X1893Y675D01*
X1927Y675D02*
X1936Y675D01*
X1954Y675D02*
X1964Y675D01*
X1989Y675D02*
X1998Y675D01*
X2061Y675D02*
X2071Y675D01*
X2085Y675D02*
X2096Y675D01*
X977Y674D02*
X986Y674D01*
X1056Y674D02*
X1066Y674D01*
X1082Y674D02*
X1091Y674D01*
X1122Y674D02*
X1131Y674D01*
X1161Y674D02*
X1171Y674D01*
X1214Y674D02*
X1223Y674D01*
X1268Y674D02*
X1278Y674D01*
X1340Y674D02*
X1351Y674D01*
X1375Y674D02*
X1385Y674D01*
X1411Y674D02*
X1420Y674D01*
X1451Y674D02*
X1460Y674D01*
X1555Y674D02*
X1565Y674D01*
X1641Y674D02*
X1663Y674D01*
X1720Y674D02*
X1729Y674D01*
X1772Y674D02*
X1781Y674D01*
X1845Y674D02*
X1854Y674D01*
X1868Y674D02*
X1878Y674D01*
X1884Y674D02*
X1893Y674D01*
X1927Y674D02*
X1936Y674D01*
X1954Y674D02*
X1964Y674D01*
X1989Y674D02*
X1998Y674D01*
X2061Y674D02*
X2071Y674D01*
X2086Y674D02*
X2097Y674D01*
X977Y673D02*
X986Y673D01*
X1056Y673D02*
X1066Y673D01*
X1082Y673D02*
X1091Y673D01*
X1122Y673D02*
X1131Y673D01*
X1161Y673D02*
X1171Y673D01*
X1214Y673D02*
X1223Y673D01*
X1269Y673D02*
X1279Y673D01*
X1341Y673D02*
X1351Y673D01*
X1375Y673D02*
X1385Y673D01*
X1411Y673D02*
X1420Y673D01*
X1451Y673D02*
X1460Y673D01*
X1555Y673D02*
X1565Y673D01*
X1641Y673D02*
X1663Y673D01*
X1720Y673D02*
X1729Y673D01*
X1772Y673D02*
X1781Y673D01*
X1845Y673D02*
X1854Y673D01*
X1868Y673D02*
X1878Y673D01*
X1884Y673D02*
X1893Y673D01*
X1927Y673D02*
X1936Y673D01*
X1953Y673D02*
X1963Y673D01*
X1989Y673D02*
X1998Y673D01*
X2061Y673D02*
X2071Y673D01*
X2086Y673D02*
X2097Y673D01*
X977Y672D02*
X986Y672D01*
X1056Y672D02*
X1065Y672D01*
X1082Y672D02*
X1092Y672D01*
X1122Y672D02*
X1131Y672D01*
X1161Y672D02*
X1171Y672D01*
X1214Y672D02*
X1223Y672D01*
X1269Y672D02*
X1279Y672D01*
X1341Y672D02*
X1352Y672D01*
X1374Y672D02*
X1385Y672D01*
X1411Y672D02*
X1420Y672D01*
X1451Y672D02*
X1460Y672D01*
X1555Y672D02*
X1565Y672D01*
X1640Y672D02*
X1651Y672D01*
X1653Y672D02*
X1664Y672D01*
X1720Y672D02*
X1729Y672D01*
X1772Y672D02*
X1781Y672D01*
X1845Y672D02*
X1854Y672D01*
X1869Y672D02*
X1879Y672D01*
X1884Y672D02*
X1893Y672D01*
X1927Y672D02*
X1936Y672D01*
X1953Y672D02*
X1963Y672D01*
X1989Y672D02*
X1998Y672D01*
X2061Y672D02*
X2071Y672D01*
X2087Y672D02*
X2098Y672D01*
X977Y671D02*
X986Y671D01*
X1056Y671D02*
X1092Y671D01*
X1122Y671D02*
X1131Y671D01*
X1161Y671D02*
X1171Y671D01*
X1214Y671D02*
X1223Y671D01*
X1270Y671D02*
X1280Y671D01*
X1342Y671D02*
X1352Y671D01*
X1374Y671D02*
X1384Y671D01*
X1411Y671D02*
X1420Y671D01*
X1451Y671D02*
X1460Y671D01*
X1555Y671D02*
X1565Y671D01*
X1640Y671D02*
X1651Y671D01*
X1654Y671D02*
X1665Y671D01*
X1720Y671D02*
X1729Y671D01*
X1772Y671D02*
X1781Y671D01*
X1845Y671D02*
X1854Y671D01*
X1869Y671D02*
X1879Y671D01*
X1884Y671D02*
X1893Y671D01*
X1927Y671D02*
X1936Y671D01*
X1952Y671D02*
X1962Y671D01*
X1989Y671D02*
X1998Y671D01*
X2061Y671D02*
X2071Y671D01*
X2088Y671D02*
X2098Y671D01*
X977Y670D02*
X986Y670D01*
X1055Y670D02*
X1092Y670D01*
X1122Y670D02*
X1131Y670D01*
X1161Y670D02*
X1171Y670D01*
X1214Y670D02*
X1223Y670D01*
X1270Y670D02*
X1280Y670D01*
X1342Y670D02*
X1353Y670D01*
X1373Y670D02*
X1384Y670D01*
X1411Y670D02*
X1420Y670D01*
X1451Y670D02*
X1460Y670D01*
X1555Y670D02*
X1565Y670D01*
X1639Y670D02*
X1650Y670D01*
X1654Y670D02*
X1665Y670D01*
X1720Y670D02*
X1729Y670D01*
X1772Y670D02*
X1781Y670D01*
X1845Y670D02*
X1854Y670D01*
X1870Y670D02*
X1880Y670D01*
X1884Y670D02*
X1893Y670D01*
X1927Y670D02*
X1936Y670D01*
X1952Y670D02*
X1962Y670D01*
X1989Y670D02*
X1998Y670D01*
X2061Y670D02*
X2071Y670D01*
X2088Y670D02*
X2099Y670D01*
X977Y669D02*
X986Y669D01*
X1055Y669D02*
X1093Y669D01*
X1122Y669D02*
X1131Y669D01*
X1161Y669D02*
X1171Y669D01*
X1214Y669D02*
X1223Y669D01*
X1271Y669D02*
X1281Y669D01*
X1343Y669D02*
X1353Y669D01*
X1373Y669D02*
X1383Y669D01*
X1411Y669D02*
X1420Y669D01*
X1451Y669D02*
X1460Y669D01*
X1555Y669D02*
X1565Y669D01*
X1639Y669D02*
X1649Y669D01*
X1655Y669D02*
X1666Y669D01*
X1720Y669D02*
X1729Y669D01*
X1772Y669D02*
X1781Y669D01*
X1845Y669D02*
X1854Y669D01*
X1870Y669D02*
X1880Y669D01*
X1884Y669D02*
X1893Y669D01*
X1927Y669D02*
X1936Y669D01*
X1951Y669D02*
X1961Y669D01*
X1989Y669D02*
X1998Y669D01*
X2061Y669D02*
X2071Y669D01*
X2089Y669D02*
X2099Y669D01*
X977Y668D02*
X986Y668D01*
X1055Y668D02*
X1093Y668D01*
X1122Y668D02*
X1131Y668D01*
X1161Y668D02*
X1171Y668D01*
X1214Y668D02*
X1223Y668D01*
X1271Y668D02*
X1281Y668D01*
X1343Y668D02*
X1354Y668D01*
X1372Y668D02*
X1383Y668D01*
X1411Y668D02*
X1420Y668D01*
X1451Y668D02*
X1460Y668D01*
X1555Y668D02*
X1565Y668D01*
X1638Y668D02*
X1649Y668D01*
X1656Y668D02*
X1666Y668D01*
X1720Y668D02*
X1729Y668D01*
X1772Y668D02*
X1781Y668D01*
X1845Y668D02*
X1854Y668D01*
X1871Y668D02*
X1881Y668D01*
X1884Y668D02*
X1893Y668D01*
X1927Y668D02*
X1936Y668D01*
X1951Y668D02*
X1961Y668D01*
X1989Y668D02*
X1998Y668D01*
X2061Y668D02*
X2071Y668D01*
X2089Y668D02*
X2100Y668D01*
X977Y667D02*
X986Y667D01*
X1054Y667D02*
X1093Y667D01*
X1122Y667D02*
X1131Y667D01*
X1161Y667D02*
X1171Y667D01*
X1214Y667D02*
X1223Y667D01*
X1272Y667D02*
X1282Y667D01*
X1344Y667D02*
X1354Y667D01*
X1372Y667D02*
X1382Y667D01*
X1411Y667D02*
X1420Y667D01*
X1451Y667D02*
X1460Y667D01*
X1555Y667D02*
X1565Y667D01*
X1637Y667D02*
X1648Y667D01*
X1656Y667D02*
X1667Y667D01*
X1720Y667D02*
X1729Y667D01*
X1772Y667D02*
X1781Y667D01*
X1845Y667D02*
X1854Y667D01*
X1871Y667D02*
X1881Y667D01*
X1884Y667D02*
X1893Y667D01*
X1927Y667D02*
X1936Y667D01*
X1950Y667D02*
X1960Y667D01*
X1989Y667D02*
X1998Y667D01*
X2061Y667D02*
X2071Y667D01*
X2090Y667D02*
X2101Y667D01*
X977Y666D02*
X986Y666D01*
X1054Y666D02*
X1093Y666D01*
X1122Y666D02*
X1131Y666D01*
X1161Y666D02*
X1171Y666D01*
X1214Y666D02*
X1223Y666D01*
X1272Y666D02*
X1282Y666D01*
X1344Y666D02*
X1355Y666D01*
X1371Y666D02*
X1382Y666D01*
X1411Y666D02*
X1420Y666D01*
X1451Y666D02*
X1460Y666D01*
X1555Y666D02*
X1565Y666D01*
X1637Y666D02*
X1648Y666D01*
X1657Y666D02*
X1667Y666D01*
X1720Y666D02*
X1729Y666D01*
X1772Y666D02*
X1781Y666D01*
X1845Y666D02*
X1854Y666D01*
X1871Y666D02*
X1882Y666D01*
X1884Y666D02*
X1893Y666D01*
X1927Y666D02*
X1936Y666D01*
X1950Y666D02*
X1960Y666D01*
X1989Y666D02*
X1998Y666D01*
X2061Y666D02*
X2071Y666D01*
X2090Y666D02*
X2101Y666D01*
X977Y665D02*
X986Y665D01*
X1054Y665D02*
X1094Y665D01*
X1122Y665D02*
X1131Y665D01*
X1161Y665D02*
X1171Y665D01*
X1214Y665D02*
X1223Y665D01*
X1273Y665D02*
X1283Y665D01*
X1345Y665D02*
X1355Y665D01*
X1371Y665D02*
X1381Y665D01*
X1411Y665D02*
X1420Y665D01*
X1451Y665D02*
X1460Y665D01*
X1555Y665D02*
X1565Y665D01*
X1636Y665D02*
X1647Y665D01*
X1657Y665D02*
X1668Y665D01*
X1720Y665D02*
X1729Y665D01*
X1772Y665D02*
X1781Y665D01*
X1845Y665D02*
X1854Y665D01*
X1872Y665D02*
X1882Y665D01*
X1884Y665D02*
X1893Y665D01*
X1927Y665D02*
X1936Y665D01*
X1949Y665D02*
X1959Y665D01*
X1989Y665D02*
X1998Y665D01*
X2061Y665D02*
X2071Y665D01*
X2091Y665D02*
X2102Y665D01*
X977Y664D02*
X986Y664D01*
X1054Y664D02*
X1094Y664D01*
X1122Y664D02*
X1131Y664D01*
X1161Y664D02*
X1171Y664D01*
X1214Y664D02*
X1223Y664D01*
X1273Y664D02*
X1283Y664D01*
X1345Y664D02*
X1356Y664D01*
X1370Y664D02*
X1381Y664D01*
X1411Y664D02*
X1420Y664D01*
X1451Y664D02*
X1460Y664D01*
X1555Y664D02*
X1565Y664D01*
X1636Y664D02*
X1646Y664D01*
X1658Y664D02*
X1669Y664D01*
X1720Y664D02*
X1729Y664D01*
X1772Y664D02*
X1781Y664D01*
X1845Y664D02*
X1854Y664D01*
X1872Y664D02*
X1882Y664D01*
X1884Y664D02*
X1893Y664D01*
X1927Y664D02*
X1936Y664D01*
X1948Y664D02*
X1959Y664D01*
X1989Y664D02*
X1998Y664D01*
X2061Y664D02*
X2071Y664D01*
X2092Y664D02*
X2102Y664D01*
X977Y663D02*
X986Y663D01*
X1053Y663D02*
X1094Y663D01*
X1122Y663D02*
X1131Y663D01*
X1161Y663D02*
X1171Y663D01*
X1214Y663D02*
X1223Y663D01*
X1274Y663D02*
X1284Y663D01*
X1346Y663D02*
X1356Y663D01*
X1370Y663D02*
X1380Y663D01*
X1411Y663D02*
X1420Y663D01*
X1451Y663D02*
X1460Y663D01*
X1555Y663D02*
X1565Y663D01*
X1635Y663D02*
X1646Y663D01*
X1658Y663D02*
X1669Y663D01*
X1720Y663D02*
X1729Y663D01*
X1772Y663D02*
X1781Y663D01*
X1845Y663D02*
X1854Y663D01*
X1873Y663D02*
X1893Y663D01*
X1927Y663D02*
X1936Y663D01*
X1948Y663D02*
X1958Y663D01*
X1989Y663D02*
X1998Y663D01*
X2061Y663D02*
X2071Y663D01*
X2092Y663D02*
X2103Y663D01*
X977Y662D02*
X986Y662D01*
X1053Y662D02*
X1095Y662D01*
X1122Y662D02*
X1131Y662D01*
X1161Y662D02*
X1171Y662D01*
X1214Y662D02*
X1223Y662D01*
X1274Y662D02*
X1285Y662D01*
X1346Y662D02*
X1357Y662D01*
X1369Y662D02*
X1380Y662D01*
X1411Y662D02*
X1420Y662D01*
X1451Y662D02*
X1460Y662D01*
X1555Y662D02*
X1565Y662D01*
X1634Y662D02*
X1645Y662D01*
X1659Y662D02*
X1670Y662D01*
X1720Y662D02*
X1729Y662D01*
X1772Y662D02*
X1781Y662D01*
X1845Y662D02*
X1854Y662D01*
X1873Y662D02*
X1893Y662D01*
X1927Y662D02*
X1936Y662D01*
X1947Y662D02*
X1958Y662D01*
X1989Y662D02*
X1998Y662D01*
X2061Y662D02*
X2071Y662D01*
X2093Y662D02*
X2104Y662D01*
X977Y661D02*
X986Y661D01*
X1053Y661D02*
X1063Y661D01*
X1085Y661D02*
X1095Y661D01*
X1122Y661D02*
X1131Y661D01*
X1161Y661D02*
X1171Y661D01*
X1214Y661D02*
X1223Y661D01*
X1275Y661D02*
X1285Y661D01*
X1347Y661D02*
X1357Y661D01*
X1369Y661D02*
X1379Y661D01*
X1411Y661D02*
X1420Y661D01*
X1451Y661D02*
X1460Y661D01*
X1555Y661D02*
X1565Y661D01*
X1634Y661D02*
X1645Y661D01*
X1660Y661D02*
X1670Y661D01*
X1720Y661D02*
X1729Y661D01*
X1772Y661D02*
X1781Y661D01*
X1845Y661D02*
X1854Y661D01*
X1874Y661D02*
X1893Y661D01*
X1927Y661D02*
X1936Y661D01*
X1947Y661D02*
X1957Y661D01*
X1989Y661D02*
X1998Y661D01*
X2061Y661D02*
X2071Y661D01*
X2093Y661D02*
X2104Y661D01*
X977Y660D02*
X986Y660D01*
X1052Y660D02*
X1062Y660D01*
X1086Y660D02*
X1095Y660D01*
X1122Y660D02*
X1131Y660D01*
X1161Y660D02*
X1171Y660D01*
X1214Y660D02*
X1223Y660D01*
X1275Y660D02*
X1286Y660D01*
X1347Y660D02*
X1358Y660D01*
X1368Y660D02*
X1379Y660D01*
X1411Y660D02*
X1420Y660D01*
X1451Y660D02*
X1460Y660D01*
X1555Y660D02*
X1565Y660D01*
X1633Y660D02*
X1644Y660D01*
X1660Y660D02*
X1671Y660D01*
X1720Y660D02*
X1729Y660D01*
X1772Y660D02*
X1781Y660D01*
X1845Y660D02*
X1854Y660D01*
X1874Y660D02*
X1893Y660D01*
X1927Y660D02*
X1936Y660D01*
X1946Y660D02*
X1957Y660D01*
X1989Y660D02*
X1998Y660D01*
X2061Y660D02*
X2071Y660D01*
X2094Y660D02*
X2105Y660D01*
X977Y659D02*
X986Y659D01*
X1052Y659D02*
X1062Y659D01*
X1086Y659D02*
X1096Y659D01*
X1122Y659D02*
X1131Y659D01*
X1161Y659D02*
X1171Y659D01*
X1214Y659D02*
X1223Y659D01*
X1276Y659D02*
X1286Y659D01*
X1348Y659D02*
X1358Y659D01*
X1368Y659D02*
X1378Y659D01*
X1411Y659D02*
X1420Y659D01*
X1451Y659D02*
X1460Y659D01*
X1555Y659D02*
X1565Y659D01*
X1633Y659D02*
X1643Y659D01*
X1661Y659D02*
X1672Y659D01*
X1720Y659D02*
X1729Y659D01*
X1772Y659D02*
X1781Y659D01*
X1845Y659D02*
X1854Y659D01*
X1874Y659D02*
X1893Y659D01*
X1927Y659D02*
X1936Y659D01*
X1946Y659D02*
X1956Y659D01*
X1989Y659D02*
X1998Y659D01*
X2061Y659D02*
X2071Y659D01*
X2095Y659D02*
X2105Y659D01*
X977Y658D02*
X986Y658D01*
X1052Y658D02*
X1061Y658D01*
X1086Y658D02*
X1096Y658D01*
X1122Y658D02*
X1131Y658D01*
X1161Y658D02*
X1171Y658D01*
X1214Y658D02*
X1223Y658D01*
X1276Y658D02*
X1287Y658D01*
X1348Y658D02*
X1359Y658D01*
X1367Y658D02*
X1378Y658D01*
X1411Y658D02*
X1420Y658D01*
X1451Y658D02*
X1460Y658D01*
X1555Y658D02*
X1565Y658D01*
X1632Y658D02*
X1643Y658D01*
X1661Y658D02*
X1672Y658D01*
X1720Y658D02*
X1729Y658D01*
X1772Y658D02*
X1781Y658D01*
X1845Y658D02*
X1854Y658D01*
X1875Y658D02*
X1893Y658D01*
X1927Y658D02*
X1936Y658D01*
X1945Y658D02*
X1956Y658D01*
X1989Y658D02*
X1998Y658D01*
X2061Y658D02*
X2071Y658D01*
X2095Y658D02*
X2106Y658D01*
X977Y657D02*
X986Y657D01*
X1051Y657D02*
X1061Y657D01*
X1087Y657D02*
X1096Y657D01*
X1122Y657D02*
X1131Y657D01*
X1161Y657D02*
X1171Y657D01*
X1214Y657D02*
X1223Y657D01*
X1277Y657D02*
X1287Y657D01*
X1349Y657D02*
X1359Y657D01*
X1367Y657D02*
X1377Y657D01*
X1411Y657D02*
X1420Y657D01*
X1451Y657D02*
X1460Y657D01*
X1555Y657D02*
X1565Y657D01*
X1632Y657D02*
X1642Y657D01*
X1662Y657D02*
X1673Y657D01*
X1720Y657D02*
X1729Y657D01*
X1772Y657D02*
X1781Y657D01*
X1845Y657D02*
X1854Y657D01*
X1875Y657D02*
X1893Y657D01*
X1927Y657D02*
X1936Y657D01*
X1945Y657D02*
X1955Y657D01*
X1989Y657D02*
X1998Y657D01*
X2061Y657D02*
X2071Y657D01*
X2096Y657D02*
X2106Y657D01*
X977Y656D02*
X986Y656D01*
X1051Y656D02*
X1061Y656D01*
X1087Y656D02*
X1096Y656D01*
X1122Y656D02*
X1131Y656D01*
X1161Y656D02*
X1171Y656D01*
X1214Y656D02*
X1223Y656D01*
X1277Y656D02*
X1288Y656D01*
X1349Y656D02*
X1360Y656D01*
X1366Y656D02*
X1377Y656D01*
X1411Y656D02*
X1420Y656D01*
X1451Y656D02*
X1460Y656D01*
X1555Y656D02*
X1565Y656D01*
X1631Y656D02*
X1642Y656D01*
X1663Y656D02*
X1673Y656D01*
X1720Y656D02*
X1729Y656D01*
X1772Y656D02*
X1781Y656D01*
X1845Y656D02*
X1854Y656D01*
X1876Y656D02*
X1893Y656D01*
X1927Y656D02*
X1936Y656D01*
X1944Y656D02*
X1955Y656D01*
X1989Y656D02*
X1998Y656D01*
X2061Y656D02*
X2071Y656D01*
X2096Y656D02*
X2107Y656D01*
X977Y655D02*
X986Y655D01*
X1051Y655D02*
X1060Y655D01*
X1087Y655D02*
X1097Y655D01*
X1122Y655D02*
X1131Y655D01*
X1161Y655D02*
X1171Y655D01*
X1214Y655D02*
X1223Y655D01*
X1278Y655D02*
X1289Y655D01*
X1350Y655D02*
X1361Y655D01*
X1366Y655D02*
X1376Y655D01*
X1411Y655D02*
X1420Y655D01*
X1451Y655D02*
X1460Y655D01*
X1555Y655D02*
X1565Y655D01*
X1630Y655D02*
X1641Y655D01*
X1663Y655D02*
X1674Y655D01*
X1720Y655D02*
X1729Y655D01*
X1772Y655D02*
X1781Y655D01*
X1845Y655D02*
X1854Y655D01*
X1876Y655D02*
X1893Y655D01*
X1927Y655D02*
X1936Y655D01*
X1943Y655D02*
X1954Y655D01*
X1989Y655D02*
X1998Y655D01*
X2061Y655D02*
X2071Y655D01*
X2097Y655D02*
X2108Y655D01*
X977Y654D02*
X986Y654D01*
X1051Y654D02*
X1060Y654D01*
X1088Y654D02*
X1097Y654D01*
X1122Y654D02*
X1131Y654D01*
X1161Y654D02*
X1171Y654D01*
X1198Y654D02*
X1239Y654D01*
X1278Y654D02*
X1311Y654D01*
X1350Y654D02*
X1376Y654D01*
X1411Y654D02*
X1420Y654D01*
X1451Y654D02*
X1460Y654D01*
X1555Y654D02*
X1600Y654D01*
X1630Y654D02*
X1641Y654D01*
X1664Y654D02*
X1675Y654D01*
X1720Y654D02*
X1729Y654D01*
X1772Y654D02*
X1817Y654D01*
X1845Y654D02*
X1854Y654D01*
X1877Y654D02*
X1893Y654D01*
X1921Y654D02*
X1954Y654D01*
X1989Y654D02*
X2034Y654D01*
X2061Y654D02*
X2071Y654D01*
X2097Y654D02*
X2108Y654D01*
X977Y653D02*
X986Y653D01*
X1050Y653D02*
X1060Y653D01*
X1088Y653D02*
X1097Y653D01*
X1122Y653D02*
X1131Y653D01*
X1161Y653D02*
X1171Y653D01*
X1196Y653D02*
X1241Y653D01*
X1279Y653D02*
X1313Y653D01*
X1351Y653D02*
X1375Y653D01*
X1411Y653D02*
X1420Y653D01*
X1451Y653D02*
X1460Y653D01*
X1555Y653D02*
X1602Y653D01*
X1629Y653D02*
X1640Y653D01*
X1664Y653D02*
X1675Y653D01*
X1720Y653D02*
X1729Y653D01*
X1772Y653D02*
X1819Y653D01*
X1845Y653D02*
X1854Y653D01*
X1877Y653D02*
X1893Y653D01*
X1919Y653D02*
X1953Y653D01*
X1989Y653D02*
X2036Y653D01*
X2061Y653D02*
X2071Y653D01*
X2098Y653D02*
X2109Y653D01*
X977Y652D02*
X986Y652D01*
X1050Y652D02*
X1060Y652D01*
X1088Y652D02*
X1098Y652D01*
X1122Y652D02*
X1131Y652D01*
X1161Y652D02*
X1171Y652D01*
X1195Y652D02*
X1242Y652D01*
X1279Y652D02*
X1314Y652D01*
X1351Y652D02*
X1375Y652D01*
X1411Y652D02*
X1420Y652D01*
X1451Y652D02*
X1460Y652D01*
X1555Y652D02*
X1603Y652D01*
X1629Y652D02*
X1639Y652D01*
X1665Y652D02*
X1676Y652D01*
X1720Y652D02*
X1729Y652D01*
X1772Y652D02*
X1820Y652D01*
X1845Y652D02*
X1854Y652D01*
X1878Y652D02*
X1893Y652D01*
X1918Y652D02*
X1953Y652D01*
X1989Y652D02*
X2037Y652D01*
X2061Y652D02*
X2071Y652D01*
X2099Y652D02*
X2109Y652D01*
X977Y651D02*
X986Y651D01*
X1050Y651D02*
X1059Y651D01*
X1088Y651D02*
X1098Y651D01*
X1122Y651D02*
X1131Y651D01*
X1161Y651D02*
X1171Y651D01*
X1194Y651D02*
X1242Y651D01*
X1280Y651D02*
X1315Y651D01*
X1352Y651D02*
X1374Y651D01*
X1411Y651D02*
X1420Y651D01*
X1451Y651D02*
X1460Y651D01*
X1555Y651D02*
X1604Y651D01*
X1628Y651D02*
X1639Y651D01*
X1665Y651D02*
X1676Y651D01*
X1720Y651D02*
X1729Y651D01*
X1772Y651D02*
X1821Y651D01*
X1845Y651D02*
X1854Y651D01*
X1878Y651D02*
X1893Y651D01*
X1917Y651D02*
X1952Y651D01*
X1989Y651D02*
X2038Y651D01*
X2061Y651D02*
X2071Y651D01*
X2099Y651D02*
X2110Y651D01*
X977Y650D02*
X986Y650D01*
X1049Y650D02*
X1059Y650D01*
X1089Y650D02*
X1098Y650D01*
X1122Y650D02*
X1131Y650D01*
X1161Y650D02*
X1171Y650D01*
X1194Y650D02*
X1243Y650D01*
X1281Y650D02*
X1315Y650D01*
X1353Y650D02*
X1373Y650D01*
X1411Y650D02*
X1420Y650D01*
X1451Y650D02*
X1460Y650D01*
X1555Y650D02*
X1604Y650D01*
X1628Y650D02*
X1638Y650D01*
X1666Y650D02*
X1676Y650D01*
X1720Y650D02*
X1729Y650D01*
X1772Y650D02*
X1821Y650D01*
X1845Y650D02*
X1854Y650D01*
X1878Y650D02*
X1893Y650D01*
X1917Y650D02*
X1952Y650D01*
X1989Y650D02*
X2038Y650D01*
X2061Y650D02*
X2071Y650D01*
X2100Y650D02*
X2110Y650D01*
X977Y649D02*
X986Y649D01*
X1049Y649D02*
X1059Y649D01*
X1089Y649D02*
X1098Y649D01*
X1122Y649D02*
X1131Y649D01*
X1162Y649D02*
X1171Y649D01*
X1194Y649D02*
X1243Y649D01*
X1281Y649D02*
X1315Y649D01*
X1353Y649D02*
X1373Y649D01*
X1411Y649D02*
X1420Y649D01*
X1451Y649D02*
X1460Y649D01*
X1555Y649D02*
X1604Y649D01*
X1628Y649D02*
X1638Y649D01*
X1667Y649D02*
X1677Y649D01*
X1720Y649D02*
X1729Y649D01*
X1772Y649D02*
X1821Y649D01*
X1845Y649D02*
X1854Y649D01*
X1879Y649D02*
X1893Y649D01*
X1917Y649D02*
X1951Y649D01*
X1989Y649D02*
X2038Y649D01*
X2062Y649D02*
X2071Y649D01*
X2100Y649D02*
X2110Y649D01*
X977Y648D02*
X986Y648D01*
X1049Y648D02*
X1058Y648D01*
X1089Y648D02*
X1098Y648D01*
X1122Y648D02*
X1131Y648D01*
X1162Y648D02*
X1170Y648D01*
X1194Y648D02*
X1243Y648D01*
X1282Y648D02*
X1315Y648D01*
X1354Y648D02*
X1372Y648D01*
X1411Y648D02*
X1420Y648D01*
X1451Y648D02*
X1460Y648D01*
X1555Y648D02*
X1604Y648D01*
X1628Y648D02*
X1637Y648D01*
X1667Y648D02*
X1676Y648D01*
X1720Y648D02*
X1729Y648D01*
X1772Y648D02*
X1821Y648D01*
X1845Y648D02*
X1854Y648D01*
X1879Y648D02*
X1893Y648D01*
X1917Y648D02*
X1950Y648D01*
X1989Y648D02*
X2038Y648D01*
X2062Y648D02*
X2070Y648D01*
X2101Y648D02*
X2110Y648D01*
X978Y647D02*
X986Y647D01*
X1050Y647D02*
X1058Y647D01*
X1090Y647D02*
X1098Y647D01*
X1122Y647D02*
X1130Y647D01*
X1162Y647D02*
X1170Y647D01*
X1195Y647D02*
X1242Y647D01*
X1284Y647D02*
X1315Y647D01*
X1355Y647D02*
X1371Y647D01*
X1411Y647D02*
X1419Y647D01*
X1451Y647D02*
X1459Y647D01*
X1555Y647D02*
X1604Y647D01*
X1628Y647D02*
X1636Y647D01*
X1668Y647D02*
X1676Y647D01*
X1720Y647D02*
X1728Y647D01*
X1772Y647D02*
X1821Y647D01*
X1845Y647D02*
X1853Y647D01*
X1880Y647D02*
X1893Y647D01*
X1917Y647D02*
X1949Y647D01*
X1989Y647D02*
X2037Y647D01*
X2062Y647D02*
X2070Y647D01*
X2102Y647D02*
X2110Y647D01*
X978Y646D02*
X985Y646D01*
X1050Y646D02*
X1057Y646D01*
X1090Y646D02*
X1097Y646D01*
X1123Y646D02*
X1130Y646D01*
X1163Y646D02*
X1169Y646D01*
X1195Y646D02*
X1242Y646D01*
X1285Y646D02*
X1314Y646D01*
X1357Y646D02*
X1369Y646D01*
X1412Y646D02*
X1419Y646D01*
X1452Y646D02*
X1459Y646D01*
X1555Y646D02*
X1603Y646D01*
X1629Y646D02*
X1636Y646D01*
X1669Y646D02*
X1675Y646D01*
X1721Y646D02*
X1728Y646D01*
X1772Y646D02*
X1820Y646D01*
X1846Y646D02*
X1853Y646D01*
X1880Y646D02*
X1893Y646D01*
X1918Y646D02*
X1947Y646D01*
X1989Y646D02*
X2037Y646D01*
X2063Y646D02*
X2069Y646D01*
X2102Y646D02*
X2109Y646D01*
X979Y645D02*
X984Y645D01*
X1052Y645D02*
X1056Y645D01*
X1091Y645D02*
X1096Y645D01*
X1124Y645D02*
X1129Y645D01*
X1164Y645D02*
X1168Y645D01*
X1196Y645D02*
X1241Y645D01*
X1287Y645D02*
X1313Y645D01*
X1359Y645D02*
X1367Y645D01*
X1413Y645D02*
X1418Y645D01*
X1453Y645D02*
X1457Y645D01*
X1555Y645D02*
X1602Y645D01*
X1630Y645D02*
X1635Y645D01*
X1670Y645D02*
X1674Y645D01*
X1722Y645D02*
X1727Y645D01*
X1772Y645D02*
X1819Y645D01*
X1847Y645D02*
X1851Y645D01*
X1881Y645D02*
X1893Y645D01*
X1919Y645D02*
X1945Y645D01*
X1989Y645D02*
X2036Y645D01*
X2064Y645D02*
X2068Y645D01*
X2103Y645D02*
X2108Y645D01*
D02*
G04 End of Silk1*
M02*