G04 MADE WITH FRITZING*
G04 WWW.FRITZING.ORG*
G04 DOUBLE SIDED*
G04 HOLES PLATED*
G04 CONTOUR ON CENTER OF CONTOUR VECTOR*
%ASAXBY*%
%FSLAX23Y23*%
%MOIN*%
%OFA0B0*%
%SFA1.0B1.0*%
%ADD10R,1.968500X1.102360X1.952500X1.086360*%
%ADD11C,0.008000*%
%ADD12R,0.001000X0.001000*%
%LNSILK1*%
G90*
G70*
G54D11*
X4Y1098D02*
X1965Y1098D01*
X1965Y4D01*
X4Y4D01*
X4Y1098D01*
D02*
X1380Y707D02*
X1498Y707D01*
D02*
X1498Y707D02*
X1498Y392D01*
D02*
X1498Y392D02*
X1380Y392D01*
G54D12*
X470Y1046D02*
X474Y1046D01*
X1493Y1046D02*
X1497Y1046D01*
X469Y1045D02*
X475Y1045D01*
X1492Y1045D02*
X1498Y1045D01*
X468Y1044D02*
X476Y1044D01*
X1491Y1044D02*
X1499Y1044D01*
X468Y1043D02*
X476Y1043D01*
X1491Y1043D02*
X1499Y1043D01*
X468Y1042D02*
X477Y1042D01*
X1491Y1042D02*
X1500Y1042D01*
X467Y1041D02*
X477Y1041D01*
X1491Y1041D02*
X1500Y1041D01*
X467Y1040D02*
X477Y1040D01*
X1491Y1040D02*
X1500Y1040D01*
X467Y1039D02*
X477Y1039D01*
X1491Y1039D02*
X1500Y1039D01*
X467Y1038D02*
X477Y1038D01*
X1491Y1038D02*
X1500Y1038D01*
X467Y1037D02*
X477Y1037D01*
X1491Y1037D02*
X1500Y1037D01*
X467Y1036D02*
X477Y1036D01*
X1491Y1036D02*
X1500Y1036D01*
X467Y1035D02*
X477Y1035D01*
X1491Y1035D02*
X1500Y1035D01*
X467Y1034D02*
X477Y1034D01*
X1491Y1034D02*
X1500Y1034D01*
X467Y1033D02*
X477Y1033D01*
X1491Y1033D02*
X1500Y1033D01*
X467Y1032D02*
X477Y1032D01*
X1491Y1032D02*
X1500Y1032D01*
X467Y1031D02*
X477Y1031D01*
X1491Y1031D02*
X1500Y1031D01*
X467Y1030D02*
X477Y1030D01*
X1491Y1030D02*
X1500Y1030D01*
X467Y1029D02*
X477Y1029D01*
X1491Y1029D02*
X1500Y1029D01*
X467Y1028D02*
X477Y1028D01*
X1491Y1028D02*
X1500Y1028D01*
X452Y1027D02*
X492Y1027D01*
X1475Y1027D02*
X1515Y1027D01*
X450Y1026D02*
X495Y1026D01*
X1473Y1026D02*
X1518Y1026D01*
X449Y1025D02*
X495Y1025D01*
X1472Y1025D02*
X1519Y1025D01*
X448Y1024D02*
X496Y1024D01*
X1471Y1024D02*
X1519Y1024D01*
X448Y1023D02*
X496Y1023D01*
X1471Y1023D02*
X1519Y1023D01*
X448Y1022D02*
X496Y1022D01*
X1471Y1022D02*
X1520Y1022D01*
X448Y1021D02*
X496Y1021D01*
X1471Y1021D02*
X1519Y1021D01*
X448Y1020D02*
X496Y1020D01*
X1471Y1020D02*
X1519Y1020D01*
X449Y1019D02*
X495Y1019D01*
X1472Y1019D02*
X1518Y1019D01*
X450Y1018D02*
X494Y1018D01*
X1473Y1018D02*
X1517Y1018D01*
X467Y1017D02*
X477Y1017D01*
X1490Y1017D02*
X1500Y1017D01*
X467Y1016D02*
X477Y1016D01*
X1491Y1016D02*
X1500Y1016D01*
X467Y1015D02*
X477Y1015D01*
X1491Y1015D02*
X1500Y1015D01*
X467Y1014D02*
X477Y1014D01*
X1491Y1014D02*
X1500Y1014D01*
X467Y1013D02*
X477Y1013D01*
X1491Y1013D02*
X1500Y1013D01*
X467Y1012D02*
X477Y1012D01*
X1491Y1012D02*
X1500Y1012D01*
X467Y1011D02*
X477Y1011D01*
X1491Y1011D02*
X1500Y1011D01*
X467Y1010D02*
X477Y1010D01*
X1491Y1010D02*
X1500Y1010D01*
X467Y1009D02*
X477Y1009D01*
X1491Y1009D02*
X1500Y1009D01*
X467Y1008D02*
X477Y1008D01*
X1491Y1008D02*
X1500Y1008D01*
X467Y1007D02*
X477Y1007D01*
X1491Y1007D02*
X1500Y1007D01*
X467Y1006D02*
X477Y1006D01*
X1491Y1006D02*
X1500Y1006D01*
X467Y1005D02*
X477Y1005D01*
X1491Y1005D02*
X1500Y1005D01*
X467Y1004D02*
X477Y1004D01*
X1491Y1004D02*
X1500Y1004D01*
X467Y1003D02*
X477Y1003D01*
X1491Y1003D02*
X1500Y1003D01*
X468Y1002D02*
X477Y1002D01*
X1491Y1002D02*
X1500Y1002D01*
X468Y1001D02*
X476Y1001D01*
X1491Y1001D02*
X1499Y1001D01*
X468Y1000D02*
X476Y1000D01*
X1491Y1000D02*
X1499Y1000D01*
X469Y999D02*
X475Y999D01*
X1492Y999D02*
X1498Y999D01*
X470Y998D02*
X474Y998D01*
X1493Y998D02*
X1497Y998D01*
X978Y978D02*
X993Y978D01*
X956Y977D02*
X1015Y977D01*
X944Y976D02*
X1026Y976D01*
X935Y975D02*
X1036Y975D01*
X927Y974D02*
X1043Y974D01*
X920Y973D02*
X1050Y973D01*
X915Y972D02*
X1056Y972D01*
X909Y971D02*
X1062Y971D01*
X903Y970D02*
X974Y970D01*
X999Y970D02*
X1067Y970D01*
X899Y969D02*
X954Y969D01*
X1018Y969D02*
X1072Y969D01*
X894Y968D02*
X943Y968D01*
X1028Y968D02*
X1077Y968D01*
X889Y967D02*
X935Y967D01*
X1038Y967D02*
X1081Y967D01*
X885Y966D02*
X927Y966D01*
X1045Y966D02*
X1085Y966D01*
X881Y965D02*
X920Y965D01*
X1052Y965D02*
X1089Y965D01*
X877Y964D02*
X914Y964D01*
X1058Y964D02*
X1093Y964D01*
X874Y963D02*
X908Y963D01*
X1063Y963D02*
X1097Y963D01*
X870Y962D02*
X903Y962D01*
X1069Y962D02*
X1100Y962D01*
X866Y961D02*
X899Y961D01*
X1074Y961D02*
X1104Y961D01*
X863Y960D02*
X894Y960D01*
X1078Y960D02*
X1107Y960D01*
X860Y959D02*
X889Y959D01*
X1082Y959D02*
X1111Y959D01*
X857Y958D02*
X885Y958D01*
X1087Y958D02*
X1114Y958D01*
X853Y957D02*
X881Y957D01*
X1091Y957D02*
X1117Y957D01*
X850Y956D02*
X877Y956D01*
X1094Y956D02*
X1120Y956D01*
X847Y955D02*
X874Y955D01*
X1098Y955D02*
X1123Y955D01*
X845Y954D02*
X870Y954D01*
X1102Y954D02*
X1126Y954D01*
X842Y953D02*
X866Y953D01*
X1105Y953D02*
X1129Y953D01*
X839Y952D02*
X863Y952D01*
X1108Y952D02*
X1131Y952D01*
X836Y951D02*
X860Y951D01*
X1112Y951D02*
X1134Y951D01*
X834Y950D02*
X857Y950D01*
X1115Y950D02*
X1137Y950D01*
X831Y949D02*
X853Y949D01*
X1118Y949D02*
X1139Y949D01*
X828Y948D02*
X850Y948D01*
X1121Y948D02*
X1142Y948D01*
X826Y947D02*
X848Y947D01*
X1124Y947D02*
X1144Y947D01*
X824Y946D02*
X845Y946D01*
X1127Y946D02*
X1147Y946D01*
X821Y945D02*
X842Y945D01*
X1129Y945D02*
X1149Y945D01*
X819Y944D02*
X839Y944D01*
X1132Y944D02*
X1152Y944D01*
X816Y943D02*
X836Y943D01*
X1135Y943D02*
X1154Y943D01*
X814Y942D02*
X834Y942D01*
X1138Y942D02*
X1156Y942D01*
X812Y941D02*
X831Y941D01*
X1140Y941D02*
X1159Y941D01*
X810Y940D02*
X829Y940D01*
X1143Y940D02*
X1161Y940D01*
X808Y939D02*
X826Y939D01*
X1145Y939D02*
X1163Y939D01*
X805Y938D02*
X824Y938D01*
X1147Y938D02*
X1165Y938D01*
X803Y937D02*
X822Y937D01*
X1150Y937D02*
X1167Y937D01*
X801Y936D02*
X819Y936D01*
X1152Y936D02*
X1169Y936D01*
X799Y935D02*
X817Y935D01*
X1155Y935D02*
X1172Y935D01*
X797Y934D02*
X814Y934D01*
X1157Y934D02*
X1174Y934D01*
X795Y933D02*
X812Y933D01*
X1159Y933D02*
X1176Y933D01*
X793Y932D02*
X810Y932D01*
X1161Y932D02*
X1178Y932D01*
X791Y931D02*
X808Y931D01*
X1163Y931D02*
X1179Y931D01*
X789Y930D02*
X806Y930D01*
X1165Y930D02*
X1181Y930D01*
X787Y929D02*
X804Y929D01*
X1168Y929D02*
X1183Y929D01*
X785Y928D02*
X801Y928D01*
X1170Y928D02*
X1185Y928D01*
X783Y927D02*
X799Y927D01*
X1172Y927D02*
X1187Y927D01*
X781Y926D02*
X797Y926D01*
X1174Y926D02*
X1189Y926D01*
X780Y925D02*
X796Y925D01*
X1176Y925D02*
X1191Y925D01*
X778Y924D02*
X794Y924D01*
X1178Y924D02*
X1193Y924D01*
X776Y923D02*
X792Y923D01*
X1179Y923D02*
X1194Y923D01*
X774Y922D02*
X790Y922D01*
X1181Y922D02*
X1196Y922D01*
X773Y921D02*
X788Y921D01*
X1183Y921D02*
X1198Y921D01*
X771Y920D02*
X786Y920D01*
X1185Y920D02*
X1200Y920D01*
X769Y919D02*
X784Y919D01*
X1187Y919D02*
X1201Y919D01*
X767Y918D02*
X782Y918D01*
X1189Y918D02*
X1203Y918D01*
X766Y917D02*
X780Y917D01*
X1191Y917D02*
X1205Y917D01*
X764Y916D02*
X779Y916D01*
X1192Y916D02*
X1207Y916D01*
X763Y915D02*
X777Y915D01*
X1194Y915D02*
X1208Y915D01*
X761Y914D02*
X775Y914D01*
X1196Y914D02*
X1210Y914D01*
X759Y913D02*
X773Y913D01*
X1198Y913D02*
X1211Y913D01*
X758Y912D02*
X772Y912D01*
X1199Y912D02*
X1213Y912D01*
X756Y911D02*
X770Y911D01*
X1201Y911D02*
X1214Y911D01*
X755Y910D02*
X768Y910D01*
X1203Y910D02*
X1216Y910D01*
X753Y909D02*
X767Y909D01*
X1204Y909D02*
X1218Y909D01*
X751Y908D02*
X765Y908D01*
X1206Y908D02*
X1219Y908D01*
X750Y907D02*
X763Y907D01*
X1208Y907D02*
X1221Y907D01*
X749Y906D02*
X762Y906D01*
X1209Y906D02*
X1222Y906D01*
X747Y905D02*
X760Y905D01*
X1211Y905D02*
X1224Y905D01*
X746Y904D02*
X759Y904D01*
X1212Y904D02*
X1225Y904D01*
X744Y903D02*
X757Y903D01*
X1214Y903D02*
X1227Y903D01*
X743Y902D02*
X755Y902D01*
X1216Y902D02*
X1228Y902D01*
X741Y901D02*
X754Y901D01*
X1217Y901D02*
X1229Y901D01*
X740Y900D02*
X752Y900D01*
X1219Y900D02*
X1231Y900D01*
X738Y899D02*
X751Y899D01*
X1220Y899D02*
X1232Y899D01*
X737Y898D02*
X749Y898D01*
X1222Y898D02*
X1234Y898D01*
X736Y897D02*
X748Y897D01*
X1223Y897D02*
X1235Y897D01*
X734Y896D02*
X747Y896D01*
X1224Y896D02*
X1237Y896D01*
X733Y895D02*
X745Y895D01*
X1226Y895D02*
X1238Y895D01*
X732Y894D02*
X744Y894D01*
X1227Y894D02*
X1239Y894D01*
X730Y893D02*
X742Y893D01*
X1229Y893D02*
X1241Y893D01*
X729Y892D02*
X741Y892D01*
X1230Y892D02*
X1242Y892D01*
X728Y891D02*
X739Y891D01*
X1232Y891D02*
X1243Y891D01*
X726Y890D02*
X738Y890D01*
X1233Y890D02*
X1245Y890D01*
X725Y889D02*
X737Y889D01*
X1234Y889D02*
X1246Y889D01*
X724Y888D02*
X735Y888D01*
X1236Y888D02*
X1247Y888D01*
X722Y887D02*
X734Y887D01*
X1237Y887D02*
X1249Y887D01*
X721Y886D02*
X733Y886D01*
X1238Y886D02*
X1250Y886D01*
X720Y885D02*
X731Y885D01*
X1240Y885D02*
X1251Y885D01*
X719Y884D02*
X730Y884D01*
X1241Y884D02*
X1252Y884D01*
X717Y883D02*
X729Y883D01*
X1242Y883D02*
X1254Y883D01*
X716Y882D02*
X727Y882D01*
X1244Y882D02*
X1255Y882D01*
X715Y881D02*
X726Y881D01*
X1245Y881D02*
X1256Y881D01*
X714Y880D02*
X725Y880D01*
X1246Y880D02*
X1257Y880D01*
X713Y879D02*
X723Y879D01*
X1247Y879D02*
X1258Y879D01*
X711Y878D02*
X722Y878D01*
X1249Y878D02*
X1260Y878D01*
X710Y877D02*
X721Y877D01*
X1250Y877D02*
X1261Y877D01*
X709Y876D02*
X720Y876D01*
X1251Y876D02*
X1262Y876D01*
X708Y875D02*
X719Y875D01*
X1252Y875D02*
X1263Y875D01*
X707Y874D02*
X717Y874D01*
X1254Y874D02*
X1264Y874D01*
X705Y873D02*
X716Y873D01*
X1255Y873D02*
X1266Y873D01*
X704Y872D02*
X715Y872D01*
X1256Y872D02*
X1267Y872D01*
X703Y871D02*
X714Y871D01*
X1257Y871D02*
X1268Y871D01*
X702Y870D02*
X713Y870D01*
X1258Y870D02*
X1269Y870D01*
X701Y869D02*
X711Y869D01*
X1260Y869D02*
X1270Y869D01*
X700Y868D02*
X710Y868D01*
X1261Y868D02*
X1271Y868D01*
X699Y867D02*
X709Y867D01*
X1262Y867D02*
X1272Y867D01*
X698Y866D02*
X708Y866D01*
X1263Y866D02*
X1273Y866D01*
X697Y865D02*
X707Y865D01*
X1264Y865D02*
X1275Y865D01*
X695Y864D02*
X706Y864D01*
X1265Y864D02*
X1276Y864D01*
X694Y863D02*
X705Y863D01*
X1266Y863D02*
X1277Y863D01*
X693Y862D02*
X704Y862D01*
X1267Y862D02*
X1278Y862D01*
X692Y861D02*
X702Y861D01*
X1269Y861D02*
X1279Y861D01*
X691Y860D02*
X701Y860D01*
X1270Y860D02*
X1280Y860D01*
X690Y859D02*
X700Y859D01*
X1271Y859D02*
X1281Y859D01*
X689Y858D02*
X699Y858D01*
X1272Y858D02*
X1282Y858D01*
X688Y857D02*
X698Y857D01*
X1273Y857D02*
X1283Y857D01*
X687Y856D02*
X697Y856D01*
X1274Y856D02*
X1284Y856D01*
X686Y855D02*
X696Y855D01*
X1275Y855D02*
X1285Y855D01*
X685Y854D02*
X695Y854D01*
X1276Y854D02*
X1286Y854D01*
X684Y853D02*
X694Y853D01*
X1277Y853D02*
X1287Y853D01*
X683Y852D02*
X693Y852D01*
X1278Y852D02*
X1288Y852D01*
X682Y851D02*
X692Y851D01*
X1279Y851D02*
X1289Y851D01*
X681Y850D02*
X691Y850D01*
X1280Y850D02*
X1290Y850D01*
X680Y849D02*
X690Y849D01*
X1281Y849D02*
X1291Y849D01*
X679Y848D02*
X689Y848D01*
X1282Y848D02*
X1292Y848D01*
X678Y847D02*
X688Y847D01*
X1283Y847D02*
X1293Y847D01*
X677Y846D02*
X687Y846D01*
X1284Y846D02*
X1294Y846D01*
X676Y845D02*
X686Y845D01*
X1285Y845D02*
X1295Y845D01*
X675Y844D02*
X685Y844D01*
X1286Y844D02*
X1296Y844D01*
X674Y843D02*
X684Y843D01*
X1287Y843D02*
X1297Y843D01*
X673Y842D02*
X683Y842D01*
X1288Y842D02*
X1298Y842D01*
X672Y841D02*
X682Y841D01*
X1289Y841D02*
X1299Y841D01*
X672Y840D02*
X681Y840D01*
X1290Y840D02*
X1300Y840D01*
X671Y839D02*
X680Y839D01*
X1291Y839D02*
X1301Y839D01*
X670Y838D02*
X679Y838D01*
X1292Y838D02*
X1301Y838D01*
X669Y837D02*
X678Y837D01*
X1293Y837D02*
X1302Y837D01*
X668Y836D02*
X677Y836D01*
X1294Y836D02*
X1303Y836D01*
X667Y835D02*
X676Y835D01*
X1295Y835D02*
X1304Y835D01*
X666Y834D02*
X675Y834D01*
X1296Y834D02*
X1305Y834D01*
X665Y833D02*
X674Y833D01*
X1297Y833D02*
X1306Y833D01*
X664Y832D02*
X673Y832D01*
X1297Y832D02*
X1307Y832D01*
X663Y831D02*
X672Y831D01*
X1298Y831D02*
X1308Y831D01*
X663Y830D02*
X672Y830D01*
X1299Y830D02*
X1309Y830D01*
X662Y829D02*
X671Y829D01*
X1300Y829D02*
X1309Y829D01*
X661Y828D02*
X670Y828D01*
X1301Y828D02*
X1310Y828D01*
X660Y827D02*
X669Y827D01*
X1302Y827D02*
X1311Y827D01*
X659Y826D02*
X668Y826D01*
X1303Y826D02*
X1312Y826D01*
X658Y825D02*
X667Y825D01*
X1304Y825D02*
X1313Y825D01*
X657Y824D02*
X666Y824D01*
X1304Y824D02*
X1314Y824D01*
X657Y823D02*
X666Y823D01*
X1305Y823D02*
X1315Y823D01*
X656Y822D02*
X665Y822D01*
X1306Y822D02*
X1315Y822D01*
X655Y821D02*
X664Y821D01*
X1307Y821D02*
X1316Y821D01*
X654Y820D02*
X663Y820D01*
X1308Y820D02*
X1317Y820D01*
X653Y819D02*
X662Y819D01*
X1309Y819D02*
X1318Y819D01*
X653Y818D02*
X661Y818D01*
X1310Y818D02*
X1319Y818D01*
X652Y817D02*
X660Y817D01*
X1310Y817D02*
X1319Y817D01*
X651Y816D02*
X660Y816D01*
X1311Y816D02*
X1320Y816D01*
X650Y815D02*
X659Y815D01*
X1312Y815D02*
X1321Y815D01*
X649Y814D02*
X658Y814D01*
X1313Y814D02*
X1322Y814D01*
X649Y813D02*
X657Y813D01*
X1314Y813D02*
X1323Y813D01*
X648Y812D02*
X656Y812D01*
X1314Y812D02*
X1323Y812D01*
X647Y811D02*
X656Y811D01*
X1315Y811D02*
X1324Y811D01*
X646Y810D02*
X655Y810D01*
X1316Y810D02*
X1325Y810D01*
X646Y809D02*
X654Y809D01*
X1317Y809D02*
X1326Y809D01*
X645Y808D02*
X653Y808D01*
X1317Y808D02*
X1326Y808D01*
X644Y807D02*
X653Y807D01*
X1318Y807D02*
X1327Y807D01*
X643Y806D02*
X652Y806D01*
X1319Y806D02*
X1328Y806D01*
X643Y805D02*
X651Y805D01*
X1320Y805D02*
X1329Y805D01*
X642Y804D02*
X650Y804D01*
X1321Y804D02*
X1329Y804D01*
X641Y803D02*
X649Y803D01*
X1321Y803D02*
X1330Y803D01*
X640Y802D02*
X649Y802D01*
X1322Y802D02*
X1331Y802D01*
X640Y801D02*
X648Y801D01*
X1323Y801D02*
X1332Y801D01*
X639Y800D02*
X647Y800D01*
X1324Y800D02*
X1332Y800D01*
X638Y799D02*
X647Y799D01*
X1324Y799D02*
X1333Y799D01*
X637Y798D02*
X646Y798D01*
X1325Y798D02*
X1334Y798D01*
X637Y797D02*
X645Y797D01*
X1326Y797D02*
X1334Y797D01*
X636Y796D02*
X644Y796D01*
X1326Y796D02*
X1335Y796D01*
X635Y795D02*
X644Y795D01*
X1327Y795D02*
X1336Y795D01*
X635Y794D02*
X643Y794D01*
X1328Y794D02*
X1337Y794D01*
X634Y793D02*
X642Y793D01*
X1329Y793D02*
X1337Y793D01*
X633Y792D02*
X641Y792D01*
X1329Y792D02*
X1338Y792D01*
X633Y791D02*
X641Y791D01*
X1330Y791D02*
X1339Y791D01*
X632Y790D02*
X640Y790D01*
X1331Y790D02*
X1339Y790D01*
X631Y789D02*
X639Y789D01*
X1331Y789D02*
X1340Y789D01*
X631Y788D02*
X639Y788D01*
X1332Y788D02*
X1341Y788D01*
X630Y787D02*
X638Y787D01*
X1333Y787D02*
X1341Y787D01*
X629Y786D02*
X637Y786D01*
X1334Y786D02*
X1342Y786D01*
X629Y785D02*
X637Y785D01*
X1334Y785D02*
X1343Y785D01*
X628Y784D02*
X636Y784D01*
X1335Y784D02*
X1343Y784D01*
X627Y783D02*
X635Y783D01*
X1335Y783D02*
X1344Y783D01*
X627Y782D02*
X635Y782D01*
X1336Y782D02*
X1345Y782D01*
X626Y781D02*
X634Y781D01*
X1337Y781D02*
X1345Y781D01*
X625Y780D02*
X633Y780D01*
X1337Y780D02*
X1346Y780D01*
X625Y779D02*
X633Y779D01*
X1338Y779D02*
X1347Y779D01*
X624Y778D02*
X632Y778D01*
X1339Y778D02*
X1347Y778D01*
X623Y777D02*
X631Y777D01*
X1339Y777D02*
X1348Y777D01*
X623Y776D02*
X631Y776D01*
X1340Y776D02*
X1348Y776D01*
X622Y775D02*
X630Y775D01*
X1341Y775D02*
X1349Y775D01*
X622Y774D02*
X629Y774D01*
X1341Y774D02*
X1350Y774D01*
X621Y773D02*
X629Y773D01*
X1342Y773D02*
X1350Y773D01*
X620Y772D02*
X628Y772D01*
X1343Y772D02*
X1351Y772D01*
X620Y771D02*
X628Y771D01*
X1343Y771D02*
X1351Y771D01*
X619Y770D02*
X627Y770D01*
X1344Y770D02*
X1352Y770D01*
X619Y769D02*
X626Y769D01*
X1344Y769D02*
X1353Y769D01*
X618Y768D02*
X626Y768D01*
X1345Y768D02*
X1353Y768D01*
X617Y767D02*
X625Y767D01*
X1346Y767D02*
X1354Y767D01*
X617Y766D02*
X625Y766D01*
X1346Y766D02*
X1354Y766D01*
X616Y765D02*
X624Y765D01*
X1347Y765D02*
X1355Y765D01*
X616Y764D02*
X623Y764D01*
X1347Y764D02*
X1356Y764D01*
X615Y763D02*
X623Y763D01*
X1348Y763D02*
X1356Y763D01*
X614Y762D02*
X622Y762D01*
X1349Y762D02*
X1357Y762D01*
X614Y761D02*
X622Y761D01*
X1349Y761D02*
X1357Y761D01*
X613Y760D02*
X621Y760D01*
X1350Y760D02*
X1358Y760D01*
X613Y759D02*
X620Y759D01*
X1350Y759D02*
X1358Y759D01*
X612Y758D02*
X620Y758D01*
X1351Y758D02*
X1359Y758D01*
X612Y757D02*
X619Y757D01*
X1351Y757D02*
X1360Y757D01*
X611Y756D02*
X619Y756D01*
X1352Y756D02*
X1360Y756D01*
X611Y755D02*
X618Y755D01*
X1353Y755D02*
X1361Y755D01*
X610Y754D02*
X618Y754D01*
X1353Y754D02*
X1361Y754D01*
X609Y753D02*
X617Y753D01*
X1354Y753D02*
X1362Y753D01*
X609Y752D02*
X617Y752D01*
X1354Y752D02*
X1362Y752D01*
X608Y751D02*
X616Y751D01*
X1355Y751D02*
X1363Y751D01*
X608Y750D02*
X615Y750D01*
X1355Y750D02*
X1363Y750D01*
X607Y749D02*
X615Y749D01*
X1356Y749D02*
X1364Y749D01*
X607Y748D02*
X614Y748D01*
X1356Y748D02*
X1364Y748D01*
X606Y747D02*
X614Y747D01*
X1357Y747D02*
X1365Y747D01*
X606Y746D02*
X613Y746D01*
X1357Y746D02*
X1365Y746D01*
X605Y745D02*
X613Y745D01*
X1358Y745D02*
X1366Y745D01*
X605Y744D02*
X612Y744D01*
X1358Y744D02*
X1366Y744D01*
X604Y743D02*
X612Y743D01*
X1359Y743D02*
X1367Y743D01*
X604Y742D02*
X611Y742D01*
X1360Y742D02*
X1367Y742D01*
X603Y741D02*
X611Y741D01*
X1360Y741D02*
X1368Y741D01*
X603Y740D02*
X610Y740D01*
X1361Y740D02*
X1368Y740D01*
X602Y739D02*
X610Y739D01*
X1361Y739D02*
X1369Y739D01*
X602Y738D02*
X609Y738D01*
X1362Y738D02*
X1369Y738D01*
X601Y737D02*
X609Y737D01*
X1362Y737D02*
X1370Y737D01*
X601Y736D02*
X608Y736D01*
X1362Y736D02*
X1370Y736D01*
X600Y735D02*
X608Y735D01*
X1363Y735D02*
X1371Y735D01*
X600Y734D02*
X607Y734D01*
X1363Y734D02*
X1371Y734D01*
X599Y733D02*
X607Y733D01*
X1364Y733D02*
X1372Y733D01*
X599Y732D02*
X606Y732D01*
X1364Y732D02*
X1372Y732D01*
X598Y731D02*
X606Y731D01*
X1365Y731D02*
X1373Y731D01*
X598Y730D02*
X605Y730D01*
X1365Y730D02*
X1373Y730D01*
X597Y729D02*
X605Y729D01*
X1366Y729D02*
X1374Y729D01*
X597Y728D02*
X604Y728D01*
X1366Y728D02*
X1374Y728D01*
X596Y727D02*
X604Y727D01*
X1367Y727D02*
X1375Y727D01*
X596Y726D02*
X603Y726D01*
X1367Y726D02*
X1375Y726D01*
X596Y725D02*
X603Y725D01*
X1368Y725D02*
X1376Y725D01*
X595Y724D02*
X603Y724D01*
X1368Y724D02*
X1376Y724D01*
X595Y723D02*
X602Y723D01*
X1369Y723D02*
X1376Y723D01*
X594Y722D02*
X602Y722D01*
X1369Y722D02*
X1377Y722D01*
X594Y721D02*
X601Y721D01*
X1370Y721D02*
X1377Y721D01*
X593Y720D02*
X601Y720D01*
X1370Y720D02*
X1378Y720D01*
X593Y719D02*
X600Y719D01*
X1370Y719D02*
X1378Y719D01*
X593Y718D02*
X600Y718D01*
X1371Y718D02*
X1379Y718D01*
X592Y717D02*
X599Y717D01*
X1371Y717D02*
X1379Y717D01*
X592Y716D02*
X599Y716D01*
X1372Y716D02*
X1379Y716D01*
X591Y715D02*
X599Y715D01*
X1372Y715D02*
X1380Y715D01*
X591Y714D02*
X598Y714D01*
X1373Y714D02*
X1380Y714D01*
X590Y713D02*
X598Y713D01*
X1373Y713D02*
X1381Y713D01*
X590Y712D02*
X597Y712D01*
X1373Y712D02*
X1381Y712D01*
X590Y711D02*
X597Y711D01*
X1374Y711D02*
X1381Y711D01*
X589Y710D02*
X596Y710D01*
X1374Y710D02*
X1382Y710D01*
X589Y709D02*
X596Y709D01*
X1375Y709D02*
X1382Y709D01*
X588Y708D02*
X596Y708D01*
X1375Y708D02*
X1379Y708D01*
X588Y707D02*
X595Y707D01*
X1375Y707D02*
X1377Y707D01*
X588Y706D02*
X595Y706D01*
X587Y705D02*
X595Y705D01*
X587Y704D02*
X594Y704D01*
X586Y703D02*
X594Y703D01*
X586Y702D02*
X593Y702D01*
X586Y701D02*
X593Y701D01*
X585Y700D02*
X593Y700D01*
X585Y699D02*
X592Y699D01*
X585Y698D02*
X592Y698D01*
X584Y697D02*
X591Y697D01*
X584Y696D02*
X591Y696D01*
X583Y695D02*
X591Y695D01*
X583Y694D02*
X590Y694D01*
X583Y693D02*
X590Y693D01*
X582Y692D02*
X590Y692D01*
X582Y691D02*
X589Y691D01*
X582Y690D02*
X589Y690D01*
X581Y689D02*
X589Y689D01*
X581Y688D02*
X588Y688D01*
X581Y687D02*
X588Y687D01*
X580Y686D02*
X588Y686D01*
X580Y685D02*
X587Y685D01*
X580Y684D02*
X587Y684D01*
X579Y683D02*
X587Y683D01*
X579Y682D02*
X586Y682D01*
X579Y681D02*
X586Y681D01*
X578Y680D02*
X585Y680D01*
X578Y679D02*
X585Y679D01*
X578Y678D02*
X585Y678D01*
X577Y677D02*
X584Y677D01*
X577Y676D02*
X584Y676D01*
X577Y675D02*
X584Y675D01*
X576Y674D02*
X584Y674D01*
X576Y673D02*
X583Y673D01*
X576Y672D02*
X583Y672D01*
X576Y671D02*
X583Y671D01*
X575Y670D02*
X582Y670D01*
X575Y669D02*
X582Y669D01*
X575Y668D02*
X582Y668D01*
X574Y667D02*
X582Y667D01*
X574Y666D02*
X581Y666D01*
X574Y665D02*
X581Y665D01*
X574Y664D02*
X581Y664D01*
X573Y663D02*
X580Y663D01*
X573Y662D02*
X580Y662D01*
X573Y661D02*
X580Y661D01*
X572Y660D02*
X580Y660D01*
X572Y659D02*
X579Y659D01*
X572Y658D02*
X579Y658D01*
X572Y657D02*
X579Y657D01*
X571Y656D02*
X579Y656D01*
X571Y655D02*
X578Y655D01*
X571Y654D02*
X578Y654D01*
X571Y653D02*
X578Y653D01*
X570Y652D02*
X578Y652D01*
X570Y651D02*
X577Y651D01*
X570Y650D02*
X577Y650D01*
X570Y649D02*
X577Y649D01*
X569Y648D02*
X577Y648D01*
X569Y647D02*
X576Y647D01*
X569Y646D02*
X576Y646D01*
X569Y645D02*
X576Y645D01*
X568Y644D02*
X576Y644D01*
X568Y643D02*
X575Y643D01*
X568Y642D02*
X575Y642D01*
X568Y641D02*
X575Y641D01*
X568Y640D02*
X575Y640D01*
X567Y639D02*
X575Y639D01*
X567Y638D02*
X574Y638D01*
X567Y637D02*
X574Y637D01*
X567Y636D02*
X574Y636D01*
X567Y635D02*
X574Y635D01*
X566Y634D02*
X574Y634D01*
X566Y633D02*
X573Y633D01*
X566Y632D02*
X573Y632D01*
X566Y631D02*
X573Y631D01*
X566Y630D02*
X573Y630D01*
X565Y629D02*
X573Y629D01*
X565Y628D02*
X572Y628D01*
X565Y627D02*
X572Y627D01*
X565Y626D02*
X572Y626D01*
X565Y625D02*
X572Y625D01*
X564Y624D02*
X572Y624D01*
X564Y623D02*
X571Y623D01*
X564Y622D02*
X571Y622D01*
X564Y621D02*
X571Y621D01*
X564Y620D02*
X571Y620D01*
X564Y619D02*
X571Y619D01*
X564Y618D02*
X571Y618D01*
X563Y617D02*
X570Y617D01*
X563Y616D02*
X570Y616D01*
X563Y615D02*
X570Y615D01*
X563Y614D02*
X570Y614D01*
X563Y613D02*
X570Y613D01*
X563Y612D02*
X570Y612D01*
X562Y611D02*
X569Y611D01*
X562Y610D02*
X569Y610D01*
X562Y609D02*
X569Y609D01*
X562Y608D02*
X569Y608D01*
X562Y607D02*
X569Y607D01*
X562Y606D02*
X569Y606D01*
X562Y605D02*
X569Y605D01*
X561Y604D02*
X569Y604D01*
X561Y603D02*
X568Y603D01*
X561Y602D02*
X568Y602D01*
X561Y601D02*
X568Y601D01*
X561Y600D02*
X568Y600D01*
X561Y599D02*
X568Y599D01*
X561Y598D02*
X568Y598D01*
X561Y597D02*
X568Y597D01*
X561Y596D02*
X568Y596D01*
X560Y595D02*
X568Y595D01*
X560Y594D02*
X567Y594D01*
X560Y593D02*
X567Y593D01*
X560Y592D02*
X567Y592D01*
X560Y591D02*
X567Y591D01*
X560Y590D02*
X567Y590D01*
X560Y589D02*
X567Y589D01*
X560Y588D02*
X567Y588D01*
X560Y587D02*
X567Y587D01*
X560Y586D02*
X567Y586D01*
X559Y585D02*
X566Y585D01*
X559Y584D02*
X566Y584D01*
X559Y583D02*
X566Y583D01*
X559Y582D02*
X566Y582D01*
X559Y581D02*
X566Y581D01*
X559Y580D02*
X566Y580D01*
X559Y579D02*
X566Y579D01*
X559Y578D02*
X566Y578D01*
X559Y577D02*
X566Y577D01*
X559Y576D02*
X566Y576D01*
X559Y575D02*
X566Y575D01*
X559Y574D02*
X566Y574D01*
X1324Y574D02*
X1328Y574D01*
X559Y573D02*
X566Y573D01*
X1323Y573D02*
X1330Y573D01*
X559Y572D02*
X566Y572D01*
X1322Y572D02*
X1330Y572D01*
X559Y571D02*
X566Y571D01*
X1322Y571D02*
X1331Y571D01*
X559Y570D02*
X566Y570D01*
X1322Y570D02*
X1331Y570D01*
X558Y569D02*
X565Y569D01*
X1322Y569D02*
X1331Y569D01*
X558Y568D02*
X565Y568D01*
X1322Y568D02*
X1331Y568D01*
X558Y567D02*
X565Y567D01*
X1322Y567D02*
X1331Y567D01*
X558Y566D02*
X565Y566D01*
X1322Y566D02*
X1331Y566D01*
X558Y565D02*
X565Y565D01*
X1322Y565D02*
X1331Y565D01*
X558Y564D02*
X565Y564D01*
X1322Y564D02*
X1331Y564D01*
X558Y563D02*
X565Y563D01*
X1322Y563D02*
X1331Y563D01*
X558Y562D02*
X565Y562D01*
X1322Y562D02*
X1331Y562D01*
X558Y561D02*
X565Y561D01*
X1322Y561D02*
X1331Y561D01*
X558Y560D02*
X565Y560D01*
X1322Y560D02*
X1331Y560D01*
X558Y559D02*
X565Y559D01*
X1322Y559D02*
X1331Y559D01*
X558Y558D02*
X565Y558D01*
X1322Y558D02*
X1331Y558D01*
X558Y557D02*
X565Y557D01*
X1322Y557D02*
X1331Y557D01*
X558Y556D02*
X565Y556D01*
X1322Y556D02*
X1331Y556D01*
X558Y555D02*
X565Y555D01*
X706Y555D02*
X746Y555D01*
X1306Y555D02*
X1346Y555D01*
X558Y554D02*
X565Y554D01*
X704Y554D02*
X749Y554D01*
X1304Y554D02*
X1349Y554D01*
X558Y553D02*
X565Y553D01*
X703Y553D02*
X750Y553D01*
X1303Y553D02*
X1350Y553D01*
X558Y552D02*
X565Y552D01*
X702Y552D02*
X750Y552D01*
X1302Y552D02*
X1350Y552D01*
X558Y551D02*
X565Y551D01*
X702Y551D02*
X751Y551D01*
X1302Y551D02*
X1351Y551D01*
X558Y550D02*
X565Y550D01*
X702Y550D02*
X751Y550D01*
X1302Y550D02*
X1351Y550D01*
X558Y549D02*
X565Y549D01*
X702Y549D02*
X751Y549D01*
X1302Y549D02*
X1351Y549D01*
X558Y548D02*
X565Y548D01*
X702Y548D02*
X751Y548D01*
X1302Y548D02*
X1350Y548D01*
X558Y547D02*
X565Y547D01*
X702Y547D02*
X751Y547D01*
X1303Y547D02*
X1350Y547D01*
X558Y546D02*
X565Y546D01*
X702Y546D02*
X751Y546D01*
X1304Y546D02*
X1348Y546D01*
X558Y545D02*
X565Y545D01*
X702Y545D02*
X751Y545D01*
X1321Y545D02*
X1331Y545D01*
X558Y544D02*
X565Y544D01*
X702Y544D02*
X750Y544D01*
X1322Y544D02*
X1331Y544D01*
X558Y543D02*
X565Y543D01*
X703Y543D02*
X750Y543D01*
X1322Y543D02*
X1331Y543D01*
X558Y542D02*
X565Y542D01*
X704Y542D02*
X749Y542D01*
X1322Y542D02*
X1331Y542D01*
X558Y541D02*
X565Y541D01*
X706Y541D02*
X747Y541D01*
X1322Y541D02*
X1331Y541D01*
X558Y540D02*
X565Y540D01*
X1322Y540D02*
X1331Y540D01*
X558Y539D02*
X565Y539D01*
X1322Y539D02*
X1331Y539D01*
X558Y538D02*
X565Y538D01*
X1322Y538D02*
X1331Y538D01*
X558Y537D02*
X565Y537D01*
X1322Y537D02*
X1331Y537D01*
X558Y536D02*
X565Y536D01*
X1322Y536D02*
X1331Y536D01*
X558Y535D02*
X565Y535D01*
X1322Y535D02*
X1331Y535D01*
X558Y534D02*
X565Y534D01*
X1322Y534D02*
X1331Y534D01*
X558Y533D02*
X565Y533D01*
X1322Y533D02*
X1331Y533D01*
X558Y532D02*
X565Y532D01*
X1322Y532D02*
X1331Y532D01*
X558Y531D02*
X565Y531D01*
X1322Y531D02*
X1331Y531D01*
X559Y530D02*
X566Y530D01*
X1322Y530D02*
X1331Y530D01*
X559Y529D02*
X566Y529D01*
X1322Y529D02*
X1331Y529D01*
X559Y528D02*
X566Y528D01*
X1322Y528D02*
X1330Y528D01*
X559Y527D02*
X566Y527D01*
X1323Y527D02*
X1330Y527D01*
X559Y526D02*
X566Y526D01*
X1324Y526D02*
X1328Y526D01*
X559Y525D02*
X566Y525D01*
X559Y524D02*
X566Y524D01*
X559Y523D02*
X566Y523D01*
X559Y522D02*
X566Y522D01*
X559Y521D02*
X566Y521D01*
X559Y520D02*
X566Y520D01*
X559Y519D02*
X566Y519D01*
X559Y518D02*
X566Y518D01*
X559Y517D02*
X566Y517D01*
X559Y516D02*
X566Y516D01*
X560Y515D02*
X567Y515D01*
X560Y514D02*
X567Y514D01*
X560Y513D02*
X567Y513D01*
X560Y512D02*
X567Y512D01*
X560Y511D02*
X567Y511D01*
X560Y510D02*
X567Y510D01*
X560Y509D02*
X567Y509D01*
X560Y508D02*
X567Y508D01*
X560Y507D02*
X567Y507D01*
X560Y506D02*
X567Y506D01*
X560Y505D02*
X568Y505D01*
X561Y504D02*
X568Y504D01*
X561Y503D02*
X568Y503D01*
X561Y502D02*
X568Y502D01*
X561Y501D02*
X568Y501D01*
X561Y500D02*
X568Y500D01*
X561Y499D02*
X568Y499D01*
X561Y498D02*
X568Y498D01*
X561Y497D02*
X568Y497D01*
X562Y496D02*
X569Y496D01*
X562Y495D02*
X569Y495D01*
X562Y494D02*
X569Y494D01*
X562Y493D02*
X569Y493D01*
X562Y492D02*
X569Y492D01*
X562Y491D02*
X569Y491D01*
X562Y490D02*
X569Y490D01*
X563Y489D02*
X570Y489D01*
X563Y488D02*
X570Y488D01*
X563Y487D02*
X570Y487D01*
X563Y486D02*
X570Y486D01*
X563Y485D02*
X570Y485D01*
X563Y484D02*
X570Y484D01*
X563Y483D02*
X570Y483D01*
X564Y482D02*
X571Y482D01*
X564Y481D02*
X571Y481D01*
X564Y480D02*
X571Y480D01*
X564Y479D02*
X571Y479D01*
X564Y478D02*
X571Y478D01*
X564Y477D02*
X571Y477D01*
X565Y476D02*
X572Y476D01*
X565Y475D02*
X572Y475D01*
X565Y474D02*
X572Y474D01*
X565Y473D02*
X572Y473D01*
X565Y472D02*
X572Y472D01*
X566Y471D02*
X573Y471D01*
X566Y470D02*
X573Y470D01*
X566Y469D02*
X573Y469D01*
X566Y468D02*
X573Y468D01*
X566Y467D02*
X573Y467D01*
X567Y466D02*
X574Y466D01*
X567Y465D02*
X574Y465D01*
X567Y464D02*
X574Y464D01*
X567Y463D02*
X574Y463D01*
X567Y462D02*
X574Y462D01*
X568Y461D02*
X575Y461D01*
X568Y460D02*
X575Y460D01*
X568Y459D02*
X575Y459D01*
X568Y458D02*
X575Y458D01*
X568Y457D02*
X575Y457D01*
X569Y456D02*
X576Y456D01*
X569Y455D02*
X576Y455D01*
X569Y454D02*
X576Y454D01*
X569Y453D02*
X576Y453D01*
X570Y452D02*
X577Y452D01*
X570Y451D02*
X577Y451D01*
X570Y450D02*
X577Y450D01*
X570Y449D02*
X577Y449D01*
X571Y448D02*
X578Y448D01*
X571Y447D02*
X578Y447D01*
X571Y446D02*
X578Y446D01*
X571Y445D02*
X578Y445D01*
X572Y444D02*
X579Y444D01*
X572Y443D02*
X579Y443D01*
X572Y442D02*
X579Y442D01*
X572Y441D02*
X579Y441D01*
X573Y440D02*
X580Y440D01*
X573Y439D02*
X580Y439D01*
X573Y438D02*
X580Y438D01*
X573Y437D02*
X581Y437D01*
X574Y436D02*
X581Y436D01*
X574Y435D02*
X581Y435D01*
X574Y434D02*
X581Y434D01*
X575Y433D02*
X582Y433D01*
X575Y432D02*
X582Y432D01*
X575Y431D02*
X582Y431D01*
X575Y430D02*
X583Y430D01*
X576Y429D02*
X583Y429D01*
X576Y428D02*
X583Y428D01*
X576Y427D02*
X583Y427D01*
X577Y426D02*
X584Y426D01*
X577Y425D02*
X584Y425D01*
X577Y424D02*
X584Y424D01*
X577Y423D02*
X585Y423D01*
X578Y422D02*
X585Y422D01*
X578Y421D02*
X585Y421D01*
X578Y420D02*
X586Y420D01*
X579Y419D02*
X586Y419D01*
X579Y418D02*
X586Y418D01*
X579Y417D02*
X587Y417D01*
X580Y416D02*
X587Y416D01*
X580Y415D02*
X587Y415D01*
X580Y414D02*
X588Y414D01*
X581Y413D02*
X588Y413D01*
X581Y412D02*
X588Y412D01*
X582Y411D02*
X589Y411D01*
X582Y410D02*
X589Y410D01*
X582Y409D02*
X589Y409D01*
X583Y408D02*
X590Y408D01*
X583Y407D02*
X590Y407D01*
X583Y406D02*
X590Y406D01*
X584Y405D02*
X591Y405D01*
X584Y404D02*
X591Y404D01*
X584Y403D02*
X592Y403D01*
X585Y402D02*
X592Y402D01*
X585Y401D02*
X592Y401D01*
X585Y400D02*
X593Y400D01*
X586Y399D02*
X593Y399D01*
X586Y398D02*
X594Y398D01*
X587Y397D02*
X594Y397D01*
X587Y396D02*
X594Y396D01*
X587Y395D02*
X595Y395D01*
X588Y394D02*
X595Y394D01*
X1376Y394D02*
X1376Y394D01*
X588Y393D02*
X595Y393D01*
X1375Y393D02*
X1378Y393D01*
X589Y392D02*
X596Y392D01*
X1375Y392D02*
X1381Y392D01*
X589Y391D02*
X596Y391D01*
X1374Y391D02*
X1382Y391D01*
X589Y390D02*
X597Y390D01*
X1374Y390D02*
X1382Y390D01*
X590Y389D02*
X597Y389D01*
X1374Y389D02*
X1381Y389D01*
X590Y388D02*
X597Y388D01*
X1373Y388D02*
X1381Y388D01*
X591Y387D02*
X598Y387D01*
X1373Y387D02*
X1380Y387D01*
X591Y386D02*
X598Y386D01*
X1372Y386D02*
X1380Y386D01*
X591Y385D02*
X599Y385D01*
X1372Y385D02*
X1380Y385D01*
X592Y384D02*
X599Y384D01*
X1371Y384D02*
X1379Y384D01*
X592Y383D02*
X600Y383D01*
X1371Y383D02*
X1379Y383D01*
X593Y382D02*
X600Y382D01*
X1371Y382D02*
X1378Y382D01*
X593Y381D02*
X601Y381D01*
X1370Y381D02*
X1378Y381D01*
X594Y380D02*
X601Y380D01*
X1370Y380D02*
X1377Y380D01*
X594Y379D02*
X601Y379D01*
X1369Y379D02*
X1377Y379D01*
X594Y378D02*
X602Y378D01*
X1369Y378D02*
X1377Y378D01*
X595Y377D02*
X602Y377D01*
X1369Y377D02*
X1376Y377D01*
X595Y376D02*
X603Y376D01*
X1368Y376D02*
X1376Y376D01*
X596Y375D02*
X603Y375D01*
X1368Y375D02*
X1375Y375D01*
X596Y374D02*
X604Y374D01*
X1367Y374D02*
X1375Y374D01*
X597Y373D02*
X604Y373D01*
X1367Y373D02*
X1374Y373D01*
X597Y372D02*
X605Y372D01*
X1366Y372D02*
X1374Y372D01*
X598Y371D02*
X605Y371D01*
X1366Y371D02*
X1373Y371D01*
X598Y370D02*
X606Y370D01*
X1365Y370D02*
X1373Y370D01*
X598Y369D02*
X606Y369D01*
X1365Y369D02*
X1373Y369D01*
X599Y368D02*
X607Y368D01*
X1364Y368D02*
X1372Y368D01*
X599Y367D02*
X607Y367D01*
X1364Y367D02*
X1372Y367D01*
X600Y366D02*
X607Y366D01*
X1363Y366D02*
X1371Y366D01*
X600Y365D02*
X608Y365D01*
X1363Y365D02*
X1371Y365D01*
X601Y364D02*
X608Y364D01*
X1362Y364D02*
X1370Y364D01*
X601Y363D02*
X609Y363D01*
X1362Y363D02*
X1370Y363D01*
X602Y362D02*
X609Y362D01*
X1361Y362D02*
X1369Y362D01*
X602Y361D02*
X610Y361D01*
X1361Y361D02*
X1369Y361D01*
X603Y360D02*
X610Y360D01*
X1360Y360D02*
X1368Y360D01*
X603Y359D02*
X611Y359D01*
X1360Y359D02*
X1368Y359D01*
X604Y358D02*
X611Y358D01*
X1359Y358D02*
X1367Y358D01*
X604Y357D02*
X612Y357D01*
X1359Y357D02*
X1367Y357D01*
X605Y356D02*
X612Y356D01*
X1358Y356D02*
X1366Y356D01*
X605Y355D02*
X613Y355D01*
X1358Y355D02*
X1366Y355D01*
X606Y354D02*
X614Y354D01*
X1357Y354D02*
X1365Y354D01*
X606Y353D02*
X614Y353D01*
X1357Y353D02*
X1365Y353D01*
X607Y352D02*
X615Y352D01*
X1356Y352D02*
X1364Y352D01*
X607Y351D02*
X615Y351D01*
X1356Y351D02*
X1364Y351D01*
X608Y350D02*
X616Y350D01*
X1355Y350D02*
X1363Y350D01*
X609Y349D02*
X616Y349D01*
X1354Y349D02*
X1363Y349D01*
X609Y348D02*
X617Y348D01*
X1354Y348D02*
X1362Y348D01*
X610Y347D02*
X617Y347D01*
X1353Y347D02*
X1361Y347D01*
X610Y346D02*
X618Y346D01*
X1353Y346D02*
X1361Y346D01*
X611Y345D02*
X618Y345D01*
X1352Y345D02*
X1360Y345D01*
X611Y344D02*
X619Y344D01*
X1352Y344D02*
X1360Y344D01*
X612Y343D02*
X620Y343D01*
X1351Y343D02*
X1359Y343D01*
X612Y342D02*
X620Y342D01*
X1351Y342D02*
X1359Y342D01*
X613Y341D02*
X621Y341D01*
X1350Y341D02*
X1358Y341D01*
X614Y340D02*
X621Y340D01*
X1349Y340D02*
X1358Y340D01*
X614Y339D02*
X622Y339D01*
X1349Y339D02*
X1357Y339D01*
X615Y338D02*
X622Y338D01*
X1348Y338D02*
X1357Y338D01*
X615Y337D02*
X623Y337D01*
X1348Y337D02*
X1356Y337D01*
X616Y336D02*
X624Y336D01*
X1347Y336D02*
X1355Y336D01*
X616Y335D02*
X624Y335D01*
X1347Y335D02*
X1355Y335D01*
X617Y334D02*
X625Y334D01*
X1346Y334D02*
X1354Y334D01*
X618Y333D02*
X625Y333D01*
X1345Y333D02*
X1354Y333D01*
X618Y332D02*
X626Y332D01*
X1345Y332D02*
X1353Y332D01*
X619Y331D02*
X627Y331D01*
X1344Y331D02*
X1352Y331D01*
X619Y330D02*
X627Y330D01*
X1344Y330D02*
X1352Y330D01*
X620Y329D02*
X628Y329D01*
X1343Y329D02*
X1351Y329D01*
X621Y328D02*
X628Y328D01*
X1342Y328D02*
X1351Y328D01*
X621Y327D02*
X629Y327D01*
X1342Y327D02*
X1350Y327D01*
X622Y326D02*
X630Y326D01*
X1341Y326D02*
X1349Y326D01*
X622Y325D02*
X630Y325D01*
X1340Y325D02*
X1349Y325D01*
X623Y324D02*
X631Y324D01*
X1340Y324D02*
X1348Y324D01*
X624Y323D02*
X632Y323D01*
X1339Y323D02*
X1348Y323D01*
X624Y322D02*
X632Y322D01*
X1338Y322D02*
X1347Y322D01*
X625Y321D02*
X633Y321D01*
X1338Y321D02*
X1346Y321D01*
X626Y320D02*
X634Y320D01*
X1337Y320D02*
X1346Y320D01*
X626Y319D02*
X634Y319D01*
X1336Y319D02*
X1345Y319D01*
X627Y318D02*
X635Y318D01*
X1336Y318D02*
X1344Y318D01*
X628Y317D02*
X636Y317D01*
X1335Y317D02*
X1344Y317D01*
X628Y316D02*
X636Y316D01*
X1335Y316D02*
X1343Y316D01*
X629Y315D02*
X637Y315D01*
X1334Y315D02*
X1342Y315D01*
X630Y314D02*
X638Y314D01*
X1333Y314D02*
X1342Y314D01*
X630Y313D02*
X638Y313D01*
X1333Y313D02*
X1341Y313D01*
X631Y312D02*
X639Y312D01*
X1332Y312D02*
X1340Y312D01*
X632Y311D02*
X640Y311D01*
X1331Y311D02*
X1340Y311D01*
X632Y310D02*
X640Y310D01*
X1330Y310D02*
X1339Y310D01*
X633Y309D02*
X641Y309D01*
X1330Y309D02*
X1338Y309D01*
X634Y308D02*
X642Y308D01*
X1329Y308D02*
X1338Y308D01*
X634Y307D02*
X642Y307D01*
X1328Y307D02*
X1337Y307D01*
X635Y306D02*
X643Y306D01*
X1328Y306D02*
X1336Y306D01*
X636Y305D02*
X644Y305D01*
X1327Y305D02*
X1336Y305D01*
X636Y304D02*
X645Y304D01*
X1326Y304D02*
X1335Y304D01*
X637Y303D02*
X645Y303D01*
X1325Y303D02*
X1334Y303D01*
X638Y302D02*
X646Y302D01*
X1325Y302D02*
X1333Y302D01*
X639Y301D02*
X647Y301D01*
X1324Y301D02*
X1333Y301D01*
X639Y300D02*
X648Y300D01*
X1323Y300D02*
X1332Y300D01*
X640Y299D02*
X648Y299D01*
X1323Y299D02*
X1331Y299D01*
X641Y298D02*
X649Y298D01*
X1322Y298D02*
X1331Y298D01*
X641Y297D02*
X650Y297D01*
X1321Y297D02*
X1330Y297D01*
X642Y296D02*
X650Y296D01*
X1320Y296D02*
X1329Y296D01*
X643Y295D02*
X651Y295D01*
X1320Y295D02*
X1328Y295D01*
X644Y294D02*
X652Y294D01*
X1319Y294D02*
X1328Y294D01*
X644Y293D02*
X653Y293D01*
X1318Y293D02*
X1327Y293D01*
X645Y292D02*
X654Y292D01*
X1317Y292D02*
X1326Y292D01*
X646Y291D02*
X654Y291D01*
X1316Y291D02*
X1325Y291D01*
X647Y290D02*
X655Y290D01*
X1316Y290D02*
X1325Y290D01*
X647Y289D02*
X656Y289D01*
X1315Y289D02*
X1324Y289D01*
X648Y288D02*
X657Y288D01*
X1314Y288D02*
X1323Y288D01*
X649Y287D02*
X658Y287D01*
X1313Y287D02*
X1322Y287D01*
X650Y286D02*
X658Y286D01*
X1312Y286D02*
X1321Y286D01*
X651Y285D02*
X659Y285D01*
X1312Y285D02*
X1321Y285D01*
X651Y284D02*
X660Y284D01*
X1311Y284D02*
X1320Y284D01*
X652Y283D02*
X661Y283D01*
X1310Y283D02*
X1319Y283D01*
X653Y282D02*
X662Y282D01*
X1309Y282D02*
X1318Y282D01*
X654Y281D02*
X662Y281D01*
X1308Y281D02*
X1317Y281D01*
X655Y280D02*
X663Y280D01*
X1307Y280D02*
X1317Y280D01*
X655Y279D02*
X664Y279D01*
X1307Y279D02*
X1316Y279D01*
X656Y278D02*
X665Y278D01*
X1306Y278D02*
X1315Y278D01*
X657Y277D02*
X666Y277D01*
X1305Y277D02*
X1314Y277D01*
X658Y276D02*
X667Y276D01*
X1304Y276D02*
X1313Y276D01*
X659Y275D02*
X668Y275D01*
X1303Y275D02*
X1312Y275D01*
X660Y274D02*
X669Y274D01*
X1302Y274D02*
X1312Y274D01*
X660Y273D02*
X669Y273D01*
X1302Y273D02*
X1311Y273D01*
X661Y272D02*
X670Y272D01*
X1301Y272D02*
X1310Y272D01*
X662Y271D02*
X671Y271D01*
X1300Y271D02*
X1309Y271D01*
X663Y270D02*
X672Y270D01*
X1299Y270D02*
X1308Y270D01*
X664Y269D02*
X673Y269D01*
X1298Y269D02*
X1307Y269D01*
X665Y268D02*
X674Y268D01*
X1297Y268D02*
X1306Y268D01*
X666Y267D02*
X675Y267D01*
X1296Y267D02*
X1306Y267D01*
X666Y266D02*
X676Y266D01*
X1295Y266D02*
X1305Y266D01*
X667Y265D02*
X677Y265D01*
X1294Y265D02*
X1304Y265D01*
X668Y264D02*
X678Y264D01*
X1293Y264D02*
X1303Y264D01*
X669Y263D02*
X678Y263D01*
X1292Y263D02*
X1302Y263D01*
X670Y262D02*
X679Y262D01*
X1291Y262D02*
X1301Y262D01*
X671Y261D02*
X680Y261D01*
X1291Y261D02*
X1300Y261D01*
X672Y260D02*
X681Y260D01*
X1290Y260D02*
X1299Y260D01*
X673Y259D02*
X682Y259D01*
X1289Y259D02*
X1298Y259D01*
X674Y258D02*
X683Y258D01*
X1288Y258D02*
X1297Y258D01*
X675Y257D02*
X684Y257D01*
X1287Y257D02*
X1296Y257D01*
X676Y256D02*
X685Y256D01*
X1286Y256D02*
X1295Y256D01*
X677Y255D02*
X686Y255D01*
X1285Y255D02*
X1295Y255D01*
X678Y254D02*
X687Y254D01*
X1284Y254D02*
X1294Y254D01*
X679Y253D02*
X688Y253D01*
X1283Y253D02*
X1293Y253D01*
X679Y252D02*
X689Y252D01*
X1282Y252D02*
X1292Y252D01*
X680Y251D02*
X690Y251D01*
X1281Y251D02*
X1291Y251D01*
X681Y250D02*
X691Y250D01*
X1280Y250D02*
X1290Y250D01*
X682Y249D02*
X692Y249D01*
X1279Y249D02*
X1289Y249D01*
X683Y248D02*
X693Y248D01*
X1278Y248D02*
X1288Y248D01*
X684Y247D02*
X694Y247D01*
X1277Y247D02*
X1287Y247D01*
X685Y246D02*
X695Y246D01*
X1276Y246D02*
X1286Y246D01*
X686Y245D02*
X696Y245D01*
X1275Y245D02*
X1285Y245D01*
X688Y244D02*
X697Y244D01*
X1274Y244D02*
X1284Y244D01*
X689Y243D02*
X698Y243D01*
X1272Y243D02*
X1283Y243D01*
X690Y242D02*
X700Y242D01*
X1271Y242D02*
X1282Y242D01*
X691Y241D02*
X701Y241D01*
X1270Y241D02*
X1280Y241D01*
X692Y240D02*
X702Y240D01*
X1269Y240D02*
X1279Y240D01*
X693Y239D02*
X703Y239D01*
X1268Y239D02*
X1278Y239D01*
X694Y238D02*
X704Y238D01*
X1267Y238D02*
X1277Y238D01*
X695Y237D02*
X705Y237D01*
X1266Y237D02*
X1276Y237D01*
X696Y236D02*
X706Y236D01*
X1265Y236D02*
X1275Y236D01*
X697Y235D02*
X707Y235D01*
X1264Y235D02*
X1274Y235D01*
X698Y234D02*
X708Y234D01*
X1262Y234D02*
X1273Y234D01*
X699Y233D02*
X710Y233D01*
X1261Y233D02*
X1272Y233D01*
X700Y232D02*
X711Y232D01*
X1260Y232D02*
X1271Y232D01*
X701Y231D02*
X712Y231D01*
X1259Y231D02*
X1270Y231D01*
X703Y230D02*
X713Y230D01*
X1258Y230D02*
X1268Y230D01*
X704Y229D02*
X714Y229D01*
X1257Y229D02*
X1267Y229D01*
X705Y228D02*
X716Y228D01*
X1255Y228D02*
X1266Y228D01*
X706Y227D02*
X717Y227D01*
X1254Y227D02*
X1265Y227D01*
X707Y226D02*
X718Y226D01*
X1253Y226D02*
X1264Y226D01*
X708Y225D02*
X719Y225D01*
X1252Y225D02*
X1263Y225D01*
X709Y224D02*
X720Y224D01*
X1251Y224D02*
X1262Y224D01*
X711Y223D02*
X722Y223D01*
X1249Y223D02*
X1260Y223D01*
X712Y222D02*
X723Y222D01*
X1248Y222D02*
X1259Y222D01*
X713Y221D02*
X724Y221D01*
X1247Y221D02*
X1258Y221D01*
X714Y220D02*
X725Y220D01*
X1246Y220D02*
X1257Y220D01*
X715Y219D02*
X727Y219D01*
X1244Y219D02*
X1255Y219D01*
X717Y218D02*
X728Y218D01*
X1243Y218D02*
X1254Y218D01*
X718Y217D02*
X729Y217D01*
X1242Y217D02*
X1253Y217D01*
X719Y216D02*
X731Y216D01*
X1240Y216D02*
X1252Y216D01*
X720Y215D02*
X732Y215D01*
X1239Y215D02*
X1251Y215D01*
X722Y214D02*
X733Y214D01*
X1238Y214D02*
X1249Y214D01*
X723Y213D02*
X735Y213D01*
X1236Y213D02*
X1248Y213D01*
X724Y212D02*
X736Y212D01*
X1235Y212D02*
X1247Y212D01*
X726Y211D02*
X737Y211D01*
X1234Y211D02*
X1245Y211D01*
X727Y210D02*
X739Y210D01*
X1232Y210D02*
X1244Y210D01*
X728Y209D02*
X740Y209D01*
X1231Y209D02*
X1243Y209D01*
X729Y208D02*
X741Y208D01*
X1230Y208D02*
X1241Y208D01*
X731Y207D02*
X743Y207D01*
X1228Y207D02*
X1240Y207D01*
X732Y206D02*
X744Y206D01*
X1227Y206D02*
X1239Y206D01*
X733Y205D02*
X746Y205D01*
X1225Y205D02*
X1237Y205D01*
X735Y204D02*
X747Y204D01*
X1224Y204D02*
X1236Y204D01*
X736Y203D02*
X749Y203D01*
X1222Y203D02*
X1235Y203D01*
X738Y202D02*
X750Y202D01*
X1221Y202D02*
X1233Y202D01*
X739Y201D02*
X752Y201D01*
X1219Y201D02*
X1232Y201D01*
X740Y200D02*
X753Y200D01*
X1218Y200D02*
X1230Y200D01*
X742Y199D02*
X755Y199D01*
X1216Y199D02*
X1229Y199D01*
X743Y198D02*
X756Y198D01*
X1215Y198D02*
X1227Y198D01*
X745Y197D02*
X758Y197D01*
X1213Y197D02*
X1226Y197D01*
X746Y196D02*
X759Y196D01*
X1212Y196D02*
X1225Y196D01*
X748Y195D02*
X761Y195D01*
X1210Y195D02*
X1223Y195D01*
X749Y194D02*
X762Y194D01*
X1209Y194D02*
X1222Y194D01*
X751Y193D02*
X764Y193D01*
X1207Y193D02*
X1220Y193D01*
X752Y192D02*
X766Y192D01*
X1205Y192D02*
X1219Y192D01*
X754Y191D02*
X767Y191D01*
X1204Y191D02*
X1217Y191D01*
X755Y190D02*
X769Y190D01*
X1202Y190D02*
X1215Y190D01*
X757Y189D02*
X771Y189D01*
X1200Y189D02*
X1214Y189D01*
X759Y188D02*
X772Y188D01*
X1199Y188D02*
X1212Y188D01*
X760Y187D02*
X774Y187D01*
X1197Y187D02*
X1211Y187D01*
X762Y186D02*
X776Y186D01*
X1195Y186D02*
X1209Y186D01*
X763Y185D02*
X778Y185D01*
X1193Y185D02*
X1207Y185D01*
X765Y184D02*
X779Y184D01*
X1192Y184D02*
X1206Y184D01*
X766Y183D02*
X781Y183D01*
X1190Y183D02*
X1204Y183D01*
X768Y182D02*
X783Y182D01*
X1188Y182D02*
X1202Y182D01*
X770Y181D02*
X785Y181D01*
X1186Y181D02*
X1201Y181D01*
X772Y180D02*
X787Y180D01*
X1184Y180D02*
X1199Y180D01*
X773Y179D02*
X789Y179D01*
X1183Y179D02*
X1197Y179D01*
X775Y178D02*
X791Y178D01*
X1181Y178D02*
X1195Y178D01*
X777Y177D02*
X792Y177D01*
X1179Y177D02*
X1194Y177D01*
X779Y176D02*
X794Y176D01*
X1177Y176D02*
X1192Y176D01*
X780Y175D02*
X796Y175D01*
X1175Y175D02*
X1190Y175D01*
X782Y174D02*
X798Y174D01*
X1173Y174D02*
X1188Y174D01*
X784Y173D02*
X800Y173D01*
X1171Y173D02*
X1186Y173D01*
X786Y172D02*
X802Y172D01*
X1169Y172D02*
X1184Y172D01*
X788Y171D02*
X805Y171D01*
X1167Y171D02*
X1183Y171D01*
X790Y170D02*
X807Y170D01*
X1164Y170D02*
X1181Y170D01*
X792Y169D02*
X809Y169D01*
X1162Y169D02*
X1179Y169D01*
X794Y168D02*
X811Y168D01*
X1160Y168D02*
X1177Y168D01*
X796Y167D02*
X813Y167D01*
X1158Y167D02*
X1175Y167D01*
X798Y166D02*
X815Y166D01*
X1156Y166D02*
X1173Y166D01*
X800Y165D02*
X818Y165D01*
X1154Y165D02*
X1171Y165D01*
X802Y164D02*
X820Y164D01*
X1151Y164D02*
X1168Y164D01*
X804Y163D02*
X823Y163D01*
X1149Y163D02*
X1166Y163D01*
X806Y162D02*
X825Y162D01*
X1146Y162D02*
X1164Y162D01*
X808Y161D02*
X827Y161D01*
X1144Y161D02*
X1162Y161D01*
X811Y160D02*
X830Y160D01*
X1142Y160D02*
X1160Y160D01*
X813Y159D02*
X832Y159D01*
X1139Y159D02*
X1158Y159D01*
X815Y158D02*
X835Y158D01*
X1136Y158D02*
X1155Y158D01*
X817Y157D02*
X838Y157D01*
X1134Y157D02*
X1153Y157D01*
X820Y156D02*
X840Y156D01*
X1131Y156D02*
X1151Y156D01*
X822Y155D02*
X843Y155D01*
X1128Y155D02*
X1148Y155D01*
X825Y154D02*
X846Y154D01*
X1125Y154D02*
X1146Y154D01*
X827Y153D02*
X849Y153D01*
X1123Y153D02*
X1143Y153D01*
X830Y152D02*
X852Y152D01*
X1120Y152D02*
X1141Y152D01*
X832Y151D02*
X855Y151D01*
X1117Y151D02*
X1138Y151D01*
X835Y150D02*
X858Y150D01*
X1113Y150D02*
X1136Y150D01*
X837Y149D02*
X861Y149D01*
X1110Y149D02*
X1133Y149D01*
X840Y148D02*
X865Y148D01*
X1107Y148D02*
X1130Y148D01*
X843Y147D02*
X868Y147D01*
X1104Y147D02*
X1127Y147D01*
X846Y146D02*
X871Y146D01*
X1100Y146D02*
X1125Y146D01*
X849Y145D02*
X875Y145D01*
X1096Y145D02*
X1122Y145D01*
X852Y144D02*
X879Y144D01*
X1093Y144D02*
X1119Y144D01*
X855Y143D02*
X883Y143D01*
X1089Y143D02*
X1116Y143D01*
X858Y142D02*
X887Y142D01*
X1085Y142D02*
X1112Y142D01*
X861Y141D02*
X891Y141D01*
X1081Y141D02*
X1109Y141D01*
X864Y140D02*
X896Y140D01*
X1076Y140D02*
X1106Y140D01*
X868Y139D02*
X900Y139D01*
X1072Y139D02*
X1102Y139D01*
X871Y138D02*
X905Y138D01*
X1066Y138D02*
X1099Y138D01*
X875Y137D02*
X911Y137D01*
X1061Y137D02*
X1095Y137D01*
X879Y136D02*
X917Y136D01*
X1056Y136D02*
X1092Y136D01*
X883Y135D02*
X923Y135D01*
X1049Y135D02*
X1088Y135D01*
X887Y134D02*
X930Y134D01*
X1042Y134D02*
X1083Y134D01*
X891Y133D02*
X938Y133D01*
X1035Y133D02*
X1079Y133D01*
X896Y132D02*
X947Y132D01*
X1024Y132D02*
X1075Y132D01*
X901Y131D02*
X960Y131D01*
X1012Y131D02*
X1070Y131D01*
X905Y130D02*
X1065Y130D01*
X911Y129D02*
X1059Y129D01*
X917Y128D02*
X1054Y128D01*
X923Y127D02*
X1047Y127D01*
X930Y126D02*
X1040Y126D01*
X938Y125D02*
X1032Y125D01*
X948Y124D02*
X1022Y124D01*
X962Y123D02*
X1008Y123D01*
X450Y88D02*
X494Y88D01*
X1473Y88D02*
X1517Y88D01*
X449Y87D02*
X495Y87D01*
X1472Y87D02*
X1518Y87D01*
X448Y86D02*
X496Y86D01*
X1471Y86D02*
X1519Y86D01*
X448Y85D02*
X496Y85D01*
X1471Y85D02*
X1519Y85D01*
X448Y84D02*
X496Y84D01*
X1471Y84D02*
X1519Y84D01*
X448Y83D02*
X496Y83D01*
X1471Y83D02*
X1520Y83D01*
X448Y82D02*
X496Y82D01*
X1471Y82D02*
X1520Y82D01*
X448Y81D02*
X496Y81D01*
X1471Y81D02*
X1520Y81D01*
X448Y80D02*
X496Y80D01*
X1471Y80D02*
X1520Y80D01*
X448Y79D02*
X496Y79D01*
X1471Y79D02*
X1519Y79D01*
X448Y78D02*
X496Y78D01*
X1471Y78D02*
X1519Y78D01*
X448Y77D02*
X496Y77D01*
X1471Y77D02*
X1519Y77D01*
X449Y76D02*
X495Y76D01*
X1472Y76D02*
X1518Y76D01*
X450Y75D02*
X494Y75D01*
X1473Y75D02*
X1517Y75D01*
D02*
G04 End of Silk1*
M02*