G04 MADE WITH FRITZING*
G04 WWW.FRITZING.ORG*
G04 DOUBLE SIDED*
G04 HOLES PLATED*
G04 CONTOUR ON CENTER OF CONTOUR VECTOR*
%ASAXBY*%
%FSLAX23Y23*%
%MOIN*%
%OFA0B0*%
%SFA1.0B1.0*%
%ADD10R,1.968500X1.102360X1.952500X1.086360*%
%ADD11C,0.008000*%
%ADD12R,0.001000X0.001000*%
%LNSILK0*%
G90*
G70*
G54D11*
X4Y1098D02*
X1965Y1098D01*
X1965Y4D01*
X4Y4D01*
X4Y1098D01*
D02*
G54D12*
X470Y1046D02*
X474Y1046D01*
X1493Y1046D02*
X1497Y1046D01*
X468Y1045D02*
X475Y1045D01*
X1492Y1045D02*
X1498Y1045D01*
X468Y1044D02*
X476Y1044D01*
X1491Y1044D02*
X1499Y1044D01*
X467Y1043D02*
X476Y1043D01*
X1491Y1043D02*
X1499Y1043D01*
X467Y1042D02*
X476Y1042D01*
X1491Y1042D02*
X1500Y1042D01*
X467Y1041D02*
X476Y1041D01*
X1491Y1041D02*
X1500Y1041D01*
X467Y1040D02*
X476Y1040D01*
X1491Y1040D02*
X1500Y1040D01*
X467Y1039D02*
X476Y1039D01*
X1491Y1039D02*
X1500Y1039D01*
X467Y1038D02*
X476Y1038D01*
X1491Y1038D02*
X1500Y1038D01*
X467Y1037D02*
X476Y1037D01*
X1491Y1037D02*
X1500Y1037D01*
X467Y1036D02*
X476Y1036D01*
X1491Y1036D02*
X1500Y1036D01*
X467Y1035D02*
X476Y1035D01*
X1491Y1035D02*
X1500Y1035D01*
X467Y1034D02*
X476Y1034D01*
X1491Y1034D02*
X1500Y1034D01*
X467Y1033D02*
X476Y1033D01*
X1491Y1033D02*
X1500Y1033D01*
X467Y1032D02*
X476Y1032D01*
X1491Y1032D02*
X1500Y1032D01*
X467Y1031D02*
X476Y1031D01*
X1491Y1031D02*
X1500Y1031D01*
X467Y1030D02*
X476Y1030D01*
X1491Y1030D02*
X1500Y1030D01*
X467Y1029D02*
X476Y1029D01*
X1491Y1029D02*
X1500Y1029D01*
X467Y1028D02*
X476Y1028D01*
X1491Y1028D02*
X1500Y1028D01*
X452Y1027D02*
X492Y1027D01*
X1475Y1027D02*
X1515Y1027D01*
X449Y1026D02*
X494Y1026D01*
X1473Y1026D02*
X1518Y1026D01*
X448Y1025D02*
X495Y1025D01*
X1472Y1025D02*
X1518Y1025D01*
X448Y1024D02*
X496Y1024D01*
X1471Y1024D02*
X1519Y1024D01*
X448Y1023D02*
X496Y1023D01*
X1471Y1023D02*
X1519Y1023D01*
X447Y1022D02*
X496Y1022D01*
X1471Y1022D02*
X1519Y1022D01*
X448Y1021D02*
X496Y1021D01*
X1471Y1021D02*
X1519Y1021D01*
X448Y1020D02*
X496Y1020D01*
X1471Y1020D02*
X1519Y1020D01*
X449Y1019D02*
X495Y1019D01*
X1472Y1019D02*
X1518Y1019D01*
X450Y1018D02*
X494Y1018D01*
X1473Y1018D02*
X1517Y1018D01*
X467Y1017D02*
X477Y1017D01*
X1490Y1017D02*
X1500Y1017D01*
X467Y1016D02*
X476Y1016D01*
X1491Y1016D02*
X1500Y1016D01*
X467Y1015D02*
X476Y1015D01*
X1491Y1015D02*
X1500Y1015D01*
X467Y1014D02*
X476Y1014D01*
X1491Y1014D02*
X1500Y1014D01*
X467Y1013D02*
X476Y1013D01*
X1491Y1013D02*
X1500Y1013D01*
X467Y1012D02*
X476Y1012D01*
X1491Y1012D02*
X1500Y1012D01*
X467Y1011D02*
X476Y1011D01*
X1491Y1011D02*
X1500Y1011D01*
X467Y1010D02*
X476Y1010D01*
X1491Y1010D02*
X1500Y1010D01*
X467Y1009D02*
X476Y1009D01*
X1491Y1009D02*
X1500Y1009D01*
X467Y1008D02*
X476Y1008D01*
X1491Y1008D02*
X1500Y1008D01*
X467Y1007D02*
X476Y1007D01*
X1491Y1007D02*
X1500Y1007D01*
X467Y1006D02*
X476Y1006D01*
X1491Y1006D02*
X1500Y1006D01*
X467Y1005D02*
X476Y1005D01*
X1491Y1005D02*
X1500Y1005D01*
X467Y1004D02*
X476Y1004D01*
X1491Y1004D02*
X1500Y1004D01*
X467Y1003D02*
X476Y1003D01*
X1491Y1003D02*
X1500Y1003D01*
X467Y1002D02*
X476Y1002D01*
X1491Y1002D02*
X1500Y1002D01*
X468Y1001D02*
X476Y1001D01*
X1491Y1001D02*
X1499Y1001D01*
X468Y1000D02*
X476Y1000D01*
X1491Y1000D02*
X1499Y1000D01*
X469Y999D02*
X475Y999D01*
X1492Y999D02*
X1498Y999D01*
X470Y998D02*
X474Y998D01*
X1493Y998D02*
X1497Y998D01*
X1324Y574D02*
X1328Y574D01*
X1323Y573D02*
X1330Y573D01*
X1322Y572D02*
X1330Y572D01*
X1322Y571D02*
X1331Y571D01*
X1322Y570D02*
X1331Y570D01*
X1322Y569D02*
X1331Y569D01*
X1322Y568D02*
X1331Y568D01*
X1322Y567D02*
X1331Y567D01*
X1322Y566D02*
X1331Y566D01*
X1322Y565D02*
X1331Y565D01*
X1322Y564D02*
X1331Y564D01*
X1322Y563D02*
X1331Y563D01*
X1322Y562D02*
X1331Y562D01*
X1322Y561D02*
X1331Y561D01*
X1322Y560D02*
X1331Y560D01*
X1322Y559D02*
X1331Y559D01*
X1322Y558D02*
X1331Y558D01*
X1322Y557D02*
X1331Y557D01*
X1322Y556D02*
X1331Y556D01*
X706Y555D02*
X746Y555D01*
X1306Y555D02*
X1346Y555D01*
X704Y554D02*
X749Y554D01*
X1304Y554D02*
X1349Y554D01*
X703Y553D02*
X750Y553D01*
X1303Y553D02*
X1350Y553D01*
X702Y552D02*
X750Y552D01*
X1302Y552D02*
X1350Y552D01*
X702Y551D02*
X751Y551D01*
X1302Y551D02*
X1350Y551D01*
X702Y550D02*
X751Y550D01*
X1302Y550D02*
X1351Y550D01*
X702Y549D02*
X751Y549D01*
X1302Y549D02*
X1350Y549D01*
X702Y548D02*
X751Y548D01*
X1302Y548D02*
X1350Y548D01*
X702Y547D02*
X751Y547D01*
X1303Y547D02*
X1349Y547D01*
X702Y546D02*
X751Y546D01*
X1304Y546D02*
X1348Y546D01*
X702Y545D02*
X751Y545D01*
X1321Y545D02*
X1331Y545D01*
X702Y544D02*
X750Y544D01*
X1322Y544D02*
X1331Y544D01*
X703Y543D02*
X750Y543D01*
X1322Y543D02*
X1331Y543D01*
X704Y542D02*
X749Y542D01*
X1322Y542D02*
X1331Y542D01*
X706Y541D02*
X747Y541D01*
X1322Y541D02*
X1331Y541D01*
X1322Y540D02*
X1331Y540D01*
X1322Y539D02*
X1331Y539D01*
X1322Y538D02*
X1331Y538D01*
X1322Y537D02*
X1331Y537D01*
X1322Y536D02*
X1331Y536D01*
X1322Y535D02*
X1331Y535D01*
X1322Y534D02*
X1331Y534D01*
X1322Y533D02*
X1331Y533D01*
X1322Y532D02*
X1331Y532D01*
X1322Y531D02*
X1331Y531D01*
X1322Y530D02*
X1331Y530D01*
X1322Y529D02*
X1331Y529D01*
X1322Y528D02*
X1330Y528D01*
X1323Y527D02*
X1330Y527D01*
X1324Y526D02*
X1328Y526D01*
X450Y88D02*
X494Y88D01*
X1473Y88D02*
X1517Y88D01*
X449Y87D02*
X495Y87D01*
X1472Y87D02*
X1518Y87D01*
X448Y86D02*
X496Y86D01*
X1471Y86D02*
X1519Y86D01*
X448Y85D02*
X496Y85D01*
X1471Y85D02*
X1519Y85D01*
X448Y84D02*
X496Y84D01*
X1471Y84D02*
X1519Y84D01*
X448Y83D02*
X496Y83D01*
X1471Y83D02*
X1519Y83D01*
X448Y82D02*
X496Y82D01*
X1471Y82D02*
X1519Y82D01*
X448Y81D02*
X496Y81D01*
X1471Y81D02*
X1519Y81D01*
X448Y80D02*
X496Y80D01*
X1471Y80D02*
X1519Y80D01*
X448Y79D02*
X496Y79D01*
X1471Y79D02*
X1519Y79D01*
X448Y78D02*
X496Y78D01*
X1471Y78D02*
X1519Y78D01*
X448Y77D02*
X496Y77D01*
X1471Y77D02*
X1519Y77D01*
X449Y76D02*
X495Y76D01*
X1472Y76D02*
X1518Y76D01*
X450Y75D02*
X494Y75D01*
X1473Y75D02*
X1517Y75D01*
D02*
G04 End of Silk0*
M02*